<svg width="80" height="80" viewBox="0 0 80 80" fill="none" xmlns="http://www.w3.org/2000/svg">
<g filter="url(#filter0_f_223_1480)">
<path d="M25.4228 66.75C22.9277 69.3021 31.9508 70.5 40.0036 70.5C48.0563 70.5 57.0529 69.5625 54.5843 66.75C51.3137 64.1719 45.2643 63 40.0036 63C34.7429 63 29.1323 64.1979 25.4228 66.75Z" fill="url(#paint0_linear_223_1480)" fill-opacity="0.15"/>
</g>
<path d="M67.7992 33.613C59.7411 27.2172 51.6889 20.8702 43.6308 14.4744C40.262 11.8006 36.9142 9.0993 33.5185 6.40408C33.0604 6.04044 32.3925 5.5545 31.8535 5.12668C31.6379 4.95556 31.3711 4.96436 31.1701 5.11359L24.8514 10.0233C24.6293 10.2 24.59 10.4775 24.6946 10.737C25.0234 11.4391 25.2774 12.1259 25.4833 12.8187C26.1487 15.2876 25.9813 17.3162 25.0382 18.7733L24.6179 19.3219C23.4803 20.5804 21.5401 21.246 19.0253 21.1909C18.3629 21.1504 17.6256 21.0945 16.8495 20.9196C16.5768 20.8796 16.3219 20.986 16.2077 21.2482L13.0421 28.6607C12.9489 28.8954 13.0114 29.2098 13.2211 29.3321C13.7601 29.7599 14.3859 30.3007 14.844 30.6643C18.2398 33.3595 21.6296 36.0059 24.9983 38.6798C33.0565 45.0756 41.0666 51.4774 49.1247 57.8732C49.3673 58.0657 49.73 58.0448 49.9402 57.7705L55.4885 50.529C55.5936 50.3918 55.6178 50.1905 55.5941 49.9952C55.3493 49.1834 55.2274 48.3809 55.1864 47.6425C55.1733 46.1324 55.5316 44.8728 56.2671 43.9128C57.0086 43.0016 58.0946 42.3196 59.5578 41.9371C60.2563 41.8739 61.0297 41.8261 61.8839 41.8425C62.0548 41.8458 62.2407 41.7728 62.3668 41.6082L67.8731 34.4215C68.0623 34.1747 68.0418 33.8055 67.7992 33.613ZM34.1885 12.3174C34.3777 12.0706 34.7345 12.0008 35.004 12.2148L36.6479 13.5196C36.6749 13.541 36.7288 13.5838 36.7347 13.6326C36.8334 13.8432 36.8361 14.0659 36.689 14.2579L35.449 15.8763C35.3229 16.0409 35.089 16.1199 34.9122 16.0678C34.8373 16.0525 34.8103 16.0311 34.7564 15.9883L33.0855 14.6621C32.843 14.4696 32.7745 14.1064 32.9847 13.8321L34.1616 12.296L34.1885 12.3174ZM23.1754 31.8955C23.0283 32.0875 22.7944 32.1665 22.5906 32.093C22.5637 32.0716 22.4888 32.0563 22.4618 32.0349L20.7909 30.7086C20.5484 30.5161 20.4799 30.153 20.69 29.8787L21.888 28.3152C22.0771 28.0683 22.4339 27.9986 22.7034 28.2125L24.3474 29.5173C24.4013 29.5601 24.4552 29.6029 24.4611 29.6517C24.5328 29.841 24.5355 30.0637 24.4094 30.2283L23.1484 31.8741L23.1754 31.8955ZM27.3005 26.568C27.1955 26.7051 27.0575 26.7721 26.9136 26.7902C26.8451 26.7963 26.7762 26.7883 26.7108 26.7667C26.6454 26.7452 26.585 26.7104 26.5331 26.6646L24.8891 25.3598C24.8352 25.317 24.7813 25.2742 24.7484 25.204C24.6994 25.1076 24.6801 24.9984 24.6931 24.8906C24.706 24.7828 24.7507 24.6816 24.8211 24.6L26.0401 23.0091C26.2292 22.7622 26.586 22.6925 26.8555 22.9064L28.4186 24.1471C28.6612 24.3396 28.7297 24.7027 28.5195 24.977L27.3005 26.568ZM31.3988 21.2191C31.2096 21.466 30.8528 21.5357 30.5833 21.3218L28.9933 20.0597C28.7507 19.8672 28.6822 19.5041 28.8924 19.2298L30.0903 17.6663C30.2374 17.4743 30.4503 17.4227 30.6481 17.4473C30.75 17.4841 30.8249 17.4994 30.8788 17.5422L32.4958 18.8257C32.6036 18.9112 32.6694 19.0516 32.7082 19.1707C32.726 19.3171 32.6958 19.4696 32.5908 19.6068L31.3718 21.1977L31.3988 21.2191ZM60.4127 12.7084C60.4403 12.4282 60.4132 12.1453 60.3329 11.8758C60.2527 11.6063 60.1208 11.3557 59.945 11.1383C59.7693 10.9208 59.553 10.7409 59.3086 10.6089C59.0643 10.4769 58.7967 10.3954 58.5212 10.369L43.2664 8.67127C42.8228 8.62799 42.3313 8.59074 41.588 8.48605L59.6447 22.8178C59.9278 19.3372 60.1808 16.0091 60.4127 12.7084Z" fill="url(#paint1_linear_223_1480)"/>
<path d="M67.7992 33.613C59.7411 27.2172 51.6889 20.8702 43.6308 14.4744C40.262 11.8006 36.9142 9.0993 33.5185 6.40408C33.0604 6.04044 32.3925 5.5545 31.8535 5.12668C31.6379 4.95556 31.3711 4.96436 31.1701 5.11359L24.8514 10.0233C24.6293 10.2 24.59 10.4775 24.6946 10.737C25.0234 11.4391 25.2774 12.1259 25.4833 12.8187C26.1487 15.2876 25.9813 17.3162 25.0382 18.7733L24.6179 19.3219C23.4803 20.5804 21.5401 21.246 19.0253 21.1909C18.3629 21.1504 17.6256 21.0945 16.8495 20.9196C16.5768 20.8796 16.3219 20.986 16.2077 21.2482L13.0421 28.6607C12.9489 28.8954 13.0114 29.2098 13.2211 29.3321C13.7601 29.7599 14.3859 30.3007 14.844 30.6643C18.2398 33.3595 21.6296 36.0059 24.9983 38.6798C33.0565 45.0756 41.0666 51.4774 49.1247 57.8732C49.3673 58.0657 49.73 58.0448 49.9402 57.7705L55.4885 50.529C55.5936 50.3918 55.6178 50.1905 55.5941 49.9952C55.3493 49.1834 55.2274 48.3809 55.1864 47.6425C55.1733 46.1324 55.5316 44.8728 56.2671 43.9128C57.0086 43.0016 58.0946 42.3196 59.5578 41.9371C60.2563 41.8739 61.0297 41.8261 61.8839 41.8425C62.0548 41.8458 62.2407 41.7728 62.3668 41.6082L67.8731 34.4215C68.0623 34.1747 68.0418 33.8055 67.7992 33.613ZM34.1885 12.3174C34.3777 12.0706 34.7345 12.0008 35.004 12.2148L36.6479 13.5196C36.6749 13.541 36.7288 13.5838 36.7347 13.6326C36.8334 13.8432 36.8361 14.0659 36.689 14.2579L35.449 15.8763C35.3229 16.0409 35.089 16.1199 34.9122 16.0678C34.8373 16.0525 34.8103 16.0311 34.7564 15.9883L33.0855 14.6621C32.843 14.4696 32.7745 14.1064 32.9847 13.8321L34.1616 12.296L34.1885 12.3174ZM23.1754 31.8955C23.0283 32.0875 22.7944 32.1665 22.5906 32.093C22.5637 32.0716 22.4888 32.0563 22.4618 32.0349L20.7909 30.7086C20.5484 30.5161 20.4799 30.153 20.69 29.8787L21.888 28.3152C22.0771 28.0683 22.4339 27.9986 22.7034 28.2125L24.3474 29.5173C24.4013 29.5601 24.4552 29.6029 24.4611 29.6517C24.5328 29.841 24.5355 30.0637 24.4094 30.2283L23.1484 31.8741L23.1754 31.8955ZM27.3005 26.568C27.1955 26.7051 27.0575 26.7721 26.9136 26.7902C26.8451 26.7963 26.7762 26.7883 26.7108 26.7667C26.6454 26.7452 26.585 26.7104 26.5331 26.6646L24.8891 25.3598C24.8352 25.317 24.7813 25.2742 24.7484 25.204C24.6994 25.1076 24.6801 24.9984 24.6931 24.8906C24.706 24.7828 24.7507 24.6816 24.8211 24.6L26.0401 23.0091C26.2292 22.7622 26.586 22.6925 26.8555 22.9064L28.4186 24.1471C28.6612 24.3396 28.7297 24.7027 28.5195 24.977L27.3005 26.568ZM31.3988 21.2191C31.2096 21.466 30.8528 21.5357 30.5833 21.3218L28.9933 20.0597C28.7507 19.8672 28.6822 19.5041 28.8924 19.2298L30.0903 17.6663C30.2374 17.4743 30.4503 17.4227 30.6481 17.4473C30.75 17.4841 30.8249 17.4994 30.8788 17.5422L32.4958 18.8257C32.6036 18.9112 32.6694 19.0516 32.7082 19.1707C32.726 19.3171 32.6958 19.4696 32.5908 19.6068L31.3718 21.1977L31.3988 21.2191ZM60.4127 12.7084C60.4403 12.4282 60.4132 12.1453 60.3329 11.8758C60.2527 11.6063 60.1208 11.3557 59.945 11.1383C59.7693 10.9208 59.553 10.7409 59.3086 10.6089C59.0643 10.4769 58.7967 10.3954 58.5212 10.369L43.2664 8.67127C42.8228 8.62799 42.3313 8.59074 41.588 8.48605L59.6447 22.8178C59.9278 19.3372 60.1808 16.0091 60.4127 12.7084Z" fill="url(#paint2_linear_223_1480)"/>
<defs>
<filter id="filter0_f_223_1480" x="17" y="55" width="46" height="23.5" filterUnits="userSpaceOnUse" color-interpolation-filters="sRGB">
<feFlood flood-opacity="0" result="BackgroundImageFix"/>
<feBlend mode="normal" in="SourceGraphic" in2="BackgroundImageFix" result="shape"/>
<feGaussianBlur stdDeviation="4" result="effect1_foregroundBlur_223_1480"/>
</filter>
<linearGradient id="paint0_linear_223_1480" x1="53.3592" y1="63.2897" x2="52.0915" y2="72.2171" gradientUnits="userSpaceOnUse">
<stop stop-color="#576E92"/>
<stop offset="1" stop-color="#010B1C"/>
</linearGradient>
<linearGradient id="paint1_linear_223_1480" x1="44.926" y1="-0.847352" x2="40.6385" y2="44.8104" gradientUnits="userSpaceOnUse">
<stop stop-color="#BAC8DD"/>
<stop offset="1" stop-color="#7C8EA9"/>
</linearGradient>
<linearGradient id="paint2_linear_223_1480" x1="23.3125" y1="5" x2="54.384" y2="50.2547" gradientUnits="userSpaceOnUse">
<stop stop-color="#FEA8CC"/>
<stop offset="1" stop-color="#CD3B78"/>
</linearGradient>
</defs>
</svg>
