<svg width="80" height="80" viewBox="0 0 80 80" fill="none" xmlns="http://www.w3.org/2000/svg">
<g filter="url(#filter0_f_227_437)">
<path d="M25.4228 66.75C22.9277 69.3021 31.9508 70.5 40.0036 70.5C48.0563 70.5 57.0529 69.5625 54.5843 66.75C51.3137 64.1719 45.2643 63 40.0036 63C34.7429 63 29.1323 64.1979 25.4228 66.75Z" fill="url(#paint0_linear_227_437)" fill-opacity="0.15"/>
</g>
<path d="M62.1018 47.1908H17.7644C17.3249 47.1908 17 48.3105 17 48.8503C17 49.3902 17.3631 50.5299 17.7644 50.5299H29.5941L26.5555 55.9886C26.434 56.2802 26.4019 56.604 26.4635 56.9155C26.5251 57.227 26.6774 57.5109 26.8995 57.7281C27.1483 57.8736 27.4355 57.9308 27.718 57.8912C28.0005 57.8515 28.2632 57.7171 28.4666 57.5082L32.2887 50.5299H48.3228L51.8201 57.4882C51.9729 57.7304 52.2083 57.9024 52.4781 57.9693C52.748 58.0362 53.0321 57.9928 53.2725 57.8481C53.4804 57.6777 53.6299 57.4415 53.6988 57.1748C53.7677 56.9081 53.7522 56.6252 53.6548 56.3685L50.769 50.4899H62.2356C62.6751 50.4899 63 49.3502 63 48.8103C63 48.2705 62.5413 47.1908 62.1018 47.1908ZM20.0577 44.4914H59.8085C60.0366 44.4691 60.2581 44.3992 60.4601 44.2861C60.662 44.1729 60.8403 44.0187 60.9845 43.8324C61.1287 43.6461 61.2359 43.4316 61.2998 43.2014C61.3636 42.9712 61.3829 42.73 61.3565 42.4919V11.9995C61.3829 11.7614 61.3636 11.5202 61.2998 11.29C61.2359 11.0598 61.1287 10.8453 60.9845 10.659C60.8403 10.4728 60.662 10.3185 60.4601 10.2054C60.2581 10.0922 60.0366 10.0224 59.8085 10H20.0577C19.5991 10.0504 19.1783 10.2894 18.888 10.6643C18.5977 11.0393 18.4616 11.5196 18.5098 11.9995V42.5719C18.4777 43.0398 18.6216 43.5024 18.9108 43.8609C19.1999 44.2195 19.6115 44.4457 20.0577 44.4914ZM22.7333 32.2745L26.7084 23.9965C26.79 23.8404 26.9006 23.7029 27.0337 23.592C27.1667 23.4812 27.3195 23.3991 27.4832 23.3507C27.6469 23.3023 27.8182 23.2885 27.987 23.3102C28.1558 23.3318 28.3189 23.3884 28.4666 23.4766L35.0789 27.1757L38.71 20.1375L38.2322 20.2974C38.0235 20.3561 37.8042 20.3594 37.5939 20.3071C37.3837 20.2547 37.1893 20.1483 37.0283 19.9975C36.8709 19.8453 36.7545 19.6525 36.6908 19.4385C36.6271 19.2244 36.6182 18.9966 36.6651 18.7778C36.6912 18.5436 36.7861 18.3235 36.9367 18.148C37.0873 17.9725 37.2862 17.8503 37.506 17.7981L40.774 16.7383C41.0907 16.6481 41.4283 16.6866 41.719 16.8461C42.0097 17.0055 42.2319 17.2742 42.3411 17.5981L43.354 21.0373C43.4377 21.2391 43.4678 21.4609 43.4408 21.6791C43.4139 21.8974 43.3311 22.104 43.2011 22.2769C43.0598 22.4416 42.8789 22.5636 42.6772 22.6304C42.4756 22.6972 42.2606 22.7064 42.0544 22.6569C41.8448 22.6058 41.6508 22.5002 41.4905 22.3499C41.3301 22.1996 41.2086 22.0095 41.1371 21.7971L41.0033 21.2972L36.7989 29.6751C36.6406 29.9814 36.3744 30.2112 36.0569 30.3157C35.7394 30.4202 35.3955 30.3913 35.098 30.235L28.3519 26.4959L24.8546 33.4742C24.6999 33.7791 24.4373 34.0084 24.1229 34.1131C23.8085 34.2177 23.4674 34.1894 23.1728 34.034C22.8942 33.8592 22.6921 33.577 22.6099 33.2481C22.5277 32.9191 22.572 32.5696 22.7333 32.2745ZM47.0424 28.9153H55.2219C55.4923 28.9358 55.7442 29.0669 55.923 29.2802C56.1018 29.4935 56.1932 29.7718 56.1774 30.055C56.1886 30.3391 56.0962 30.6171 55.9187 30.8325C55.7412 31.0478 55.4921 31.1845 55.2219 31.2147H47.0424C46.7721 31.1845 46.523 31.0478 46.3455 30.8325C46.1681 30.6171 46.0756 30.3391 46.0868 30.055C46.0711 29.7718 46.1625 29.4935 46.3413 29.2802C46.5201 29.0669 46.7719 28.9358 47.0424 28.9153ZM47.0424 23.1367H55.2219C55.4888 23.1573 55.7377 23.2855 55.916 23.4944C56.0943 23.7034 56.188 23.9766 56.1774 24.2565C56.1934 24.5418 56.1026 24.8224 55.9242 25.0389C55.7458 25.2554 55.4939 25.3907 55.2219 25.4162H47.0424C46.7703 25.3907 46.5184 25.2554 46.34 25.0389C46.1616 24.8224 46.0708 24.5418 46.0868 24.2565C46.0762 23.9766 46.1699 23.7034 46.3482 23.4944C46.5265 23.2855 46.7754 23.1573 47.0424 23.1367ZM47.0424 17.5181H55.2219C55.4905 17.5436 55.7395 17.676 55.9173 17.8882C56.0952 18.1003 56.1883 18.3759 56.1774 18.6578C56.1932 18.9411 56.1018 19.2194 55.923 19.4327C55.7442 19.646 55.4923 19.777 55.2219 19.7976H47.0424C46.7719 19.777 46.5201 19.646 46.3413 19.4327C46.1625 19.2194 46.0711 18.9411 46.0868 18.6578C46.0759 18.3759 46.169 18.1003 46.3469 17.8882C46.5248 17.676 46.7738 17.5436 47.0424 17.5181Z" fill="url(#paint1_linear_227_437)"/>
<defs>
<filter id="filter0_f_227_437" x="17" y="55" width="46" height="23.5" filterUnits="userSpaceOnUse" color-interpolation-filters="sRGB">
<feFlood flood-opacity="0" result="BackgroundImageFix"/>
<feBlend mode="normal" in="SourceGraphic" in2="BackgroundImageFix" result="shape"/>
<feGaussianBlur stdDeviation="4" result="effect1_foregroundBlur_227_437"/>
</filter>
<linearGradient id="paint0_linear_227_437" x1="53.3592" y1="63.2897" x2="52.0915" y2="72.2171" gradientUnits="userSpaceOnUse">
<stop stop-color="#576E92"/>
<stop offset="1" stop-color="#010B1C"/>
</linearGradient>
<linearGradient id="paint1_linear_227_437" x1="17" y1="10" x2="64.56" y2="56.3011" gradientUnits="userSpaceOnUse">
<stop stop-color="#19E621" stop-opacity="0.95"/>
<stop offset="1" stop-color="#82BC07"/>
</linearGradient>
</defs>
</svg>
