<svg width="80" height="80" viewBox="0 0 80 80" fill="none" xmlns="http://www.w3.org/2000/svg">
<g filter="url(#filter0_f_223_1509)">
<path d="M25.4228 66.75C22.9277 69.3021 31.9508 70.5 40.0036 70.5C48.0563 70.5 57.0529 69.5625 54.5843 66.75C51.3137 64.1719 45.2643 63 40.0036 63C34.7429 63 29.1323 64.1979 25.4228 66.75Z" fill="url(#paint0_linear_223_1509)" fill-opacity="0.15"/>
</g>
<path d="M59.2181 23.2221C59.4803 23.453 59.7798 23.5748 60.0844 23.5748C60.6394 23.5748 61.0893 23.1778 61.2303 22.5639L61.9534 19.406C62.1206 18.6755 61.8256 17.7539 61.2668 17.2625L58.1898 14.5502C57.6449 14.0706 56.6765 13.8906 55.995 14.154L52.9961 15.3058C52.544 15.4799 52.2416 15.8208 52.1672 16.2413C52.0934 16.6612 52.2592 17.0869 52.6244 17.4094L55.1208 19.6096L54.248 20.4913C53.2656 19.6317 52.341 18.8629 51.2323 18.19V16.9526C51.2323 13.8249 48.5051 10.4891 45.3207 9.66792L44.6685 9.51371C41.7937 8.78472 37.9768 8.85113 35.1203 9.58897L34.9027 9.68415C31.9936 10.4722 29.3205 13.6501 29.3205 16.9541C29.3205 16.9541 29.357 17.9576 29.3278 18.0587C29.3124 18.1118 29.1722 18.1553 28.9407 18.2837C27.8444 18.9537 26.77 19.7217 25.8111 20.5703L24.7922 19.5638L27.2652 17.0545C27.6078 16.7084 27.7392 16.2723 27.637 15.8584C27.5347 15.4437 27.2068 15.1243 26.7437 14.9811L23.6733 14.0382C22.9685 13.8242 22.0212 14.0677 21.5092 14.5842L18.6206 17.5023C18.0969 18.0321 17.8646 18.9714 18.0801 19.6871L19.0142 22.7882C19.1873 23.363 19.6219 23.7201 20.1492 23.7201C20.4764 23.7201 20.8022 23.5733 21.0666 23.3062L23.7689 20.5762L24.7279 21.545C20.7846 25.5182 18.3408 31.0092 18.3408 37.0669C18.3408 43.6817 21.2594 49.6176 25.8585 53.6425C25.8366 53.6743 25.8081 53.6986 25.7913 53.7348L24.0012 57.6018C23.9511 57.7109 23.929 57.8309 23.9368 57.9509C23.9447 58.0708 23.9823 58.1869 24.0461 58.2883C24.11 58.3898 24.198 58.4734 24.3023 58.5315C24.4065 58.5896 24.5234 58.6203 24.6425 58.6207C24.7773 58.6209 24.9095 58.5822 25.0233 58.5092C25.1372 58.4361 25.228 58.3317 25.2852 58.2083L26.9738 54.5604C30.7354 57.4449 35.3292 59.0043 40.0518 59C44.4984 59.0038 48.8376 57.62 52.4761 55.0378L53.9434 58.2083C54.023 58.3803 54.167 58.5133 54.3437 58.5781C54.5204 58.6428 54.7153 58.634 54.8856 58.5536C55.0559 58.4732 55.1875 58.3277 55.2516 58.1492C55.3157 57.9707 55.307 57.7738 55.2274 57.6018L53.6352 54.1598C58.5864 50.1363 61.7635 43.9709 61.7635 37.0677C61.7635 30.9672 59.2831 25.443 55.2909 21.4638L56.1908 20.5548L59.2181 23.2221ZM21.2864 37.2241H19.0953V36.4862H21.2864V37.2241ZM25.421 52.0554L24.92 51.55L26.4224 50.0323L26.9234 50.5384L25.421 52.0554ZM26.4224 23.7267L24.92 22.209L25.421 21.7029L26.9234 23.2206L26.4224 23.7267ZM34.9231 11.0573L35.3592 10.9636C38.0031 10.2988 41.552 10.2117 44.1718 10.8861L44.9679 11.0683C47.5191 11.7508 49.7701 14.4897 49.7701 16.9541V17.3238C46.8486 15.9211 43.4049 15.1338 40.0197 15.1338C36.7454 15.1338 33.3872 15.8813 30.565 17.1991C30.5767 14.5045 32.5816 11.6616 34.9231 11.0573ZM40.276 15.8267V18.0402H39.5456V15.8267H40.276ZM40.276 57.8836H39.5456V55.6701H40.276V57.8836ZM51.6486 48.561C51.5829 48.6277 51.5048 48.6805 51.4188 48.7165C51.3328 48.7524 51.2406 48.7708 51.1476 48.7706C51.0545 48.7707 50.9623 48.7523 50.8763 48.7164C50.7903 48.6804 50.7122 48.6276 50.6465 48.561L40.7318 38.5433C40.5193 38.6455 40.2871 38.6989 40.0518 38.6998C39.623 38.6994 39.212 38.5271 38.9088 38.2209C38.6056 37.9146 38.4351 37.4993 38.4348 37.0662C38.4348 36.3638 38.8781 35.7683 39.4945 35.5381L39.5106 24.5826C39.5106 24.5332 39.5157 24.2846 39.5347 24.2418C39.6048 23.9164 39.8122 23.6655 40.1752 23.6655C40.5901 23.6655 41.0057 23.9865 41.0057 24.3812V35.7521C41.736 36.0494 41.6696 36.5253 41.6696 37.0654C41.6696 37.1887 41.6528 37.3082 41.6272 37.424L51.6486 47.548C51.7822 47.683 51.856 47.863 51.856 48.0541C51.856 48.2452 51.7822 48.426 51.6486 48.561ZM54.4642 52.0554L52.9618 50.5377L53.4628 50.0315L54.9652 51.5493L54.4642 52.0554ZM53.4628 23.7267L52.9618 23.2206L54.4642 21.7029L54.9652 22.209L53.4628 23.7267ZM58.5352 36.4862H60.7263V37.2241H58.5352V36.4862Z" fill="url(#paint1_linear_223_1509)"/>
<defs>
<filter id="filter0_f_223_1509" x="17" y="55" width="46" height="23.5" filterUnits="userSpaceOnUse" color-interpolation-filters="sRGB">
<feFlood flood-opacity="0" result="BackgroundImageFix"/>
<feBlend mode="normal" in="SourceGraphic" in2="BackgroundImageFix" result="shape"/>
<feGaussianBlur stdDeviation="4" result="effect1_foregroundBlur_223_1509"/>
</filter>
<linearGradient id="paint0_linear_223_1509" x1="53.3592" y1="63.2897" x2="52.0915" y2="72.2171" gradientUnits="userSpaceOnUse">
<stop stop-color="#576E92"/>
<stop offset="1" stop-color="#010B1C"/>
</linearGradient>
<linearGradient id="paint1_linear_223_1509" x1="23" y1="15.5" x2="53.0576" y2="53.5086" gradientUnits="userSpaceOnUse">
<stop stop-color="#FDCE87"/>
<stop offset="1" stop-color="#F54A4D"/>
</linearGradient>
</defs>
</svg>
