<svg width="710" height="358" viewBox="0 0 710 358" fill="none" xmlns="http://www.w3.org/2000/svg">
<mask id="mask0_249_775" style="mask-type:alpha" maskUnits="userSpaceOnUse" x="0" y="0" width="710" height="358">
<rect width="710" height="358" fill="url(#paint0_linear_249_775)"/>
</mask>
<g mask="url(#mask0_249_775)">
<g opacity="0.2">
<path d="M710 102.516C710 102.516 588.624 -105.513 488.793 -43.4325C410.856 5.0334 599.895 57.2272 492.109 128.062C390.3 194.97 289.667 224.604 188.653 100.101C74.2117 -40.9506 1 136.962 1 136.962" stroke="url(#paint1_linear_249_775)" stroke-opacity="0.25" stroke-miterlimit="10"/>
<path d="M709.991 98.1547C709.991 98.1547 586.876 -101.548 488.643 -38.9C412.375 9.51852 595.788 64.111 487.211 131.747C384.128 195.636 290.79 213.103 189.74 96.9692C75.5548 -34.2605 1.0127 132.914 1.0127 132.914" stroke="url(#paint2_linear_249_775)" stroke-opacity="0.25" stroke-miterlimit="10"/>
<path d="M709.982 93.7944C709.982 93.7944 585.353 -97.4533 488.492 -34.3659C414.075 14.1035 591.945 71.1636 482.311 135.434C378.206 196.462 291.905 201.572 190.826 93.8389C76.8795 -27.6085 1.02539 128.867 1.02539 128.867" stroke="url(#paint3_linear_249_775)" stroke-opacity="0.25" stroke-miterlimit="10"/>
<path d="M709.972 89.434C709.972 89.434 583.707 -93.4335 488.34 -29.8346C415.673 18.6296 587.945 78.1302 477.411 139.119C372.133 197.208 293.004 190.001 191.912 90.7079C78.1772 -21.0033 1.03662 124.819 1.03662 124.819" stroke="url(#paint4_linear_249_775)" stroke-opacity="0.25" stroke-miterlimit="10"/>
<path d="M709.963 85.0724C709.963 85.0724 582.054 -89.4214 488.19 -25.3006C417.266 23.1493 583.926 85.0935 472.512 142.804C366.049 197.951 294.075 178.388 192.998 87.5763C79.4353 -14.4527 1.04932 120.77 1.04932 120.77" stroke="url(#paint5_linear_249_775)" stroke-opacity="0.25" stroke-miterlimit="10"/>
<path d="M709.953 80.7116C709.953 80.7116 580.394 -85.4153 488.04 -20.768C418.851 27.6635 579.89 92.0537 467.61 146.49C359.942 198.692 295.101 166.726 194.08 84.445C80.6331 -7.96343 1.06201 116.722 1.06201 116.722" stroke="url(#paint6_linear_249_775)" stroke-opacity="0.25" stroke-miterlimit="10"/>
<path d="M709.944 76.3514C709.944 76.3514 578.723 -81.4137 487.888 -16.2342C420.428 32.1735 575.835 99.0103 462.714 150.176C353.82 199.43 296.063 155.013 195.172 81.3148C81.7412 -1.54161 1.0708 112.674 1.0708 112.674" stroke="url(#paint7_linear_249_775)" stroke-opacity="0.25" stroke-miterlimit="10"/>
<path d="M709.935 71.9919C709.935 71.9919 577.044 -77.421 487.74 -11.6998C422 36.6786 571.763 105.961 457.816 153.861C347.679 200.163 296.919 143.245 196.257 78.1848C82.7258 4.80537 1.08643 108.628 1.08643 108.628" stroke="url(#paint8_linear_249_775)" stroke-opacity="0.25" stroke-miterlimit="10"/>
<path d="M709.925 67.6299C709.925 67.6299 575.355 -73.4355 487.587 -7.16796C423.559 41.1764 567.668 112.901 452.915 157.548C341.523 200.886 297.627 131.425 197.344 75.0528C83.5317 11.0752 1.09912 104.578 1.09912 104.578" stroke="url(#paint9_linear_249_775)" stroke-opacity="0.25" stroke-miterlimit="10"/>
<path d="M709.917 63.269C709.917 63.269 573.655 -69.4571 487.437 -2.63545C425.112 45.6688 563.558 119.833 448.016 161.233C335.347 201.602 298.134 119.569 198.431 71.9209C84.1015 17.2819 1.11182 100.53 1.11182 100.53" stroke="url(#paint10_linear_249_775)" stroke-opacity="0.25" stroke-miterlimit="10"/>
<path d="M709.907 58.908C709.907 58.908 571.942 -65.4849 487.286 1.89534C426.654 50.1534 559.43 126.753 443.116 164.917C329.159 202.307 298.369 107.708 199.517 68.7886C84.3636 23.4519 1.12305 96.4803 1.12305 96.4803" stroke="url(#paint11_linear_249_775)" stroke-opacity="0.25" stroke-miterlimit="10"/>
<path d="M709.897 54.5478C709.897 54.5478 570.216 -61.5179 487.135 6.4307C428.188 54.6409 555.29 133.666 438.217 168.605C322.954 203.002 298.287 95.8997 200.601 65.6592C84.2566 29.6416 1.13574 92.434 1.13574 92.434" stroke="url(#paint12_linear_249_775)" stroke-opacity="0.25" stroke-miterlimit="10"/>
<path d="M709.888 50.188C709.888 50.188 568.481 -57.5574 486.984 10.9648C429.712 59.1202 551.132 140.563 433.318 172.291C316.738 203.687 297.864 84.2123 201.69 62.5289C83.7497 35.9382 1.14844 88.3869 1.14844 88.3869" stroke="url(#paint13_linear_249_775)" stroke-opacity="0.25" stroke-miterlimit="10"/>
<path d="M709.882 45.8265C709.882 45.8265 566.725 -53.6041 486.833 15.4973C431.226 63.5945 546.968 147.445 428.419 175.976C310.51 204.353 297.137 72.7325 202.777 59.3974C82.8821 42.4549 1.16113 84.3381 1.16113 84.3381" stroke="url(#paint14_linear_249_775)" stroke-opacity="0.25" stroke-miterlimit="10"/>
<path d="M709.869 41.467C709.869 41.467 564.955 -49.6554 486.682 20.0312C432.729 68.0659 542.794 154.314 423.521 179.663C304.274 205.007 296.235 61.531 203.861 56.2675C81.7939 49.3121 1.17236 80.2913 1.17236 80.2913" stroke="url(#paint15_linear_249_775)" stroke-opacity="0.25" stroke-miterlimit="10"/>
<path d="M709.86 37.105C709.86 37.105 563.171 -45.7152 486.531 24.5631C434.221 72.5314 538.616 161.162 418.619 183.348C298.034 205.642 295.347 50.6293 204.949 53.1354C80.725 56.579 1.18506 76.2424 1.18506 76.2424" stroke="url(#paint16_linear_249_775)" stroke-opacity="0.25" stroke-miterlimit="10"/>
<path d="M709.851 32.7455C709.851 32.7455 561.369 -41.7764 486.381 29.097C435.701 76.995 534.438 167.998 413.721 187.034C291.792 206.262 294.679 39.9911 206.039 50.0054C79.9459 64.2504 1.19775 72.1951 1.19775 72.1951" stroke="url(#paint17_linear_249_775)" stroke-opacity="0.25" stroke-miterlimit="10"/>
<path d="M709.841 28.384C709.841 28.384 559.548 -37.8495 486.23 33.6285C437.173 81.4528 530.26 174.814 408.82 190.718C285.551 206.862 294.376 29.5199 207.121 46.8726C79.6638 72.2208 1.21191 68.1462 1.21191 68.1462" stroke="url(#paint18_linear_249_775)" stroke-opacity="0.25" stroke-miterlimit="10"/>
<path d="M709.832 24.0244C709.832 24.0244 557.71 -33.922 486.079 38.1637C438.632 85.9116 526.088 181.618 403.92 194.406C279.316 207.449 294.487 19.1166 208.208 43.7438C79.9606 80.3492 1.22168 64.0997 1.22168 64.0997" stroke="url(#paint19_linear_249_775)" stroke-opacity="0.25" stroke-miterlimit="10"/>
<path d="M709.823 19.6628C709.823 19.6628 555.851 -30.0025 485.928 42.696C440.08 90.365 521.926 188.404 399.022 198.091C273.089 208.017 294.988 8.68546 209.295 40.6121C80.797 88.4864 1.23438 60.0508 1.23438 60.0508" stroke="url(#paint20_linear_249_775)" stroke-opacity="0.25" stroke-miterlimit="10"/>
<path d="M709.811 15.3028C709.811 15.3028 553.97 -26.0861 485.776 47.2295C441.515 94.8174 517.776 195.177 394.123 201.777C266.875 208.57 295.795 -1.82468 210.383 37.4817C82.0491 96.5381 1.24756 56.0035 1.24756 56.0035" stroke="url(#paint21_linear_249_775)" stroke-opacity="0.25" stroke-miterlimit="10"/>
<path d="M709.805 10.9403C709.805 10.9403 551.898 -22.2345 485.628 51.7587C442.827 99.2258 513.63 201.794 389.224 205.46C260.664 208.963 296.825 -12.4427 211.469 34.3474C83.5851 104.451 1.26025 51.9536 1.26025 51.9536" stroke="url(#paint22_linear_249_775)" stroke-opacity="0.25" stroke-miterlimit="10"/>
<path d="M709.796 6.58008C709.796 6.58008 550.148 -18.2683 485.477 56.2945C444.348 103.714 509.522 208.682 384.326 209.148C254.491 209.631 297.997 -23.1614 212.556 31.218C85.2904 112.217 1.27295 47.9061 1.27295 47.9061" stroke="url(#paint23_linear_249_775)" stroke-opacity="0.25" stroke-miterlimit="10"/>
</g>
</g>
<defs>
<linearGradient id="paint0_linear_249_775" x1="0" y1="0" x2="731.371" y2="50.8957" gradientUnits="userSpaceOnUse">
<stop stop-color="white"/>
<stop offset="1" stop-color="white" stop-opacity="0.95"/>
</linearGradient>
<linearGradient id="paint1_linear_249_775" x1="-29.6069" y1="-53.5506" x2="745.756" y2="-30.0571" gradientUnits="userSpaceOnUse">
<stop stop-color="#7BF51B" stop-opacity="0.71"/>
<stop offset="0.239583" stop-color="#0055D3" stop-opacity="0.7"/>
<stop offset="0.494792" stop-color="#9000D3" stop-opacity="0.65"/>
<stop offset="0.739583" stop-color="#FA9601" stop-opacity="0.66"/>
<stop offset="0.989583" stop-color="#F91A6A" stop-opacity="0.69"/>
</linearGradient>
<linearGradient id="paint2_linear_249_775" x1="-29.5933" y1="-49.6628" x2="745.698" y2="-25.3888" gradientUnits="userSpaceOnUse">
<stop stop-color="#7BF51B" stop-opacity="0.71"/>
<stop offset="0.239583" stop-color="#0055D3" stop-opacity="0.7"/>
<stop offset="0.494792" stop-color="#9000D3" stop-opacity="0.65"/>
<stop offset="0.739583" stop-color="#FA9601" stop-opacity="0.66"/>
<stop offset="0.989583" stop-color="#F91A6A" stop-opacity="0.69"/>
</linearGradient>
<linearGradient id="paint3_linear_249_775" x1="-29.5797" y1="-45.7731" x2="745.638" y2="-20.7189" gradientUnits="userSpaceOnUse">
<stop stop-color="#7BF51B" stop-opacity="0.71"/>
<stop offset="0.239583" stop-color="#0055D3" stop-opacity="0.7"/>
<stop offset="0.494792" stop-color="#9000D3" stop-opacity="0.65"/>
<stop offset="0.739583" stop-color="#FA9601" stop-opacity="0.66"/>
<stop offset="0.989583" stop-color="#F91A6A" stop-opacity="0.69"/>
</linearGradient>
<linearGradient id="paint4_linear_249_775" x1="-29.5675" y1="-41.9503" x2="745.577" y2="-16.1285" gradientUnits="userSpaceOnUse">
<stop stop-color="#7BF51B" stop-opacity="0.71"/>
<stop offset="0.239583" stop-color="#0055D3" stop-opacity="0.7"/>
<stop offset="0.494792" stop-color="#9000D3" stop-opacity="0.65"/>
<stop offset="0.739583" stop-color="#FA9601" stop-opacity="0.66"/>
<stop offset="0.989583" stop-color="#F91A6A" stop-opacity="0.69"/>
</linearGradient>
<linearGradient id="paint5_linear_249_775" x1="-29.5539" y1="-38.1755" x2="745.516" y2="-11.618" gradientUnits="userSpaceOnUse">
<stop stop-color="#7BF51B" stop-opacity="0.71"/>
<stop offset="0.239583" stop-color="#0055D3" stop-opacity="0.7"/>
<stop offset="0.494792" stop-color="#9000D3" stop-opacity="0.65"/>
<stop offset="0.739583" stop-color="#FA9601" stop-opacity="0.66"/>
<stop offset="0.989583" stop-color="#F91A6A" stop-opacity="0.69"/>
</linearGradient>
<linearGradient id="paint6_linear_249_775" x1="-29.5402" y1="-34.4559" x2="745.458" y2="-7.21455" gradientUnits="userSpaceOnUse">
<stop stop-color="#7BF51B" stop-opacity="0.71"/>
<stop offset="0.239583" stop-color="#0055D3" stop-opacity="0.7"/>
<stop offset="0.494792" stop-color="#9000D3" stop-opacity="0.65"/>
<stop offset="0.739583" stop-color="#FA9601" stop-opacity="0.66"/>
<stop offset="0.989583" stop-color="#F91A6A" stop-opacity="0.69"/>
</linearGradient>
<linearGradient id="paint7_linear_249_775" x1="-29.5306" y1="-30.7961" x2="745.404" y2="-2.9388" gradientUnits="userSpaceOnUse">
<stop stop-color="#7BF51B" stop-opacity="0.71"/>
<stop offset="0.239583" stop-color="#0055D3" stop-opacity="0.7"/>
<stop offset="0.494792" stop-color="#9000D3" stop-opacity="0.65"/>
<stop offset="0.739583" stop-color="#FA9601" stop-opacity="0.66"/>
<stop offset="0.989583" stop-color="#F91A6A" stop-opacity="0.69"/>
</linearGradient>
<linearGradient id="paint8_linear_249_775" x1="-29.5139" y1="-27.206" x2="745.354" y2="1.18724" gradientUnits="userSpaceOnUse">
<stop stop-color="#7BF51B" stop-opacity="0.71"/>
<stop offset="0.239583" stop-color="#0055D3" stop-opacity="0.7"/>
<stop offset="0.494792" stop-color="#9000D3" stop-opacity="0.65"/>
<stop offset="0.739583" stop-color="#FA9601" stop-opacity="0.66"/>
<stop offset="0.989583" stop-color="#F91A6A" stop-opacity="0.69"/>
</linearGradient>
<linearGradient id="paint9_linear_249_775" x1="-29.5003" y1="-23.6966" x2="745.311" y2="5.14823" gradientUnits="userSpaceOnUse">
<stop stop-color="#7BF51B" stop-opacity="0.71"/>
<stop offset="0.239583" stop-color="#0055D3" stop-opacity="0.7"/>
<stop offset="0.494792" stop-color="#9000D3" stop-opacity="0.65"/>
<stop offset="0.739583" stop-color="#FA9601" stop-opacity="0.66"/>
<stop offset="0.989583" stop-color="#F91A6A" stop-opacity="0.69"/>
</linearGradient>
<linearGradient id="paint10_linear_249_775" x1="-29.4867" y1="-20.277" x2="745.273" y2="8.93527" gradientUnits="userSpaceOnUse">
<stop stop-color="#7BF51B" stop-opacity="0.71"/>
<stop offset="0.239583" stop-color="#0055D3" stop-opacity="0.7"/>
<stop offset="0.494792" stop-color="#9000D3" stop-opacity="0.65"/>
<stop offset="0.739583" stop-color="#FA9601" stop-opacity="0.66"/>
<stop offset="0.989583" stop-color="#F91A6A" stop-opacity="0.69"/>
</linearGradient>
<linearGradient id="paint11_linear_249_775" x1="-29.4745" y1="-16.9612" x2="745.241" y2="12.5374" gradientUnits="userSpaceOnUse">
<stop stop-color="#7BF51B" stop-opacity="0.71"/>
<stop offset="0.239583" stop-color="#0055D3" stop-opacity="0.7"/>
<stop offset="0.494792" stop-color="#9000D3" stop-opacity="0.65"/>
<stop offset="0.739583" stop-color="#FA9601" stop-opacity="0.66"/>
<stop offset="0.989583" stop-color="#F91A6A" stop-opacity="0.69"/>
</linearGradient>
<linearGradient id="paint12_linear_249_775" x1="-29.4609" y1="-13.7614" x2="745.214" y2="15.9468" gradientUnits="userSpaceOnUse">
<stop stop-color="#7BF51B" stop-opacity="0.71"/>
<stop offset="0.239583" stop-color="#0055D3" stop-opacity="0.7"/>
<stop offset="0.494792" stop-color="#9000D3" stop-opacity="0.65"/>
<stop offset="0.739583" stop-color="#FA9601" stop-opacity="0.66"/>
<stop offset="0.989583" stop-color="#F91A6A" stop-opacity="0.69"/>
</linearGradient>
<linearGradient id="paint13_linear_249_775" x1="-29.4473" y1="-10.6994" x2="745.193" y2="19.146" gradientUnits="userSpaceOnUse">
<stop stop-color="#7BF51B" stop-opacity="0.71"/>
<stop offset="0.239583" stop-color="#0055D3" stop-opacity="0.7"/>
<stop offset="0.494792" stop-color="#9000D3" stop-opacity="0.65"/>
<stop offset="0.739583" stop-color="#FA9601" stop-opacity="0.66"/>
<stop offset="0.989583" stop-color="#F91A6A" stop-opacity="0.69"/>
</linearGradient>
<linearGradient id="paint14_linear_249_775" x1="-29.4337" y1="-7.79781" x2="745.18" y2="22.1165" gradientUnits="userSpaceOnUse">
<stop stop-color="#7BF51B" stop-opacity="0.71"/>
<stop offset="0.239583" stop-color="#0055D3" stop-opacity="0.7"/>
<stop offset="0.494792" stop-color="#9000D3" stop-opacity="0.65"/>
<stop offset="0.739583" stop-color="#FA9601" stop-opacity="0.66"/>
<stop offset="0.989583" stop-color="#F91A6A" stop-opacity="0.69"/>
</linearGradient>
<linearGradient id="paint15_linear_249_775" x1="-29.4215" y1="-5.0802" x2="745.166" y2="24.8364" gradientUnits="userSpaceOnUse">
<stop stop-color="#7BF51B" stop-opacity="0.71"/>
<stop offset="0.239583" stop-color="#0055D3" stop-opacity="0.7"/>
<stop offset="0.494792" stop-color="#9000D3" stop-opacity="0.65"/>
<stop offset="0.739583" stop-color="#FA9601" stop-opacity="0.66"/>
<stop offset="0.989583" stop-color="#F91A6A" stop-opacity="0.69"/>
</linearGradient>
<linearGradient id="paint16_linear_249_775" x1="-29.4078" y1="-2.58277" x2="745.16" y2="27.2714" gradientUnits="userSpaceOnUse">
<stop stop-color="#7BF51B" stop-opacity="0.71"/>
<stop offset="0.239583" stop-color="#0055D3" stop-opacity="0.7"/>
<stop offset="0.494792" stop-color="#9000D3" stop-opacity="0.65"/>
<stop offset="0.739583" stop-color="#FA9601" stop-opacity="0.66"/>
<stop offset="0.989583" stop-color="#F91A6A" stop-opacity="0.69"/>
</linearGradient>
<linearGradient id="paint17_linear_249_775" x1="-29.3942" y1="-0.339655" x2="745.16" y2="29.3869" gradientUnits="userSpaceOnUse">
<stop stop-color="#7BF51B" stop-opacity="0.71"/>
<stop offset="0.239583" stop-color="#0055D3" stop-opacity="0.7"/>
<stop offset="0.494792" stop-color="#9000D3" stop-opacity="0.65"/>
<stop offset="0.739583" stop-color="#FA9601" stop-opacity="0.66"/>
<stop offset="0.989583" stop-color="#F91A6A" stop-opacity="0.69"/>
</linearGradient>
<linearGradient id="paint18_linear_249_775" x1="-29.379" y1="1.59267" x2="745.164" y2="31.1235" gradientUnits="userSpaceOnUse">
<stop stop-color="#7BF51B" stop-opacity="0.71"/>
<stop offset="0.239583" stop-color="#0055D3" stop-opacity="0.7"/>
<stop offset="0.494792" stop-color="#9000D3" stop-opacity="0.65"/>
<stop offset="0.739583" stop-color="#FA9601" stop-opacity="0.66"/>
<stop offset="0.989583" stop-color="#F91A6A" stop-opacity="0.69"/>
</linearGradient>
<linearGradient id="paint19_linear_249_775" x1="-29.3684" y1="3.16075" x2="745.174" y2="32.4249" gradientUnits="userSpaceOnUse">
<stop stop-color="#7BF51B" stop-opacity="0.71"/>
<stop offset="0.239583" stop-color="#0055D3" stop-opacity="0.7"/>
<stop offset="0.494792" stop-color="#9000D3" stop-opacity="0.65"/>
<stop offset="0.739583" stop-color="#FA9601" stop-opacity="0.66"/>
<stop offset="0.989583" stop-color="#F91A6A" stop-opacity="0.69"/>
</linearGradient>
<linearGradient id="paint20_linear_249_775" x1="-29.3548" y1="4.28" x2="745.19" y2="33.2002" gradientUnits="userSpaceOnUse">
<stop stop-color="#7BF51B" stop-opacity="0.71"/>
<stop offset="0.239583" stop-color="#0055D3" stop-opacity="0.7"/>
<stop offset="0.494792" stop-color="#9000D3" stop-opacity="0.65"/>
<stop offset="0.739583" stop-color="#FA9601" stop-opacity="0.66"/>
<stop offset="0.989583" stop-color="#F91A6A" stop-opacity="0.69"/>
</linearGradient>
<linearGradient id="paint21_linear_249_775" x1="-29.3405" y1="4.85622" x2="745.208" y2="33.3483" gradientUnits="userSpaceOnUse">
<stop stop-color="#7BF51B" stop-opacity="0.71"/>
<stop offset="0.239583" stop-color="#0055D3" stop-opacity="0.7"/>
<stop offset="0.494792" stop-color="#9000D3" stop-opacity="0.65"/>
<stop offset="0.739583" stop-color="#FA9601" stop-opacity="0.66"/>
<stop offset="0.989583" stop-color="#F91A6A" stop-opacity="0.69"/>
</linearGradient>
<linearGradient id="paint22_linear_249_775" x1="-29.327" y1="4.7408" x2="745.24" y2="32.7108" gradientUnits="userSpaceOnUse">
<stop stop-color="#7BF51B" stop-opacity="0.71"/>
<stop offset="0.239583" stop-color="#0055D3" stop-opacity="0.7"/>
<stop offset="0.494792" stop-color="#9000D3" stop-opacity="0.65"/>
<stop offset="0.739583" stop-color="#FA9601" stop-opacity="0.66"/>
<stop offset="0.989583" stop-color="#F91A6A" stop-opacity="0.69"/>
</linearGradient>
<linearGradient id="paint23_linear_249_775" x1="-29.3134" y1="3.84836" x2="745.274" y2="31.1997" gradientUnits="userSpaceOnUse">
<stop stop-color="#7BF51B" stop-opacity="0.71"/>
<stop offset="0.239583" stop-color="#0055D3" stop-opacity="0.7"/>
<stop offset="0.494792" stop-color="#9000D3" stop-opacity="0.65"/>
<stop offset="0.739583" stop-color="#FA9601" stop-opacity="0.66"/>
<stop offset="0.989583" stop-color="#F91A6A" stop-opacity="0.69"/>
</linearGradient>
</defs>
</svg>
