<?xml version="1.0" standalone="no"?><!DOCTYPE svg PUBLIC "-//W3C//DTD SVG 1.1//EN" "http://www.w3.org/Graphics/SVG/1.1/DTD/svg11.dtd"><svg class="icon" width="250px" height="250.00px" viewBox="0 0 1024 1024" version="1.1" xmlns="http://www.w3.org/2000/svg"><path d="M32 288a256 192 0 1 0 512 0 256 192 0 1 0-512 0Z" fill="#E0EBFE" /><path d="M288 384c70.592 0 128-43.072 128-96s-57.408-96-128-96-128 43.072-128 96 57.408 96 128 96z m0-160c52.032 0 96 29.312 96 64s-43.968 64-96 64-96-29.312-96-64 43.968-64 96-64z" fill="#5465CF" /><path d="M960 448H576V288c0-123.52-129.184-224-288-224S0 164.48 0 288c0 8 0.608 15.936 1.664 23.744C0.928 314.432 0 317.12 0 320v448c0 105.888 86.112 192 192 192h768c35.296 0 64-28.704 64-64V512c0-35.296-28.704-64-64-64zM288 128c123.52 0 224 71.776 224 160s-100.48 160-224 160-224-71.776-224-160 100.48-160 224-160z m224 300.48V448h-22.816c8.064-6.144 15.68-12.672 22.816-19.52zM960 896h-128v-144a16 16 0 1 0-32 0V896h-128v-48a16 16 0 1 0-32 0V896h-128v-144a16 16 0 1 0-32 0V896h-128v-48a16 16 0 1 0-32 0V896H192v-144a16 16 0 1 0-32 0v139.456c-55.04-14.304-96-64-96-123.456V428.48C116.832 479.36 197.568 512 288 512h672v384z" fill="#5465CF" /></svg>