<?xml version="1.0" standalone="no"?><!DOCTYPE svg PUBLIC "-//W3C//DTD SVG 1.1//EN" "http://www.w3.org/Graphics/SVG/1.1/DTD/svg11.dtd"><svg class="icon" width="250px" height="250.00px" viewBox="0 0 1024 1024" version="1.1" xmlns="http://www.w3.org/2000/svg"><path d="M991.99823 511.680481c-10.559951 0.959996-21.119901 1.279994-31.99985 1.279994-247.998838 0-448.957896-200.959058-448.957895-448.957895 0-10.879949 0.319999-21.4399 1.279994-31.99985 122.879424 0 245.43885 46.719781 339.19841 140.479341S991.99823 388.801057 991.99823 511.680481zM512.960476 959.99838c0 10.879949-0.319999 21.4399-1.279994 31.99985-122.879424 0-245.43885-46.719781-339.19841-140.479341S32.00273 635.199903 32.00273 512.320478c10.559951-0.959996 21.119901-1.279994 31.99985-1.279994 247.998838 0 448.957896 200.959058 448.957896 448.957896z" fill="#E0EBFE" /><path d="M512.320479 0.00288A509.149613 509.149613 0 0 0 149.858178 149.858178 509.085614 509.085614 0 0 0 0.00288 512.320478c0 136.703359 53.215751 265.182757 149.855298 361.822304A508.413617 508.413617 0 0 0 511.680482 1023.99808c137.087357 0 265.822754-53.215751 362.4623-149.855298A509.085614 509.085614 0 0 0 1023.99808 511.680481c0-136.703359-53.215751-265.182757-149.855298-361.822303A508.413617 508.413617 0 0 0 512.320479 0.00288z m41.823803 66.04769a443.357922 443.357922 0 0 1 251.038824 107.519496l-167.359216 167.359216a367.582277 367.582277 0 0 1-83.679608-274.878712z m-64.191699-0.959995a431.165979 431.165979 0 0 0 102.623519 321.086495L512.00048 466.752692 218.849854 173.570066a444.157918 444.157918 0 0 1 271.102729-108.479491zM173.602066 218.849854L466.720692 512.00048l-80.543622 80.575622A431.229979 431.229979 0 0 0 65.090575 489.920583a444.157918 444.157918 0 0 1 108.479491-271.070729zM66.018571 554.144282a367.614277 367.614277 0 0 1 274.878711 83.679608l-167.359215 167.359216a443.293922 443.293922 0 0 1-107.519496-251.038824z m403.806107 403.838107a443.357922 443.357922 0 0 1-251.038824-107.551495l167.359216-167.359216c63.9997 76.351642 94.143559 175.391178 83.679608 274.878712z m64.191699 0.959996a431.165979 431.165979 0 0 0-102.623519-321.118495L512.00048 557.248268l293.150626 293.150626a444.157918 444.157918 0 0 1-271.102729 108.511491z m316.382517-153.791279L557.216268 512.00048l80.319624-80.319624a431.869976 431.869976 0 0 0 321.310493 103.039517 444.093918 444.093918 0 0 1-108.479491 270.430733z m-167.359216-418.974036l167.359216-167.359216a443.293922 443.293922 0 0 1 107.519496 251.038824 367.614277 367.614277 0 0 1-274.878712-83.679608z" fill="#5465CF" /></svg>