<?xml version="1.0" standalone="no"?><!DOCTYPE svg PUBLIC "-//W3C//DTD SVG 1.1//EN" "http://www.w3.org/Graphics/SVG/1.1/DTD/svg11.dtd"><svg class="icon" width="250px" height="250.00px" viewBox="0 0 1024 1024" version="1.1" xmlns="http://www.w3.org/2000/svg"><path fill="#1296db" d="M736.0864 652.48c-29.312 33.984-58.56 67.904-87.36 101.6l-111.68 130.656c-12.288 14.336-37.76 14.336-50.016 0l-111.68-130.656c-29.344-34.272-59.104-68.8-88.928-103.36l-10.72-12.416a32 32 0 1 0-48.448 41.792l10.72 12.416c29.76 34.496 59.456 68.96 88.736 103.168l111.68 130.656C456.6944 947.744 483.5424 960 512.0224 960s55.36-12.256 73.6-33.664l111.712-130.624c28.8-33.664 57.92-67.52 87.2-101.44a32 32 0 1 0-48.448-41.792zM125.3984 513.216a32 32 0 0 0 4.608-45.024C96.3104 426.88 65.0464 380.768 64.0224 323.808A186.528 186.528 0 0 1 100.1824 210.88c45.024-61.248 127.744-93.312 205.44-79.872 71.36 12.352 142.528 73.184 177.152 151.424a32 32 0 0 0 58.496 0c34.656-78.24 105.824-139.072 177.12-151.424 77.664-13.44 160.448 18.624 205.472 79.84A186.592 186.592 0 0 1 960.0224 323.808c-0.896 54.08-27.424 97.376-67.04 145.728a32 32 0 0 0 49.6 40.512c41.504-50.784 80.16-108.352 81.44-185.184a251.072 251.072 0 0 0-48.576-152c-59.04-80.256-166.496-122.464-267.968-104.96-75.296 13.056-147.52 64.192-195.424 135.552-47.872-71.36-120.128-122.496-195.424-135.52-101.472-17.536-208.928 24.672-267.968 104.96A251.008 251.008 0 0 0 0.0224 324.896c1.312 76.64 41.344 135.872 80.32 183.744a31.968 31.968 0 0 0 45.024 4.576z"  /><path fill="#1296db" d="M32.0224 608h256a32 32 0 0 0 26.624-14.24l98.88-148.352 134.528 242.144a32 32 0 0 0 54.592 2.208L657.1424 608H992.0224a32 32 0 1 0 0-64H640.0224a32 32 0 0 0-26.624 14.24l-34.88 52.352-134.528-242.144a32 32 0 0 0-26.688-16.416 32.864 32.864 0 0 0-27.904 14.208L270.9024 544H32.0224a32 32 0 1 0 0 64z"  /></svg>