<?xml version="1.0" standalone="no"?><!DOCTYPE svg PUBLIC "-//W3C//DTD SVG 1.1//EN" "http://www.w3.org/Graphics/SVG/1.1/DTD/svg11.dtd"><svg class="icon" width="250px" height="250.00px" viewBox="0 0 1024 1024" version="1.1" xmlns="http://www.w3.org/2000/svg"><path d="M512 881.184c12.32 40.16 62.656 76.16 105.44 78.592 42.816 2.432 84.704-16.32 117.28-43.52 90.464-75.52 153.088-203.84 180.704-315.008 19.264-77.6 18.144-161.984-15.616-234.784-33.76-72.768-103.232-131.808-184.192-142.688-78.464-10.56-161.536 27.328-203.616 92.864-42.08-65.536-125.12-103.392-203.616-92.864-80.96 10.88-150.4 69.92-184.192 142.72-33.76 72.768-34.88 157.152-15.616 234.752 27.616 111.136 90.24 239.488 180.704 315.008 32.576 27.2 74.464 45.952 117.28 43.52 42.784-2.432 93.12-38.4 105.44-78.592z" fill="#E0EBFE" /><path d="M268.8 940.8c42.24 35.296 91.776 53.536 139.552 50.944 37.312-2.112 76.576-22.72 103.648-51.2 27.072 28.48 66.336 49.088 103.648 51.2 3.104 0.16 6.208 0.256 9.28 0.256 44.512 0 90.784-18.176 130.304-51.2 85.952-71.744 157.44-195.84 191.232-331.84 22.72-91.52 16.48-182.4-17.632-255.936-40.544-87.392-120.608-149.056-208.96-160.96-63.04-8.352-128.16 10.72-178.304 47.936-0.32-8.64-0.576-17.28-1.184-25.92-2.048-28.384-5.184-58.496-19.2-86.4a176.928 176.928 0 0 0-41.472-53.696 174.368 174.368 0 0 0-104.416-41.92c-17.28-1.056-32.768 12.544-33.728 30.176s12.544 32.736 30.176 33.728c24.576 1.344 48 10.688 65.952 26.336 10.656 9.248 19.744 21.024 26.304 34.112 8.704 17.376 10.88 39.36 12.544 62.24 0.416 5.888 0.544 11.776 0.8 17.632-49.44-34.784-112.32-52.384-173.248-44.224-88.32 11.904-168.384 73.568-208.928 160.96-34.112 73.536-40.384 164.416-17.632 255.936 33.792 136 105.28 260.096 191.232 331.84zM153.216 380C184.192 313.216 246.72 264.32 312.64 255.488c67.072-8.992 137.408 23.936 172.448 78.464 11.776 18.304 42.048 18.304 53.824 0 35.04-54.528 105.376-87.424 172.448-78.464 65.888 8.864 128.448 57.728 159.392 124.48 28 60.32 32.832 136.16 13.6 213.568-23.648 95.2-80.768 223.52-170.176 298.176-29.792 24.896-63.36 37.728-94.912 36.128-30.56-1.728-68.544-29.472-76.672-56a32 32 0 0 0-61.184 0c-8.128 26.528-46.112 54.272-76.672 56-31.776 1.6-65.12-11.232-94.912-36.16-89.408-74.624-146.528-202.944-170.176-298.144-19.2-77.408-14.4-153.28 13.6-213.568z" fill="#5465CF" /><path d="M219.616 475.84a16 16 0 0 0 16-16c0-43.168 33.376-78.272 74.4-78.272a16 16 0 1 0 0-32c-58.656 0-106.4 49.44-106.4 110.24a16 16 0 0 0 16 16z" fill="#5465CF" /></svg>