<?xml version="1.0" standalone="no"?><!DOCTYPE svg PUBLIC "-//W3C//DTD SVG 1.1//EN" "http://www.w3.org/Graphics/SVG/1.1/DTD/svg11.dtd"><svg class="icon" width="250px" height="250.00px" viewBox="0 0 1024 1024" version="1.1" xmlns="http://www.w3.org/2000/svg"><path d="M512 256m-80 0a80 80 0 1 0 160 0 80 80 0 1 0-160 0Z" fill="#E0EBFE" /><path d="M512 768m-80 0a80 80 0 1 0 160 0 80 80 0 1 0-160 0Z" fill="#E0EBFE" /><path d="M512 32C247.328 32 32 247.328 32 512s215.328 480 480 480 480-215.328 480-480S776.672 32 512 32z m0 896C282.624 928 96 741.376 96 512c0-109.6 42.912-209.152 112.448-283.52 3.808 38.72 11.776 72.864 24.672 103.744 30.432 72.96 84.128 132.928 151.136 168.832 34.208 18.336 70.272 30.144 105.12 41.568 13.984 4.544 27.968 9.12 41.728 14.08 119.232 43.136 203.2 150.976 227.52 289.504A413.248 413.248 0 0 1 512 928z m301.984-130.752c-36.352-143.2-131.104-253.696-261.12-300.704-14.4-5.216-28.96-9.984-43.552-14.752-33.728-11.072-65.6-21.472-94.848-37.152-54.08-28.992-97.504-77.664-122.272-137.056-11.264-26.976-17.888-56.128-20.8-91.68-1.088-13.024-3.072-25.952-4.992-38.912A413.248 413.248 0 0 1 512 96c229.376 0 416 186.624 416 416 0 110.432-43.52 210.688-114.016 285.248z" fill="#5465CF" /><path d="M512 160c-52.928 0-96 43.072-96 96s43.072 96 96 96 96-43.072 96-96-43.072-96-96-96z m0 160c-35.296 0-64-28.704-64-64s28.704-64 64-64 64 28.704 64 64-28.704 64-64 64zM512 672c-52.928 0-96 43.072-96 96s43.072 96 96 96 96-43.072 96-96-43.072-96-96-96z m0 160c-35.296 0-64-28.704-64-64s28.704-64 64-64 64 28.704 64 64-28.704 64-64 64z" fill="#5465CF" /></svg>