<?xml version="1.0" standalone="no"?><!DOCTYPE svg PUBLIC "-//W3C//DTD SVG 1.1//EN" "http://www.w3.org/Graphics/SVG/1.1/DTD/svg11.dtd"><svg class="icon" width="250px" height="250.00px" viewBox="0 0 1024 1024" version="1.1" xmlns="http://www.w3.org/2000/svg"><path d="M160 144h704v88H160z" fill="#E0EBFE" /><path d="M928 960V544c0-123.52-100.48-224-224-224a32 32 0 0 0 0 64c88.224 0 160 71.776 160 160v416H160V544c0-88.224 71.776-160 160-160a32 32 0 0 0 0-64c-123.52 0-224 100.48-224 224v416c0 35.296 28.704 64 64 64h704c35.296 0 64-28.704 64-64z" fill="#5465CF" /><path d="M864 320a32 32 0 0 0 32-32V96c0-52.928-43.072-96-96-96H224C171.072 0 128 43.072 128 96v192a32 32 0 0 0 64 0V256h640v32a32 32 0 0 0 32 32zM192 96c0-17.632 14.368-32 32-32h576c17.632 0 32 14.368 32 32v32H192V96z m0 128V160h640v64H192zM497.696 892.64a32 32 0 0 0 42.944-14.304l96-192A32.032 32.032 0 0 0 608 640h-140.224l72.864-145.696a32 32 0 1 0-57.28-28.608l-96 192A32.032 32.032 0 0 0 416 704h140.224l-72.864 145.696a32 32 0 0 0 14.336 42.944z" fill="#5465CF" /></svg>