<svg width="363" height="200" viewBox="0 0 363 200" fill="none" xmlns="http://www.w3.org/2000/svg">
<mask id="mask0_634_14366" style="mask-type:alpha" maskUnits="userSpaceOnUse" x="16" y="0" width="347" height="200">
<rect width="347" height="200" rx="20" transform="matrix(1 0 0 -1 16 200)" fill="url(#paint0_linear_634_14366)"/>
</mask>
<g mask="url(#mask0_634_14366)">
<path d="M95.199 95.1256C99.1495 107.251 99.323 120.642 94.8471 133.625C83.5081 166.518 46.6238 184.337 12.4639 173.427C32.9598 179.973 -20.375 99.6366 -13.5716 79.9013C-6.76822 60.1661 57.5972 108.505 37.1013 101.959C31.5534 100.187 25.8858 99.6785 20.4348 100.27C23.7959 86.412 35.2137 74.9917 50.6401 71.9297C71.7918 67.7311 92.47 80.8361 96.8261 101.2C96.383 99.1292 95.8386 97.103 95.199 95.1256Z" fill="url(#paint1_angular_634_14366)" fill-opacity="0.06"/>
<path d="M156.236 192.38C141.122 197.902 124.128 199.064 107.317 194.718C64.7281 183.707 39.441 141.515 50.8367 100.48C43.9993 125.101 77.3892 68.4923 102.943 75.0987C128.496 81.7051 136.536 149.025 143.374 124.404C145.225 117.74 145.463 111.024 144.319 104.643C162.16 107.613 177.486 120.252 182.486 138.212C189.341 162.838 174.187 188.142 148.639 194.732C151.237 194.061 153.771 193.275 156.236 192.38Z" fill="url(#paint2_angular_634_14366)" fill-opacity="0.1"/>
<path d="M108.241 65.2134C120.584 60.7034 134.461 59.7489 148.185 63.2864C182.955 72.2482 203.583 106.646 194.26 140.117C199.854 120.034 197.776 114.777 176.914 109.4C156.052 104.023 153.779 104.148 148.185 124.23C146.671 129.666 123.198 143.489 124.13 148.692C109.563 146.278 90.8574 124.045 86.7831 109.4C81.1967 89.3198 93.5815 68.6767 114.445 63.2923C112.323 63.8399 110.254 64.4823 108.241 65.2134Z" fill="url(#paint3_angular_634_14366)" fill-opacity="0.08"/>
</g>
<defs>
<linearGradient id="paint0_linear_634_14366" x1="0" y1="0" x2="108.839" y2="289.529" gradientUnits="userSpaceOnUse">
<stop offset="0.615295" stop-color="#FFFEFE"/>
<stop offset="1" stop-color="#EDFFF4" stop-opacity="0.95"/>
</linearGradient>
<radialGradient id="paint1_angular_634_14366" cx="0" cy="0" r="1" gradientUnits="userSpaceOnUse" gradientTransform="translate(27.4727 127.663) rotate(-132.618) scale(36.8824 41.3496)">
<stop stop-color="#05A415"/>
<stop offset="0.682292" stop-color="#35EE47" stop-opacity="0.26"/>
</radialGradient>
<radialGradient id="paint2_angular_634_14366" cx="0" cy="0" r="1" gradientUnits="userSpaceOnUse" gradientTransform="translate(110.424 125.789) rotate(-35.3185) scale(54.1357 52.5423)">
<stop stop-color="#2EDB12" stop-opacity="0"/>
<stop offset="0.614583" stop-color="#97FFE0"/>
</radialGradient>
<radialGradient id="paint3_angular_634_14366" cx="0" cy="0" r="1" gradientUnits="userSpaceOnUse" gradientTransform="translate(147.464 115.443) rotate(141.972) scale(37.4382 37.4067)">
<stop stop-color="#00D8E6"/>
<stop offset="0.621989" stop-color="white" stop-opacity="0.17"/>
</radialGradient>
</defs>
</svg>
