<svg width="56" height="56" viewBox="0 0 56 56" fill="none" xmlns="http://www.w3.org/2000/svg">
<circle cx="28" cy="28" r="28" fill="url(#paint0_linear_707_3583)"/>
<g filter="url(#filter0_d_707_3583)">
<path d="M22.6049 27.1644C22.6049 24.6735 23.7892 24.2841 23.7892 24.2841L23.7811 24.2787C25.0165 23.7805 25.3925 22.3773 25.3925 20.7163L25.0488 12.2217H23.432V19.2553C23.432 19.634 23.1204 19.9441 22.7418 19.9441C22.3631 19.9441 22.0516 19.634 22.0516 19.2553V12.2217H20.3516V19.2553C20.3516 19.634 20.0428 19.9441 19.6668 19.9441C19.2828 19.9441 18.9739 19.634 18.9739 19.2553V12.2217H17.4271L17 20.7163C17 22.3773 17.3733 23.7805 18.6087 24.2787L18.6033 24.2841C18.6033 24.2841 19.8011 24.6735 19.8011 27.1644L19.5782 41.4841C19.5782 42.3798 20.3006 43.1022 21.195 43.1022C22.0892 43.1022 22.8144 42.3798 22.8144 41.4841L22.6049 27.1644Z" fill="white"/>
<path d="M29.2046 36.9427C29.2046 40.4394 30.8267 43.27 33.7218 43.27C36.6116 43.27 38.239 40.4394 38.2389 36.9427C38.2389 33.7627 37.1584 32.5041 36.5298 31.7718C36.3998 31.6204 36.2891 31.4915 36.2113 31.3727C36.1301 31.2492 36.0431 31.1396 35.955 31.0286L35.9548 31.0284C35.5508 30.5195 35.1237 29.9815 35.1237 27.9378L35.3386 13.6181C35.3386 12.7225 34.6134 12 33.7218 12C32.8275 12 32.1024 12.7224 32.1024 13.6181L32.2903 27.9378C32.2903 29.9335 31.8399 30.5287 31.473 31.0135C31.3823 31.1334 31.2966 31.2467 31.2241 31.3727C31.1563 31.4918 31.0431 31.627 30.9039 31.7933C30.2994 32.5154 29.2046 33.8231 29.2046 36.9427Z" fill="white"/>
</g>
<defs>
<filter id="filter0_d_707_3583" x="14" y="9" width="27.2388" height="37.2695" filterUnits="userSpaceOnUse" color-interpolation-filters="sRGB">
<feFlood flood-opacity="0" result="BackgroundImageFix"/>
<feColorMatrix in="SourceAlpha" type="matrix" values="0 0 0 0 0 0 0 0 0 0 0 0 0 0 0 0 0 0 127 0" result="hardAlpha"/>
<feOffset/>
<feGaussianBlur stdDeviation="1.5"/>
<feColorMatrix type="matrix" values="0 0 0 0 0.0654514 0 0 0 0 0.145818 0 0 0 0 0.270833 0 0 0 0.2 0"/>
<feBlend mode="normal" in2="BackgroundImageFix" result="effect1_dropShadow_707_3583"/>
<feBlend mode="normal" in="SourceGraphic" in2="effect1_dropShadow_707_3583" result="shape"/>
</filter>
<linearGradient id="paint0_linear_707_3583" x1="18.709" y1="4.91748" x2="40.0119" y2="55.734" gradientUnits="userSpaceOnUse">
<stop stop-color="#E3F74E"/>
<stop offset="1" stop-color="#84B71B"/>
</linearGradient>
</defs>
</svg>
