<svg width="102" height="110" viewBox="0 0 102 110" fill="none" xmlns="http://www.w3.org/2000/svg">
<path d="M62.0392 30.5928H41.9093C20.3917 30.5928 2.94824 48.0362 2.94824 69.5538C2.94824 91.0714 20.3917 108.515 41.9093 108.515H62.0392C83.5567 108.515 101 91.0714 101 69.5538C101 48.0362 83.5567 30.5928 62.0392 30.5928Z" fill="url(#paint0_linear_634_5072)"/>
<path d="M35.4364 97.6735C29.0842 99.8607 23.2363 96.1048 21.0491 89.7526L7.98175 51.8023L8.15857 51.7415C7.99801 51.6292 7.87479 51.4714 7.8048 51.2884L3.72928 39.4523C2.25259 35.1637 4.85652 30.38 9.47114 28.791L52.6063 13.7564C52.8162 13.6902 53.0341 13.6521 53.2541 13.6432C54.2307 13.3367 55.2846 13.3876 56.2272 13.787C57.9786 14.6413 58.8202 16.3795 59.3043 17.6097L78.3359 72.8814C79.6445 76.6819 81.9041 79.3651 84.6044 80.6811L36.52 97.2983L35.4364 97.6735Z" fill="url(#paint1_linear_634_5072)"/>
<path opacity="0.513" d="M76.8828 69.0847C78.1912 72.8846 81.8328 81.6973 86.7194 80.0147C88.7283 79.323 89.4607 77.393 89.6205 75.2125C89.6127 73.2919 89.4013 71.3775 88.9898 69.5015L88.9209 69.3013C88.852 69.1011 88.8028 68.7829 88.7339 68.5828C88.4435 67.564 88.1885 66.6457 87.9817 66.0453L79.2707 40.7465C78.7203 39.1463 77.6208 38.071 76.6979 38.3888L67.4141 41.5854L76.8828 69.0847Z" fill="url(#paint2_linear_634_5072)"/>
<path d="M51.0715 27.7359L16.6448 39.59C14.6102 40.2905 13.5288 42.5077 14.2294 44.5422L16.9513 52.4471C17.6518 54.4817 19.869 55.5631 21.9035 54.8625L56.3302 43.0085C58.3648 42.3079 59.4462 40.0907 58.7456 38.0562L56.0238 30.1513C55.3232 28.1168 53.106 27.0353 51.0715 27.7359Z" fill="#74E8A1"/>
<path d="M41.1953 55.2735L24.4166 61.0509C23.2373 61.4569 22.6104 62.7422 23.0165 63.9215C23.4226 65.1009 24.7079 65.7277 25.8872 65.3217L42.6659 59.5443C43.8452 59.1382 44.4721 57.853 44.066 56.6736C43.6599 55.4943 42.3747 54.8674 41.1953 55.2735Z" fill="#74E8A1"/>
<path d="M65.0906 57.2833L27.567 70.2037C26.3877 70.6098 25.7608 71.895 26.1669 73.0744C26.573 74.2537 27.8582 74.8806 29.0376 74.4745L66.5612 61.5541C67.7405 61.148 68.3674 59.8628 67.9613 58.6834C67.5552 57.5041 66.27 56.8772 65.0906 57.2833Z" fill="#74E8A1"/>
<defs>
<linearGradient id="paint0_linear_634_5072" x1="51.9742" y1="30.5928" x2="51.9742" y2="108.515" gradientUnits="userSpaceOnUse">
<stop stop-color="#0FD573"/>
<stop offset="1" stop-color="#31D9B0"/>
</linearGradient>
<linearGradient id="paint1_linear_634_5072" x1="30.8056" y1="21.263" x2="54.818" y2="90.9999" gradientUnits="userSpaceOnUse">
<stop stop-color="#CCFECF"/>
<stop offset="1" stop-color="#FDFEFD"/>
</linearGradient>
<linearGradient id="paint2_linear_634_5072" x1="72.8431" y1="39.7161" x2="86.7191" y2="80.0148" gradientUnits="userSpaceOnUse">
<stop stop-color="#CCFECF"/>
<stop offset="1" stop-color="#FDFEFD"/>
</linearGradient>
</defs>
</svg>
