<?xml version="1.0" standalone="no"?><!DOCTYPE svg PUBLIC "-//W3C//DTD SVG 1.1//EN" "http://www.w3.org/Graphics/SVG/1.1/DTD/svg11.dtd"><svg class="icon" width="250px" height="250.00px" viewBox="0 0 1024 1024" version="1.1" xmlns="http://www.w3.org/2000/svg"><path d="M384 640m-192 0a192 192 0 1 0 384 0 192 192 0 1 0-384 0Z" fill="#E0EBFE" /><path d="M960 864h-158.016v-116.16c0-62.72-41.728-115.232-98.752-132.928l65.344-211.488a32.032 32.032 0 0 0-0.736-21.024l-78.4-201.28 58.464-23.392a32 32 0 1 0-23.808-59.456l-160 64a32 32 0 1 0 23.808 59.456l42.144-16.864 74.08 190.368L638.4 608h-32.96a224.064 224.064 0 0 0-205.408-191.2L322.24 319.552A31.744 31.744 0 0 0 352 288a32 32 0 0 0-32-32H224a32 32 0 1 0 0 64h16.64l83.488 104.384C229.632 450.656 160 537.248 160 640c0 123.52 100.48 224 224 224 112.64 0 205.824-83.648 221.44-192H662.144a75.936 75.936 0 0 1 75.84 75.84V864H64a32 32 0 1 0 0 64h896a32 32 0 1 0 0-64z m-576-192h156.768A160.256 160.256 0 0 1 384 800c-88.224 0-160-71.776-160-160s71.776-160 160-160a160.256 160.256 0 0 1 156.768 128H384a32 32 0 1 0 0 64z" fill="#5465CF" /></svg>