<?xml version="1.0" standalone="no"?><!DOCTYPE svg PUBLIC "-//W3C//DTD SVG 1.1//EN" "http://www.w3.org/Graphics/SVG/1.1/DTD/svg11.dtd"><svg class="icon" width="250px" height="250.00px" viewBox="0 0 1024 1024" version="1.1" xmlns="http://www.w3.org/2000/svg"><path fill="#1296db" d="M722.56 32.032c-103.552 0-210.72 47.808-294.08 131.136-71.456 71.424-117.088 160.672-128.416 251.264-10.176 81.472 8.256 155.584 51.968 212.224l-310.72 310.656a32 32 0 1 0 45.28 45.248l310.88-310.816c46.272 35.424 105.184 54.848 169.408 54.848 103.552 0 210.72-47.776 294.048-131.104 71.488-71.456 117.12-160.704 128.416-251.296 11.712-93.568-14.272-177.504-73.12-236.352-48.864-48.864-117.632-75.808-193.664-75.808z m114.272 94.336c12.352 7.584 23.84 16.416 34.144 26.72 10.304 10.304 19.136 21.824 26.688 34.176-0.48 0.384-1.088 0.544-1.536 1.024L838.304 246.08 777.92 185.76 835.776 128c0.48-0.48 0.64-1.088 1.056-1.6z m-104.128 225.28l-60.352 60.352-60.32-60.32 60.32-60.32 60.352 60.32z m-37.728-82.912l60.352-60.352 60.352 60.32-60.352 60.352-60.352-60.32z m-105.6 60.32l-60.32-60.352 60.352-60.32 60.32 60.352-60.32 60.32z m-22.592 22.624l-60.352 60.32-60.32-60.352 60.32-60.32 60.352 60.352z m0 165.888l-60.352 60.32-60.352-60.32 60.352-60.32 60.352 60.32z m-37.728-82.944l60.352-60.32 60.32 60.32-60.32 60.32-60.352-60.32z m143.296 22.624l60.352 60.32-60.32 60.32-60.352-60.32 60.32-60.32z m22.624-22.624l60.352-60.32 60.352 60.32-60.352 60.32-60.352-60.32z m82.976-82.944l60.352-60.352 60.32 60.352-60.32 60.32-60.352-60.32z m-77.44-254.368c7.36-0.576 14.72-1.28 22.08-1.28 30.624 0 59.04 5.28 84.48 15.36l-51.744 51.744-60.32-60.32 5.504-5.504z m32.192 88.448l-60.352 60.352-60.32-60.352 60.352-60.32 60.32 60.32z m-86.88-79.008L589.408 163.2l-23.968-23.968a354.24 354.24 0 0 1 80.384-32.448z m-172.064 101.664a418.88 418.88 0 0 1 63.648-52l29.376 29.344-60.352 60.32-35.104-35.072c0.832-0.864 1.6-1.76 2.432-2.592z m-24 26.24l34.048 34.048-60.352 60.32-22.464-22.464c13.248-25.088 29.568-49.28 48.736-71.904z m-63.328 102.592l14.4 14.4-28.704 28.704c3.84-14.496 8.416-28.928 14.304-43.104z m37.024 37.024l60.352 60.352-60.352 60.32-60.32-60.32 60.32-60.352z m-61.024 104.896l38.4 38.4-23.904 23.904a219.488 219.488 0 0 1-14.496-62.304z m90.144 153.088a185.216 185.216 0 0 1-34.144-26.72 184.608 184.608 0 0 1-26.688-34.176c0.512-0.384 1.088-0.544 1.568-1.024l30.144-30.144 60.352 60.32-30.176 30.144c-0.448 0.48-0.64 1.088-1.056 1.6z m29.76 14.944l24.096-24.064 38.56 38.528a219.584 219.584 0 0 1-62.656-14.464z m46.72-46.72l60.352-60.288 60.352 60.32-60.352 60.32-60.352-60.32z m114.56 51.392l28.768-28.736 14.176 14.176c-14.176 5.856-28.48 10.72-42.944 14.56z m73.696-29.056l-22.304-22.304 60.32-60.32 34.112 34.08a401.28 401.28 0 0 1-72.128 48.544z m98.368-72.576c-0.864 0.864-1.76 1.6-2.624 2.4l-35.104-35.072 60.352-60.32 29.344 29.344c-14.912 22.4-32.16 43.84-51.968 63.68z m69.12-91.744l-23.872-23.872 56.352-56.352a355.072 355.072 0 0 1-32.48 80.224z m42.048-135.04l-5.6 5.6-60.32-60.352 51.584-51.552c12.544 31.616 17.44 67.648 14.336 106.304z"  /></svg>