<?xml version="1.0" standalone="no"?><!DOCTYPE svg PUBLIC "-//W3C//DTD SVG 1.1//EN" "http://www.w3.org/Graphics/SVG/1.1/DTD/svg11.dtd"><svg class="icon" width="250px" height="250.00px" viewBox="0 0 1024 1024" version="1.1" xmlns="http://www.w3.org/2000/svg"><path d="M288 448h672v128H288z" fill="#E0EBFE" /><path d="M960 224a32 32 0 0 0-32 32v96a32 32 0 0 0 64 0V256a32 32 0 0 0-32-32zM896 288V192a32 32 0 0 0-64 0v96a32 32 0 0 0 64 0zM960 416H461.248L118.624 73.376a32 32 0 1 0-45.248 45.248L370.752 416H64a32 32 0 0 0-32 32v128a32 32 0 0 0 32 32h498.752l342.624 342.624a31.904 31.904 0 0 0 45.248 0 32 32 0 0 0 0-45.248L653.248 608H960a32 32 0 0 0 32-32v-128a32 32 0 0 0-32-32zM256 544H96v-64h160v64z m64 0v-64h114.752l64 64H320z m608 0H589.248l-64-64H928v64z" fill="#5465CF" /></svg>