<?xml version="1.0" standalone="no"?><!DOCTYPE svg PUBLIC "-//W3C//DTD SVG 1.1//EN" "http://www.w3.org/Graphics/SVG/1.1/DTD/svg11.dtd"><svg class="icon" width="250px" height="250.00px" viewBox="0 0 1024 1024" version="1.1" xmlns="http://www.w3.org/2000/svg"><path d="M352 573.12v-159.68a82.688 82.688 0 0 1-63.68-77.44h447.36A82.688 82.688 0 0 1 672 413.44v159.68c51.2 31.36 87.36 84.48 94.4 146.88H257.6c7.04-62.4 43.2-115.52 94.4-146.88z" fill="#E0EBFE" /><path d="M415.68 1024h192.64A191.904 191.904 0 0 0 800 832.32v-88.64c0-7.808-0.224-18.144-1.792-27.264A228.736 228.736 0 0 0 704 556v-120.288a114.656 114.656 0 0 0 63.552-96.192c0.448-3.104 0.448-5.504 0.448-7.04a201.792 201.792 0 0 0-59.84-144.448A201.056 201.056 0 0 0 608 132.96V96c0-52.928-43.072-96-96-96s-96 43.072-96 96v37.024c-91.424 20.384-160 102.016-160 199.456 0 1.504 0 3.936 0.448 7.04A114.656 114.656 0 0 0 320 435.712v120.32c-52.896 38.176-86.88 95.584-93.984 158.72-1.792 10.784-2.016 21.12-2.016 28.928v88.64A191.904 191.904 0 0 0 415.68 1024zM448 96c0-35.296 28.704-64 64-64s64 28.704 64 64v32.608C571.84 128.32 567.712 128 563.52 128h-103.04c-4.224 0-8.32 0.384-12.48 0.64V96z m12.48 96h103.04c37.76 0 72.96 14.592 99.392 41.312 23.456 23.2 36.928 53.6 39.872 86.688H321.28c6.4-71.552 66.048-128 139.232-128z m-91.776 408.416A32 32 0 0 0 384 573.12v-159.68a32 32 0 0 0-24.704-31.168 50.56 50.56 0 0 1-35.2-30.272h375.808a50.56 50.56 0 0 1-35.2 30.272 32 32 0 0 0-24.704 31.168v159.68a32 32 0 0 0 15.296 27.296A166.464 166.464 0 0 1 730.976 704H292.864a166.4 166.4 0 0 1 75.84-103.584zM288 743.68c0-2.496 0.064-5.056 0.192-7.68h447.328c0.096 2.56 0.48 5.12 0.48 7.68v88.64c0 70.4-57.28 127.68-127.68 127.68h-192.64C345.28 960 288 902.72 288 832.32v-88.64z" fill="#5465CF" /></svg>