<svg width="734" height="225" viewBox="0 0 734 225" fill="none" xmlns="http://www.w3.org/2000/svg">
<g filter="url(#filter0_d_634_5498)">
<rect x="20" y="10" width="694" height="185" rx="12" fill="url(#paint0_linear_634_5498)"/>
</g>
<mask id="mask0_634_5498" style="mask-type:alpha" maskUnits="userSpaceOnUse" x="20" y="10" width="694" height="185">
<rect x="20" y="10" width="694" height="185" rx="12" fill="#3B3C3E"/>
</mask>
<g mask="url(#mask0_634_5498)">
<path d="M630.183 156.805C583.03 135.215 537.427 126.368 492.212 126.368C426.283 126.368 361.175 145.179 293.298 170.714C233.484 193.221 169.818 214.332 107.255 214.332C67.9938 214.332 29.1653 206.002 -7.99902 184.499V183.942C29.1559 205.479 67.9812 213.815 107.255 213.815C169.757 213.815 233.393 192.725 293.202 170.218C361.092 144.676 426.235 125.852 492.212 125.852C537.464 125.852 583.107 134.707 630.297 156.315C671.115 175.008 707.537 203.135 741.997 236.375V237C707.501 203.692 671.042 175.515 630.183 156.805Z" fill="url(#paint1_linear_634_5498)"/>
<path d="M632.972 150.219C585.755 128.537 540.05 119.63 494.686 119.63C430.523 119.63 367.049 137.444 300.992 162.109C267.574 174.4 233.464 187.531 199.025 197.252C167.134 206.244 134.867 212.343 102.711 212.343C97.2349 212.343 91.7607 212.159 86.288 211.79C54.0722 209.642 22.5161 200.42 -7.99707 182.795V182.241C22.5161 199.893 54.0798 209.127 86.3005 211.276C91.767 211.651 97.2364 211.833 102.709 211.823C134.833 211.823 167.07 205.736 198.947 196.751C233.368 187.03 267.471 173.901 300.896 161.613C366.964 136.942 430.469 119.114 494.684 119.114C540.082 119.114 585.832 128.027 633.088 149.733C672.632 167.973 708.234 194.776 741.995 226.301V226.922C708.195 195.339 672.555 168.485 632.972 150.219Z" fill="url(#paint2_linear_634_5498)"/>
<path d="M635.756 143.641C588.659 121.939 543.026 113.049 497.699 113.049C435.143 113.049 373.152 129.975 308.682 153.511C274.112 166.131 239.218 180.497 204.038 191.711C169.535 202.682 134.515 210.523 99.3941 210.523C95.7391 210.523 92.0836 210.437 88.4277 210.264C55.256 208.736 22.5713 198.848 -7.99707 181.094V180.537C22.5695 198.322 55.261 208.222 88.4403 209.74C92.0911 209.922 95.7424 210.008 99.3941 209.999C134.473 209.999 169.463 202.17 203.957 191.202C239.119 179.988 274.005 165.629 308.588 153C373.073 129.463 435.091 112.53 497.699 112.53C543.065 112.53 588.74 121.421 635.877 143.146C674.176 160.94 708.95 186.504 741.997 216.411V217.025C708.905 187.066 674.096 161.455 635.756 143.641Z" fill="url(#paint3_linear_634_5498)"/>
<path d="M638.548 137.067C591.43 115.287 545.734 106.357 500.294 106.357C439.462 106.357 379.085 122.355 316.373 144.912C280.635 157.775 244.978 173.471 209.056 186.172C172.262 199.153 134.799 208.833 96.9736 208.833C94.8376 208.833 92.7079 208.799 90.5656 208.738C56.6649 207.812 23.8222 197.747 -7.99707 179.409V178.852C23.8298 197.22 56.67 207.306 90.5725 208.228C92.7056 208.289 94.8384 208.32 96.971 208.323C134.75 208.323 172.179 198.649 208.962 185.675C244.865 172.981 280.527 157.285 316.277 144.422C379.006 121.855 439.411 105.848 500.291 105.848C545.77 105.848 591.511 114.778 638.661 136.586C675.747 153.925 709.675 178.328 741.994 206.718V207.33C709.635 178.874 675.671 154.435 638.548 137.067Z" fill="url(#paint4_linear_634_5498)"/>
<path d="M641.335 130.483C594.274 108.494 548.545 99.489 503.017 99.489C443.865 99.489 385.046 114.682 324.066 136.31C287.159 149.406 250.73 166.427 214.077 180.623C175.231 195.614 135.562 207.22 95.2151 207.22C94.3783 207.22 93.5421 207.209 92.7085 207.202C57.9673 206.876 24.4743 196.414 -7.99707 177.705V177.151C24.4794 195.887 57.9673 206.362 92.7129 206.686C93.5447 206.7 94.3783 206.703 95.2151 206.703C135.516 206.703 175.146 195.114 213.974 180.127C250.615 165.94 287.046 148.906 323.973 135.814C384.968 114.172 443.819 98.9723 503.019 98.9723C548.584 98.9723 594.354 107.981 641.457 129.997C677.375 146.785 710.437 170.091 741.998 197.1V197.704C710.39 170.638 677.292 147.287 641.335 130.483Z" fill="url(#paint5_linear_634_5498)"/>
<path d="M644.123 123.911C597.013 101.779 551.177 92.7105 505.479 92.7105C448.089 92.7105 390.922 107.012 331.76 127.704C293.68 141.03 256.488 159.395 219.095 175.077C178.673 191.973 137.278 205.485 94.8487 205.667C94.4337 205.677 94.0172 205.681 93.5992 205.677C58.4615 205.677 24.7406 194.864 -7.99658 176.003V175.446C24.7475 194.337 58.4703 205.161 93.5992 205.161C94.0125 205.161 94.431 205.161 94.8462 205.154C137.219 204.964 178.576 191.47 218.985 174.588C256.365 158.902 293.56 140.533 331.663 127.205C390.842 106.501 448.042 92.1938 505.477 92.1938C551.213 92.1938 597.093 101.266 644.243 123.414C678.997 139.743 711.191 161.995 741.996 187.667V188.27C711.149 162.542 678.914 140.246 644.123 123.911Z" fill="url(#paint6_linear_634_5498)"/>
<path d="M646.91 117.319C599.72 95.0452 553.74 85.8988 507.847 85.8988C452.239 85.8988 396.763 99.3256 339.448 119.099C300.2 132.647 262.242 152.35 224.109 169.529C182.914 188.015 140.631 203.268 96.9886 204.13C95.7146 204.164 94.4374 204.178 93.1658 204.178C58.1338 204.178 24.5969 193.078 -7.99707 174.305V173.748C24.6082 192.553 58.1407 203.658 93.1658 203.658C94.4349 203.658 95.7096 203.647 96.9836 203.614C140.567 202.746 182.811 187.519 223.991 169.031C262.115 151.865 300.077 132.15 339.357 118.599C396.689 98.8175 452.195 85.3777 507.849 85.3777C553.778 85.3777 599.804 94.5345 647.038 116.825C680.648 132.697 711.961 153.954 741.999 178.368V178.966C711.916 154.501 680.562 133.201 646.91 117.319Z" fill="url(#paint7_linear_634_5498)"/>
<path d="M649.702 110.745C602.404 88.3092 556.246 79.0713 510.109 79.0713C456.315 79.0713 402.565 91.6329 347.14 110.505C306.713 124.269 267.998 145.319 229.127 163.988C187.153 184.072 143.986 201.055 99.1254 202.612C97.0816 202.687 95.0408 202.724 93.0033 202.724C57.9806 202.724 24.5379 191.375 -7.99756 172.635V172.074C24.5499 190.848 57.9881 202.214 93.0033 202.214C95.04 202.214 97.0717 202.17 99.1185 202.096C143.911 200.549 187.047 183.579 229.001 163.507C267.863 144.845 306.588 123.778 347.046 110.01C402.493 91.1352 456.27 78.5607 510.106 78.5607C556.272 78.5607 602.484 87.8081 649.821 110.261C682.305 125.67 712.74 145.987 741.993 169.199V169.794C712.699 146.526 682.225 126.171 649.702 110.745Z" fill="url(#paint8_linear_634_5498)"/>
<path d="M652.489 104.162C605.057 81.561 558.681 72.2083 512.282 72.2083C460.327 72.2083 408.337 83.9324 354.835 101.903C313.231 115.877 273.753 138.288 234.141 158.447C191.394 180.118 147.339 198.838 101.27 201.08C98.5188 201.22 95.7772 201.29 93.0448 201.29C57.9687 201.29 24.5474 189.698 -8 170.944V170.384C24.5606 189.167 57.9813 200.772 93.0448 200.772C95.7709 200.772 98.5064 200.701 101.251 200.559C147.252 198.327 191.277 179.628 234.009 157.963C273.612 137.804 313.104 115.386 354.737 101.402C408.262 83.4217 460.28 71.6873 512.279 71.6873H512.293C558.73 71.6873 605.139 81.0503 652.609 103.675C683.985 118.632 713.53 138.04 741.994 160.111V160.705C713.487 138.585 683.905 119.142 652.489 104.162Z" fill="url(#paint9_linear_634_5498)"/>
<path d="M655.278 97.582C607.686 74.7886 561.06 65.3109 514.353 65.3109C464.261 65.3109 414.075 76.2111 362.523 93.299C319.746 107.475 279.509 131.249 239.159 152.893C195.635 176.166 150.692 196.629 103.407 199.544C100.005 199.763 96.6176 199.873 93.2444 199.872C58.0697 199.872 24.6069 188.046 -7.99707 169.249V168.688C24.622 187.509 58.0797 199.352 93.2444 199.352C96.6125 199.352 99.9941 199.244 103.389 199.027C150.606 196.108 195.512 175.676 239.024 152.413C279.365 130.773 319.62 106.986 362.435 92.7961C414.013 75.7039 464.225 64.7907 514.356 64.7907C561.101 64.7907 607.774 74.2797 655.405 97.086C685.686 111.596 714.34 130.131 742 151.123V151.711C714.293 130.678 685.6 112.104 655.278 97.582Z" fill="url(#paint10_linear_634_5498)"/>
<path d="M658.066 91.0046C610.291 68.012 563.377 58.3781 516.329 58.3781C468.128 58.3781 419.781 68.4813 370.212 84.6979C326.256 99.0772 285.26 124.215 244.175 147.353C199.879 172.213 154.046 194.412 105.547 198.011C101.534 198.332 97.5391 198.477 93.5737 198.477C58.2539 198.477 24.7101 186.435 -7.99756 167.574V167.02C24.7245 185.905 58.2639 197.967 93.5737 197.967C97.5341 197.967 101.519 197.811 105.529 197.501C153.956 193.907 199.75 171.731 244.031 146.882C285.112 123.747 326.125 98.5958 370.126 84.1993C419.711 67.9819 468.091 57.8666 516.328 57.8666C563.414 57.8666 610.374 67.5065 658.188 90.5198C687.392 104.571 715.146 122.271 741.994 142.233V142.821C715.105 122.813 687.312 105.076 658.066 91.0046Z" fill="url(#paint11_linear_634_5498)"/>
<path d="M660.855 84.421C612.869 61.2162 565.638 51.4098 518.208 51.4098C471.926 51.4098 425.45 60.7495 377.904 76.0949C332.77 90.6734 291.02 117.179 249.19 141.813C204.117 168.261 157.395 192.196 107.689 196.479C103.097 196.891 98.5349 197.096 94.0045 197.094C58.505 197.094 24.8406 184.844 -7.99707 165.897V165.336C24.8595 184.314 58.5201 196.574 94.0045 196.574C98.5278 196.574 103.081 196.372 107.665 195.97C157.295 191.687 203.984 167.779 249.043 141.334C290.867 116.707 332.637 90.1799 377.819 75.592C425.387 60.2371 471.89 50.8905 518.208 50.8905C565.673 50.8905 612.95 60.7098 660.978 83.9353C689.117 97.5442 715.965 114.443 741.997 133.413V134.003C715.926 114.987 689.034 98.0506 660.855 84.421Z" fill="url(#paint12_linear_634_5498)"/>
<path d="M663.642 77.8423C615.428 54.4141 567.845 44.3989 519.998 44.3989C475.663 44.3989 431.099 52.9985 385.595 67.4959C339.283 82.2469 296.771 110.141 254.206 136.264C208.36 164.307 160.748 189.985 109.827 194.947C104.683 195.465 99.5811 195.721 94.5209 195.717C58.8198 195.717 25.0033 183.263 -7.99707 164.219V163.661C25.0203 182.736 58.8298 195.2 94.5209 195.2C99.5761 195.2 104.67 194.944 109.802 194.433C160.645 189.475 208.218 163.834 254.053 135.791C296.614 109.674 339.143 81.7638 385.513 66.993C431.035 52.4887 475.626 43.8891 519.998 43.8822C567.884 43.8822 615.506 53.9042 663.77 77.3523C690.852 90.5126 716.797 106.641 741.997 124.665V125.243C716.753 107.184 690.768 91.0242 663.642 77.8423Z" fill="url(#paint13_linear_634_5498)"/>
<path d="M666.432 71.2623C617.964 47.5969 569.998 37.3488 521.711 37.3488C479.338 37.3488 436.711 45.2428 393.289 58.8922C345.79 73.8227 302.53 103.107 259.218 130.721C212.597 160.354 164.098 187.769 111.969 193.416C106.3 194.049 100.68 194.361 95.109 194.351C59.1741 194.351 25.1868 181.698 -7.99707 162.536V161.979C25.205 181.165 59.1911 193.842 95.109 193.835C100.671 193.835 106.281 193.524 111.937 192.902C163.993 187.261 212.451 159.888 259.06 130.252C302.362 102.641 345.65 73.3422 393.203 58.3945C436.653 44.7312 479.306 36.8373 521.711 36.8373C570.036 36.8373 618.05 47.0923 666.552 70.7767C692.598 83.491 717.633 98.8701 741.997 115.986V116.563C717.594 99.4092 692.515 83.9957 666.432 71.2623Z" fill="url(#paint14_linear_634_5498)"/>
<path d="M669.219 64.6812C620.487 40.7768 572.113 30.2622 523.354 30.2622C482.964 30.2622 442.312 37.4807 400.979 50.2925C352.299 65.398 308.283 96.075 264.235 125.178C216.84 156.409 167.454 185.562 114.11 191.893C107.931 192.64 101.812 193.011 95.7535 193.004C59.5799 193.004 25.3916 180.155 -7.99707 160.874V160.31C25.4092 179.628 59.595 192.486 95.7535 192.486C101.805 192.486 107.911 192.115 114.073 191.372C167.336 185.051 216.687 155.938 264.071 124.714C308.116 95.6152 352.156 64.9072 400.895 49.7922C442.25 36.9666 482.932 29.7377 523.354 29.7377C572.149 29.7377 620.573 40.2765 669.347 64.1947C694.185 76.5293 718.447 90.9493 741.997 107.373V107.952C718.408 91.4889 694.103 77.038 669.219 64.6812V64.6812Z" fill="url(#paint15_linear_634_5498)"/>
<path d="M672.011 58.0962C624.843 34.7647 575.071 22.9224 524.936 23.1026C486.551 23.1026 447.89 29.6854 408.669 41.6837C358.803 56.9411 314.037 89.0336 269.249 119.629C221.078 152.451 170.805 183.334 116.25 190.353C109.578 191.225 102.979 191.654 96.4521 191.64C60.0147 191.64 25.6108 178.615 -7.99707 159.193V158.636C25.6253 178.085 60.0304 191.131 96.4521 191.127C102.971 191.127 109.559 190.696 116.216 189.833C170.688 182.835 220.921 151.982 269.084 119.164C313.865 88.5738 358.658 56.4503 408.585 41.1774C447.831 29.1721 486.516 22.5824 524.934 22.5824C575.112 22.4006 624.927 34.253 672.135 57.6053C695.977 69.4833 719.302 83.2333 741.994 98.7874V99.3619C719.262 83.7765 695.895 69.9985 672.011 58.0962Z" fill="url(#paint16_linear_634_5498)"/>
<path d="M674.796 51.5187C627.252 27.8361 577.052 15.7826 526.476 15.9058C490.101 15.9058 453.459 21.8908 416.358 33.0878C365.31 48.4944 319.794 81.999 274.262 114.084C225.319 148.497 174.157 181.12 118.383 188.818C111.343 189.806 104.272 190.301 97.1953 190.301C60.4827 190.301 25.847 177.093 -7.99707 157.529V156.965C25.8615 176.559 60.4978 189.787 97.1953 189.787C104.26 189.787 111.32 189.293 118.349 188.307C174.034 180.619 225.157 148.034 274.092 113.625C319.614 81.5427 365.162 48.0147 416.28 32.5779C453.398 21.3784 490.071 15.3883 526.476 15.3831C577.096 15.2625 627.341 27.329 674.927 51.0348C697.779 62.4654 720.169 75.5698 742 90.2915V90.8686C720.128 76.1092 697.694 62.9736 674.796 51.5187V51.5187Z" fill="url(#paint17_linear_634_5498)"/>
<path d="M677.583 44.9387C629.658 20.8881 579.026 8.60382 528.001 8.64775C493.637 8.64775 459.021 14.0755 424.051 24.4797C371.806 40.0372 325.544 74.9635 279.281 108.539C229.558 144.546 177.503 178.908 120.52 187.289C113.032 188.407 105.505 188.967 97.9725 188.964C60.9697 188.964 26.0902 175.578 -7.99951 155.861V155.3C26.1053 175.047 60.9872 188.447 97.9725 188.447C105.493 188.449 113.007 187.891 120.483 186.778C177.38 178.41 229.39 144.093 279.101 108.086C325.363 74.5106 371.659 39.5507 423.971 23.9793C458.969 13.5656 493.613 8.13104 528.003 8.13104C579.07 8.08832 629.745 20.3828 677.71 44.4522C699.68 55.393 721.047 68.0254 741.994 81.8275V82.3943C721.011 68.5594 699.594 55.8959 677.583 44.9387Z" fill="url(#paint18_linear_634_5498)"/>
<path d="M680.375 38.3537C630.574 13.4461 580.341 1.33298 529.531 1.33298C496.653 1.44081 463.875 6.3161 431.743 15.8778C378.313 31.557 331.298 67.9265 284.297 102.991C233.799 140.599 180.858 176.691 122.666 185.757C114.739 187.003 106.767 187.628 98.7891 187.628C61.4891 187.628 26.3484 174.056 -7.99707 154.181V153.627C26.3672 173.529 61.5061 187.111 98.7891 187.111C106.754 187.112 114.711 186.486 122.624 185.237C180.728 176.191 233.624 140.137 284.117 102.538C331.116 67.4736 378.163 31.0808 431.662 15.3714C463.821 5.80312 496.626 0.92318 529.531 0.812786C580.383 0.812786 630.66 12.9354 680.5 37.8672C701.471 48.3551 721.924 60.35 741.997 73.3947V73.9623C721.879 60.8865 701.385 48.8718 680.375 38.3537Z" fill="url(#paint19_linear_634_5498)"/>
<path d="M683.162 31.7784C633.134 6.63439 582.447 -5.97125 531.1 -6.03853C500.291 -5.97799 469.571 -1.51458 439.435 7.27962C384.815 23.077 337.05 60.8914 289.31 97.4498C238.037 136.649 184.207 174.483 124.805 184.221C116.453 185.608 108.047 186.303 99.6329 186.302C62.0231 186.302 26.6141 172.554 -7.99707 152.525V151.964C26.6342 172.024 62.0376 185.785 99.6329 185.785C108.031 185.79 116.422 185.098 124.759 183.715C184.075 173.983 237.862 136.192 289.128 97.0003C336.868 60.4454 384.66 22.6009 439.359 6.77933C469.519 -2.02669 500.266 -6.49598 531.1 -6.55614C582.469 -6.55614 633.2 6.06215 683.292 31.2988C703.27 41.3415 722.797 52.711 741.997 65.0191V65.5867C722.757 53.2442 703.183 41.8445 683.162 31.7784Z" fill="url(#paint20_linear_634_5498)"/>
<path d="M685.949 25.2027C635.724 -0.175054 584.543 -13.4734 532.731 -13.4734C503.968 -13.4534 475.282 -9.37969 447.125 -1.31632C391.311 14.5854 342.806 53.8654 294.326 91.9075C242.273 132.695 187.564 172.272 126.943 182.692C118.175 184.217 109.345 184.978 100.506 184.973C62.5791 184.973 26.8899 171.059 -7.99707 150.856V150.299C26.9094 170.529 62.5936 184.459 100.506 184.459C109.329 184.464 118.144 183.704 126.897 182.183C187.428 171.773 242.101 132.246 294.138 91.4589C342.619 53.4169 391.154 14.105 447.05 -1.82524C475.233 -9.89364 503.944 -13.9694 532.733 -13.9884C584.596 -13.9884 635.822 -0.673621 686.084 24.7206C705.076 34.3208 723.683 45.0787 741.997 56.6681V57.2392C723.64 45.6074 704.986 34.8194 685.949 25.2027Z" fill="url(#paint21_linear_634_5498)"/>
<path d="M688.738 18.6215C638.371 -6.9556 586.729 -20.9734 534.468 -20.9734C507.713 -20.9834 481.027 -17.2783 454.815 -9.91444C397.808 6.08308 348.562 46.8261 299.339 86.3657C246.517 128.75 190.914 170.061 129.083 181.169C119.904 182.83 110.655 183.663 101.397 183.661C63.1445 183.661 27.1701 169.583 -7.99707 149.208V148.644C27.1902 169.046 63.1615 183.144 101.397 183.144C110.639 183.147 119.871 182.316 129.034 180.658C190.774 169.564 246.333 128.304 299.149 85.9206C348.366 46.3904 397.656 5.59997 454.738 -10.4208C480.975 -17.7936 507.688 -21.5011 534.468 -21.4867H534.48C586.793 -21.4936 638.467 -7.46196 688.869 18.1384C706.881 27.2883 724.565 37.4561 741.997 48.3589V48.9266C724.521 37.9893 706.795 27.7956 688.738 18.6215Z" fill="url(#paint22_linear_634_5498)"/>
<path d="M691.524 12.0374C641.071 -13.7251 589.006 -28.5468 536.341 -28.5468C511.549 -28.5788 486.816 -25.2227 462.508 -18.5282C404.301 -2.44617 354.312 39.7857 304.356 80.8194C250.756 124.791 194.265 167.837 131.227 179.632C121.643 181.434 111.982 182.337 102.31 182.334C63.7305 182.334 27.4633 168.09 -7.99658 147.54V146.979C27.4809 167.556 63.7475 181.817 102.31 181.817C111.963 181.821 121.606 180.92 131.17 179.119C194.119 167.35 250.571 124.348 304.163 80.376C354.12 39.3492 404.143 -2.92322 462.437 -19.0286C486.768 -25.7319 511.524 -29.0938 536.341 -29.0645C589.062 -29.0645 641.169 -14.2185 691.656 11.5569C708.694 20.2583 725.455 29.8378 741.997 40.0652V40.6328C725.412 30.3649 708.61 20.7621 691.524 12.0374Z" fill="url(#paint23_linear_634_5498)"/>
<path d="M694.313 5.45743C643.84 -20.4466 591.394 -36.1835 538.386 -36.1835C515.495 -36.2295 492.657 -33.1958 470.198 -27.1259C410.795 -10.98 360.069 32.752 309.364 75.2686C254.995 120.838 197.614 165.621 133.36 178.094C123.384 180.044 113.32 181.022 103.243 181.02C64.3281 181.016 27.7581 166.61 -7.99707 145.878V145.325C27.7751 166.078 64.3426 180.505 103.244 180.501C113.303 180.504 123.349 179.531 133.307 177.59C197.467 165.139 254.807 120.404 309.174 74.8373C359.872 32.3181 410.633 -11.4614 470.127 -27.634C492.611 -33.7057 515.474 -36.7412 538.388 -36.6968C591.449 -36.6968 643.942 -20.946 694.445 4.97783C710.518 13.2272 726.35 22.2382 741.998 31.8108V32.3785C726.302 22.7653 710.426 13.737 694.313 5.45743Z" fill="url(#paint24_linear_634_5498)"/>
<path d="M697.1 -1.12182C646.615 -27.0638 593.787 -43.8575 540.466 -43.8575C519.464 -43.9114 498.508 -41.1879 477.887 -35.7246C417.288 -19.5347 365.823 25.7181 314.384 69.7305C259.235 116.891 200.965 163.418 135.502 176.569C125.134 178.659 114.67 179.707 104.191 179.704C64.9331 179.704 28.0584 165.126 -7.99707 144.217V143.656C28.0779 164.599 64.9526 179.191 104.191 179.191C114.653 179.195 125.1 178.148 135.45 176.056C200.819 162.923 259.048 116.448 314.19 69.294C365.623 25.2886 417.127 -20.0109 477.823 -36.2275C498.466 -41.6998 519.445 -44.4271 540.469 -44.3716C593.85 -44.3716 646.716 -27.5632 697.236 -1.59883C712.338 6.22783 727.248 14.6963 742 23.6504V24.2111C727.203 15.2302 712.248 6.72814 697.1 -1.12182Z" fill="url(#paint25_linear_634_5498)"/>
<path d="M699.889 -7.70411C649.613 -33.7401 596.55 -51.713 543.095 -51.713C523.796 -51.7709 504.538 -49.2986 485.581 -44.3298C423.756 -28.2477 371.577 18.6761 319.396 64.1816C263.474 112.94 204.322 161.195 137.641 175.034C126.891 177.27 116.034 178.393 105.161 178.392C65.553 178.385 28.3641 163.641 -7.99414 142.554V141.993C28.3886 163.114 65.5718 177.871 105.161 177.871C116.015 177.876 126.854 176.757 137.585 174.524C204.167 160.709 263.281 112.5 319.201 63.7495C371.374 18.2508 423.596 -28.7247 485.516 -44.8395C504.495 -49.8107 523.777 -52.2833 543.098 -52.2237C596.614 -52.2237 649.719 -34.2369 700.026 -8.1837C714.171 -0.827175 728.162 7.03628 742 15.4067V15.9605C728.109 7.61024 714.072 -0.277992 699.889 -7.70411Z" fill="url(#paint26_linear_634_5498)"/>
<path d="M702.681 -14.2873C652.655 -40.4009 599.375 -59.4789 545.824 -59.4789C528.197 -59.5364 510.605 -57.346 493.273 -52.9358C430.266 -36.695 377.328 11.6408 324.414 58.6362C267.714 108.983 207.669 158.978 139.777 173.503C128.648 175.885 117.401 177.081 106.137 177.079C66.1751 177.079 28.676 162.173 -7.99707 140.897V140.333C28.6954 161.64 66.1921 176.563 106.137 176.563C117.382 176.566 128.611 175.371 139.722 172.99C207.508 158.489 267.511 108.545 324.206 58.1997C377.124 11.2147 430.097 -37.1729 493.204 -53.443C510.558 -57.8631 528.173 -60.0579 545.823 -59.999C599.437 -59.999 652.759 -40.9003 702.814 -14.7738C715.999 -7.88309 729.06 -0.567966 741.996 7.17157V7.73225C729.008 0.000189725 715.902 -7.33966 702.681 -14.2873Z" fill="url(#paint27_linear_634_5498)"/>
<path d="M46 35.0006H53.371L59 55L64.3727 35.0006H71.7437L61.9167 63L56 62.9994L46 35.0006Z" fill="#FEE6D3"/>
<path d="M76 35H82.9743V62.9994H76V35Z" fill="#FEE6D3"/>
<path d="M90.3333 35H102.075C108.924 35 112.471 39.4478 112.471 45.2391C112.471 51.0833 108.977 55.1558 102.075 55.1558H96.1381V63H90.3333V35ZM96.1381 41.1558V49.3224H101.388C103.424 49.3224 104.325 49.3541 105.471 48.1558C106.32 47.2693 106.638 46.6037 106.638 45.2391C106.638 43.8745 106.32 43.2089 105.471 42.3224C104.325 41.124 103.451 41.1558 101.388 41.1558H96.1381Z" fill="#FEE6D3"/>
<path d="M100.808 131.688H96.188V134.236H101.508V135.468H96.188V137.932H102.376V139.22H96.188V142.356H94.732V139.22H89.776V137.932H94.732V135.468H90.672V134.236H94.732V131.688H90.952V130.428H94.732V127.796H89.776V126.536H94.732V123.904H90.952V122.644H94.732V120.376H96.188V122.644H100.808V126.536H102.768V127.796H100.808V131.688ZM96.188 123.904V126.536H99.436V123.904H96.188ZM96.188 127.796V130.428H99.436V127.796H96.188ZM83.756 123.008H89.076V124.296C87.9187 126.816 86.752 128.963 85.576 130.736H89.216V131.576C89.1413 135.029 88.5627 137.96 87.48 140.368C88.4507 141.488 89.5053 142.291 90.644 142.776C92.156 143.448 94.5453 143.812 97.812 143.868C99.9027 143.868 101.583 143.849 102.852 143.812L102.544 145.268H98.792C94.0693 145.231 90.8773 144.699 89.216 143.672C88.32 143.187 87.508 142.533 86.78 141.712C85.8467 143.28 84.652 144.577 83.196 145.604L82.44 144.288C83.8587 143.299 84.988 142.048 85.828 140.536C84.652 138.856 83.728 136.775 83.056 134.292L84.316 133.816C84.82 135.907 85.548 137.671 86.5 139.108C87.3213 137.073 87.788 134.712 87.9 132.024H83.812V130.932C85.1933 128.935 86.416 126.779 87.48 124.464H83.756V123.008ZM80.004 129.448C79.276 130.736 78.464 131.968 77.568 133.144L77.064 131.548C79.3973 128.169 81.068 124.389 82.076 120.208L83.448 120.852C82.8507 122.999 82.188 124.903 81.46 126.564V145.744H80.004V129.448ZM114.932 120.74C114.241 122.831 113.383 124.819 112.356 126.704V145.8H110.816V129.252C109.883 130.671 108.744 132.089 107.4 133.508L106.924 131.912C109.985 128.384 112.179 124.436 113.504 120.068L114.932 120.74ZM116.892 121.524H129.884V130.008H124.144V133.48H132.348V134.992H125.796C127.532 138.053 129.875 140.667 132.824 142.832L131.872 144.12C128.941 141.749 126.515 138.707 124.592 134.992H124.144V145.744H122.632V134.992H122.156C120.215 138.912 117.741 141.973 114.736 144.176L113.896 142.832C116.789 140.853 119.132 138.24 120.924 134.992H114.652V133.48H122.632V130.008H116.892V121.524ZM128.372 128.524V122.98H118.404V128.524H128.372ZM142.832 128.272H152.408V124.66H153.836V128.272H157.504V129.644H153.836V138.492C153.836 140.023 153.117 140.788 151.68 140.788H148.516L148.208 139.388C149.552 139.463 150.541 139.5 151.176 139.5C151.997 139.5 152.408 139.043 152.408 138.128V129.644H152.38C150.177 133.564 147.107 136.644 143.168 138.884L142.356 137.568C146.089 135.608 149.001 132.967 151.092 129.644H142.832V128.272ZM161.116 121.58V145.744H159.66V144.344H140.34V145.744H138.884V121.58H161.116ZM140.34 142.944H159.66V122.98H140.34V142.944ZM168.632 121.524H176.78V122.756C175.865 125.407 174.801 128.113 173.588 130.876C175.473 133.247 176.491 135.468 176.64 137.54C176.603 138.679 176.313 139.5 175.772 140.004C174.988 140.601 173.653 140.909 171.768 140.928L171.264 139.388C171.6 139.444 171.88 139.472 172.104 139.472C173.317 139.416 174.129 139.248 174.54 138.968C174.951 138.669 175.156 138.193 175.156 137.54C175.156 135.617 174.129 133.471 172.076 131.1C173.439 128.132 174.503 125.425 175.268 122.98H170.144V145.744H168.632V121.524ZM184.704 120.376C184.704 123.101 184.592 125.603 184.368 127.88C186.011 134.824 188.857 140.265 192.908 144.204L191.816 145.464C188.251 141.749 185.609 137.073 183.892 131.436C183.724 132.444 183.575 133.219 183.444 133.76C182.324 138.595 179.813 142.543 175.912 145.604L174.932 144.372C178.385 141.665 180.7 138.184 181.876 133.928C182.772 130.344 183.22 125.827 183.22 120.376H184.704Z" fill="#FEE6D3"/>
<path d="M309.596 123.176H315.532C315.121 122.149 314.655 121.197 314.132 120.32L315.728 120.068C316.213 121.02 316.652 122.056 317.044 123.176H322.28V124.632H309.596V123.176ZM311.108 127.32H320.628V133.9H316.708V143.42C316.708 144.801 316.036 145.492 314.692 145.492H312.62L312.312 144.092C313.171 144.167 313.796 144.204 314.188 144.204C314.86 144.204 315.196 143.821 315.196 143.056V133.9H311.108V127.32ZM319.2 132.584V128.636H312.536V132.584H319.2ZM312.928 136.084C312.331 138.511 311.537 140.704 310.548 142.664L309.232 142.188C310.147 140.489 310.949 138.343 311.64 135.748L312.928 136.084ZM319.62 135.664C320.479 137.587 321.151 139.369 321.636 141.012L320.376 141.488C319.816 139.64 319.144 137.811 318.36 136L319.62 135.664ZM329.98 120.656C331.399 122.243 332.472 123.605 333.2 124.744L332.052 125.528C331.268 124.296 330.195 122.915 328.832 121.384L329.98 120.656ZM325.22 120.236H326.704V126.9H333.9V128.384H330.064V142.888C330.064 143.56 330.372 143.896 330.988 143.896H331.884C332.295 143.896 332.584 143.681 332.752 143.252C332.995 142.673 333.153 141.021 333.228 138.296L334.544 138.716C334.432 141.759 334.171 143.663 333.76 144.428C333.405 145.007 332.864 145.296 332.136 145.296H330.568C329.299 145.296 328.664 144.596 328.664 143.196V128.384H326.676C326.508 136.28 324.931 142.085 321.944 145.8L320.796 144.792C323.615 141.301 325.089 135.832 325.22 128.384H322.336V126.9H325.22V120.236ZM348.836 128.244C348.052 129.495 347.128 130.559 346.064 131.436L344.972 130.428C346.913 128.729 348.36 126.573 349.312 123.96L350.712 124.324C350.376 125.22 350.012 126.06 349.62 126.844H361.24V128.244H354.912V130.064C354.893 130.96 354.819 131.856 354.688 132.752H362.864V134.18H354.38C353.969 135.58 353.4 136.775 352.672 137.764C351.272 139.537 348.948 140.928 345.7 141.936L344.832 140.648C348.005 139.696 350.255 138.389 351.58 136.728C352.14 135.907 352.551 135.057 352.812 134.18H344.916V132.752H353.176C353.325 131.968 353.419 131.072 353.456 130.064V128.244H348.836ZM355.08 135.776C358.029 137.176 360.643 138.791 362.92 140.62L362.108 141.88C359.569 139.771 356.965 138.119 354.296 136.924L355.08 135.776ZM341.276 121.216H363.2V122.644H342.76V143.308H364.096V144.764H341.276V121.216ZM389.896 131.268V136.504H375.644V138.772H391.184V145.716H389.672V144.456H375.644V145.688H374.132V131.268H389.896ZM375.644 143.084H389.672V140.032H375.644V143.084ZM375.644 135.244H388.412V132.556H375.644V135.244ZM393.732 127.992V132.808H392.248V129.308H371.752V132.808H370.268V127.992H381.58C381.263 127.283 380.927 126.601 380.572 125.948L382.056 125.668C382.411 126.321 382.747 127.096 383.064 127.992H393.732ZM373.264 123.708C372.555 124.847 371.752 125.892 370.856 126.844L369.568 126.032C371.323 124.221 372.601 122.224 373.404 120.04L374.888 120.348C374.515 121.244 374.225 121.907 374.02 122.336H381.888V123.708H376.82C377.529 124.66 378.099 125.565 378.528 126.424L377.156 126.956C376.689 126.004 376.036 124.921 375.196 123.708H373.264ZM385.36 123.708C384.819 124.753 384.221 125.677 383.568 126.48L382.28 125.64C383.661 123.979 384.669 122.121 385.304 120.068L386.732 120.376C386.508 121.029 386.265 121.683 386.004 122.336H394.376V123.708H389.084C389.793 124.641 390.325 125.472 390.68 126.2L389.308 126.676C388.729 125.575 388.104 124.585 387.432 123.708H385.36ZM416.536 134.628C415.696 134.927 414.977 135.141 414.38 135.272C414.847 136.635 415.108 138.137 415.164 139.78C415.164 141.927 414.875 143.439 414.296 144.316C413.661 145.231 412.187 145.688 409.872 145.688H408.892L408.388 144.372H409.676C411.393 144.335 412.476 144.073 412.924 143.588C413.447 142.916 413.708 141.647 413.708 139.78C413.689 139.127 413.633 138.501 413.54 137.904C410.46 140.424 406.241 142.505 400.884 144.148L400.128 142.832C405.821 141.152 410.18 139.015 413.204 136.42C412.999 135.617 412.681 134.796 412.252 133.956C409.564 136.121 405.887 137.876 401.22 139.22L400.492 137.904C405.327 136.579 409.023 134.889 411.58 132.836C411.113 132.145 410.656 131.567 410.208 131.1L409.312 131.548C407.24 132.5 404.72 133.387 401.752 134.208L400.94 132.948C403.665 132.313 406.101 131.539 408.248 130.624C409.48 130.083 410.656 129.476 411.776 128.804H403.572V127.376H420.456V128.804H413.96C413.064 129.42 412.196 129.98 411.356 130.484C412.42 131.567 413.26 132.761 413.876 134.068C416.601 133.34 419.177 132.173 421.604 130.568L422.64 131.576C421.128 132.603 419.504 133.471 417.768 134.18C419.112 137.876 421.296 140.816 424.32 143L423.256 144.26C420.083 141.74 417.843 138.529 416.536 134.628ZM412.112 120.012C412.485 120.889 412.821 121.832 413.12 122.84H423.676V127.432H422.164V124.268H401.808V127.432H400.296V122.84H411.636C411.356 122.056 411.001 121.197 410.572 120.264L412.112 120.012Z" fill="#FEE6D3"/>
<path d="M562.808 131.688H558.188V134.236H563.508V135.468H558.188V137.932H564.376V139.22H558.188V142.356H556.732V139.22H551.776V137.932H556.732V135.468H552.672V134.236H556.732V131.688H552.952V130.428H556.732V127.796H551.776V126.536H556.732V123.904H552.952V122.644H556.732V120.376H558.188V122.644H562.808V126.536H564.768V127.796H562.808V131.688ZM558.188 123.904V126.536H561.436V123.904H558.188ZM558.188 127.796V130.428H561.436V127.796H558.188ZM545.756 123.008H551.076V124.296C549.919 126.816 548.752 128.963 547.576 130.736H551.216V131.576C551.141 135.029 550.563 137.96 549.48 140.368C550.451 141.488 551.505 142.291 552.644 142.776C554.156 143.448 556.545 143.812 559.812 143.868C561.903 143.868 563.583 143.849 564.852 143.812L564.544 145.268H560.792C556.069 145.231 552.877 144.699 551.216 143.672C550.32 143.187 549.508 142.533 548.78 141.712C547.847 143.28 546.652 144.577 545.196 145.604L544.44 144.288C545.859 143.299 546.988 142.048 547.828 140.536C546.652 138.856 545.728 136.775 545.056 134.292L546.316 133.816C546.82 135.907 547.548 137.671 548.5 139.108C549.321 137.073 549.788 134.712 549.9 132.024H545.812V130.932C547.193 128.935 548.416 126.779 549.48 124.464H545.756V123.008ZM542.004 129.448C541.276 130.736 540.464 131.968 539.568 133.144L539.064 131.548C541.397 128.169 543.068 124.389 544.076 120.208L545.448 120.852C544.851 122.999 544.188 124.903 543.46 126.564V145.744H542.004V129.448ZM591.296 135.16H584.408V136.784C585.285 137.736 586.237 138.632 587.264 139.472C588.851 138.483 590.223 137.353 591.38 136.084L592.444 137.064C591.305 138.221 589.943 139.285 588.356 140.256C590.204 141.544 592.276 142.636 594.572 143.532L593.816 144.876C590.139 143.308 587.003 141.171 584.408 138.464V143.7C584.408 144.969 583.792 145.604 582.56 145.604H579.368L579.06 144.204C580.479 144.279 581.477 144.316 582.056 144.316C582.635 144.316 582.924 143.999 582.924 143.364V139.332C580.441 141.236 577.511 142.916 574.132 144.372L573.544 143.028C577.147 141.591 580.273 139.855 582.924 137.82V135.16H575.756V133.872H582.924V131.324H573.264C573.115 137.316 572.125 142.095 570.296 145.66L569.176 144.652C570.837 141.385 571.696 136.868 571.752 131.1V122.308H582.588C582.233 121.58 581.841 120.899 581.412 120.264L583.008 119.984C583.381 120.656 583.745 121.431 584.1 122.308H593.928V123.68H584.408V126.144H591.296V130.036H594.264V131.324H591.296V135.16ZM573.264 130.036H582.924V127.432H575.924V126.144H582.924V123.68H573.264V130.036ZM584.408 127.432V130.036H589.868V127.432H584.408ZM589.868 131.324H584.408V133.872H589.868V131.324ZM575.672 136.644C577.147 137.26 578.444 137.969 579.564 138.772L578.836 139.892C577.492 138.94 576.185 138.221 574.916 137.736L575.672 136.644ZM608.108 128.776H615.864V120.152H617.432V128.776H624.824V130.288H617.432V145.8H615.864V130.288H608.108V128.776ZM602.312 120.488C604.216 121.944 605.849 123.428 607.212 124.94L606.176 126.004C604.888 124.548 603.236 123.055 601.22 121.524L602.312 120.488ZM599.316 128.916H605.084V141.796C606.204 140.9 607.417 139.827 608.724 138.576L609.116 140.144C607.399 141.824 605.579 143.299 603.656 144.568L603.068 143.224C603.423 142.869 603.6 142.533 603.6 142.216V130.4H599.316V128.916ZM646.228 122.644H647.712V140.2H646.228V122.644ZM646.956 145.464L646.62 144.036C647.964 144.092 649.243 144.12 650.456 144.12C651.389 144.12 651.856 143.644 651.856 142.692V120.292H653.368V143.084C653.368 144.671 652.575 145.464 650.988 145.464H646.956ZM643.176 126.62L643.428 128.076L635.112 129.364C635.28 131.007 635.523 132.547 635.84 133.984C636.12 135.272 636.428 136.411 636.764 137.4C638.537 135.459 640.04 133.116 641.272 130.372L642.616 131.072C641.197 134.227 639.443 136.877 637.352 139.024C637.669 139.883 638.043 140.685 638.472 141.432C639.573 143.131 640.553 143.989 641.412 144.008C641.991 143.896 642.588 142.319 643.204 139.276L644.464 140.144C644.109 141.544 643.717 142.757 643.288 143.784C642.784 144.96 642.187 145.548 641.496 145.548C640.264 145.548 639.013 144.661 637.744 142.888C637.203 142.123 636.699 141.189 636.232 140.088C634.403 141.731 632.34 143.037 630.044 144.008L629.176 142.636C631.603 141.684 633.749 140.321 635.616 138.548C635.299 137.652 634.944 136.476 634.552 135.02C634.141 133.433 633.843 131.623 633.656 129.588L629.792 130.204L629.596 128.748L633.516 128.132C633.292 125.799 633.18 123.176 633.18 120.264H634.692C634.692 123.195 634.785 125.743 634.972 127.908L643.176 126.62ZM638.416 120.096C639.461 121.309 640.479 122.728 641.468 124.352L640.152 125.024C639.181 123.363 638.183 121.925 637.156 120.712L638.416 120.096Z" fill="#FEE6D3"/>
<line x1="251.5" y1="106" x2="251.5" y2="156" stroke="url(#paint28_linear_634_5498)"/>
<line x1="482.5" y1="106" x2="482.5" y2="156" stroke="url(#paint29_linear_634_5498)"/>
<path fill-rule="evenodd" clip-rule="evenodd" d="M144 37C137.373 37 132 42.3726 132 49C132 55.6274 137.373 61 144 61H188C194.627 61 200 55.6274 200 49C200 42.3726 194.627 37 188 37H144ZM142.834 48.448H153.994V41.248H140.566V42.508H152.68V47.206H142.834V44.614H141.538V54.1C141.538 55.516 142.216 56.224 143.572 56.224H153.508C154.216 56.188 154.768 55.984 155.164 55.612C155.56 55.144 155.848 53.8 156.028 51.58L154.768 51.184C154.684 53.152 154.474 54.304 154.138 54.64C153.886 54.856 153.556 54.964 153.148 54.964H143.932C143.2 54.964 142.834 54.592 142.834 53.848V48.448ZM173.038 41.374H159.016V42.634H162.292V46.774L162.274 47.404H158.044V48.646H162.202C162.058 50.098 161.8 51.334 161.428 52.354C160.852 53.722 159.832 54.82 158.368 55.648L159.07 56.764C160.654 55.936 161.788 54.766 162.472 53.254C163 52.042 163.348 50.506 163.516 48.646H168.718V56.62H170.032V48.646H173.974V47.404H170.032V42.634H173.038V41.374ZM163.624 47.098V42.634H168.718V47.404H163.606L163.624 47.098ZM180.4 43.39C179.56 42.454 178.516 41.518 177.268 40.582L176.386 41.428C177.682 42.424 178.714 43.378 179.482 44.29L180.4 43.39ZM184.576 56.44C186.112 56.464 187.186 56.476 187.798 56.476H191.884L192.19 55.18C191.83 55.204 191.164 55.228 190.192 55.252C189.016 55.276 188.158 55.288 187.618 55.288C186.514 55.288 185.326 55.276 184.054 55.252C182.986 55.216 182.164 55.072 181.588 54.82C181.084 54.58 180.616 54.202 180.184 53.686C180.04 53.53 179.89 53.392 179.734 53.272V46.54H175.972V47.728H178.528V53.2C177.796 53.524 176.95 54.442 175.99 55.954L176.962 56.836C177.958 55.18 178.672 54.352 179.104 54.352C179.32 54.352 179.554 54.502 179.806 54.802C180.37 55.462 181.012 55.9 181.732 56.116C182.452 56.308 183.4 56.416 184.576 56.44ZM186.646 43.66C186.082 43.252 185.392 42.802 184.576 42.31L183.784 43.084C184.66 43.552 185.446 44.032 186.142 44.524H181.642V54.1H182.866V50.95H185.872V54.046H187.078V50.95H190.102V52.3C190.102 52.708 189.886 52.912 189.454 52.912L188.032 52.858L188.32 53.956H189.814C190.822 53.956 191.326 53.494 191.326 52.57V44.524H187.762L187.474 44.29C188.734 43.606 189.904 42.796 190.984 41.86V40.924H181.246V42.022H189.238C188.47 42.61 187.606 43.156 186.646 43.66ZM182.866 49.888V48.304H185.872V49.888H182.866ZM187.078 49.888V48.304H190.102V49.888H187.078ZM190.102 45.604V47.224H187.078V45.604H190.102ZM185.872 45.604V47.224H182.866V45.604H185.872Z" fill="#FEE6D3"/>
</g>
<defs>
<filter id="filter0_d_634_5498" x="0" y="0" width="734" height="225" filterUnits="userSpaceOnUse" color-interpolation-filters="sRGB">
<feFlood flood-opacity="0" result="BackgroundImageFix"/>
<feColorMatrix in="SourceAlpha" type="matrix" values="0 0 0 0 0 0 0 0 0 0 0 0 0 0 0 0 0 0 127 0" result="hardAlpha"/>
<feOffset dy="10"/>
<feGaussianBlur stdDeviation="10"/>
<feComposite in2="hardAlpha" operator="out"/>
<feColorMatrix type="matrix" values="0 0 0 0 0.112674 0 0 0 0 0.250937 0 0 0 0 0.458333 0 0 0 0.15 0"/>
<feBlend mode="normal" in2="BackgroundImageFix" result="effect1_dropShadow_634_5498"/>
<feBlend mode="normal" in="SourceGraphic" in2="effect1_dropShadow_634_5498" result="shape"/>
</filter>
<linearGradient id="paint0_linear_634_5498" x1="211" y1="28" x2="714" y2="195" gradientUnits="userSpaceOnUse">
<stop stop-color="#3B4A67"/>
<stop offset="1" stop-color="#0F1C35"/>
</linearGradient>
<linearGradient id="paint1_linear_634_5498" x1="715.497" y1="187.975" x2="59.2804" y2="363.07" gradientUnits="userSpaceOnUse">
<stop stop-color="white" stop-opacity="0.22"/>
<stop offset="0.354167" stop-color="#FEE6D3" stop-opacity="0.52"/>
<stop offset="0.692708" stop-color="#FEE6D3" stop-opacity="0.16"/>
<stop offset="1" stop-color="white"/>
</linearGradient>
<linearGradient id="paint2_linear_634_5498" x1="715.495" y1="179.37" x2="62.0145" y2="359.136" gradientUnits="userSpaceOnUse">
<stop stop-color="white" stop-opacity="0.22"/>
<stop offset="0.354167" stop-color="#FEE6D3" stop-opacity="0.52"/>
<stop offset="0.692708" stop-color="#FEE6D3" stop-opacity="0.16"/>
<stop offset="1" stop-color="white"/>
</linearGradient>
<linearGradient id="paint3_linear_634_5498" x1="715.497" y1="170.935" x2="64.9633" y2="355.565" gradientUnits="userSpaceOnUse">
<stop stop-color="white" stop-opacity="0.22"/>
<stop offset="0.354167" stop-color="#FEE6D3" stop-opacity="0.52"/>
<stop offset="0.692708" stop-color="#FEE6D3" stop-opacity="0.16"/>
<stop offset="1" stop-color="white"/>
</linearGradient>
<linearGradient id="paint4_linear_634_5498" x1="715.494" y1="163.408" x2="66.3915" y2="350.332" gradientUnits="userSpaceOnUse">
<stop stop-color="white" stop-opacity="0.22"/>
<stop offset="0.354167" stop-color="#FEE6D3" stop-opacity="0.52"/>
<stop offset="0.692708" stop-color="#FEE6D3" stop-opacity="0.16"/>
<stop offset="1" stop-color="white"/>
</linearGradient>
<linearGradient id="paint5_linear_634_5498" x1="715.498" y1="159.474" x2="61.6428" y2="338.614" gradientUnits="userSpaceOnUse">
<stop stop-color="white" stop-opacity="0.22"/>
<stop offset="0.354167" stop-color="#FEE6D3" stop-opacity="0.52"/>
<stop offset="0.692708" stop-color="#FEE6D3" stop-opacity="0.16"/>
<stop offset="1" stop-color="white"/>
</linearGradient>
<linearGradient id="paint6_linear_634_5498" x1="715.496" y1="155.623" x2="57.5" y2="327.577" gradientUnits="userSpaceOnUse">
<stop stop-color="white" stop-opacity="0.22"/>
<stop offset="0.354167" stop-color="#FEE6D3" stop-opacity="0.52"/>
<stop offset="0.692708" stop-color="#FEE6D3" stop-opacity="0.16"/>
<stop offset="1" stop-color="white"/>
</linearGradient>
<linearGradient id="paint7_linear_634_5498" x1="715.499" y1="151.778" x2="53.7999" y2="316.964" gradientUnits="userSpaceOnUse">
<stop stop-color="white" stop-opacity="0.22"/>
<stop offset="0.354167" stop-color="#FEE6D3" stop-opacity="0.52"/>
<stop offset="0.692708" stop-color="#FEE6D3" stop-opacity="0.16"/>
<stop offset="1" stop-color="white"/>
</linearGradient>
<linearGradient id="paint8_linear_634_5498" x1="715.493" y1="147.958" x2="50.5011" y2="306.795" gradientUnits="userSpaceOnUse">
<stop stop-color="white" stop-opacity="0.22"/>
<stop offset="0.354167" stop-color="#FEE6D3" stop-opacity="0.52"/>
<stop offset="0.692708" stop-color="#FEE6D3" stop-opacity="0.16"/>
<stop offset="1" stop-color="white"/>
</linearGradient>
<linearGradient id="paint9_linear_634_5498" x1="715.494" y1="144.125" x2="47.5364" y2="296.974" gradientUnits="userSpaceOnUse">
<stop stop-color="white" stop-opacity="0.22"/>
<stop offset="0.354167" stop-color="#FEE6D3" stop-opacity="0.52"/>
<stop offset="0.692708" stop-color="#FEE6D3" stop-opacity="0.16"/>
<stop offset="1" stop-color="white"/>
</linearGradient>
<linearGradient id="paint10_linear_634_5498" x1="715.5" y1="140.291" x2="44.888" y2="287.524" gradientUnits="userSpaceOnUse">
<stop stop-color="white" stop-opacity="0.22"/>
<stop offset="0.354167" stop-color="#FEE6D3" stop-opacity="0.52"/>
<stop offset="0.692708" stop-color="#FEE6D3" stop-opacity="0.16"/>
<stop offset="1" stop-color="white"/>
</linearGradient>
<linearGradient id="paint11_linear_634_5498" x1="715.495" y1="136.457" x2="42.5009" y2="278.402" gradientUnits="userSpaceOnUse">
<stop stop-color="white" stop-opacity="0.22"/>
<stop offset="0.354167" stop-color="#FEE6D3" stop-opacity="0.52"/>
<stop offset="0.692708" stop-color="#FEE6D3" stop-opacity="0.16"/>
<stop offset="1" stop-color="white"/>
</linearGradient>
<linearGradient id="paint12_linear_634_5498" x1="715.497" y1="132.607" x2="40.3435" y2="269.56" gradientUnits="userSpaceOnUse">
<stop stop-color="white" stop-opacity="0.22"/>
<stop offset="0.354167" stop-color="#FEE6D3" stop-opacity="0.52"/>
<stop offset="0.692708" stop-color="#FEE6D3" stop-opacity="0.16"/>
<stop offset="1" stop-color="white"/>
</linearGradient>
<linearGradient id="paint13_linear_634_5498" x1="715.497" y1="128.746" x2="38.3954" y2="261.001" gradientUnits="userSpaceOnUse">
<stop stop-color="white" stop-opacity="0.22"/>
<stop offset="0.354167" stop-color="#FEE6D3" stop-opacity="0.52"/>
<stop offset="0.692708" stop-color="#FEE6D3" stop-opacity="0.16"/>
<stop offset="1" stop-color="white"/>
</linearGradient>
<linearGradient id="paint14_linear_634_5498" x1="715.497" y1="124.876" x2="36.6286" y2="252.694" gradientUnits="userSpaceOnUse">
<stop stop-color="white" stop-opacity="0.22"/>
<stop offset="0.354167" stop-color="#FEE6D3" stop-opacity="0.52"/>
<stop offset="0.692708" stop-color="#FEE6D3" stop-opacity="0.16"/>
<stop offset="1" stop-color="white"/>
</linearGradient>
<linearGradient id="paint15_linear_634_5498" x1="715.497" y1="120.991" x2="35.016" y2="244.599" gradientUnits="userSpaceOnUse">
<stop stop-color="white" stop-opacity="0.22"/>
<stop offset="0.354167" stop-color="#FEE6D3" stop-opacity="0.52"/>
<stop offset="0.692708" stop-color="#FEE6D3" stop-opacity="0.16"/>
<stop offset="1" stop-color="white"/>
</linearGradient>
<linearGradient id="paint16_linear_634_5498" x1="715.495" y1="117.072" x2="33.5482" y2="236.701" gradientUnits="userSpaceOnUse">
<stop stop-color="white" stop-opacity="0.22"/>
<stop offset="0.354167" stop-color="#FEE6D3" stop-opacity="0.52"/>
<stop offset="0.692708" stop-color="#FEE6D3" stop-opacity="0.16"/>
<stop offset="1" stop-color="white"/>
</linearGradient>
<linearGradient id="paint17_linear_634_5498" x1="715.5" y1="113.148" x2="32.2053" y2="229" gradientUnits="userSpaceOnUse">
<stop stop-color="white" stop-opacity="0.22"/>
<stop offset="0.354167" stop-color="#FEE6D3" stop-opacity="0.52"/>
<stop offset="0.692708" stop-color="#FEE6D3" stop-opacity="0.16"/>
<stop offset="1" stop-color="white"/>
</linearGradient>
<linearGradient id="paint18_linear_634_5498" x1="715.494" y1="109.203" x2="30.9717" y2="221.466" gradientUnits="userSpaceOnUse">
<stop stop-color="white" stop-opacity="0.22"/>
<stop offset="0.354167" stop-color="#FEE6D3" stop-opacity="0.52"/>
<stop offset="0.692708" stop-color="#FEE6D3" stop-opacity="0.16"/>
<stop offset="1" stop-color="white"/>
</linearGradient>
<linearGradient id="paint19_linear_634_5498" x1="715.497" y1="105.228" x2="29.8425" y2="214.076" gradientUnits="userSpaceOnUse">
<stop stop-color="white" stop-opacity="0.22"/>
<stop offset="0.354167" stop-color="#FEE6D3" stop-opacity="0.52"/>
<stop offset="0.692708" stop-color="#FEE6D3" stop-opacity="0.16"/>
<stop offset="1" stop-color="white"/>
</linearGradient>
<linearGradient id="paint20_linear_634_5498" x1="715.497" y1="101.236" x2="28.8012" y2="206.834" gradientUnits="userSpaceOnUse">
<stop stop-color="white" stop-opacity="0.22"/>
<stop offset="0.354167" stop-color="#FEE6D3" stop-opacity="0.52"/>
<stop offset="0.692708" stop-color="#FEE6D3" stop-opacity="0.16"/>
<stop offset="1" stop-color="white"/>
</linearGradient>
<linearGradient id="paint21_linear_634_5498" x1="715.497" y1="97.2154" x2="27.8416" y2="199.717" gradientUnits="userSpaceOnUse">
<stop stop-color="white" stop-opacity="0.22"/>
<stop offset="0.354167" stop-color="#FEE6D3" stop-opacity="0.52"/>
<stop offset="0.692708" stop-color="#FEE6D3" stop-opacity="0.16"/>
<stop offset="1" stop-color="white"/>
</linearGradient>
<linearGradient id="paint22_linear_634_5498" x1="715.497" y1="93.175" x2="26.9525" y2="192.714" gradientUnits="userSpaceOnUse">
<stop stop-color="white" stop-opacity="0.22"/>
<stop offset="0.354167" stop-color="#FEE6D3" stop-opacity="0.52"/>
<stop offset="0.692708" stop-color="#FEE6D3" stop-opacity="0.16"/>
<stop offset="1" stop-color="white"/>
</linearGradient>
<linearGradient id="paint23_linear_634_5498" x1="715.497" y1="89.0908" x2="26.1308" y2="185.802" gradientUnits="userSpaceOnUse">
<stop stop-color="white" stop-opacity="0.22"/>
<stop offset="0.354167" stop-color="#FEE6D3" stop-opacity="0.52"/>
<stop offset="0.692708" stop-color="#FEE6D3" stop-opacity="0.16"/>
<stop offset="1" stop-color="white"/>
</linearGradient>
<linearGradient id="paint24_linear_634_5498" x1="715.498" y1="84.9895" x2="25.3685" y2="178.998" gradientUnits="userSpaceOnUse">
<stop stop-color="white" stop-opacity="0.22"/>
<stop offset="0.354167" stop-color="#FEE6D3" stop-opacity="0.52"/>
<stop offset="0.692708" stop-color="#FEE6D3" stop-opacity="0.16"/>
<stop offset="1" stop-color="white"/>
</linearGradient>
<linearGradient id="paint25_linear_634_5498" x1="715.5" y1="80.869" x2="24.6644" y2="172.303" gradientUnits="userSpaceOnUse">
<stop stop-color="white" stop-opacity="0.22"/>
<stop offset="0.354167" stop-color="#FEE6D3" stop-opacity="0.52"/>
<stop offset="0.692708" stop-color="#FEE6D3" stop-opacity="0.16"/>
<stop offset="1" stop-color="white"/>
</linearGradient>
<linearGradient id="paint26_linear_634_5498" x1="715.5" y1="76.6719" x2="24.0015" y2="165.598" gradientUnits="userSpaceOnUse">
<stop stop-color="white" stop-opacity="0.22"/>
<stop offset="0.354167" stop-color="#FEE6D3" stop-opacity="0.52"/>
<stop offset="0.692708" stop-color="#FEE6D3" stop-opacity="0.16"/>
<stop offset="1" stop-color="white"/>
</linearGradient>
<linearGradient id="paint27_linear_634_5498" x1="715.496" y1="72.5088" x2="23.393" y2="159.086" gradientUnits="userSpaceOnUse">
<stop stop-color="white" stop-opacity="0.22"/>
<stop offset="0.354167" stop-color="#FEE6D3" stop-opacity="0.52"/>
<stop offset="0.692708" stop-color="#FEE6D3" stop-opacity="0.16"/>
<stop offset="1" stop-color="white"/>
</linearGradient>
<linearGradient id="paint28_linear_634_5498" x1="251" y1="163.422" x2="251" y2="106" gradientUnits="userSpaceOnUse">
<stop stop-color="#FEE6D3" stop-opacity="0"/>
<stop offset="0.546875" stop-color="#FEE6D3"/>
<stop offset="1" stop-color="#FEE6D3" stop-opacity="0"/>
</linearGradient>
<linearGradient id="paint29_linear_634_5498" x1="482" y1="163.422" x2="482" y2="106" gradientUnits="userSpaceOnUse">
<stop stop-color="#FEE6D3" stop-opacity="0"/>
<stop offset="0.546875" stop-color="#FEE6D3"/>
<stop offset="1" stop-color="#FEE6D3" stop-opacity="0"/>
</linearGradient>
</defs>
</svg>
