<svg width="112" height="144" viewBox="0 0 112 144" fill="none" xmlns="http://www.w3.org/2000/svg">
<path d="M24.606 26.6016V50.4639H19.1517V50.4611C17.073 50.3201 15.6576 47.3959 15.4019 38.5328C15.7428 29.4991 17.073 26.7454 19.1517 26.6044V26.6016H24.606Z" fill="#09ABAD"/>
<path d="M85.7959 50.4639L85.7959 26.6015L91.2502 26.6015L91.2502 26.6044C93.3288 26.7453 94.7443 29.6695 95 38.5327C94.6591 47.5663 93.3288 50.32 91.2502 50.461L91.2502 50.4639L85.7959 50.4639Z" fill="#09ABAD"/>
<g filter="url(#filter0_i_664_2211)">
<path d="M72.6278 59.6692C70.0109 50.3551 64.5322 39.5929 54.8599 39.8108C45.7098 40.017 40.6583 50.0726 38.2129 58.8924L29.666 89.7182C29.362 90.8147 29.2079 91.9474 29.2079 93.0854C29.2079 100.046 34.8503 105.688 41.8105 105.688H68.9514C75.9009 105.688 81.5347 100.054 81.5347 93.1047C81.5347 91.9541 81.3768 90.8088 81.0656 89.7011C77.7628 77.9459 75.3974 69.5268 72.6278 59.6692Z" fill="white"/>
</g>
<g filter="url(#filter1_i_664_2211)">
<ellipse cx="36.2197" cy="31.5324" rx="36.2197" ry="31.5324" transform="matrix(-1 0 0 1 91.4204 7)" fill="white"/>
</g>
<path d="M23.1572 35.1231C20.1744 48.844 35.1974 56.6845 55.201 56.6845C75.2045 56.6845 91.4207 48.844 87.5004 35.1231C82.8867 18.9752 75.2045 28.6462 55.201 28.6462C35.1974 28.6462 30.6568 17.8229 23.1572 35.1231Z" fill="url(#paint0_linear_664_2211)"/>
<rect width="3.06802" height="11.7607" rx="1.53401" transform="matrix(-1 0 0 1 71.3081 34.9531)" fill="#09ABAD"/>
<path fill-rule="evenodd" clip-rule="evenodd" d="M39.3015 35.2249C39.7341 34.7922 40.4356 34.7922 40.8683 35.2249L45.8097 40.1663C46.0171 40.3737 46.1251 40.6428 46.1337 40.9145C46.1434 41.2101 46.0355 41.509 45.8098 41.7347L40.8683 46.6762C40.4357 47.1088 39.7342 47.1088 39.3015 46.6762C38.8689 46.2435 38.8689 45.542 39.3015 45.1094L43.4603 40.9506L39.3015 36.7917C38.8688 36.359 38.8688 35.6575 39.3015 35.2249Z" fill="#09ABAD"/>
<g filter="url(#filter2_di_664_2211)">
<path d="M90.2891 49.5092C89.3995 47.8706 87.7453 46.7895 85.8875 46.6325C81.738 46.2818 78.7001 50.4635 80.316 54.3014L83.441 61.7231C84.4103 64.0254 84.5195 66.5995 83.7485 68.9755L80.1467 80.0762C79.8809 80.8954 79.7173 81.3799 79.8149 82.2357C79.9956 83.8194 81.6564 84.1601 82.8607 83.1157C89.5343 77.3276 92.7424 68.9423 93.6293 62.4581C93.9578 60.0566 93.5382 57.6357 92.8417 55.314L92.416 53.8949C92.2075 53.1999 91.9279 52.5282 91.5818 51.8905L90.2891 49.5092Z" fill="white"/>
<path d="M90.2891 49.5092C89.3995 47.8706 87.7453 46.7895 85.8875 46.6325C81.738 46.2818 78.7001 50.4635 80.316 54.3014L83.441 61.7231C84.4103 64.0254 84.5195 66.5995 83.7485 68.9755L80.1467 80.0762C79.8809 80.8954 79.7173 81.3799 79.8149 82.2357C79.9956 83.8194 81.6564 84.1601 82.8607 83.1157C89.5343 77.3276 92.7424 68.9423 93.6293 62.4581C93.9578 60.0566 93.5382 57.6357 92.8417 55.314L92.416 53.8949C92.2075 53.1999 91.9279 52.5282 91.5818 51.8905L90.2891 49.5092Z" fill="url(#paint1_linear_664_2211)" fill-opacity="0.5"/>
</g>
<g filter="url(#filter3_i_664_2211)">
<path d="M18.0296 99.884C18.6714 101.293 19.8734 102.37 21.3447 102.854C25.6381 104.264 29.7248 100.221 28.3602 95.9127L27.5245 93.2744C26.9419 91.435 27.1488 89.4362 28.096 87.7552L31.1655 82.3074C31.508 81.6995 31.7225 81.3996 31.7824 80.7044C31.8903 79.4524 30.3961 78.8915 29.2012 79.2808C21.8923 81.6623 18.8123 85.6202 17.2902 89.6298C16.7818 90.9689 16.6454 92.4115 16.6711 93.8436L16.6961 95.2361C16.7174 96.4167 16.9808 97.5804 17.4701 98.6551L18.0296 99.884Z" fill="white"/>
</g>
<path d="M40.1167 12.0286C40.1167 14.7114 46.9084 16.8863 55.2864 16.8863C63.6644 16.8863 70.4561 14.7114 70.4561 12.0286C70.4561 9.34576 63.6644 7.1709 55.2864 7.1709C46.9084 7.1709 40.1167 9.34576 40.1167 12.0286Z" fill="url(#paint2_linear_664_2211)"/>
<path d="M40.1167 12.0286C40.1167 14.7114 46.9084 16.8863 55.2864 16.8863C63.6644 16.8863 70.4561 14.7114 70.4561 12.0286C70.4561 9.34576 63.6644 7.1709 55.2864 7.1709C46.9084 7.1709 40.1167 9.34576 40.1167 12.0286ZM68.5445 12.0286C68.5445 14.4939 62.9852 15.9812 55.2864 15.9812C47.5876 15.9812 42.1987 14.4939 42.1987 12.0286C42.1987 9.56325 47.5876 8.41693 55.2864 8.41693C62.9852 8.41693 68.5445 9.56325 68.5445 12.0286Z" fill="#016F76"/>
<g filter="url(#filter4_d_664_2211)">
<path d="M45.1419 74.2434C44.7617 73.5939 43.8229 73.5939 43.4427 74.2434C43.1499 74.7437 42.4902 74.8839 42.0192 74.546C41.4077 74.1073 40.55 74.4891 40.4669 75.2372C40.4028 75.8133 39.8573 76.2097 39.2895 76.0926C38.5524 75.9405 37.9242 76.6382 38.1525 77.3553C38.3283 77.9077 37.9912 78.4917 37.4249 78.6157C36.6896 78.7765 36.3995 79.6694 36.8998 80.2317C37.2851 80.6649 37.2146 81.3355 36.7476 81.6791C36.1414 82.1251 36.2396 83.0588 36.9253 83.369C37.4534 83.608 37.6618 84.2493 37.375 84.7531C37.0026 85.4071 37.472 86.2201 38.2246 86.2246C38.8043 86.2281 39.2555 86.7293 39.1984 87.3061C39.1242 88.0551 39.8837 88.6069 40.5731 88.3049C41.1041 88.0723 41.7201 88.3466 41.9026 88.8969C42.1394 89.6112 43.0577 89.8064 43.5647 89.2502C43.9552 88.8217 44.6295 88.8217 45.02 89.2502C45.5269 89.8064 46.4452 89.6112 46.6821 88.8969C46.8645 88.3466 47.4806 88.0723 48.0116 88.3049C48.7009 88.6069 49.4605 88.0551 49.3863 87.3061C49.3291 86.7293 49.7804 86.2281 50.3601 86.2246C51.1127 86.2201 51.5821 85.4071 51.2097 84.7531C50.9228 84.2493 51.1312 83.608 51.6594 83.369C52.3451 83.0588 52.4432 82.1251 51.837 81.6791C51.3701 81.3355 51.2996 80.6649 51.6849 80.2317C52.1851 79.6694 51.895 78.7765 51.1598 78.6157C50.5935 78.4917 50.2563 77.9077 50.4322 77.3553C50.6604 76.6382 50.0322 75.9405 49.2951 76.0926C48.7274 76.2097 48.1818 75.8133 48.1178 75.2372C48.0346 74.4891 47.177 74.1073 46.5654 74.546C46.0944 74.8839 45.4348 74.7437 45.1419 74.2434Z" fill="#0F203C"/>
</g>
<path d="M49.1499 81.036H39.4345V82.2967H49.1499V81.036Z" fill="#09ABAD"/>
<path d="M43.6618 76.8828L43.6618 86.5982H44.9226L44.9226 76.8828L43.6618 76.8828Z" fill="#09ABAD"/>
<g filter="url(#filter5_f_664_2211)">
<path d="M23.0873 115C17.5394 120.945 37.6026 123.735 55.5081 123.735C73.4135 123.735 93.4178 121.551 87.9288 115C80.6565 108.994 67.2053 106.265 55.5081 106.265C43.8108 106.265 31.3355 109.055 23.0873 115Z" fill="url(#paint3_linear_664_2211)" fill-opacity="0.2"/>
</g>
<defs>
<filter id="filter0_i_664_2211" x="29.208" y="39.8076" width="52.3267" height="65.8809" filterUnits="userSpaceOnUse" color-interpolation-filters="sRGB">
<feFlood flood-opacity="0" result="BackgroundImageFix"/>
<feBlend mode="normal" in="SourceGraphic" in2="BackgroundImageFix" result="shape"/>
<feColorMatrix in="SourceAlpha" type="matrix" values="0 0 0 0 0 0 0 0 0 0 0 0 0 0 0 0 0 0 127 0" result="hardAlpha"/>
<feOffset/>
<feGaussianBlur stdDeviation="4"/>
<feComposite in2="hardAlpha" operator="arithmetic" k2="-1" k3="1"/>
<feColorMatrix type="matrix" values="0 0 0 0 0.227778 0 0 0 0 0.399517 0 0 0 0 0.666667 0 0 0 0.66 0"/>
<feBlend mode="normal" in2="shape" result="effect1_innerShadow_664_2211"/>
</filter>
<filter id="filter1_i_664_2211" x="18.981" y="7" width="72.4395" height="63.0645" filterUnits="userSpaceOnUse" color-interpolation-filters="sRGB">
<feFlood flood-opacity="0" result="BackgroundImageFix"/>
<feBlend mode="normal" in="SourceGraphic" in2="BackgroundImageFix" result="shape"/>
<feColorMatrix in="SourceAlpha" type="matrix" values="0 0 0 0 0 0 0 0 0 0 0 0 0 0 0 0 0 0 127 0" result="hardAlpha"/>
<feOffset/>
<feGaussianBlur stdDeviation="3"/>
<feComposite in2="hardAlpha" operator="arithmetic" k2="-1" k3="1"/>
<feColorMatrix type="matrix" values="0 0 0 0 0.227778 0 0 0 0 0.399517 0 0 0 0 0.666667 0 0 0 0.7 0"/>
<feBlend mode="normal" in2="shape" result="effect1_innerShadow_664_2211"/>
</filter>
<filter id="filter2_di_664_2211" x="78.7866" y="42.6123" width="14.9565" height="41.1016" filterUnits="userSpaceOnUse" color-interpolation-filters="sRGB">
<feFlood flood-opacity="0" result="BackgroundImageFix"/>
<feColorMatrix in="SourceAlpha" type="matrix" values="0 0 0 0 0 0 0 0 0 0 0 0 0 0 0 0 0 0 127 0" result="hardAlpha"/>
<feOffset dx="-1" dy="-4"/>
<feComposite in2="hardAlpha" operator="out"/>
<feColorMatrix type="matrix" values="0 0 0 0 0 0 0 0 0 0 0 0 0 0 0 0 0 0 0.2 0"/>
<feBlend mode="normal" in2="BackgroundImageFix" result="effect1_dropShadow_664_2211"/>
<feBlend mode="normal" in="SourceGraphic" in2="effect1_dropShadow_664_2211" result="shape"/>
<feColorMatrix in="SourceAlpha" type="matrix" values="0 0 0 0 0 0 0 0 0 0 0 0 0 0 0 0 0 0 127 0" result="hardAlpha"/>
<feOffset/>
<feGaussianBlur stdDeviation="2"/>
<feComposite in2="hardAlpha" operator="arithmetic" k2="-1" k3="1"/>
<feColorMatrix type="matrix" values="0 0 0 0 0.227778 0 0 0 0 0.399517 0 0 0 0 0.666667 0 0 0 0.54 0"/>
<feBlend mode="normal" in2="shape" result="effect2_innerShadow_664_2211"/>
</filter>
<filter id="filter3_i_664_2211" x="15.668" y="75.1592" width="16.1201" height="27.9805" filterUnits="userSpaceOnUse" color-interpolation-filters="sRGB">
<feFlood flood-opacity="0" result="BackgroundImageFix"/>
<feBlend mode="normal" in="SourceGraphic" in2="BackgroundImageFix" result="shape"/>
<feColorMatrix in="SourceAlpha" type="matrix" values="0 0 0 0 0 0 0 0 0 0 0 0 0 0 0 0 0 0 127 0" result="hardAlpha"/>
<feOffset dx="-1" dy="-4"/>
<feGaussianBlur stdDeviation="2.5"/>
<feComposite in2="hardAlpha" operator="arithmetic" k2="-1" k3="1"/>
<feColorMatrix type="matrix" values="0 0 0 0 0.227778 0 0 0 0 0.399517 0 0 0 0 0.666667 0 0 0 0.65 0"/>
<feBlend mode="normal" in2="shape" result="effect1_innerShadow_664_2211"/>
</filter>
<filter id="filter4_d_664_2211" x="36.3467" y="73.7559" width="16.8916" height="16.8164" filterUnits="userSpaceOnUse" color-interpolation-filters="sRGB">
<feFlood flood-opacity="0" result="BackgroundImageFix"/>
<feColorMatrix in="SourceAlpha" type="matrix" values="0 0 0 0 0 0 0 0 0 0 0 0 0 0 0 0 0 0 127 0" result="hardAlpha"/>
<feOffset dx="1" dy="1"/>
<feComposite in2="hardAlpha" operator="out"/>
<feColorMatrix type="matrix" values="0 0 0 0 0.107917 0 0 0 0 0.186341 0 0 0 0 0.308333 0 0 0 0.62 0"/>
<feBlend mode="normal" in2="BackgroundImageFix" result="effect1_dropShadow_664_2211"/>
<feBlend mode="normal" in="SourceGraphic" in2="effect1_dropShadow_664_2211" result="shape"/>
</filter>
<filter id="filter5_f_664_2211" x="2.14697" y="86.2646" width="106.706" height="57.4707" filterUnits="userSpaceOnUse" color-interpolation-filters="sRGB">
<feFlood flood-opacity="0" result="BackgroundImageFix"/>
<feBlend mode="normal" in="SourceGraphic" in2="BackgroundImageFix" result="shape"/>
<feGaussianBlur stdDeviation="10" result="effect1_foregroundBlur_664_2211"/>
</filter>
<linearGradient id="paint0_linear_664_2211" x1="22.7311" y1="34.1004" x2="88.0118" y2="36.5719" gradientUnits="userSpaceOnUse">
<stop/>
<stop offset="1" stop-color="#4D78AA"/>
</linearGradient>
<linearGradient id="paint1_linear_664_2211" x1="82.9836" y1="68.6158" x2="81.4496" y2="84.7229" gradientUnits="userSpaceOnUse">
<stop offset="0.135417" stop-opacity="0"/>
<stop offset="0.546875" stop-color="#142649" stop-opacity="0.35"/>
<stop offset="1" stop-color="#1F335A"/>
</linearGradient>
<linearGradient id="paint2_linear_664_2211" x1="55.2864" y1="9.98325" x2="55.2864" y2="16.8863" gradientUnits="userSpaceOnUse">
<stop stop-color="#09ABAD"/>
<stop offset="1" stop-color="#026768"/>
</linearGradient>
<linearGradient id="paint3_linear_664_2211" x1="85.2047" y1="106.939" x2="82.1169" y2="127.695" gradientUnits="userSpaceOnUse">
<stop stop-color="#576E92"/>
<stop offset="1" stop-color="#010B1C"/>
</linearGradient>
</defs>
</svg>
