<svg width="56" height="56" viewBox="0 0 56 56" fill="none" xmlns="http://www.w3.org/2000/svg">
<circle cx="28" cy="28" r="28" fill="#D9D9D9"/>
<circle cx="28" cy="28" r="28" fill="url(#paint0_linear_707_3577)"/>
<g filter="url(#filter0_d_707_3577)">
<path d="M36.7069 24.126H18.8728C18.7498 24.1096 18.6246 24.1188 18.5057 24.153C18.3867 24.1871 18.2767 24.2454 18.1831 24.3239C18.0895 24.4024 18.0144 24.4994 17.963 24.6082C17.9116 24.717 17.885 24.8352 17.885 24.9547C17.885 25.0742 17.9116 25.1924 17.963 25.3012C18.0144 25.41 18.0895 25.507 18.1831 25.5855C18.2767 25.664 18.3867 25.7223 18.5057 25.7564C18.6246 25.7906 18.7498 25.7998 18.8728 25.7834H36.7069C36.9147 25.7557 37.1051 25.6565 37.2429 25.5042C37.3807 25.3519 37.4566 25.1567 37.4566 24.9547C37.4566 24.7527 37.3807 24.5575 37.2429 24.4052C37.1051 24.2529 36.9147 24.1537 36.7069 24.126ZM32.9368 19.1539C32.9368 18.8608 32.8159 18.5798 32.6007 18.3726C32.3855 18.1654 32.0937 18.049 31.7894 18.049H23.7575C23.4532 18.049 23.1613 18.1654 22.9462 18.3726C22.731 18.5798 22.6101 18.8608 22.6101 19.1539V19.7063H32.9368V19.1539ZM24.9049 32.9653H26.8719V34.891C26.8549 35.0095 26.8644 35.13 26.8999 35.2446C26.9353 35.3592 26.9959 35.4651 27.0774 35.5552C27.159 35.6454 27.2596 35.7176 27.3726 35.7671C27.4856 35.8166 27.6083 35.8423 27.7325 35.8423C27.8566 35.8423 27.9793 35.8166 28.0923 35.7671C28.2053 35.7176 28.306 35.6454 28.3875 35.5552C28.4691 35.4651 28.5296 35.3592 28.565 35.2446C28.6005 35.13 28.61 35.0095 28.593 34.891V32.9653H30.642C30.8498 32.9377 31.0402 32.8385 31.178 32.6862C31.3158 32.5339 31.3917 32.3387 31.3917 32.1367C31.3917 31.9346 31.3158 31.7394 31.178 31.5871C31.0402 31.4348 30.8498 31.3356 30.642 31.308H28.6258V29.3665C28.5971 29.1664 28.4941 28.983 28.3359 28.8503C28.1777 28.7176 27.975 28.6445 27.7652 28.6445C27.5555 28.6445 27.3528 28.7176 27.1946 28.8503C27.0364 28.983 26.9334 29.1664 26.9047 29.3665V31.2922H24.9049C24.7819 31.2758 24.6567 31.285 24.5378 31.3191C24.4188 31.3533 24.3088 31.4116 24.2152 31.4901C24.1216 31.5686 24.0466 31.6655 23.9951 31.7744C23.9437 31.8832 23.9171 32.0013 23.9171 32.1209C23.9171 32.2404 23.9437 32.3586 23.9951 32.4674C24.0466 32.5762 24.1216 32.6731 24.2152 32.7516C24.3088 32.8302 24.4188 32.8885 24.5378 32.9226C24.6567 32.9567 24.7819 32.9659 24.9049 32.9496V32.9653ZM36.9527 38.4899H18.5941C17.9855 38.4899 17.4018 38.2571 16.9715 37.8427C16.5411 37.4282 16.2993 36.8662 16.2993 36.2801V21.9162C16.2993 21.3301 16.5411 20.768 16.9715 20.3536C17.4018 19.9392 17.9855 19.7063 18.5941 19.7063H20.889V18.6014C20.889 18.0153 21.1307 17.4533 21.5611 17.0388C21.9915 16.6244 22.5752 16.3916 23.1838 16.3916H32.3631C32.9717 16.3916 33.5554 16.6244 33.9858 17.0388C34.4161 17.4533 34.6579 18.0153 34.6579 18.6014V19.7063H36.9527C37.2541 19.7063 37.5525 19.7635 37.8309 19.8746C38.1094 19.9856 38.3623 20.1484 38.5754 20.3536C38.7885 20.5588 38.9576 20.8024 39.0729 21.0705C39.1882 21.3386 39.2476 21.626 39.2476 21.9162V36.2801C39.2476 36.5703 39.1882 36.8576 39.0729 37.1258C38.9576 37.3939 38.7885 37.6375 38.5754 37.8427C38.3623 38.0479 38.1094 38.2106 37.8309 38.3217C37.5525 38.4328 37.2541 38.4899 36.9527 38.4899Z" fill="white"/>
</g>
<defs>
<filter id="filter0_d_707_3577" x="13.2993" y="13.3916" width="28.9482" height="28.0986" filterUnits="userSpaceOnUse" color-interpolation-filters="sRGB">
<feFlood flood-opacity="0" result="BackgroundImageFix"/>
<feColorMatrix in="SourceAlpha" type="matrix" values="0 0 0 0 0 0 0 0 0 0 0 0 0 0 0 0 0 0 127 0" result="hardAlpha"/>
<feOffset/>
<feGaussianBlur stdDeviation="1.5"/>
<feColorMatrix type="matrix" values="0 0 0 0 0.0654514 0 0 0 0 0.145818 0 0 0 0 0.270833 0 0 0 0.2 0"/>
<feBlend mode="normal" in2="BackgroundImageFix" result="effect1_dropShadow_707_3577"/>
<feBlend mode="normal" in="SourceGraphic" in2="effect1_dropShadow_707_3577" result="shape"/>
</filter>
<linearGradient id="paint0_linear_707_3577" x1="17.5286" y1="1.00096e-06" x2="39.6573" y2="55.7315" gradientUnits="userSpaceOnUse">
<stop stop-color="#BAC9FF"/>
<stop offset="1" stop-color="#4358A7"/>
</linearGradient>
</defs>
</svg>
