<svg width="25" height="25" viewBox="0 0 25 25" fill="none" xmlns="http://www.w3.org/2000/svg">
<path d="M13.9423 1.44231C13.9423 0.64574 13.2966 0 12.5 0C11.7034 0 11.0577 0.64574 11.0577 1.44231V10.5769H1.44231C0.645744 10.5769 0 11.2227 0 12.0192C0 12.8158 0.645744 13.4615 1.44231 13.4615H11.0577V23.5577C11.0577 24.3543 11.7034 25 12.5 25C13.2966 25 13.9423 24.3543 13.9423 23.5577V13.4615H23.5577C24.3543 13.4615 25 12.8158 25 12.0192C25 11.2227 24.3543 10.5769 23.5577 10.5769H13.9423V1.44231Z" fill="white"/>
</svg>
