<svg width="88" height="107" viewBox="0 0 88 107" fill="none" xmlns="http://www.w3.org/2000/svg">
<g opacity="0.8">
<g filter="url(#filter0_f_656_4183)">
<path d="M21.6118 80.9162C17.7623 85.0412 31.6836 86.9774 44.1078 86.9774C56.532 86.9774 70.4125 85.4621 66.6038 80.9162C61.5577 76.7491 52.2243 74.855 44.1078 74.855C35.9914 74.855 27.335 76.7912 21.6118 80.9162Z" fill="url(#paint0_linear_656_4183)" fill-opacity="0.2"/>
</g>
<path d="M23.3594 19.6008V36.1584H19.5748V36.1564C18.1325 36.0586 17.1503 34.0296 16.9729 27.8796C17.2094 21.6114 18.1325 19.7006 19.5748 19.6028V19.6008H23.3594Z" fill="#09ABAD"/>
<path d="M65.8179 36.1584L65.8179 19.6009L69.6025 19.6009L69.6025 19.6029C71.0448 19.7007 72.027 21.7297 72.2044 27.8797C71.9678 34.1479 71.0448 36.0586 69.6025 36.1565L69.6025 36.1584L65.8179 36.1584Z" fill="#09ABAD"/>
<g filter="url(#filter1_i_656_4183)">
<path d="M56.6806 42.5459C54.8648 36.0831 51.0632 28.6155 44.3519 28.7667V28.7667V28.7667C38.0028 28.9097 34.4977 35.8871 32.8009 42.0069L26.8704 63.3962C26.6594 64.1571 26.5525 64.9431 26.5525 65.7327V65.7327C26.5525 70.5622 30.4676 74.4774 35.2972 74.4774H54.1296C58.9517 74.4774 62.8608 70.5683 62.8608 65.7461V65.7461C62.8608 64.9477 62.7513 64.153 62.5354 63.3844C60.2437 55.2277 58.6023 49.3859 56.6806 42.5459Z" fill="white"/>
</g>
<g filter="url(#filter2_i_656_4183)">
<ellipse cx="25.132" cy="21.8796" rx="25.132" ry="21.8796" transform="matrix(-1 0 0 1 69.7202 6)" fill="white"/>
</g>
<path d="M22.3536 25.5142C20.2839 35.0348 30.708 40.4752 44.588 40.4752C58.4681 40.4752 69.7201 35.0348 66.9999 25.5142C63.7986 14.3096 58.4681 21.02 44.588 21.02C30.708 21.02 27.5574 13.51 22.3536 25.5142Z" fill="url(#paint1_linear_656_4183)"/>
<rect width="2.12883" height="8.16051" rx="1.06441" transform="matrix(-1 0 0 1 55.7651 25.3961)" fill="#09ABAD"/>
<path fill-rule="evenodd" clip-rule="evenodd" d="M33.557 25.585C33.8572 25.2848 34.344 25.2848 34.6442 25.585L38.0729 29.0138C38.1677 29.1085 38.2325 29.2219 38.2675 29.3421C38.3436 29.6029 38.2789 29.8961 38.0732 30.1018L34.6444 33.5306C34.3442 33.8308 33.8575 33.8308 33.5573 33.5306C33.257 33.2304 33.257 32.7436 33.5573 32.4434L36.4427 29.5579L33.557 26.6722C33.2568 26.372 33.2568 25.8852 33.557 25.585Z" fill="#09ABAD"/>
<g filter="url(#filter3_di_656_4183)">
<path d="M68.935 35.4964C68.3178 34.3594 67.17 33.6092 65.8808 33.5003V33.5003C63.0016 33.257 60.8937 36.1585 62.0149 38.8216L64.1833 43.9713C64.8559 45.5688 64.9316 47.3549 64.3967 49.0036L61.8975 56.7061C61.713 57.2746 61.5995 57.6108 61.6672 58.2045V58.2045C61.7926 59.3035 62.945 59.5398 63.7806 58.8152C68.4113 54.7989 70.6373 48.9806 71.2527 44.4814C71.4807 42.815 71.1895 41.1352 70.7062 39.5242L70.4108 38.5395C70.2662 38.0573 70.0722 37.5912 69.832 37.1487L68.935 35.4964Z" fill="white"/>
<path d="M68.935 35.4964C68.3178 34.3594 67.17 33.6092 65.8808 33.5003V33.5003C63.0016 33.257 60.8937 36.1585 62.0149 38.8216L64.1833 43.9713C64.8559 45.5688 64.9316 47.3549 64.3967 49.0036L61.8975 56.7061C61.713 57.2746 61.5995 57.6108 61.6672 58.2045V58.2045C61.7926 59.3035 62.945 59.5398 63.7806 58.8152C68.4113 54.7989 70.6373 48.9806 71.2527 44.4814C71.4807 42.815 71.1895 41.1352 70.7062 39.5242L70.4108 38.5395C70.2662 38.0573 70.0722 37.5912 69.832 37.1487L68.935 35.4964Z" fill="url(#paint2_linear_656_4183)" fill-opacity="0.5"/>
</g>
<g filter="url(#filter4_i_656_4183)">
<path d="M18.7961 70.45C19.2414 71.428 20.0754 72.1752 21.0963 72.5106V72.5106C24.0754 73.4893 26.9111 70.6838 25.9642 67.6944L25.3843 65.8637C24.9801 64.5874 25.1237 63.2005 25.7809 62.0341L27.9108 58.254C28.1484 57.8322 28.2972 57.6241 28.3388 57.1417V57.1417C28.4137 56.273 27.3769 55.8838 26.5478 56.1539C21.4763 57.8064 19.3391 60.5527 18.283 63.3348C17.9302 64.264 17.8356 65.265 17.8534 66.2587L17.8708 67.2249C17.8855 68.0441 18.0683 68.8516 18.4078 69.5973L18.7961 70.45Z" fill="white"/>
</g>
<path d="M34.1216 9.48905C34.1216 11.3506 38.8342 12.8597 44.6475 12.8597C50.4607 12.8597 55.1733 11.3506 55.1733 9.48905C55.1733 7.6275 50.4607 6.11841 44.6475 6.11841C38.8342 6.11841 34.1216 7.6275 34.1216 9.48905Z" fill="url(#paint3_linear_656_4183)"/>
<path d="M34.1216 9.48905C34.1216 11.3506 38.8342 12.8597 44.6475 12.8597C50.4607 12.8597 55.1733 11.3506 55.1733 9.48905C55.1733 7.6275 50.4607 6.11841 44.6475 6.11841C38.8342 6.11841 34.1216 7.6275 34.1216 9.48905ZM53.847 9.48905C53.847 11.1997 49.9895 12.2316 44.6475 12.2316C39.3055 12.2316 35.5662 11.1997 35.5662 9.48905C35.5662 7.77841 39.3055 6.983 44.6475 6.983C49.9895 6.983 53.847 7.77841 53.847 9.48905Z" fill="#016F76"/>
<g filter="url(#filter5_d_656_4183)">
<path d="M37.609 52.6587C37.3451 52.208 36.6937 52.208 36.4299 52.6587V52.6587C36.2267 53.0059 35.769 53.1032 35.4422 52.8687V52.8687C35.0178 52.5643 34.4227 52.8292 34.365 53.3483V53.3483C34.3206 53.748 33.9421 54.0231 33.5481 53.9418V53.9418C33.0366 53.8363 32.6008 54.3204 32.7592 54.818V54.818C32.8812 55.2013 32.6472 55.6065 32.2543 55.6925V55.6925C31.7441 55.8042 31.5428 56.4237 31.8899 56.8139V56.8139C32.1573 57.1144 32.1084 57.5798 31.7843 57.8181V57.8181C31.3637 58.1276 31.4318 58.7755 31.9076 58.9907V58.9907C32.2741 59.1566 32.4187 59.6016 32.2196 59.9511V59.9511C31.9612 60.4049 32.287 60.9691 32.8092 60.9722V60.9722C33.2114 60.9746 33.5245 61.3224 33.4849 61.7227V61.7227C33.4334 62.2423 33.9604 62.6252 34.4387 62.4157V62.4157C34.8072 62.2543 35.2346 62.4446 35.3612 62.8264V62.8264C35.5256 63.3221 36.1628 63.4575 36.5145 63.0715V63.0715C36.7855 62.7742 37.2534 62.7742 37.5243 63.0715V63.0715C37.8761 63.4575 38.5133 63.3221 38.6776 62.8264V62.8264C38.8042 62.4446 39.2317 62.2543 39.6001 62.4157V62.4157C40.0785 62.6252 40.6055 62.2423 40.554 61.7227V61.7227C40.5144 61.3224 40.8274 60.9746 41.2297 60.9722V60.9722C41.7519 60.9691 42.0776 60.4049 41.8192 59.9511V59.9511C41.6202 59.6016 41.7648 59.1566 42.1313 58.9907V58.9907C42.6071 58.7755 42.6752 58.1276 42.2545 57.8181V57.8181C41.9305 57.5798 41.8816 57.1144 42.149 56.8139V56.8139C42.4961 56.4237 42.2948 55.8042 41.7846 55.6925V55.6925C41.3917 55.6065 41.1577 55.2013 41.2797 54.818V54.818C41.4381 54.3204 41.0022 53.8363 40.4908 53.9418V53.9418C40.0968 54.0231 39.7183 53.748 39.6738 53.3483V53.3483C39.6161 52.8292 39.021 52.5643 38.5967 52.8687V52.8687C38.2699 53.1032 37.8122 53.0059 37.609 52.6587V52.6587Z" fill="#0F203C"/>
</g>
<path d="M40.3901 57.3718H33.6488V58.2466H40.3901V57.3718Z" fill="#09ABAD"/>
<path d="M36.5821 54.49L36.5821 61.2313H37.4569L37.4569 54.49L36.5821 54.49Z" fill="#09ABAD"/>
</g>
<defs>
<filter id="filter0_f_656_4183" x="0.959473" y="54.855" width="86.2856" height="52.1224" filterUnits="userSpaceOnUse" color-interpolation-filters="sRGB">
<feFlood flood-opacity="0" result="BackgroundImageFix"/>
<feBlend mode="normal" in="SourceGraphic" in2="BackgroundImageFix" result="shape"/>
<feGaussianBlur stdDeviation="10" result="effect1_foregroundBlur_656_4183"/>
</filter>
<filter id="filter1_i_656_4183" x="26.5522" y="28.7644" width="36.3086" height="45.713" filterUnits="userSpaceOnUse" color-interpolation-filters="sRGB">
<feFlood flood-opacity="0" result="BackgroundImageFix"/>
<feBlend mode="normal" in="SourceGraphic" in2="BackgroundImageFix" result="shape"/>
<feColorMatrix in="SourceAlpha" type="matrix" values="0 0 0 0 0 0 0 0 0 0 0 0 0 0 0 0 0 0 127 0" result="hardAlpha"/>
<feOffset/>
<feGaussianBlur stdDeviation="4"/>
<feComposite in2="hardAlpha" operator="arithmetic" k2="-1" k3="1"/>
<feColorMatrix type="matrix" values="0 0 0 0 0.227778 0 0 0 0 0.399517 0 0 0 0 0.666667 0 0 0 0.5 0"/>
<feBlend mode="normal" in2="shape" result="effect1_innerShadow_656_4183"/>
</filter>
<filter id="filter2_i_656_4183" x="19.4561" y="6" width="50.2642" height="43.7593" filterUnits="userSpaceOnUse" color-interpolation-filters="sRGB">
<feFlood flood-opacity="0" result="BackgroundImageFix"/>
<feBlend mode="normal" in="SourceGraphic" in2="BackgroundImageFix" result="shape"/>
<feColorMatrix in="SourceAlpha" type="matrix" values="0 0 0 0 0 0 0 0 0 0 0 0 0 0 0 0 0 0 127 0" result="hardAlpha"/>
<feOffset/>
<feGaussianBlur stdDeviation="3"/>
<feComposite in2="hardAlpha" operator="arithmetic" k2="-1" k3="1"/>
<feColorMatrix type="matrix" values="0 0 0 0 0.227778 0 0 0 0 0.399517 0 0 0 0 0.666667 0 0 0 0.7 0"/>
<feBlend mode="normal" in2="shape" result="effect1_innerShadow_656_4183"/>
</filter>
<filter id="filter3_di_656_4183" x="60.6475" y="29.486" width="10.6841" height="29.7445" filterUnits="userSpaceOnUse" color-interpolation-filters="sRGB">
<feFlood flood-opacity="0" result="BackgroundImageFix"/>
<feColorMatrix in="SourceAlpha" type="matrix" values="0 0 0 0 0 0 0 0 0 0 0 0 0 0 0 0 0 0 127 0" result="hardAlpha"/>
<feOffset dx="-1" dy="-4"/>
<feComposite in2="hardAlpha" operator="out"/>
<feColorMatrix type="matrix" values="0 0 0 0 0 0 0 0 0 0 0 0 0 0 0 0 0 0 0.2 0"/>
<feBlend mode="normal" in2="BackgroundImageFix" result="effect1_dropShadow_656_4183"/>
<feBlend mode="normal" in="SourceGraphic" in2="effect1_dropShadow_656_4183" result="shape"/>
<feColorMatrix in="SourceAlpha" type="matrix" values="0 0 0 0 0 0 0 0 0 0 0 0 0 0 0 0 0 0 127 0" result="hardAlpha"/>
<feOffset/>
<feGaussianBlur stdDeviation="2"/>
<feComposite in2="hardAlpha" operator="arithmetic" k2="-1" k3="1"/>
<feColorMatrix type="matrix" values="0 0 0 0 0.227778 0 0 0 0 0.399517 0 0 0 0 0.666667 0 0 0 0.4 0"/>
<feBlend mode="normal" in2="shape" result="effect2_innerShadow_656_4183"/>
</filter>
<filter id="filter4_i_656_4183" x="16.8516" y="54.0693" width="11.4912" height="18.6396" filterUnits="userSpaceOnUse" color-interpolation-filters="sRGB">
<feFlood flood-opacity="0" result="BackgroundImageFix"/>
<feBlend mode="normal" in="SourceGraphic" in2="BackgroundImageFix" result="shape"/>
<feColorMatrix in="SourceAlpha" type="matrix" values="0 0 0 0 0 0 0 0 0 0 0 0 0 0 0 0 0 0 127 0" result="hardAlpha"/>
<feOffset dx="-1" dy="-2"/>
<feGaussianBlur stdDeviation="2"/>
<feComposite in2="hardAlpha" operator="arithmetic" k2="-1" k3="1"/>
<feColorMatrix type="matrix" values="0 0 0 0 0.227778 0 0 0 0 0.399517 0 0 0 0 0.666667 0 0 0 0.65 0"/>
<feBlend mode="normal" in2="shape" result="effect1_innerShadow_656_4183"/>
</filter>
<filter id="filter5_d_656_4183" x="31.5059" y="52.3207" width="12.0269" height="14.9741" filterUnits="userSpaceOnUse" color-interpolation-filters="sRGB">
<feFlood flood-opacity="0" result="BackgroundImageFix"/>
<feColorMatrix in="SourceAlpha" type="matrix" values="0 0 0 0 0 0 0 0 0 0 0 0 0 0 0 0 0 0 127 0" result="hardAlpha"/>
<feOffset dx="1" dy="4"/>
<feComposite in2="hardAlpha" operator="out"/>
<feColorMatrix type="matrix" values="0 0 0 0 0.107917 0 0 0 0 0.186341 0 0 0 0 0.308333 0 0 0 0.62 0"/>
<feBlend mode="normal" in2="BackgroundImageFix" result="effect1_dropShadow_656_4183"/>
<feBlend mode="normal" in="SourceGraphic" in2="effect1_dropShadow_656_4183" result="shape"/>
</filter>
<linearGradient id="paint0_linear_656_4183" x1="64.7136" y1="75.3232" x2="62.5711" y2="89.725" gradientUnits="userSpaceOnUse">
<stop stop-color="#576E92"/>
<stop offset="1" stop-color="#010B1C"/>
</linearGradient>
<linearGradient id="paint1_linear_656_4183" x1="22.058" y1="24.8046" x2="67.3547" y2="26.5195" gradientUnits="userSpaceOnUse">
<stop/>
<stop offset="1" stop-color="#4D78AA"/>
</linearGradient>
<linearGradient id="paint2_linear_656_4183" x1="63.8659" y1="48.754" x2="62.8015" y2="59.9304" gradientUnits="userSpaceOnUse">
<stop offset="0.135417" stop-opacity="0"/>
<stop offset="0.546875" stop-color="#142649" stop-opacity="0.35"/>
<stop offset="1" stop-color="#1F335A"/>
</linearGradient>
<linearGradient id="paint3_linear_656_4183" x1="44.6475" y1="8.06983" x2="44.6475" y2="12.8597" gradientUnits="userSpaceOnUse">
<stop stop-color="#09ABAD"/>
<stop offset="1" stop-color="#026768"/>
</linearGradient>
</defs>
</svg>
