<svg width="102" height="110" viewBox="0 0 102 110" fill="none" xmlns="http://www.w3.org/2000/svg">
<path d="M61.5259 30.0908H41.1309C19.3299 30.0908 1.65674 47.764 1.65674 69.565C1.65674 91.366 19.3299 109.039 41.1309 109.039H61.5259C83.3269 109.039 101 91.366 101 69.565C101 47.764 83.3269 30.0908 61.5259 30.0908Z" fill="url(#paint0_linear_634_5044)"/>
<path opacity="0.35" d="M18.8286 39.349L59.0288 24.7173C62.2436 23.5472 65.9479 25.5995 67.2959 29.3033L87.0538 74.5178C88.4019 78.2216 86.8865 82.1737 83.6686 83.3449L37.6404 100.098C34.4232 101.271 30.722 99.2175 29.3732 95.5118L15.4434 48.176C14.0953 44.4722 15.6107 40.5202 18.8286 39.349Z" fill="url(#paint1_linear_634_5044)"/>
<path d="M13.0135 33.8705L59.2903 17.0272C61.069 16.3798 63.032 16.4655 64.7474 17.2654C66.4629 18.0654 67.7904 19.514 68.4378 21.2927L88.6346 66.3475C88.9554 67.2284 89.0996 68.1638 89.0589 69.1003C89.0182 70.0369 88.7934 70.9563 88.3973 71.806C88.0011 72.6556 87.4415 73.4189 86.7504 74.0523C86.0592 74.6856 85.25 75.1766 84.3691 75.4971L31.3852 94.7817C30.5043 95.1023 29.5689 95.2462 28.6324 95.2053C27.6959 95.1643 26.7766 94.9393 25.9271 94.543C25.0776 94.1467 24.3145 93.5869 23.6813 92.8957C23.0482 92.2044 22.5574 91.3952 22.237 90.5143L8.74736 43.0183C8.42679 42.1375 8.28285 41.2022 8.32375 40.2658C8.36466 39.3294 8.58961 38.4102 8.98577 37.5608C9.38192 36.7113 9.94152 35.9482 10.6326 35.3151C11.3237 34.6819 12.1327 34.191 13.0135 33.8705Z" fill="url(#paint2_linear_634_5044)"/>
<mask id="mask0_634_5044" style="mask-type:luminance" maskUnits="userSpaceOnUse" x="8" y="16" width="82" height="80">
<path d="M13.0135 33.8705L59.2903 17.0272C61.069 16.3798 63.032 16.4655 64.7474 17.2654C66.4629 18.0654 67.7904 19.514 68.4378 21.2927L88.6346 66.3475C88.9554 67.2284 89.0996 68.1638 89.0589 69.1003C89.0182 70.0369 88.7934 70.9563 88.3973 71.806C88.0011 72.6556 87.4415 73.4189 86.7504 74.0523C86.0592 74.6856 85.25 75.1766 84.3691 75.4971L31.3852 94.7817C30.5043 95.1023 29.5689 95.2462 28.6324 95.2053C27.6959 95.1643 26.7766 94.9393 25.9271 94.543C25.0776 94.1467 24.3145 93.5869 23.6813 92.8957C23.0482 92.2044 22.5574 91.3952 22.237 90.5143L8.74736 43.0183C8.42679 42.1375 8.28285 41.2022 8.32375 40.2658C8.36466 39.3294 8.58961 38.4102 8.98577 37.5608C9.38192 36.7113 9.94152 35.9482 10.6326 35.3151C11.3237 34.6819 12.1327 34.191 13.0135 33.8705Z" fill="white"/>
</mask>
<g mask="url(#mask0_634_5044)">
<path d="M78.0671 1.83922L-5.76758 32.3525L2.77629 55.8266L86.6109 25.3133L78.0671 1.83922Z" fill="url(#paint3_linear_634_5044)"/>
</g>
<path d="M31.1916 54.5971L20.4604 58.5029L24.3663 69.2341L35.0975 65.3283L31.1916 54.5971Z" fill="#FFE7A3"/>
<path d="M36.8044 70.0229L26.0732 73.9287L29.9791 84.6599L40.7103 80.7541L36.8044 70.0229Z" fill="#FFE7A3"/>
<path d="M50.6399 47.518L39.9087 51.4238L43.8145 62.155L54.5457 58.2492L50.6399 47.518Z" fill="#FFE7A3"/>
<path d="M56.2551 62.9443L45.5239 66.8501L49.4298 77.5813L60.1609 73.6754L56.2551 62.9443Z" fill="#FFE7A3"/>
<path d="M70.0906 40.4394L59.3594 44.3452L63.2652 55.0764L73.9964 51.1706L70.0906 40.4394Z" fill="#FFE7A3"/>
<path d="M75.7033 55.8652L64.9722 59.771L68.878 70.5022L79.6092 66.5963L75.7033 55.8652Z" fill="#FDC51C"/>
<path d="M24.5716 39.5382C26.6089 38.7966 27.6594 36.5439 26.9179 34.5065C26.1763 32.4692 23.9236 31.4187 21.8862 32.1603C19.8489 32.9018 18.7984 35.1545 19.5399 37.1919C20.2815 39.2292 22.5342 40.2797 24.5716 39.5382Z" fill="#FFE78B"/>
<path d="M54.7522 28.5528C56.7896 27.8113 57.8401 25.5586 57.0985 23.5212C56.357 21.4838 54.1042 20.4334 52.0669 21.1749C50.0295 21.9164 48.9791 24.1692 49.7206 26.2065C50.4621 28.2439 52.7149 29.2944 54.7522 28.5528Z" fill="#FFE78B"/>
<path d="M22.6454 26.9467C22.1735 25.6503 20.74 24.9819 19.4436 25.4537C18.1472 25.9256 17.4787 27.3591 17.9506 28.6555L20.3916 35.362C20.8634 36.6585 22.2969 37.3269 23.5933 36.8551C24.8898 36.3832 25.5582 34.9497 25.0864 33.6533L22.6454 26.9467Z" fill="#FE9426"/>
<path d="M52.8261 15.9624C52.3542 14.6659 50.9207 13.9975 49.6243 14.4693C48.3278 14.9412 47.6594 16.3747 48.1312 17.6711L50.5722 24.3777C51.0441 25.6741 52.4776 26.3425 53.774 25.8707C55.0704 25.3988 55.7389 23.9653 55.267 22.6689L52.8261 15.9624Z" fill="#FE9426"/>
<defs>
<linearGradient id="paint0_linear_634_5044" x1="51.3284" y1="30.0908" x2="51.3284" y2="109.039" gradientUnits="userSpaceOnUse">
<stop stop-color="#FE4208"/>
<stop offset="1" stop-color="#FD861E"/>
</linearGradient>
<linearGradient id="paint1_linear_634_5044" x1="38.9296" y1="32.0328" x2="60.6545" y2="91.7213" gradientUnits="userSpaceOnUse">
<stop stop-color="#FFFBEF"/>
<stop offset="1" stop-color="#FEF2CD"/>
</linearGradient>
<linearGradient id="paint2_linear_634_5044" x1="36.1519" y1="25.4489" x2="57.8774" y2="85.1393" gradientUnits="userSpaceOnUse">
<stop stop-color="#FFFBEF"/>
<stop offset="1" stop-color="#FEF2CD"/>
</linearGradient>
<linearGradient id="paint3_linear_634_5044" x1="10.3085" y1="42.6111" x2="66.6644" y2="45.2234" gradientUnits="userSpaceOnUse">
<stop stop-color="#FEDB32"/>
<stop offset="1" stop-color="#FDC41B"/>
</linearGradient>
</defs>
</svg>
