<?xml version="1.0" encoding="UTF-8"?>
<svg width="70px" height="60px" viewBox="0 0 70 60" version="1.1" xmlns="http://www.w3.org/2000/svg" xmlns:xlink="http://www.w3.org/1999/xlink">
    <title>消息</title>
    <g id="页面2" stroke="none" stroke-width="1" fill="none" fill-rule="evenodd">
        <g id="icon" transform="translate(-727.000000, -67.000000)" fill-rule="nonzero">
            <g id="消息" transform="translate(727.000000, 67.000000)">
                <rect id="矩形" fill="#000000" opacity="0" x="17" y="18" width="32" height="32"></rect>
                <path d="M51,11 L15,11 C13.346,11 12,12.346 12,14 L12,42 C12,43.654 13.346,45 15,45 L24,45 L24,51 L30.87,45 L51,45 C52.654,45 54,43.654 54,42 L54,14 C54,12.346 52.654,11 51,11 Z M52,42 C52,42.5522847 51.5522847,43 51,43 L30.87,43 C30.529,43 30.193,43.088 29.899,43.252 L25.999,47.0202026 L25.999,45 C25.999,43.897 25.102,43 23.999,43 L15,43 C14.449,43 14,42.552 14,42 L14,14 C14,13.449 14.449,13 15,13 L51,13 C51.552,13 52,13.449 52,14 L52,42 Z" id="形状" fill="#2872DB" opacity="0.5"></path>
                <path d="M6,56.5 C6,58.4329966 17.8644541,60 32.5,60 C47.1355459,60 59,58.4329966 59,56.5 C59,54.5670034 47.1355459,53 32.5,53 C17.8644541,53 6,54.5670034 6,56.5 Z" id="路径" fill="#2872DB" opacity="0.1"></path>
                <path d="M1.875,47.75 C2.9375,47.75 3.75,46.9375 3.75,45.875 C3.75,44.8125 2.9375,44 1.875,44 C0.875,44 0,44.875 0,45.875 C0,46.9375 0.8125,47.75 1.875,47.75 Z" id="形状" fill="#2872DB" opacity="0.5"></path>
                <polygon id="路径" fill="#2872DB" opacity="0.2" points="55 4.185 55 4.515 57.7413793 7.265 68.2931034 1.82 58.7758621 8.31 58.7758621 11.5 60.2758621 9.905 60.2758621 9.85 60.2758621 9.905 61.8275862 11.5 70 0.885 70 0.5"></polygon>
                <path d="M40.0023193,31.0072021 L23.0023193,31.0072021 C22.4500346,31.0072021 22.0023193,31.4549174 22.0023193,32.0072021 C22.0023193,32.5594869 22.4500346,33.0072021 23.0023193,33.0072021 L40.0023193,33.0072021 C40.5546041,33.0072021 41.0023193,32.5594869 41.0023193,32.0072021 C41.0023193,31.4549174 40.5546041,31.0072021 40.0023193,31.0072021 Z" id="路径" fill="#2872DB" opacity="0.2"></path>
                <path d="M44.0023193,22.0072021 L23.0023193,22.0072021 C22.4500346,22.0072021 22.0023193,22.4549174 22.0023193,23.0072021 C22.0023193,23.5594869 22.4500346,24.0072021 23.0023193,24.0072021 L44.0023193,24.0072021 C44.5546041,24.0072021 45.0023193,23.5594869 45.0023193,23.0072021 C45.0023193,22.4549174 44.5546041,22.0072021 44.0023193,22.0072021 Z" id="路径" fill="#2872DB" opacity="0.2"></path>
            </g>
        </g>
    </g>
</svg>