<?xml version="1.0" encoding="UTF-8"?>
<svg width="32px" height="32px" viewBox="0 0 32 32" version="1.1" xmlns="http://www.w3.org/2000/svg" xmlns:xlink="http://www.w3.org/1999/xlink">
    <title>消息</title>
    <g id="页面2" stroke="none" stroke-width="1" fill="none" fill-rule="evenodd">
        <g id="icon" transform="translate(-1374.000000, -77.000000)">
            <g id="消息" transform="translate(1374.000000, 77.000000)">
                <rect id="矩形" fill="#4D9BD5" opacity="0.200000003" x="0" y="0" width="32" height="32" rx="4"></rect>
                <g transform="translate(7.000000, 8.000000)">
                    <rect id="矩形" fill="#000000" fill-rule="nonzero" opacity="0" x="0" y="0" width="17" height="17"></rect>
                    <path d="M14.3928571,1 L2.60714286,1 C1.72107143,1 1,1.69980243 1,2.55973796 L1,12.4380784 C1,13.2980139 1.72107143,13.9978164 2.60714286,13.9978164 L4.00252424,13.9978164 L4.00252424,16 L7.35892857,13.9978164 L14.3928571,13.9978164 C15.2789286,13.9978164 16,13.2980139 16,12.4380784 L16,2.55973796 C16,1.69980243 15.2789286,1 14.3928571,1 Z M14.9978638,12.4791565 C14.9978638,12.7662963 14.7580163,12.9990691 14.4621495,12.9990691 L7.35892857,12.9990691 C7.17625,12.9990691 6.99625,13.0448215 6.83875,13.1300871 L4.99139404,14.273895 L4.99139404,14.0388945 C4.99139404,13.4654308 4.23410714,12.9990691 3.64321429,12.9990691 L2.53311157,12.9990691 C2.237933,12.9990691 1.99739729,12.7661483 1.99739729,12.4791565 L1.99739729,2.51675415 C1.99739729,2.23028228 2.237933,1.9968415 2.53311157,1.9968415 L14.4621495,1.9968415 C14.7578638,1.9968415 14.9978638,2.23028228 14.9978638,2.51675415 L14.9978638,12.4791565 Z M10.4629429,8.0039369 L4.53823853,8.0039369 C4.2423717,8.0039369 4.00252424,8.21286017 4.00252424,8.5 C4.00252424,8.78713983 4.2423717,8.9994812 4.53823853,8.9994812 L10.4629429,8.9994812 C10.7588098,8.9994812 10.9986572,8.78713983 10.9986572,8.5 C10.9986572,8.21286017 10.7588098,8.0039369 10.4629429,8.0039369 Z M12.4694127,4.99746704 L4.53823853,4.99746704 C4.2423717,4.99746704 4.00252424,5.21372992 4.00252424,5.50086975 C4.00252424,5.78800958 4.2423717,6.00427246 4.53823853,6.00427246 L12.4694127,6.00427246 C12.7652795,6.00427246 13.005127,5.78800958 13.005127,5.50086975 C13.005127,5.21372992 12.7652795,4.99746704 12.4694127,4.99746704 Z" id="形状" fill="#4D9BD5"></path>
                </g>
            </g>
        </g>
    </g>
</svg>