<svg width="100" height="58" viewBox="0 0 100 58" fill="none" xmlns="http://www.w3.org/2000/svg">
<path d="M6.18 15.512H9.684V13.088H5.148V15.44C5.148 16.736 5.068 18.104 4.908 19.544H9.684V17.048H6.18V15.512ZM4.668 21.128C4.188 23.816 3.396 26.24 2.292 28.4L0.900001 27.152C2.548 24.112 3.38 20.208 3.396 15.44V7.328H21.204V13.088H17.868V15.512H21.636V17.048H17.868V19.544H22.428V21.128H14.724C15.316 22.168 16.092 23.12 17.052 23.984C18.156 23.392 19.188 22.488 20.148 21.272L21.348 22.448C20.452 23.536 19.468 24.384 18.396 24.992C19.772 25.872 21.372 26.504 23.196 26.888L22.356 28.52C17.94 27.416 14.82 24.952 12.996 21.128H9.732V26.36C11.172 26.008 12.524 25.568 13.788 25.04L14.124 26.624C12.348 27.28 10.188 27.864 7.644 28.376L7.164 26.864C7.74 26.64 8.028 26.24 8.028 25.664V21.128H4.668ZM16.188 13.088H11.34V15.512H16.188V13.088ZM11.34 19.544H16.188V17.048H11.34V19.544ZM19.476 8.912H5.148V11.528H19.476V8.912ZM27.708 7.832H46.404V9.512H42.396V15.872H47.652V17.528H42.396V28.16H40.644V17.528H33.708C33.484 20.008 33.02 22.056 32.316 23.672C31.404 25.688 29.892 27.248 27.78 28.352L26.844 26.864C28.796 25.76 30.156 24.296 30.924 22.472C31.42 21.112 31.764 19.464 31.956 17.528H26.412V15.872H32.052L32.076 15.032V9.512H27.708V7.832ZM33.852 9.512V15.464L33.828 15.872H40.644V9.512H33.852ZM54.852 15.536H61.188V10.136H61.044C59.172 12.44 56.132 14.352 51.924 15.872L51.012 14.336C54.82 13.232 57.676 11.832 59.58 10.136H52.164V8.552H61.188V6.344H62.868V8.552H71.892V10.136H64.524C66.332 11.896 69.124 13.28 72.9 14.288L72.156 15.848C67.82 14.376 64.772 12.472 63.012 10.136H62.868V15.536H69.18V24.2H54.852V15.536ZM67.5 22.664V20.648H56.532V22.664H67.5ZM56.532 19.16H67.5V17.072H56.532V19.16ZM51.684 26.096H72.3V27.704H51.684V26.096ZM77.868 10.808H85.476L86.22 9.056C83.868 9.2 81.324 9.272 78.588 9.272L78.084 7.832C84.9 7.832 90.548 7.376 95.028 6.464L95.82 7.832C93.596 8.328 90.948 8.696 87.876 8.936C87.7 9.464 87.468 10.088 87.18 10.808H96.108V12.296H86.484C86.292 12.68 85.988 13.224 85.572 13.928H97.5V15.464H84.516C84.036 16.104 83.596 16.656 83.196 17.12H95.1V28.424H93.444V27.392H82.596V28.424H80.94V19.424C79.628 20.608 78.276 21.672 76.884 22.616L75.948 21.128C78.588 19.336 80.748 17.448 82.428 15.464H76.572V13.928H83.628C84.028 13.352 84.38 12.808 84.684 12.296H77.868V10.808ZM82.596 21.488V23H93.444V21.488H82.596ZM93.444 20.144V18.536H82.596V20.144H93.444ZM82.596 24.344V25.976H93.444V24.344H82.596Z" fill="#05A3AD"/>
<path d="M6.18 15.512H9.684V13.088H5.148V15.44C5.148 16.736 5.068 18.104 4.908 19.544H9.684V17.048H6.18V15.512ZM4.668 21.128C4.188 23.816 3.396 26.24 2.292 28.4L0.900001 27.152C2.548 24.112 3.38 20.208 3.396 15.44V7.328H21.204V13.088H17.868V15.512H21.636V17.048H17.868V19.544H22.428V21.128H14.724C15.316 22.168 16.092 23.12 17.052 23.984C18.156 23.392 19.188 22.488 20.148 21.272L21.348 22.448C20.452 23.536 19.468 24.384 18.396 24.992C19.772 25.872 21.372 26.504 23.196 26.888L22.356 28.52C17.94 27.416 14.82 24.952 12.996 21.128H9.732V26.36C11.172 26.008 12.524 25.568 13.788 25.04L14.124 26.624C12.348 27.28 10.188 27.864 7.644 28.376L7.164 26.864C7.74 26.64 8.028 26.24 8.028 25.664V21.128H4.668ZM16.188 13.088H11.34V15.512H16.188V13.088ZM11.34 19.544H16.188V17.048H11.34V19.544ZM19.476 8.912H5.148V11.528H19.476V8.912ZM27.708 7.832H46.404V9.512H42.396V15.872H47.652V17.528H42.396V28.16H40.644V17.528H33.708C33.484 20.008 33.02 22.056 32.316 23.672C31.404 25.688 29.892 27.248 27.78 28.352L26.844 26.864C28.796 25.76 30.156 24.296 30.924 22.472C31.42 21.112 31.764 19.464 31.956 17.528H26.412V15.872H32.052L32.076 15.032V9.512H27.708V7.832ZM33.852 9.512V15.464L33.828 15.872H40.644V9.512H33.852ZM54.852 15.536H61.188V10.136H61.044C59.172 12.44 56.132 14.352 51.924 15.872L51.012 14.336C54.82 13.232 57.676 11.832 59.58 10.136H52.164V8.552H61.188V6.344H62.868V8.552H71.892V10.136H64.524C66.332 11.896 69.124 13.28 72.9 14.288L72.156 15.848C67.82 14.376 64.772 12.472 63.012 10.136H62.868V15.536H69.18V24.2H54.852V15.536ZM67.5 22.664V20.648H56.532V22.664H67.5ZM56.532 19.16H67.5V17.072H56.532V19.16ZM51.684 26.096H72.3V27.704H51.684V26.096ZM77.868 10.808H85.476L86.22 9.056C83.868 9.2 81.324 9.272 78.588 9.272L78.084 7.832C84.9 7.832 90.548 7.376 95.028 6.464L95.82 7.832C93.596 8.328 90.948 8.696 87.876 8.936C87.7 9.464 87.468 10.088 87.18 10.808H96.108V12.296H86.484C86.292 12.68 85.988 13.224 85.572 13.928H97.5V15.464H84.516C84.036 16.104 83.596 16.656 83.196 17.12H95.1V28.424H93.444V27.392H82.596V28.424H80.94V19.424C79.628 20.608 78.276 21.672 76.884 22.616L75.948 21.128C78.588 19.336 80.748 17.448 82.428 15.464H76.572V13.928H83.628C84.028 13.352 84.38 12.808 84.684 12.296H77.868V10.808ZM82.596 21.488V23H93.444V21.488H82.596ZM93.444 20.144V18.536H82.596V20.144H93.444ZM82.596 24.344V25.976H93.444V24.344H82.596Z" fill="#0897A0"/>
<path d="M49 54.578L62.2674 44L64 45.3801L49 57.3333L34 45.3801L35.7326 44L49 54.578Z" fill="#0897A0"/>
</svg>
