<svg width="208" height="163" viewBox="0 0 208 163" fill="none" xmlns="http://www.w3.org/2000/svg">
<path d="M41.0723 89.3503C36.6356 87.3453 31.8251 81.9666 33.1887 76.9058C33.8707 76.7315 34.5882 77.0093 34.9744 77.5972C34.9744 77.5972 42.6712 89.6061 40.5117 78.5582C39.4942 73.3661 37.7431 68.3468 37.6046 62.9819C37.3762 53.2337 46.3327 50.5305 48.9076 61.3019C49.2467 62.7261 50.548 74.3063 53.5104 72.9789C53.892 72.7785 54.2016 72.4644 54.3964 72.0802C55.8983 69.6189 56.3482 66.0031 59.103 65.1666C61.5187 64.4061 63.8997 66.5009 65.2009 68.6649C67.838 73.0619 71.368 83.9923 65.9692 87.6979C60.5704 91.4036 46.9488 91.9913 41.1208 89.3987L41.0723 89.3503Z" fill="url(#paint0_linear_656_3637)"/>
<path d="M153.161 101.041C151.209 96.5819 151.257 89.371 155.687 86.5226C156.313 86.8587 156.651 87.5594 156.524 88.2579C156.524 88.2579 154.164 102.327 159.985 92.6826C162.754 88.1404 164.83 83.2525 168.291 79.1804C174.652 71.7552 183.131 75.7858 177.808 85.4994C177.116 86.7853 170.291 96.2431 173.378 97.2525C173.796 97.3552 174.236 97.3286 174.638 97.1765C177.407 96.3607 180.175 93.9824 182.792 95.1853C185.09 96.2431 185.45 99.3819 184.965 101.864C183.968 106.89 179.083 112.511 172.591 111.64C165.96 110.741 155.735 106.918 153.181 101.09L153.161 101.041Z" fill="url(#paint1_linear_656_3637)"/>
<path d="M207.73 111.64C181.629 93.7542 144.744 82.6026 103.865 82.6026C62.9863 82.6026 26.1012 93.7542 0 111.64H207.73Z" fill="url(#paint2_linear_656_3637)"/>
<path d="M164.533 57.7137C162.878 59.7878 161.819 62.7261 162.809 65.3533C163.494 67.1646 165.557 67.1784 165.412 69.695C165.269 70.9515 164.838 72.1582 164.152 73.2209C162.983 75.264 161.549 77.1445 159.888 78.814C161.273 79.8926 161.977 81.626 161.736 83.3631C161.465 85.0873 160.647 86.6792 159.404 87.9053C159.038 88.3526 158.56 88.6959 158.019 88.9009C157.496 89.0217 156.951 89.0217 156.428 88.9009C153.852 88.4643 151.352 87.666 149.001 86.5295C147.533 85.8313 146.038 84.8772 145.54 83.3562C144.969 81.6105 145.877 81.0558 146.868 80.5089L147.124 80.3677C147.635 80.0826 148.137 79.7728 148.44 79.2772C149.167 78.0881 149.188 76.4979 149.444 75.1705C149.817 73.214 149.264 69.6466 151.714 68.8792C152.662 68.5819 153.693 68.651 154.642 68.3468C156.702 67.692 157.554 65.7565 158.38 63.7994L158.53 63.4437C159.006 62.318 159.497 61.2106 160.227 60.3616C161.266 59.1518 163.841 58.5572 164.533 57.7137ZM158.552 69.3216C158.552 69.3216 151.098 78.0051 151.34 86.0318H153.749C153.749 86.0318 154.621 76.3528 158.552 69.3216Z" fill="url(#paint3_linear_656_3637)"/>
<path d="M58.3835 12.3261C58.422 9.64612 56.5056 7.33526 53.8622 6.87428C51.2188 6.41331 48.6318 7.9388 47.7589 10.4732C46.0934 10.4406 44.543 11.3188 43.7161 12.7632C42.8891 14.2075 42.9176 15.9876 43.7903 17.4048C44.663 18.822 46.2407 19.6503 47.9042 19.5646H57.9336C59.8378 19.5392 61.4008 18.0523 61.5188 16.1537C61.6368 14.2551 60.27 12.5865 58.3835 12.3261Z" fill="url(#paint4_linear_656_3637)"/>
<path d="M99.8369 6.83671V6.80214C99.8328 3.48967 97.443 0.660606 94.1747 0.099166C90.9064 -0.462275 87.7077 1.40678 86.5959 4.52757C83.4518 4.57721 80.9432 7.16334 80.9929 10.3039C81.0426 13.4444 83.6317 15.95 86.7759 15.9004H99.2347C101.635 15.9047 103.624 14.042 103.774 11.6491C103.925 9.25616 102.184 7.15979 99.8023 6.86436L99.8369 6.83671Z" fill="url(#paint5_linear_656_3637)"/>
<path d="M45.4126 81.2H71.4766L97.7009 100.926L71.9438 100.004L45.4126 81.2Z" fill="url(#paint6_linear_656_3637)"/>
<path d="M137.358 67.6224L104.28 86.8L71.2021 67.6224C71.2021 67.6064 71.2021 67.5854 71.2076 67.5695C71.2345 67.4476 73.0603 65.9492 75.8447 63.7256C75.8715 63.7045 75.893 63.6832 75.9201 63.6619C85.054 56.3711 104.28 41.44 104.28 41.44C104.28 41.44 123.507 56.3711 132.641 63.6619C135.468 65.9176 137.326 67.4424 137.353 67.5695C137.358 67.5852 137.358 67.6064 137.358 67.6224Z" fill="#00AEF0"/>
<path d="M137.358 67.6224L104.28 86.8L71.2021 67.6224C71.2021 67.6064 71.2021 67.5854 71.2076 67.5695C71.2345 67.4476 73.0603 65.9492 75.8447 63.7256C75.8715 63.7045 75.893 63.6832 75.9201 63.6619C85.054 56.3711 104.28 41.44 104.28 41.44C104.28 41.44 123.507 56.3711 132.641 63.6619C135.468 65.9176 137.326 67.4424 137.353 67.5695C137.358 67.5852 137.358 67.6064 137.358 67.6224Z" fill="#F3FFF5"/>
<path d="M118.672 24.08H83.8921C80.9091 24.08 78.4907 26.537 78.4907 29.5676V82.9924C78.4907 86.0233 80.9091 88.48 83.8921 88.48H127.472C130.455 88.48 132.873 86.0231 132.873 82.9924V38.5086L118.672 24.08Z" fill="url(#paint7_linear_656_3637)"/>
<path d="M118.857 32.7554C118.857 35.6962 121.339 38.08 124.401 38.08H133.434L118.857 24.08V32.7554Z" fill="#E8E8E8"/>
<path d="M99.5708 34.16H87.6849C86.6322 34.16 85.7788 35.0124 85.7788 36.0639V47.9361C85.7788 48.9876 86.6322 49.84 87.6849 49.84H99.5708C100.624 49.84 101.477 48.9876 101.477 47.9361V36.0639C101.477 35.0124 100.624 34.16 99.5708 34.16Z" fill="#F9FFFD"/>
<path d="M117.249 53.76H87.3867C86.4987 53.76 85.7788 54.3868 85.7788 55.1599C85.7788 55.933 86.4987 56.56 87.3867 56.56H117.249C118.137 56.56 118.857 55.9332 118.857 55.1599C118.857 54.3868 118.137 53.76 117.249 53.76Z" fill="#F9FFFD"/>
<path d="M117.249 62.72H87.3867C86.4987 62.72 85.7788 63.3468 85.7788 64.1199C85.7788 64.8932 86.4987 65.52 87.3867 65.52H117.249C118.137 65.52 118.857 64.8932 118.857 64.1199C118.857 63.3468 118.137 62.72 117.249 62.72Z" fill="#F9FFFD"/>
<path d="M102.756 68.32H87.3031C86.4612 68.32 85.7788 68.9468 85.7788 69.7199C85.7788 70.493 86.4612 71.12 87.3031 71.12H102.756C103.597 71.12 104.28 70.4932 104.28 69.7199C104.28 68.9468 103.597 68.32 102.756 68.32Z" fill="#F9FFFD"/>
<path d="M137.067 65.5959V96.9448C137.067 99.1359 135.263 100.927 133.056 100.927H75.232C73.0247 100.927 71.2314 99.1359 71.2314 96.9448V65.5959L104.149 84.8625L137.067 65.5959Z" fill="url(#paint8_linear_656_3637)"/>
<path opacity="0.796735" d="M135.954 99.6789L114.767 78.6474L104.149 84.862L93.5262 78.6446L72.3379 99.6775C73.0672 100.442 74.0909 100.926 75.2319 100.926H133.055C134.196 100.927 135.222 100.443 135.954 99.6789Z" fill="url(#paint9_linear_656_3637)"/>
<path d="M126.146 42C133.886 42 140.162 35.732 140.162 28C140.162 20.268 133.886 14 126.146 14C118.405 14 112.129 20.268 112.129 28C112.129 35.732 118.405 42 126.146 42Z" fill="url(#paint10_linear_656_3637)"/>
<path d="M118.857 30.24C120.096 30.24 121.1 29.2371 121.1 28C121.1 26.7629 120.096 25.76 118.857 25.76C117.619 25.76 116.615 26.7629 116.615 28C116.615 29.2371 117.619 30.24 118.857 30.24Z" fill="white"/>
<path d="M126.145 30.24C127.384 30.24 128.388 29.2371 128.388 28C128.388 26.7629 127.384 25.76 126.145 25.76C124.907 25.76 123.903 26.7629 123.903 28C123.903 29.2371 124.907 30.24 126.145 30.24Z" fill="white"/>
<path d="M133.434 30.24C134.673 30.24 135.677 29.2371 135.677 28C135.677 26.7629 134.673 25.76 133.434 25.76C132.195 25.76 131.191 26.7629 131.191 28C131.191 29.2371 132.195 30.24 133.434 30.24Z" fill="white"/>
<path d="M66.024 139.056C64.92 139.152 63.744 139.248 62.496 139.344V137.448H66.24V136.032H62.496V134.448H60.912V136.032H58.128C58.728 135.24 59.304 134.328 59.832 133.32H66.408V131.784H60.552C60.744 131.352 60.912 130.92 61.08 130.488L59.352 130.2C59.16 130.728 58.944 131.256 58.728 131.784H55.392V133.32H57.96C57.384 134.4 56.736 135.312 56.064 136.08L56.448 137.448H60.912V139.44C59.28 139.536 57.528 139.608 55.704 139.704L55.92 141.24C57.648 141.144 59.328 141.024 60.912 140.928V142.656H62.496V140.808C63.72 140.688 64.896 140.568 66.024 140.472V139.056ZM69.384 137.472H72.504V142.68H74.16V137.472H76.704V135.96H69.504V133.464C72.096 133.176 74.256 132.624 76.032 131.856L74.928 130.56C73.248 131.328 70.896 131.856 67.92 132.144V135.912C67.872 138.072 67.296 139.92 66.24 141.48L67.44 142.728C68.472 141.24 69.12 139.488 69.384 137.472ZM74.016 143.376H58.272V152.4H60.048V151.464H72.24V152.4H74.016V143.376ZM60.048 149.976V148.104H72.24V149.976H60.048ZM60.048 146.712V144.84H72.24V146.712H60.048ZM81.192 131.688V133.368H88.08V134.976C88.056 136.464 87.96 137.88 87.768 139.176H79.584V140.832H87.48C87.168 142.344 86.736 143.712 86.16 144.912C84.864 147.36 82.584 149.304 79.272 150.792L80.232 152.328C83.568 150.888 85.968 148.848 87.456 146.256C88.272 144.72 88.872 142.92 89.256 140.832H91.2V149.568C91.2 151.2 91.968 152.016 93.552 152.016H97.44C98.448 152.016 99.168 151.8 99.624 151.368C100.152 150.84 100.512 149.424 100.704 147.072L99.072 146.544C98.952 148.416 98.736 149.52 98.4 149.904C98.136 150.216 97.704 150.384 97.128 150.384H94.08C93.312 150.384 92.928 149.976 92.928 149.208V140.832H100.368V139.176H89.52C89.688 137.88 89.784 136.464 89.832 134.976V133.368H98.424V131.688H81.192ZM103.728 131.352V132.96H113.136V135.048H105.792V144.552H112.824C112.584 145.8 112.152 146.832 111.576 147.648C110.232 146.952 108.984 146.136 107.856 145.2L106.536 146.112C107.712 147.12 109.008 148.008 110.4 148.776C108.864 149.88 106.416 150.552 103.08 150.816L103.824 152.4C107.64 151.968 110.4 151.056 112.08 149.616C115.656 151.248 119.856 152.184 124.68 152.376L125.112 150.72C120.504 150.576 116.52 149.784 113.16 148.368C113.832 147.408 114.288 146.136 114.576 144.552H122.304V135.048H114.864V132.96H124.296V131.352H103.728ZM120.6 143.04H114.792L114.864 141.336V140.496H120.6V143.04ZM113.064 143.04H107.496V140.496H113.136V141.336C113.136 141.912 113.112 142.488 113.064 143.04ZM107.496 139.056V136.536H113.136V139.056H107.496ZM114.864 136.536H120.6V139.056H114.864V136.536ZM137.904 130.32C135.792 132.624 132.6 134.16 128.328 134.976L129.336 136.56C131.904 135.984 134.112 135.144 135.984 134.04H142.992C141.648 136.008 139.704 137.52 137.208 138.528C136.44 137.568 135.624 136.704 134.76 135.888L133.248 136.608C134.064 137.352 134.856 138.192 135.6 139.104C133.872 139.608 131.952 139.92 129.792 140.064L130.536 141.624C137.544 141.072 142.368 138.48 144.96 133.872V132.504H138.072C138.552 132.072 139.008 131.616 139.44 131.136L137.904 130.32ZM136.992 145.32L135.456 146.04C136.344 146.904 137.184 147.888 138 148.968C135.288 149.88 132.048 150.336 128.304 150.36L129 152.016C138.312 151.8 144.648 148.872 148.056 143.208V141.84H141.48C142.152 141.336 142.752 140.784 143.328 140.208L141.84 139.392C139.344 142.032 135.48 143.64 130.248 144.168L131.28 145.704C134.184 145.2 136.68 144.432 138.792 143.424H145.896C144.36 145.536 142.272 147.192 139.608 148.344C138.792 147.264 137.904 146.256 136.992 145.32ZM153.984 147.144C153.576 147.144 153.24 147.264 152.976 147.552C152.688 147.816 152.544 148.152 152.544 148.56C152.544 148.968 152.688 149.304 152.976 149.592C153.24 149.856 153.576 150 153.984 150C154.392 150 154.752 149.856 155.04 149.592C155.304 149.328 155.448 148.992 155.448 148.56C155.448 148.152 155.304 147.816 155.04 147.552C154.752 147.264 154.416 147.144 153.984 147.144ZM162 147.144C161.592 147.144 161.256 147.264 160.968 147.552C160.68 147.816 160.56 148.152 160.56 148.56C160.56 148.968 160.68 149.304 160.968 149.592C161.256 149.856 161.592 150 162 150C162.408 150 162.768 149.856 163.056 149.592C163.32 149.328 163.464 148.992 163.464 148.56C163.464 148.152 163.32 147.816 163.056 147.552C162.768 147.264 162.408 147.144 162 147.144ZM169.992 147.144C169.584 147.144 169.248 147.264 168.96 147.552C168.672 147.816 168.552 148.152 168.552 148.56C168.552 148.968 168.672 149.304 168.96 149.592C169.248 149.856 169.584 150 169.992 150C170.4 150 170.736 149.856 171.024 149.592C171.312 149.328 171.456 148.992 171.456 148.56C171.456 148.152 171.312 147.816 171.024 147.552C170.736 147.264 170.4 147.144 169.992 147.144Z" fill="#999999"/>
<defs>
<linearGradient id="paint0_linear_656_3637" x1="16.1006" y1="-13.7543" x2="59.209" y2="90.337" gradientUnits="userSpaceOnUse">
<stop stop-color="#D2D2D2"/>
<stop offset="1" stop-color="#D2D2D2" stop-opacity="0"/>
</linearGradient>
<linearGradient id="paint1_linear_656_3637" x1="191.465" y1="35.0084" x2="166.417" y2="94.034" gradientUnits="userSpaceOnUse">
<stop stop-color="#D2D2D2"/>
<stop offset="1" stop-color="#D2D2D2" stop-opacity="0"/>
</linearGradient>
<linearGradient id="paint2_linear_656_3637" x1="103.865" y1="18.3852" x2="103.865" y2="111.64" gradientUnits="userSpaceOnUse">
<stop stop-color="#D2D2D2"/>
<stop offset="1" stop-color="#D2D2D2" stop-opacity="0"/>
</linearGradient>
<linearGradient id="paint3_linear_656_3637" x1="165.435" y1="27.1302" x2="138.759" y2="83.6845" gradientUnits="userSpaceOnUse">
<stop stop-color="#D2D2D2"/>
<stop offset="1" stop-color="#D2D2D2" stop-opacity="0"/>
</linearGradient>
<linearGradient id="paint4_linear_656_3637" x1="52.3206" y1="-22.6123" x2="52.3206" y2="19.5707" gradientUnits="userSpaceOnUse">
<stop stop-color="#EDFBFF"/>
<stop offset="1" stop-color="#D2D2D2" stop-opacity="0"/>
</linearGradient>
<linearGradient id="paint5_linear_656_3637" x1="92.3878" y1="-26.9052" x2="92.3878" y2="15.9011" gradientUnits="userSpaceOnUse">
<stop stop-color="#D2D2D2"/>
<stop offset="1" stop-color="#D2D2D2" stop-opacity="0"/>
</linearGradient>
<linearGradient id="paint6_linear_656_3637" x1="80.6409" y1="89.9742" x2="81.1327" y2="92.8872" gradientUnits="userSpaceOnUse">
<stop stop-color="#EBEBEB" stop-opacity="0"/>
<stop offset="1" stop-color="#BBB9B9"/>
</linearGradient>
<linearGradient id="paint7_linear_656_3637" x1="105.682" y1="24.08" x2="105.682" y2="88.48" gradientUnits="userSpaceOnUse">
<stop stop-color="#EFEFEF"/>
<stop offset="1" stop-color="#FDFDFD"/>
</linearGradient>
<linearGradient id="paint8_linear_656_3637" x1="104.149" y1="74.7458" x2="104.149" y2="100.927" gradientUnits="userSpaceOnUse">
<stop stop-color="#EAEAEA"/>
<stop offset="1" stop-color="#F6F6F6"/>
</linearGradient>
<linearGradient id="paint9_linear_656_3637" x1="104.146" y1="83.1356" x2="104.146" y2="100.926" gradientUnits="userSpaceOnUse">
<stop stop-color="#D7D7D7"/>
<stop offset="1" stop-color="#E6E6E6"/>
</linearGradient>
<linearGradient id="paint10_linear_656_3637" x1="117.069" y1="12.6014" x2="135.842" y2="44.5219" gradientUnits="userSpaceOnUse">
<stop stop-color="#FAFFFF"/>
<stop offset="1" stop-color="#09ABAD" stop-opacity="0.86"/>
</linearGradient>
</defs>
</svg>
