<svg width="91" height="54" viewBox="0 0 91 54" fill="none" xmlns="http://www.w3.org/2000/svg">
<path d="M41.8 18.944C43.024 18.776 44.2 18.584 45.304 18.344V22.16H41.656V23.432H45.28C44.44 26.408 43 29.072 40.96 31.424L41.488 32.792C43.12 30.728 44.392 28.4 45.304 25.832V37.256H46.552V25.928C47.368 26.984 48.328 28.424 49.432 30.2L50.176 29.12C48.952 27.512 47.752 26.072 46.552 24.824V23.432H49.696V22.16H46.552V18.032C47.608 17.744 48.592 17.432 49.528 17.096L49.072 15.848C46.888 16.736 44.368 17.36 41.536 17.696L41.8 18.944ZM51.352 17.048V27.824H61.264V17.048H51.352ZM59.992 26.576H52.648V18.272H59.992V26.576ZM53.44 29.624C52.312 32.312 50.944 34.64 49.336 36.56L50.44 37.352C52.024 35.336 53.416 32.936 54.592 30.152L53.44 29.624ZM58.864 29.504L57.808 30.152C59.584 32.792 61 35.192 62.008 37.352L63.112 36.584C62.128 34.568 60.712 32.192 58.864 29.504ZM75.904 15.992C74.944 17.816 73.84 19.424 72.64 20.792C71.344 22.304 69.832 23.552 68.104 24.56L68.824 25.712C70.744 24.416 72.352 23.072 73.624 21.632C74.776 20.336 75.904 18.68 77.008 16.664L75.904 15.992ZM76.744 26.408C76.216 28.856 75.424 30.824 74.368 32.312C73.216 33.776 71.536 35.12 69.28 36.344L70.096 37.4C72.544 36.056 74.368 34.52 75.592 32.84C76.648 31.256 77.44 29.12 78.016 26.408H84.496C84.352 30.368 84.064 32.96 83.632 34.184C83.2 35.336 82.312 35.936 80.968 35.936C79.72 35.936 78.424 35.912 77.032 35.888L77.368 37.16H81.616C82.816 37.112 83.68 36.728 84.208 36.032C84.736 35.312 85.12 34.04 85.36 32.264C85.576 30.44 85.72 28.064 85.792 25.136H71.632V26.408H76.744ZM82.24 15.656L81.112 16.28C82.576 20.12 85.192 23.24 88.936 25.616L89.8 24.584C86.2 22.424 83.68 19.448 82.24 15.656Z" fill="#333333"/>
<path d="M28.0934 30.4932L28.997 30.2501L29.0301 30.2413C29.5753 30.0714 30.0331 29.7286 30.3193 29.2335C30.6024 28.7707 30.7048 28.1994 30.5693 27.6545L30.1506 25.888L31.3373 24.6986L31.3886 24.6664C31.7831 24.2269 32 23.723 32 23.1606C32 22.5981 31.7831 22.062 31.3886 21.6636L30.1747 20.3863L30.1325 20.3365L30.5663 18.652C30.6988 18.1159 30.5994 17.5446 30.3163 17.0818C30.0331 16.5867 29.5723 16.2351 29.0271 16.074L27.253 15.5379L26.7681 13.8798C26.6024 13.3583 26.2319 12.8866 25.738 12.6171C25.244 12.3476 24.6747 12.2597 24.1084 12.3974L22.3012 12.787L21.0361 11.5859C20.6175 11.2109 20.0663 11 19.497 11C18.9187 11 18.3765 11.2109 17.9578 11.5859L16.6536 12.7753L16.6024 12.8163L14.8795 12.4003C14.3524 12.2685 13.8102 12.3505 13.3313 12.579L13.256 12.62C12.747 12.8896 12.3855 13.3612 12.2199 13.8827L11.6837 15.5818L9.99398 16.0769H9.96084C9.40663 16.238 8.95783 16.5984 8.67169 17.0847C8.38554 17.5563 8.28614 18.1188 8.42169 18.6549L8.82229 20.3863L8.84036 20.4185L7.65361 21.6138L7.60241 21.646C7.21687 22.062 7 22.5981 7 23.1606C7 23.7201 7.21687 24.2269 7.60241 24.6488L8.82229 25.9261L8.85542 25.9671L8.42169 27.6516C8.30422 28.1643 8.38855 28.6916 8.62349 29.1574L8.6747 29.2306C8.95783 29.7257 9.40964 30.0685 9.96084 30.2384L10.8825 30.5225L7.25 36.1883C7.04819 36.5047 7.14157 36.9207 7.4759 37.117C7.6506 37.2312 7.87048 37.2547 8.05422 37.2049L12.3614 36.2293L13.3735 40.4684C13.4578 40.8258 13.8434 41.0719 14.2259 40.981C14.4096 40.9342 14.5602 40.8111 14.6596 40.6793L18.3072 34.9843C18.6596 35.2128 19.0753 35.3182 19.494 35.3182C19.9127 35.3182 20.3313 35.2128 20.6807 34.9843L24.3283 40.6793C24.4277 40.8082 24.5783 40.9312 24.7711 40.981C25.1476 41.0719 25.5331 40.8258 25.6084 40.4684L26.6205 36.2293L30.9518 37.2049C31.1355 37.2547 31.3373 37.2283 31.5211 37.117C31.8404 36.9207 31.9398 36.5076 31.738 36.1883L28.0934 30.4932ZM19.5 28.0969C16.7349 28.0969 14.491 25.9173 14.491 23.225C14.491 20.5328 16.7349 18.3561 19.5 18.3561C22.2651 18.3561 24.509 20.5357 24.509 23.228C24.509 25.9202 22.2651 28.0969 19.5 28.0969Z" fill="black"/>
<path d="M28.0934 30.4932L28.997 30.2501L29.0301 30.2413C29.5753 30.0714 30.0331 29.7286 30.3193 29.2335C30.6024 28.7707 30.7048 28.1994 30.5693 27.6545L30.1506 25.888L31.3373 24.6986L31.3886 24.6664C31.7831 24.2269 32 23.723 32 23.1606C32 22.5981 31.7831 22.062 31.3886 21.6636L30.1747 20.3863L30.1325 20.3365L30.5663 18.652C30.6988 18.1159 30.5994 17.5446 30.3163 17.0818C30.0331 16.5867 29.5723 16.2351 29.0271 16.074L27.253 15.5379L26.7681 13.8798C26.6024 13.3583 26.2319 12.8866 25.738 12.6171C25.244 12.3476 24.6747 12.2597 24.1084 12.3974L22.3012 12.787L21.0361 11.5859C20.6175 11.2109 20.0663 11 19.497 11C18.9187 11 18.3765 11.2109 17.9578 11.5859L16.6536 12.7753L16.6024 12.8163L14.8795 12.4003C14.3524 12.2685 13.8102 12.3505 13.3313 12.579L13.256 12.62C12.747 12.8896 12.3855 13.3612 12.2199 13.8827L11.6837 15.5818L9.99398 16.0769H9.96084C9.40663 16.238 8.95783 16.5984 8.67169 17.0847C8.38554 17.5563 8.28614 18.1188 8.42169 18.6549L8.82229 20.3863L8.84036 20.4185L7.65361 21.6138L7.60241 21.646C7.21687 22.062 7 22.5981 7 23.1606C7 23.7201 7.21687 24.2269 7.60241 24.6488L8.82229 25.9261L8.85542 25.9671L8.42169 27.6516C8.30422 28.1643 8.38855 28.6916 8.62349 29.1574L8.6747 29.2306C8.95783 29.7257 9.40964 30.0685 9.96084 30.2384L10.8825 30.5225L7.25 36.1883C7.04819 36.5047 7.14157 36.9207 7.4759 37.117C7.6506 37.2312 7.87048 37.2547 8.05422 37.2049L12.3614 36.2293L13.3735 40.4684C13.4578 40.8258 13.8434 41.0719 14.2259 40.981C14.4096 40.9342 14.5602 40.8111 14.6596 40.6793L18.3072 34.9843C18.6596 35.2128 19.0753 35.3182 19.494 35.3182C19.9127 35.3182 20.3313 35.2128 20.6807 34.9843L24.3283 40.6793C24.4277 40.8082 24.5783 40.9312 24.7711 40.981C25.1476 41.0719 25.5331 40.8258 25.6084 40.4684L26.6205 36.2293L30.9518 37.2049C31.1355 37.2547 31.3373 37.2283 31.5211 37.117C31.8404 36.9207 31.9398 36.5076 31.738 36.1883L28.0934 30.4932ZM19.5 28.0969C16.7349 28.0969 14.491 25.9173 14.491 23.225C14.491 20.5328 16.7349 18.3561 19.5 18.3561C22.2651 18.3561 24.509 20.5357 24.509 23.228C24.509 25.9202 22.2651 28.0969 19.5 28.0969Z" fill="url(#paint0_linear_227_453)"/>
<defs>
<linearGradient id="paint0_linear_227_453" x1="12.5" y1="15.5" x2="23.9646" y2="34.8177" gradientUnits="userSpaceOnUse">
<stop stop-color="#FFC940"/>
<stop offset="0.775952" stop-color="#FE7A00"/>
</linearGradient>
</defs>
</svg>
