<svg width="91" height="54" viewBox="0 0 91 54" fill="none" xmlns="http://www.w3.org/2000/svg">
<path d="M59.824 16.784H44.224V37.376H45.544V35.672H58.504V37.328H59.824V16.784ZM45.544 34.4V29.48H58.504V34.4H45.544ZM45.544 28.28V23.648H58.504V28.28H45.544ZM45.544 22.424V18.032H58.504V22.424H45.544ZM71.8 15.512V20.192H68.704V21.464H71.776C71.056 24.632 69.784 27.464 67.96 29.984L68.536 31.352C69.904 29.336 70.984 27.032 71.8 24.464V37.328H73.072V24.872C73.864 25.832 74.824 27.128 75.928 28.808L76.672 27.704C75.472 26.144 74.272 24.728 73.072 23.48V21.464H76.024V20.192H73.072V15.512H71.8ZM78.88 26.36C78.16 29.408 77.032 32.144 75.52 34.592L76.672 35.312C78.16 32.864 79.288 29.96 80.08 26.6L78.88 26.36ZM87.112 26.24L85.96 26.648C86.92 29.216 87.832 32.168 88.648 35.528L89.848 34.976C89.08 31.88 88.168 28.976 87.112 26.24ZM81.976 37.088C83.224 37.088 83.872 36.44 83.872 35.168V24.152H89.92V22.88H76.576V24.152H82.576V34.856C82.576 35.576 82.216 35.96 81.544 35.96C80.824 35.96 80.056 35.912 79.264 35.864L79.528 37.088H81.976ZM77.824 17V18.272H88.672V17H77.824Z" fill="#333333"/>
<path d="M27.5424 27.77C27.5345 27.5618 27.5688 27.3541 27.6433 27.1594C27.7177 26.9648 27.8308 26.7872 27.9757 26.6374C28.1205 26.4876 28.2942 26.3687 28.4861 26.2877C28.6781 26.2068 28.8845 26.1655 29.0929 26.1664H29.0983C29.9194 26.1664 30.6134 26.8044 30.6501 27.6255C30.6583 27.8108 30.6624 27.9977 30.6624 28.1845C30.6624 35.563 24.4184 41.4853 16.9211 40.9686C10.5938 40.5322 5.46795 35.413 5.03157 29.094C4.51327 21.6062 10.4438 15.3719 17.8307 15.3719C18.1307 15.3719 18.4266 15.3814 18.721 15.4032C19.5346 15.4618 20.1645 16.1392 20.1637 16.955C20.1637 17.8605 19.392 18.5614 18.4865 18.5C17.8154 18.4549 17.1414 18.4787 16.4752 18.5709C11.9589 19.1981 8.43651 22.9754 8.13242 27.519C7.73971 33.4003 12.5929 38.2536 18.4783 37.8717C23.176 37.5689 27.0339 33.8394 27.5028 29.1609C27.5492 28.6988 27.5629 28.234 27.5438 27.77H27.5424ZM24.9939 25.1586C25.0388 25.1141 25.0942 25.0816 25.1551 25.0641C25.2159 25.0467 25.2802 25.0449 25.3419 25.0589C25.4036 25.0729 25.4608 25.1023 25.5082 25.1443C25.5556 25.1863 25.5916 25.2395 25.613 25.2991C26.7079 28.2444 26.0765 31.6807 23.7039 34.0481C22.903 34.8457 21.9483 35.472 20.8977 35.8889C19.8471 36.3058 18.7227 36.5046 17.5929 36.4732C16.4631 36.4418 15.3515 36.1809 14.3257 35.7063C13.2999 35.2318 12.3814 34.5534 11.6261 33.7126C8.72556 30.4891 8.84968 25.4532 11.8975 22.3645C14.0551 20.1799 17.2406 19.3612 20.1842 20.2346C20.4569 20.3163 20.5457 20.6573 20.3451 20.8592L16.6265 24.5682C15.4292 25.7614 15.3038 27.8299 16.4656 29.06C16.7568 29.3681 17.1068 29.6147 17.4949 29.7853C17.8829 29.9559 18.3012 30.0471 18.7251 30.0535C19.149 30.0599 19.5699 29.9812 19.9629 29.8223C20.3559 29.6633 20.7131 29.4273 21.0135 29.1281L24.9952 25.1586L24.9939 25.1586Z" fill="url(#paint0_linear_227_451)"/>
<path d="M34.6293 17.0763L34.6375 17.0804C34.7774 17.1413 34.889 17.2529 34.9498 17.3927L34.9537 17.4009C34.9843 17.4744 35 17.5532 35 17.6328C35 17.7124 34.9843 17.7912 34.9537 17.8646L34.9498 17.8726C34.9201 17.9422 34.8775 18.0056 34.8243 18.0595L28.5624 24.3132C28.5086 24.3664 28.4452 24.409 28.3756 24.4386L28.3674 24.4427C28.2939 24.4732 28.2152 24.4889 28.1356 24.489H23.603L19.9729 28.1163C19.3442 28.7436 18.3242 28.7436 17.6957 28.1163C17.5461 27.9671 17.4274 27.7898 17.3465 27.5947C17.2655 27.3995 17.2238 27.1903 17.2238 26.979C17.2238 26.7677 17.2655 26.5585 17.3465 26.3634C17.4274 26.1682 17.5461 25.991 17.6957 25.8418L21.4933 22.0494V17.8564C21.4933 17.7773 21.5084 17.6982 21.5398 17.6245L21.5439 17.6163C21.5736 17.5465 21.6167 17.4831 21.6707 17.4296L27.9324 11.1759C27.987 11.1213 28.0512 11.0805 28.1179 11.0505L28.1261 11.0464C28.1998 11.0158 28.2788 11 28.3586 11C28.4384 11 28.5174 11.0158 28.5911 11.0464L28.5993 11.0505C28.7389 11.111 28.8505 11.2221 28.9116 11.3614C28.9116 11.3655 28.9144 11.3669 28.9157 11.3709C28.9463 11.4444 28.962 11.5232 28.962 11.6027V17.0299H34.3974C34.4766 17.0299 34.5556 17.0463 34.6293 17.0763Z" fill="url(#paint1_linear_227_451)"/>
<defs>
<linearGradient id="paint0_linear_227_451" x1="11" y1="15.5" x2="20.7979" y2="34.3647" gradientUnits="userSpaceOnUse">
<stop stop-color="#90FF86"/>
<stop offset="1" stop-color="#1CAF04"/>
</linearGradient>
<linearGradient id="paint1_linear_227_451" x1="11" y1="15.5" x2="20.7979" y2="34.3647" gradientUnits="userSpaceOnUse">
<stop stop-color="#90FF86"/>
<stop offset="1" stop-color="#1CAF04"/>
</linearGradient>
</defs>
</svg>
