<svg width="162" height="181" viewBox="0 0 162 181" fill="none" xmlns="http://www.w3.org/2000/svg">
<path opacity="0.15" fill-rule="evenodd" clip-rule="evenodd" d="M0 123.351C27.025 120.477 55.0446 110.987 79.9596 94.729C80.3901 94.448 80.8185 94.1659 81.2448 93.8825C81.8742 91.9076 82.4497 89.9038 82.9689 87.8725C91.8398 53.1621 81.7424 20.2657 59.9158 0H63.7462C85.1135 21.0456 94.5462 54.0677 85.7811 88.3642C85.5267 89.3595 85.2589 90.3486 84.9778 91.3315C86.351 90.367 87.7002 89.3899 89.0252 88.4007C97.5886 54.2423 88.9673 21.7474 69.1901 0H72.7791C91.5887 21.6692 99.7984 52.9609 92.599 85.6575C94.0762 84.4917 95.5212 83.3107 96.9335 82.1153C102.718 50.8603 95.1404 21.3988 78.3299 0H81.7527C97.6887 21.0777 104.977 49.3281 100.339 79.1495C126.731 55.4919 140.772 26.7451 140.818 0H143.711C143.647 28.3568 128.206 58.7627 99.6326 83.2223C99.1959 85.5058 98.6891 87.7969 98.1105 90.0932C131.147 64.0571 149.086 30.8687 149.698 0H152.591C151.94 32.5588 132.423 67.4766 97.0018 94.195C96.2615 96.7578 95.4422 99.2828 94.5475 101.767C135.305 73.4823 157.812 35.4113 159.108 0H162C160.647 37.1981 136.35 77.0885 92.9695 105.915C76.662 146.568 39.9862 175.584 0 181V178.571C37.4061 173.303 72.1857 146.69 88.8064 108.61C87.0152 109.739 85.2102 110.839 83.3925 111.91C66.7576 145.709 34.7212 169.452 0 174.219V171.789C32.1994 167.181 62.3168 145.669 78.991 114.431C77.2548 115.397 75.5081 116.338 73.7518 117.252C57.3569 144.705 29.7386 163.695 0 167.837V165.406C27.2549 161.438 52.9135 144.522 69.0655 119.618C46.7815 130.524 23.1226 137.27 0 139.867V137.477C23.9487 134.749 48.5285 127.477 71.5531 115.59C72.9541 113.205 74.2699 110.755 75.4942 108.241C51.5392 121.72 25.411 129.83 0 132.59V130.202C26.0116 127.333 52.8507 118.735 77.3189 104.294C78.2539 102.158 79.1237 99.981 79.9249 97.7646C55.0362 113.589 27.0668 122.906 0 125.739V123.351ZM83.778 95.2459C85.1957 94.2933 86.5898 93.3272 87.9603 92.3482C87.3126 94.5894 86.6002 96.7975 85.826 98.9708C85.4545 99.2169 85.0815 99.4622 84.707 99.7066C83.6063 100.425 82.4999 101.131 81.3881 101.824C82.2511 99.6679 83.0488 97.4744 83.778 95.2459ZM79.7029 105.805C81.2511 104.882 82.7894 103.937 84.3168 102.969C83.3126 105.486 82.2246 107.952 81.0577 110.366C79.4015 111.333 77.7353 112.276 76.0599 113.193C77.3606 110.788 78.5768 108.324 79.7029 105.805ZM96.1144 86.1498C94.6568 87.329 93.1676 88.493 91.647 89.6409C91.0642 91.9011 90.4162 94.1318 89.7057 96.3308C91.3038 95.2139 92.8716 94.081 94.409 92.9328C94.6823 91.9643 94.9442 90.9901 95.1946 90.0103C95.5241 88.7212 95.8306 87.4343 96.1144 86.1498ZM93.1858 96.9974C91.594 98.1355 89.9723 99.2572 88.3208 100.362C87.3995 102.891 86.3947 105.376 85.3111 107.812C86.8002 106.894 88.2804 105.955 89.7511 104.995C89.8591 104.925 89.967 104.854 90.0747 104.784C90.2212 104.688 90.3674 104.592 90.5135 104.495C91.4802 102.04 92.3722 99.5394 93.1858 96.9974Z" fill="url(#paint0_linear_656_4264)"/>
<defs>
<linearGradient id="paint0_linear_656_4264" x1="175.361" y1="-46.9771" x2="5.09917" y2="258.087" gradientUnits="userSpaceOnUse">
<stop stop-color="#05D6E3" stop-opacity="0.66"/>
<stop offset="0.739583" stop-color="#FF5C00"/>
</linearGradient>
</defs>
</svg>
