<svg width="120" height="120" viewBox="0 0 120 120" fill="none" xmlns="http://www.w3.org/2000/svg">
<path d="M22.54 92.464C25.596 95.952 29.124 98.704 33.124 100.72L32.428 101.968C28.348 99.792 24.892 97.016 22.06 93.64C19.42 96.856 15.932 99.64 11.596 101.992L10.924 100.744C15.196 98.536 18.748 95.776 21.58 92.464H22.54ZM16.276 99.952H27.916V101.2H16.276V99.952ZM12.508 104.776H31.66V106.072H20.26C19.044 108.488 17.54 110.64 15.748 112.528C20.132 112.288 24.18 111.896 27.892 111.352C26.868 109.976 25.892 108.768 24.964 107.728L25.972 107.104C28.18 109.6 29.852 111.76 30.988 113.584L29.932 114.352C29.5 113.632 29.044 112.944 28.564 112.288C25.012 112.88 20.228 113.376 14.212 113.776L13.852 112.624C14.156 112.528 14.38 112.408 14.524 112.264C16.3 110.28 17.732 108.216 18.82 106.072H12.508V104.776ZM54.628 101.224V109.744H53.308V102.424H40.924V110.104H39.628V101.224H54.628ZM40.876 93.424H53.14V99.016H40.876V93.424ZM51.844 97.792V94.648H42.148V97.792H51.844ZM47.908 104.368C47.572 107.856 46.82 110.216 45.652 111.448C44.34 112.968 41.548 113.92 37.276 114.304L36.748 113.128C40.7 112.856 43.308 112.04 44.572 110.68C45.724 109.384 46.396 107.232 46.588 104.224L47.908 104.368ZM48.628 109.912C51.716 110.904 54.5 112.088 56.98 113.464L56.26 114.568C53.556 113.016 50.78 111.8 47.932 110.92L48.628 109.912ZM66.652 114.256H65.356V101.008C64.46 103.744 63.18 106.224 61.516 108.448L60.94 107.008C63.004 104.528 64.468 101.712 65.332 98.56H61.444V97.288H65.356V92.464H66.652V97.288H69.988V98.56H66.652V100.072C67.9 101.288 69.156 102.664 70.42 104.2L69.652 105.328C68.516 103.76 67.516 102.464 66.652 101.44V114.256ZM72.94 95.32C73.228 99.256 74.348 102.8 76.3 105.952C78.188 102.928 79.436 99.384 80.044 95.32H72.94ZM75.556 107.056C73.316 103.584 72.028 99.672 71.692 95.32H70.66V94.048H81.316V95.296C80.596 99.92 79.188 103.864 77.092 107.128C78.612 109.352 80.596 111.368 83.044 113.176L82.18 114.208C79.86 112.4 77.916 110.4 76.348 108.208C74.652 110.576 72.524 112.584 69.964 114.232L69.124 113.2C71.732 111.472 73.876 109.424 75.556 107.056ZM104.404 104.464V112.216H107.5V113.464H86.404V112.216H89.668V104.464H104.404ZM90.94 112.216H94.132V105.688H90.94V112.216ZM95.38 112.216H98.668V105.688H95.38V112.216ZM99.892 112.216H103.108V105.688H99.892V112.216ZM86.884 96.832H99.436C100.54 95.376 101.46 93.888 102.196 92.368L103.468 92.824C102.716 94.312 101.844 95.648 100.852 96.832H107.02V98.08H86.884V96.832ZM91.18 92.416C92.556 93.76 93.604 94.952 94.324 95.992L93.268 96.712C92.532 95.656 91.484 94.448 90.124 93.088L91.18 92.416ZM100.132 99.304C102.884 100.616 105.396 102.176 107.668 103.984L106.924 105.088C104.508 103.088 102.012 101.504 99.436 100.336L100.132 99.304ZM94.54 100.072C92.492 102.072 89.884 103.744 86.716 105.088L86.14 103.888C89.18 102.688 91.708 101.104 93.724 99.136L94.54 100.072Z" fill="#333333"/>
<g filter="url(#filter0_f_634_5428)">
<path d="M45.4228 72.75C42.9277 75.3021 51.9508 76.5 60.0036 76.5C68.0563 76.5 77.0529 75.5625 74.5843 72.75C71.3137 70.1719 65.2643 69 60.0036 69C54.7429 69 49.1323 70.1979 45.4228 72.75Z" fill="url(#paint0_linear_634_5428)" fill-opacity="0.15"/>
</g>
<path d="M38.6792 25.4996H81.3571C81.9996 25.4996 81.9996 24.988 81.9996 24.988V19.2958C81.9996 18.0332 80.9972 17 79.7722 17H40.2275C39.0025 17 38 18.0332 38 19.2958V24.6714C38 25.4996 38.6792 25.4996 38.6792 25.4996Z" fill="url(#paint1_linear_634_5428)"/>
<path d="M74.3485 42.1152V39.1985L76.2188 39.1985C76.8942 39.1982 77.1913 39.1981 77.5779 39.6152C77.8713 39.9317 77.9816 40.1695 77.9816 40.6568C77.9816 41.1442 77.8713 41.3819 77.5779 41.6985C77.1913 42.1156 76.8855 42.1154 76.2181 42.1152L74.3485 42.1152Z" fill="url(#paint2_linear_634_5428)"/>
<path fill-rule="evenodd" clip-rule="evenodd" d="M81.072 29.3847H38.7013C38 29.3847 38 29.9587 38 29.9587V47.7042C38 48.9669 39.0024 50 40.2275 50H79.7725C80.9975 50 82 48.9669 82 47.7042V30.3206C82 30.3206 82 29.3847 81.072 29.3847ZM44.7574 36.5627C44.7574 37.0104 44.4021 37.3771 43.9676 37.3771H41.0951C40.6606 37.3771 40.3051 37.0103 40.3051 36.5627V33.7271C40.3051 33.2794 40.6606 32.913 41.0951 32.913H43.9677C44.4021 32.913 44.7575 33.2794 44.7575 33.7271L44.7574 36.5627ZM50.8503 36.5627C50.8503 37.0104 50.4949 37.3771 50.0605 37.3771H47.188C46.7535 37.3771 46.398 37.0103 46.398 36.5627V33.7271C46.398 33.2794 46.7536 32.913 47.188 32.913H50.0604C50.4949 32.913 50.8503 33.2794 50.8503 33.7271V36.5627ZM67.3804 37H69.7936V46.9998H67.3804V37ZM57 37.0002H59.5505L61.4982 44.1429L63.3572 37.0002H65.9076L62.5074 47L60.4601 46.9998L57 37.0002ZM76.4026 37H72.3399V47H74.3485V44.1985H76.4026C78.7908 44.1985 80 42.744 80 40.6568C80 38.5885 78.7724 37 76.4026 37Z" fill="url(#paint3_linear_634_5428)"/>
<path d="M37.7644 53.1904H82.1018C82.5413 53.1904 83 54.2702 83 54.81C83 55.3499 82.6751 56.4896 82.2356 56.4896H70.769L73.6548 62.3681C73.7522 62.6249 73.7677 62.9078 73.6988 63.1745C73.6299 63.4412 73.4804 63.6774 73.2725 63.8478C73.0321 63.9925 72.748 64.0359 72.4781 63.969C72.2083 63.9021 71.9729 63.73 71.8201 63.4879L68.3228 56.5296H52.2887L48.4666 63.5079C48.2632 63.7168 48.0005 63.8512 47.718 63.8908C47.4355 63.9305 47.1483 63.8733 46.8995 63.7278C46.6774 63.5106 46.5251 63.2267 46.4635 62.9152C46.4019 62.6037 46.434 62.2799 46.5555 61.9882L49.5941 56.5296H37.7644C37.3631 56.5296 37 55.3899 37 54.85C37 54.3102 37.3249 53.1904 37.7644 53.1904Z" fill="url(#paint4_linear_634_5428)"/>
<defs>
<filter id="filter0_f_634_5428" x="37" y="61" width="46" height="23.5" filterUnits="userSpaceOnUse" color-interpolation-filters="sRGB">
<feFlood flood-opacity="0" result="BackgroundImageFix"/>
<feBlend mode="normal" in="SourceGraphic" in2="BackgroundImageFix" result="shape"/>
<feGaussianBlur stdDeviation="4" result="effect1_foregroundBlur_634_5428"/>
</filter>
<linearGradient id="paint0_linear_634_5428" x1="73.3592" y1="69.2897" x2="72.0915" y2="78.2171" gradientUnits="userSpaceOnUse">
<stop stop-color="#576E92"/>
<stop offset="1" stop-color="#010B1C"/>
</linearGradient>
<linearGradient id="paint1_linear_634_5428" x1="37" y1="17" x2="83" y2="64" gradientUnits="userSpaceOnUse">
<stop stop-color="#FFE3CD"/>
<stop offset="1" stop-color="#D76700"/>
</linearGradient>
<linearGradient id="paint2_linear_634_5428" x1="37" y1="17" x2="83" y2="64" gradientUnits="userSpaceOnUse">
<stop stop-color="#FFE3CD"/>
<stop offset="1" stop-color="#D76700"/>
</linearGradient>
<linearGradient id="paint3_linear_634_5428" x1="37" y1="17" x2="83" y2="64" gradientUnits="userSpaceOnUse">
<stop stop-color="#FFE3CD"/>
<stop offset="1" stop-color="#D76700"/>
</linearGradient>
<linearGradient id="paint4_linear_634_5428" x1="37" y1="17" x2="83" y2="64" gradientUnits="userSpaceOnUse">
<stop stop-color="#FFE3CD"/>
<stop offset="1" stop-color="#D76700"/>
</linearGradient>
</defs>
</svg>
