<svg width="750" height="422" viewBox="0 0 750 422" fill="none" xmlns="http://www.w3.org/2000/svg">
<path d="M750 1H-1V421.004H750V1Z" fill="#F18E30"/>
<path d="M749.652 1.34766H-0.652344V420.656H749.652V1.34766Z" stroke="#707070"/>
<path d="M720.099 42.7222H28.9004V411.268H720.099V42.7222Z" fill="url(#paint0_linear_642_1557)"/>
<path d="M719.751 43.0698H29.248V410.921H719.751V43.0698Z" stroke="#707070"/>
<path d="M433.304 194.922L426.313 194.976C425.909 194.976 425.708 194.785 425.708 194.401V190.975C425.708 190.701 425.735 190.537 425.79 190.482C425.864 190.409 426.038 190.372 426.313 190.372L433.304 190.482H434.846V187.385H434.598L428.24 187.494C427.946 187.494 427.772 187.458 427.717 187.385C427.662 187.312 427.634 187.147 427.634 186.891V183.575C427.634 183.283 427.671 183.109 427.744 183.054C427.818 183 427.983 182.972 428.24 182.972L434.598 183.082H434.846V180.04H433.937L428.983 180.149C428.689 180.149 428.506 180.113 428.432 180.04C428.377 179.948 428.35 179.765 428.35 179.491V176.285C428.35 175.992 428.387 175.81 428.46 175.737C428.533 175.682 428.708 175.654 428.983 175.654L433.937 175.764H434.846V172.475H434.433L426.561 172.585C426.249 172.585 426.065 172.548 426.01 172.475C425.955 172.402 425.928 172.228 425.928 171.954V168.583C425.928 168.291 425.964 168.117 426.038 168.063C426.111 168.008 426.286 167.98 426.561 167.98L434.433 168.09H434.846V164.938H434.735L428.68 165.048C428.368 165.048 428.176 165.011 428.102 164.938C428.047 164.865 428.02 164.701 428.02 164.445V161.128C428.02 160.818 428.056 160.635 428.13 160.58C428.203 160.526 428.387 160.498 428.68 160.498L434.735 160.608H434.846C434.79 158.543 434.653 156.899 434.433 155.674C435.827 155.711 437.561 155.83 439.635 156.031C440.24 156.086 440.543 156.287 440.543 156.634C440.543 156.889 440.451 157.209 440.268 157.593C439.993 158.05 439.855 159.055 439.855 160.608H441.947L448.855 160.498C449.167 160.498 449.351 160.535 449.406 160.608C449.461 160.681 449.488 160.854 449.488 161.128L449.378 166.692V168.09L452.599 167.98C452.892 167.98 453.067 168.017 453.122 168.09C453.177 168.163 453.204 168.327 453.204 168.583V171.954C453.204 172.265 453.167 172.448 453.094 172.503C453.021 172.557 452.855 172.585 452.599 172.585C452.415 172.585 451.342 172.548 449.378 172.475V173.983L449.488 179.464C449.488 179.793 449.452 179.994 449.378 180.067C449.305 180.122 449.131 180.149 448.855 180.149L441.947 180.04H439.855V183.082H443.461L449.819 182.972C450.131 182.972 450.314 183.009 450.369 183.082C450.424 183.155 450.452 183.319 450.452 183.575V186.891C450.452 187.165 450.415 187.339 450.342 187.412C450.287 187.467 450.112 187.494 449.819 187.494L443.461 187.385H439.855V190.482H444.644L451.635 190.372C452.002 190.372 452.186 190.573 452.186 190.975V194.401C452.186 194.785 452.002 194.976 451.635 194.976L444.644 194.922H439.855C439.873 195.927 439.901 196.886 439.938 197.799C439.956 198.402 439.965 198.713 439.965 198.731C439.965 199.024 439.928 199.206 439.855 199.279C439.782 199.334 439.589 199.362 439.277 199.362H435.341C435.047 199.362 434.873 199.316 434.818 199.225C434.763 199.17 434.735 199.005 434.735 198.731L434.79 194.922H433.304ZM444.534 175.764V172.475H439.855V175.764H444.534ZM444.534 164.938H439.855V168.09H444.534V164.938ZM453.672 199.8C453.067 200.549 452.553 201.783 452.131 203.5C451.966 204.432 451.773 204.98 451.553 205.145C451.369 205.272 450.855 205.364 450.011 205.419C446.433 205.601 442.938 205.693 439.525 205.693C431.194 205.693 425.405 204.231 422.157 201.308C421.606 200.869 421.019 200.312 420.395 199.636C419.148 201.7 417.689 203.738 416.019 205.748C415.542 206.277 415.202 206.542 415.001 206.542C414.78 206.542 414.423 206.186 413.927 205.473C413.12 204.176 412.294 203.135 411.45 202.349C413.762 200.102 415.615 197.735 417.01 195.251C415.395 192.51 414.138 189.367 413.239 185.822C413.221 185.713 413.212 185.621 413.212 185.548C413.212 185.256 413.413 185.009 413.817 184.808L415.964 183.739C416.331 183.557 416.57 183.465 416.68 183.465C416.863 183.465 417.019 183.648 417.148 184.014C417.625 186.243 418.331 188.326 419.267 190.262C420.294 187.284 421.01 183.73 421.414 179.601H417.918L417.092 181.054C416.872 181.419 416.643 181.602 416.404 181.602C416.147 181.602 415.395 181.3 414.147 180.697C412.863 180.04 412.221 179.592 412.221 179.354C412.221 179.153 412.331 178.907 412.551 178.614C415.12 174.595 417.551 169.981 419.845 164.774H417.973L415.331 164.883C415.037 164.883 414.863 164.838 414.808 164.746C414.753 164.673 414.725 164.49 414.725 164.198V160.224C414.725 159.932 414.762 159.749 414.836 159.676C414.909 159.621 415.074 159.594 415.331 159.594L419.047 159.731H421.827C422.359 159.731 422.772 159.685 423.065 159.594C423.084 159.594 423.212 159.548 423.451 159.457C423.597 159.402 423.707 159.374 423.781 159.374C424.203 159.374 424.882 159.877 425.818 160.882C426.533 161.594 426.891 162.124 426.891 162.471C426.891 162.746 426.726 163.02 426.396 163.294C426.139 163.513 425.763 164.171 425.267 165.267C424.001 168.172 422.478 171.315 420.698 174.695H422.267C422.799 174.695 423.194 174.622 423.451 174.476C423.707 174.33 423.909 174.257 424.056 174.257C424.386 174.257 425.047 174.796 426.038 175.874C426.79 176.714 427.166 177.335 427.166 177.737C427.166 178.03 427.02 178.349 426.726 178.697C426.396 179.117 426.203 179.711 426.148 180.478C425.579 186.16 424.396 191.066 422.597 195.196C423.038 195.689 423.451 196.082 423.836 196.374C426.772 199.115 431.717 200.485 438.671 200.485C444.543 200.485 449.543 200.257 453.672 199.8ZM400 177.408C404 172.457 407.046 166.354 409.138 159.1C409.487 158.022 409.753 156.734 409.936 155.236C412.101 155.729 413.79 156.213 415.001 156.689C415.643 156.908 415.964 157.191 415.964 157.538C415.964 157.757 415.735 158.086 415.276 158.525C414.946 158.872 414.615 159.658 414.285 160.882C413.459 163.422 412.459 166.098 411.285 168.912V197.717L411.395 206.241C411.395 206.533 411.358 206.716 411.285 206.789C411.211 206.844 411.046 206.871 410.789 206.871H406.496C406.165 206.871 405.964 206.835 405.89 206.762C405.835 206.689 405.808 206.515 405.808 206.241L405.918 197.717V184.754C405.918 182.177 405.936 180.177 405.973 178.751C405.11 180.085 404.266 181.291 403.441 182.369C403.037 182.899 402.716 183.164 402.477 183.164C402.202 183.164 401.982 182.844 401.817 182.205C401.395 180.359 400.789 178.761 400 177.408Z" fill="#2E65A8"/>
<path d="M473.187 186.782C472.581 186.818 472.058 186.837 471.618 186.837C471.306 186.837 471.122 186.8 471.067 186.727C471.012 186.654 470.985 186.48 470.985 186.206V183.054C470.985 182.762 471.021 182.588 471.095 182.534C471.168 182.479 471.343 182.451 471.618 182.451L478.554 182.561H483.618V179.491H476.902L469.581 179.601C469.287 179.601 469.104 179.555 469.031 179.464C468.975 179.391 468.948 179.217 468.948 178.943V175.764C468.948 175.472 468.994 175.298 469.086 175.243C469.141 175.188 469.306 175.161 469.581 175.161L476.902 175.271H483.618V172.119H479.214L471.728 172.228C471.398 172.228 471.196 172.192 471.122 172.119C471.067 172.046 471.04 171.881 471.04 171.625V168.419C471.04 168.126 471.086 167.953 471.177 167.898C471.251 167.843 471.434 167.816 471.728 167.816L479.214 167.925H483.618V164.554H467.434V174.202C467.434 182.661 467.076 188.947 466.361 193.058C465.535 197.589 464.205 201.682 462.37 205.336C462.039 206.049 461.773 206.405 461.571 206.405C461.37 206.405 461.012 206.086 460.498 205.446C459.434 204.222 458.232 203.144 456.892 202.212C458.874 198.941 460.223 195.232 460.938 191.085C461.617 187.12 461.957 180.907 461.957 172.448L461.847 160.635C461.847 160.325 461.883 160.142 461.957 160.087C462.03 160.032 462.195 160.005 462.452 160.005L470.021 160.114H481.912V159.046C481.912 157.255 481.802 156.003 481.582 155.291C483.361 155.291 485.316 155.382 487.444 155.565C488.086 155.62 488.407 155.766 488.407 156.003C488.407 156.204 488.297 156.524 488.077 156.963C487.857 157.419 487.747 158.187 487.747 159.265V160.114H499.802L507.289 160.005C507.583 160.005 507.766 160.041 507.84 160.114C507.895 160.188 507.922 160.352 507.922 160.608V163.979C507.922 164.308 507.876 164.509 507.784 164.582C507.729 164.637 507.564 164.664 507.289 164.664L499.802 164.554H488.848V167.925H493.61L502.307 167.816C502.619 167.816 502.803 167.852 502.858 167.925C502.913 167.999 502.94 168.172 502.94 168.446L502.83 173.763V175.216L507.977 175.106C508.344 175.106 508.528 175.307 508.528 175.709V178.998C508.528 179.4 508.344 179.601 507.977 179.601L502.83 179.491V180.889L502.94 186.206C502.94 186.498 502.904 186.672 502.83 186.727C503.215 186.964 504.115 187.631 505.527 188.728C506.06 189.166 506.326 189.486 506.326 189.687C506.326 190.052 506.096 190.317 505.638 190.482C505.142 190.683 504.527 191.076 503.793 191.66C502.16 193.031 500.527 194.264 498.894 195.36C501.812 197.315 505.115 198.96 508.803 200.293C507.867 201.134 507.005 202.239 506.216 203.61C505.739 204.469 505.362 204.898 505.087 204.898C504.94 204.898 504.491 204.715 503.738 204.35C497.481 201.262 492.545 197.123 488.93 191.934C489.041 194.821 489.096 197.873 489.096 201.088C489.096 203.391 488.38 204.925 486.949 205.693C485.628 206.314 483.545 206.643 480.701 206.679C480.334 206.698 480.104 206.707 480.013 206.707C479.462 206.707 479.114 206.588 478.967 206.351C478.857 206.186 478.719 205.738 478.554 205.008C478.187 203.692 477.618 202.367 476.847 201.033C478.462 201.143 479.893 201.198 481.141 201.198C482.793 201.198 483.618 200.677 483.618 199.636V186.727H478.554C475.985 186.727 474.343 186.745 473.627 186.782C475.26 187.75 477.086 189.075 479.104 190.756C479.325 190.92 479.435 191.066 479.435 191.194C479.435 191.34 479.306 191.569 479.049 191.879L476.902 194.456C476.609 194.766 476.389 194.922 476.242 194.922C476.095 194.922 475.902 194.812 475.664 194.593C473.774 192.711 472.086 191.286 470.599 190.317C470.379 190.153 470.269 190.007 470.269 189.879C470.269 189.714 470.434 189.486 470.765 189.194L472.746 187.111C472.93 186.928 473.077 186.818 473.187 186.782ZM493.61 186.727H490.169C491.619 188.792 493.252 190.637 495.068 192.263C496.206 191.459 497.674 190.262 499.472 188.673C500.169 188.052 500.729 187.421 501.151 186.782L493.61 186.727ZM497.546 172.119H488.848V175.271H497.546V172.119ZM497.546 182.561V179.491H488.848V182.561H497.546ZM481.802 192.208C481.875 193.396 481.985 194.447 482.132 195.36C482.279 196 482.352 196.42 482.352 196.621C482.352 197.005 481.884 197.461 480.948 197.991C478.673 199.252 475.618 200.641 471.783 202.157C470.829 202.596 470.26 202.897 470.076 203.062C469.654 203.391 469.37 203.555 469.223 203.555C468.966 203.555 468.728 203.29 468.508 202.76C467.81 201.372 467.15 199.837 466.526 198.156C468.306 197.863 469.81 197.507 471.04 197.087C475.554 195.497 479.141 193.871 481.802 192.208Z" fill="#2E65A8"/>
<path d="M546.043 177.902L553.64 177.792C553.952 177.792 554.135 177.829 554.19 177.902C554.245 177.975 554.273 178.148 554.273 178.422L554.163 182.287V185.082L554.273 189.002C554.273 189.385 554.062 189.577 553.64 189.577L546.043 189.468H530.437V192.537H549.153L557.273 192.428C557.566 192.428 557.741 192.473 557.796 192.565C557.851 192.638 557.878 192.82 557.878 193.113L557.768 197.361V202.02L557.878 206.186C557.878 206.478 557.842 206.661 557.768 206.734C557.695 206.789 557.53 206.816 557.273 206.816H552.704C552.41 206.816 552.227 206.78 552.153 206.707C552.098 206.634 552.071 206.46 552.071 206.186V204.679H530.437V206.296C530.437 206.606 530.4 206.789 530.327 206.844C530.253 206.899 530.079 206.926 529.804 206.926H525.345C525.051 206.926 524.877 206.89 524.822 206.816C524.767 206.743 524.739 206.57 524.739 206.296L524.849 199.828V184.973L524.739 178.422C524.739 178.112 524.776 177.929 524.849 177.874C524.923 177.82 525.088 177.792 525.345 177.792L533.354 177.902H546.043ZM552.071 196.813H530.437V200.403H552.071V196.813ZM548.52 185.302V182.068H530.437V185.302H548.52ZM554.686 170.885L562.282 170.776C562.594 170.776 562.778 170.812 562.833 170.885C562.888 170.959 562.915 171.132 562.915 171.406L562.805 173.818V175.764L562.915 181.163C562.915 181.456 562.879 181.638 562.805 181.711C562.75 181.766 562.576 181.794 562.282 181.794H557.851C557.539 181.794 557.355 181.748 557.3 181.657C557.245 181.602 557.218 181.437 557.218 181.163V175.325H522.152V181.163C522.152 181.456 522.106 181.638 522.014 181.711C521.941 181.766 521.758 181.794 521.464 181.794H517.088C516.776 181.794 516.592 181.748 516.537 181.657C516.482 181.602 516.455 181.437 516.455 181.163L516.565 175.764V174.147L516.455 171.406C516.455 171.096 516.491 170.913 516.565 170.858C516.638 170.803 516.812 170.776 517.088 170.776L524.684 170.885H536.41C536.336 169.278 536.208 168.026 536.024 167.131C537.529 167.131 539.254 167.204 541.199 167.35L540.758 166.939C539.914 166.299 538.896 165.76 537.703 165.322L538.722 164.198L532.253 164.088C532.896 165.24 533.437 166.382 533.877 167.514C533.969 167.734 534.015 167.88 534.015 167.953C534.015 168.117 533.786 168.254 533.327 168.364L529.584 169.077C529.29 169.15 529.097 169.186 529.006 169.186C528.785 169.186 528.62 169.004 528.51 168.638C528.033 167.085 527.455 165.568 526.776 164.088H523.226C521.978 165.879 520.602 167.432 519.097 168.748C518.436 169.351 518.005 169.652 517.803 169.652C517.638 169.652 517.244 169.314 516.62 168.638C515.959 167.871 515.005 167.085 513.757 166.281C516.858 163.723 519.189 160.9 520.748 157.812C521.17 157.027 521.51 156.149 521.767 155.181C523.932 155.455 525.657 155.729 526.941 156.003C527.51 156.058 527.795 156.287 527.795 156.689C527.795 156.981 527.648 157.246 527.354 157.483C527.061 157.703 526.739 158.15 526.391 158.826L525.978 159.594H532.006L538.611 159.484C538.942 159.484 539.134 159.521 539.189 159.594C539.263 159.667 539.3 159.831 539.3 160.087V163.513C540.749 161.741 541.914 159.877 542.795 157.922C543.217 157.008 543.538 156.076 543.758 155.126C545.704 155.382 547.309 155.656 548.575 155.949C549.181 156.058 549.484 156.287 549.484 156.634C549.484 156.908 549.337 157.173 549.043 157.429C548.805 157.629 548.447 158.242 547.97 159.265L547.805 159.594H555.979L564.044 159.484C564.337 159.484 564.512 159.521 564.567 159.594C564.622 159.667 564.649 159.831 564.649 160.087V163.595C564.649 163.887 564.613 164.061 564.539 164.116C564.466 164.171 564.301 164.198 564.044 164.198L555.979 164.088H555.016C555.548 164.929 556.108 166.071 556.695 167.514C556.787 167.734 556.832 167.88 556.832 167.953C556.832 168.117 556.603 168.254 556.144 168.364L552.484 169.022C552.227 169.077 552.034 169.104 551.906 169.104C551.685 169.104 551.52 168.93 551.41 168.583C550.731 166.701 550.107 165.203 549.539 164.088H545.382C544.814 165.039 544.135 165.989 543.346 166.939C542.96 167.377 542.676 167.642 542.492 167.734C542.529 167.807 542.547 167.925 542.547 168.09C542.547 168.236 542.437 168.528 542.217 168.967C542.07 169.241 541.997 169.881 541.997 170.885H554.686Z" fill="#2E65A8"/>
<path d="M593.027 204.35L585.182 204.459C584.889 204.459 584.705 204.423 584.632 204.35C584.577 204.277 584.549 204.112 584.549 203.856V199.855C584.549 199.581 584.577 199.416 584.632 199.362C584.705 199.289 584.889 199.252 585.182 199.252L593.027 199.362H601.587V193.853H598.091L590.825 193.962C590.513 193.962 590.329 193.926 590.274 193.853C590.219 193.78 590.192 193.615 590.192 193.359V189.468C590.192 189.175 590.228 189.002 590.302 188.947C590.375 188.892 590.55 188.865 590.825 188.865L598.091 188.974H601.587V184.123H597.926L590.605 184.233C590.274 184.233 590.072 184.196 589.999 184.123C589.944 184.068 589.916 183.922 589.916 183.685L590.027 177.436V164.993L589.916 158.881C589.916 158.57 589.953 158.388 590.027 158.333C590.118 158.278 590.311 158.251 590.605 158.251L597.926 158.36H611.33L618.707 158.251C619 158.251 619.184 158.287 619.257 158.36C619.312 158.433 619.34 158.607 619.34 158.881L619.23 164.993V177.436L619.34 183.685C619.34 184.05 619.129 184.233 618.707 184.233L611.33 184.123H607.229V188.974H611.495L618.789 188.865C619.083 188.865 619.257 188.901 619.312 188.974C619.367 189.047 619.395 189.212 619.395 189.468V193.359C619.395 193.634 619.358 193.807 619.285 193.88C619.23 193.935 619.065 193.962 618.789 193.962L611.495 193.853H607.229V199.362H613.697L621.487 199.252C621.78 199.252 621.955 199.289 622.01 199.362C622.065 199.435 622.092 199.599 622.092 199.855V203.856C622.092 204.131 622.055 204.295 621.982 204.35C621.927 204.423 621.762 204.459 621.487 204.459L613.697 204.35H593.027ZM613.862 179.409V173.407H607.229V179.409H613.862ZM613.862 163.129H607.229V168.803H613.862V163.129ZM595.339 179.409H601.587V173.407H595.339V179.409ZM595.339 168.803H601.587V163.129H595.339V168.803ZM588.568 186.425C588.531 186.955 588.513 187.531 588.513 188.152C588.513 188.755 588.531 189.395 588.568 190.071C588.586 190.436 588.595 190.701 588.595 190.865C588.595 191.377 588.522 191.724 588.375 191.907C588.247 192.09 587.843 192.382 587.164 192.784C583.714 194.593 579.65 196.383 574.971 198.156C573.943 198.594 573.365 198.877 573.237 199.005C572.907 199.261 572.604 199.389 572.329 199.389C572.035 199.389 571.787 199.142 571.585 198.649C571.163 197.407 570.695 195.653 570.182 193.387C571.595 193.149 573.365 192.702 575.494 192.044L577.118 191.496V179.3L572.163 179.409C571.87 179.409 571.686 179.373 571.613 179.3C571.558 179.226 571.53 179.062 571.53 178.806V174.75C571.53 174.439 571.567 174.247 571.64 174.174C571.714 174.12 571.888 174.092 572.163 174.092L577.118 174.202V164.308H576.787L571.475 164.445C571.218 164.445 571.053 164.408 570.98 164.335C570.943 164.262 570.925 164.088 570.925 163.814V159.703C570.925 159.393 570.962 159.201 571.035 159.128C571.09 159.073 571.237 159.046 571.475 159.046L576.787 159.155H582.65L587.935 159.046C588.247 159.046 588.43 159.091 588.485 159.183C588.54 159.256 588.568 159.429 588.568 159.703V163.814C588.568 164.107 588.531 164.289 588.458 164.363C588.384 164.417 588.21 164.445 587.935 164.445L582.705 164.308V174.202L587.219 174.092C587.494 174.092 587.659 174.129 587.715 174.202C587.751 174.275 587.77 174.458 587.77 174.75V178.806C587.77 179.099 587.742 179.272 587.687 179.327C587.632 179.382 587.476 179.409 587.219 179.409L582.705 179.3V189.303C585.091 188.207 587.045 187.248 588.568 186.425Z" fill="#2E65A8"/>
<path d="M645.717 157.414V163.532H678.017V157.414H645.717ZM658.457 160.22V207.369H664.77V160.22H658.457ZM647.183 168.583V199.343H653.327V174.589H672.944V168.583H647.183ZM670.351 168.583V192.719C670.351 193.337 670.181 193.505 669.674 193.505C669.167 193.505 667.588 193.505 666.066 193.449C666.799 195.021 667.645 197.547 667.814 199.231C670.745 199.231 672.887 199.174 674.522 198.164C676.213 197.154 676.608 195.582 676.608 192.888V168.583H670.351ZM637.6 155V177.284C637.6 186.994 636.698 196.256 628.863 202.935C630.385 203.889 632.809 206.078 633.936 207.426C642.73 199.623 643.801 188.566 643.801 177.284V155H637.6ZM628.243 161.343V188.79H634.274V161.343H628.243Z" fill="#2E65A8"/>
<path d="M416.356 234.723L409.791 234.818C409.505 234.818 409.331 234.786 409.267 234.723C409.22 234.66 409.196 234.51 409.196 234.273V230.72C409.196 230.468 409.236 230.318 409.315 230.27C409.378 230.223 409.537 230.199 409.791 230.199L416.356 230.294H430.104L436.669 230.199C436.923 230.199 437.082 230.231 437.145 230.294C437.193 230.357 437.216 230.499 437.216 230.72V234.273C437.216 234.526 437.185 234.684 437.121 234.747C437.058 234.794 436.907 234.818 436.669 234.818L430.104 234.723H425.965V241.166H431.912L437.502 241.071C437.787 241.071 437.954 241.102 438.001 241.166C438.065 241.229 438.096 241.371 438.096 241.592V245.145C438.096 245.366 438.065 245.5 438.001 245.547C437.938 245.595 437.771 245.618 437.502 245.618L431.912 245.524H425.965V253.813C428.455 254.098 431.587 254.24 435.361 254.24C437.819 254.24 440.967 254.098 444.804 253.813C444.344 254.919 444.035 256.079 443.877 257.295C443.781 258.069 443.639 258.527 443.448 258.669C443.306 258.78 442.87 258.874 442.14 258.953C440.285 259.048 438.366 259.095 436.384 259.095C427.757 259.064 421.716 258.274 418.259 256.727C415.864 255.669 413.676 253.648 411.694 250.663C410.282 253.695 408.3 256.458 405.747 258.953C405.24 259.506 404.883 259.782 404.677 259.782C404.502 259.782 404.177 259.474 403.701 258.858C402.924 257.864 401.981 257.027 400.871 256.348C405.818 252.511 408.744 247.403 409.648 241.023C409.838 239.523 409.933 238.489 409.933 237.921C411.345 238.126 412.891 238.434 414.572 238.844C415.19 238.971 415.499 239.192 415.499 239.508C415.499 239.76 415.349 240.068 415.048 240.431C414.826 240.7 414.611 241.205 414.405 241.947C414.183 243.242 413.89 244.513 413.525 245.76C414.556 247.75 415.595 249.242 416.641 250.237C417.767 251.295 419.17 252.116 420.851 252.7V234.723H416.356ZM436.717 220.938L443.139 220.844C443.504 220.844 443.686 221.001 443.686 221.317L443.591 223.852V225.936L443.686 231.265C443.686 231.518 443.647 231.668 443.567 231.715C443.52 231.762 443.377 231.786 443.139 231.786H439.143C438.889 231.786 438.739 231.755 438.691 231.691C438.644 231.628 438.62 231.486 438.62 231.265V225.391H407.793V231.265C407.793 231.518 407.753 231.668 407.674 231.715C407.61 231.762 407.452 231.786 407.198 231.786H403.25C402.996 231.786 402.845 231.755 402.798 231.691C402.75 231.628 402.726 231.486 402.726 231.265L402.821 225.936V224.278L402.726 221.317C402.726 221.001 402.901 220.844 403.25 220.844L409.743 220.938H420.162V220.512C420.162 218.38 420.043 216.841 419.805 215.893C421.438 215.893 423.175 215.972 425.014 216.13C425.506 216.193 425.751 216.359 425.751 216.628C425.751 216.785 425.656 217.093 425.466 217.551C425.339 217.836 425.276 218.807 425.276 220.465V220.938H436.717Z" fill="#2E65A8"/>
<path d="M460.099 216.438C462.065 216.485 463.754 216.596 465.165 216.77C465.657 216.77 465.903 216.928 465.903 217.243C465.903 217.354 465.784 217.709 465.546 218.309C465.356 218.736 465.26 219.628 465.26 220.986V222.644H467.591L472.991 222.549C473.245 222.549 473.403 222.58 473.467 222.644C473.514 222.707 473.538 222.849 473.538 223.07V226.481C473.538 226.733 473.506 226.883 473.443 226.931C473.379 226.978 473.229 227.002 472.991 227.002L467.591 226.907H465.26V231.312H468.519L474.846 231.218C475.1 231.218 475.259 231.249 475.322 231.312C475.37 231.376 475.393 231.526 475.393 231.762V235.197C475.393 235.481 475.354 235.655 475.274 235.718C475.227 235.765 475.084 235.789 474.846 235.789L468.519 235.671H465.26V239.863H467.782L473.776 239.768C474.045 239.768 474.204 239.8 474.252 239.863C474.299 239.926 474.323 240.068 474.323 240.289L474.228 245.192V246.897L474.323 252.369C474.323 253.837 473.95 254.871 473.205 255.471C472.46 256.087 471.096 256.395 469.114 256.395C468.337 256.395 467.869 256.316 467.71 256.158C467.584 256.032 467.465 255.629 467.354 254.95C467.147 253.782 466.791 252.756 466.283 251.871C467.155 251.982 467.869 252.037 468.424 252.037C469.169 252.037 469.542 251.627 469.542 250.805V244.126H465.26V250.521L465.356 259.83C465.356 260.161 465.181 260.327 464.832 260.327H460.86C460.511 260.327 460.337 260.161 460.337 259.83L460.432 250.569V244.126H456.388V251.303L456.483 255.85C456.483 256.103 456.452 256.261 456.388 256.324C456.341 256.372 456.198 256.395 455.96 256.395H452.035C451.781 256.395 451.631 256.364 451.583 256.3C451.536 256.237 451.512 256.087 451.512 255.85L451.607 251.066V244.695L451.512 240.289C451.512 240.037 451.544 239.887 451.607 239.839C451.67 239.792 451.821 239.768 452.059 239.768L458.101 239.863H460.432V235.671H456.341L449.942 235.789C449.688 235.789 449.538 235.75 449.49 235.671C449.443 235.607 449.419 235.449 449.419 235.197V231.762C449.419 231.494 449.45 231.336 449.514 231.289C449.577 231.241 449.72 231.218 449.942 231.218L456.341 231.312H460.432V226.907H455.793C455.365 227.902 454.929 228.826 454.485 229.678C454.152 230.389 453.859 230.744 453.605 230.744C453.415 230.744 453.026 230.547 452.44 230.152C451.441 229.504 450.449 229.039 449.466 228.754C451.211 226.149 452.463 223.283 453.225 220.157C453.32 219.778 453.399 219.02 453.462 217.883C454.937 218.12 456.348 218.428 457.696 218.807C458.188 218.933 458.434 219.13 458.434 219.399C458.434 219.604 458.323 219.872 458.101 220.204C457.942 220.441 457.776 220.915 457.601 221.625L457.316 222.644H460.432V221.033C460.432 219.359 460.321 217.828 460.099 216.438ZM480.008 254.548C481.784 254.737 483.346 254.832 484.694 254.832C485.566 254.832 486.137 254.69 486.406 254.406C486.66 254.153 486.787 253.663 486.787 252.937V223.591C486.787 220.701 486.66 218.428 486.406 216.77C488.214 216.77 489.951 216.864 491.616 217.054C492.171 217.101 492.448 217.275 492.448 217.575C492.448 217.733 492.329 218.072 492.091 218.593C491.901 219.067 491.806 220.701 491.806 223.496V243.984L491.949 253.671C491.949 256.166 491.362 257.816 490.188 258.622C489.443 259.127 488.579 259.466 487.596 259.64C486.628 259.798 485.169 259.877 483.219 259.877C482.458 259.877 482.006 259.798 481.863 259.64C481.736 259.498 481.594 259.064 481.435 258.337C481.086 256.869 480.61 255.606 480.008 254.548ZM477.225 220.299C479.001 220.346 480.634 220.457 482.125 220.63C482.616 220.694 482.862 220.875 482.862 221.175C482.862 221.333 482.815 221.53 482.72 221.767C482.609 222.036 482.545 222.194 482.529 222.241C482.434 222.699 482.387 224.428 482.387 227.428V240.81L482.482 247.229C482.482 247.466 482.45 247.616 482.387 247.679C482.323 247.726 482.157 247.75 481.887 247.75H477.986C477.732 247.75 477.582 247.718 477.534 247.655C477.487 247.592 477.463 247.45 477.463 247.229L477.558 240.81V227.475C477.558 224.46 477.447 222.067 477.225 220.299Z" fill="#2E65A8"/>
<path d="M518.423 230.839L511.739 230.933C511.485 230.933 511.334 230.902 511.287 230.839C511.239 230.776 511.215 230.633 511.215 230.412V226.67C511.215 226.386 511.247 226.22 511.311 226.173C511.358 226.141 511.501 226.125 511.739 226.125L518.423 226.173H523.346V223.023C523.346 220.37 523.228 218.072 522.99 216.13C525.019 216.193 526.724 216.32 528.104 216.509C528.627 216.509 528.889 216.675 528.889 217.007C528.889 217.164 528.778 217.504 528.556 218.025C528.35 218.483 528.246 220.117 528.246 222.928V226.173H535.168L541.9 226.125C542.138 226.125 542.28 226.149 542.328 226.196C542.36 226.26 542.376 226.417 542.376 226.67V230.412C542.376 230.76 542.217 230.933 541.9 230.933L535.168 230.839H530.102C531.91 234.36 533.908 237.431 536.096 240.052C538.078 242.405 540.599 244.86 543.66 247.418C542.645 248.429 541.844 249.519 541.258 250.687C540.925 251.366 540.663 251.706 540.473 251.706C540.314 251.706 539.973 251.445 539.45 250.924C536.564 248.097 534.185 245.279 532.314 242.468C530.776 240.163 529.372 237.55 528.104 234.628C528.104 237.897 528.135 242.05 528.199 247.087H529.317L534.645 246.992C534.899 246.992 535.049 247.024 535.097 247.087C535.144 247.15 535.168 247.292 535.168 247.513V251.066C535.168 251.334 535.137 251.5 535.073 251.563C535.026 251.627 534.883 251.658 534.645 251.658L529.317 251.54H528.246C528.278 253.466 528.318 255.464 528.365 257.532C528.397 259.048 528.413 259.822 528.413 259.853C528.413 260.106 528.381 260.256 528.318 260.303C528.254 260.351 528.104 260.374 527.866 260.374H523.679C523.394 260.374 523.22 260.343 523.156 260.28C523.109 260.216 523.085 260.074 523.085 259.853C523.085 259.711 523.109 258.74 523.156 256.94C523.204 254.95 523.243 253.15 523.275 251.54H522.419L517.091 251.658C516.837 251.658 516.686 251.619 516.639 251.54C516.591 251.477 516.567 251.319 516.567 251.066V247.513C516.567 247.276 516.591 247.134 516.639 247.087C516.702 247.024 516.853 246.992 517.091 246.992L522.419 247.087H523.346C523.442 243.297 523.489 239.16 523.489 234.676C520.73 241.181 517.027 246.582 512.381 250.877C511.842 251.366 511.501 251.611 511.358 251.611C511.168 251.611 510.906 251.303 510.573 250.687C510.018 249.74 509.289 248.784 508.385 247.821V252.463L508.48 259.853C508.48 260.106 508.448 260.256 508.385 260.303C508.321 260.351 508.171 260.374 507.933 260.374H503.794C503.477 260.374 503.318 260.201 503.318 259.853L503.414 252.463V241.45C503.414 239.097 503.429 237.273 503.461 235.978C502.24 237.573 501.297 238.75 500.631 239.508C500.266 239.934 499.972 240.147 499.75 240.147C499.544 240.147 499.37 239.855 499.227 239.271C498.862 237.629 498.307 236.239 497.562 235.102C501.86 230.428 504.944 225.17 506.815 219.328C507.243 217.907 507.489 216.762 507.552 215.893C509.36 216.335 510.938 216.833 512.286 217.385C512.809 217.622 513.071 217.867 513.071 218.12C513.071 218.388 512.888 218.68 512.524 218.996C512.222 219.296 511.897 219.944 511.548 220.938C510.502 223.638 509.447 225.999 508.385 228.02V247.679C513.935 243.037 518.185 237.423 521.134 230.839H518.423Z" fill="#2E65A8"/>
<path d="M546.7 224.086V229.47H561.558V224.086H546.7ZM552.4 215.354V260.903H557.71V215.354H552.4ZM552.303 228.063C551.28 233.787 548.844 241.063 546.116 244.896C546.993 246.448 548.259 249.116 548.746 250.813C551.767 246.011 554.251 236.843 555.42 229.276L552.303 228.063ZM557.515 230.828L554.884 232.866C556.248 235.145 558.928 240.481 559.951 243.198L563.263 239.269C562.484 237.862 558.587 232.138 557.515 230.828ZM577.293 216.81L573.006 219.672C577.049 224.813 583.821 230.974 589.91 234.66C590.446 233.06 591.615 230.489 592.638 229.034C587.085 226.366 580.606 221.175 577.293 216.81ZM574.516 214.772C571.058 221.078 565.163 227.045 559.269 230.634C560.292 231.75 561.948 234.272 562.581 235.437C568.865 231.022 575.442 223.94 579.534 216.713L574.516 214.772ZM567.501 230.198V235.097H584.844V230.198H567.501ZM563.945 239.754C565.066 243.392 566.186 248.243 566.576 251.396L571.301 250.037C570.863 246.933 569.645 242.228 568.427 238.59L563.945 239.754ZM573.25 238.298C574.029 241.937 574.857 246.69 575.052 249.843L579.826 249.067C579.485 245.963 578.657 241.354 577.731 237.668L573.25 238.298ZM584.99 237.619C583.431 242.858 580.508 250.134 578.024 254.597L582.164 255.761C584.698 251.493 587.767 244.604 590.056 238.784L584.99 237.619ZM561.656 253.869V258.963H590.641V253.869H561.656Z" fill="#2E65A8"/>
<path d="M595.317 220.593V226.075H611.588V220.593H595.317ZM600.919 222.922V247.224H606.716V222.922H600.919ZM594.489 246.399L595.902 252.56C600.627 250.959 606.716 248.873 612.465 246.836L611.783 241.937C605.255 243.683 598.63 245.429 594.489 246.399ZM612.221 217.198V222.388H640.427V217.198H612.221ZM622.597 219.575C622.061 222 621.038 225.25 620.015 227.627L625.277 228.694C626.494 226.657 628.199 223.601 629.612 220.496L622.597 219.575ZM622.792 233.108V243.052C622.792 247.806 621.136 253.336 608.08 256.537C609.347 257.701 611.101 259.787 611.783 261C625.52 256.828 628.638 249.843 628.638 243.101V233.108H622.792ZM626.933 253.045C630.44 255.276 635.019 258.526 637.163 260.709L641.06 256.78C638.77 254.646 633.996 251.59 630.586 249.552L626.933 253.045ZM613.536 226.172V249.116H619.236V231.313H632.048V248.922H637.991V226.172H613.536Z" fill="#2E65A8"/>
<path d="M655.17 259.877H650.889C650.651 259.877 650.5 259.845 650.437 259.782C650.389 259.735 650.365 259.593 650.365 259.356L650.46 241.402V231.905L650.365 218.854C650.365 218.586 650.397 218.428 650.46 218.38C650.524 218.333 650.674 218.309 650.912 218.309L657.668 218.404H675.698L682.453 218.309C682.723 218.309 682.881 218.341 682.929 218.404C682.976 218.467 683 218.617 683 218.854L682.905 230.294V241.308L683 259.166C683 259.419 682.968 259.569 682.905 259.616C682.841 259.664 682.699 259.687 682.477 259.687H678.124C677.87 259.687 677.719 259.656 677.672 259.593C677.624 259.53 677.601 259.387 677.601 259.166V256.537H655.765V259.356C655.765 259.609 655.733 259.759 655.67 259.806C655.59 259.853 655.424 259.877 655.17 259.877ZM655.765 251.824H677.601V245.145H655.765V251.824ZM655.765 240.526H677.601V234.084H655.765V240.526ZM655.765 223.117V229.465H677.601V223.117H655.765Z" fill="#2E65A8"/>
<path d="M205.517 310.529C273.687 310.529 328.95 308.979 328.95 307.068C328.95 305.156 273.687 303.606 205.517 303.606C137.347 303.606 82.084 305.156 82.084 307.068C82.084 308.979 137.347 310.529 205.517 310.529Z" fill="url(#paint1_linear_642_1557)"/>
<path d="M347.79 309.811C362.541 309.811 374.499 308.6 374.499 307.105C374.499 305.61 362.541 304.398 347.79 304.398C333.039 304.398 321.081 305.61 321.081 307.105C321.081 308.6 333.039 309.811 347.79 309.811Z" fill="url(#paint2_linear_642_1557)"/>
<path d="M292.555 198.843C292.555 198.843 299.877 188.351 303.459 192.219C307.042 196.087 298.215 198.839 292.555 198.843Z" fill="url(#paint3_linear_642_1557)"/>
<path d="M304.437 175.818C304.437 175.818 308.287 166.279 303.533 165.241C298.78 164.204 301.879 174.373 304.437 175.818Z" fill="url(#paint4_linear_642_1557)"/>
<path d="M307.076 187.94C308.419 184.95 301.06 184.054 297.421 187.239C297.421 187.239 305.733 190.933 307.076 187.94Z" fill="url(#paint5_linear_642_1557)"/>
<path d="M308.153 171.289C308.153 171.289 316.441 169.566 316.211 166.302C315.981 163.038 310.106 164.688 308.153 171.289Z" fill="url(#paint6_linear_642_1557)"/>
<path d="M299.118 184.331C299.118 184.331 292.364 177.125 296.468 174.989C300.573 172.853 300.537 181.159 299.118 184.331Z" fill="url(#paint7_linear_642_1557)"/>
<path d="M294.141 194.797C294.141 194.797 293.512 185.394 289.953 186.587C286.394 187.78 289.662 194.197 294.141 194.797Z" fill="url(#paint8_linear_642_1557)"/>
<path d="M301.338 180.518C301.338 180.518 310.578 182.373 310.359 178.627C310.14 174.88 303.091 176.352 301.338 180.518Z" fill="url(#paint9_linear_642_1557)"/>
<path d="M309.446 169.575C309.469 169.614 309.479 169.66 309.475 169.705C309.47 169.75 309.452 169.793 309.421 169.827C309.234 170.036 290.716 191.272 290.055 213.88C290.054 213.937 290.029 213.991 289.987 214.03C289.946 214.069 289.89 214.09 289.833 214.088C289.776 214.087 289.722 214.062 289.683 214.021C289.643 213.979 289.622 213.923 289.624 213.866C290.29 191.102 308.91 169.754 309.099 169.541C309.121 169.515 309.15 169.496 309.181 169.483C309.213 169.471 309.247 169.466 309.281 169.47C309.315 169.473 309.348 169.484 309.376 169.503C309.405 169.521 309.429 169.545 309.446 169.575Z" fill="url(#paint10_linear_642_1557)"/>
<path d="M280.932 136.672C280.932 136.672 293.995 123.675 300.249 128.601C306.503 133.528 290.907 136.789 280.932 136.672Z" fill="url(#paint11_linear_642_1557)"/>
<path d="M302.225 108.06C302.225 108.06 309.154 96.1833 300.799 94.7787C292.443 93.374 297.739 106.194 302.225 108.06Z" fill="url(#paint12_linear_642_1557)"/>
<path d="M306.689 123.314C309.1 119.59 296.146 118.312 289.686 122.228C289.686 122.228 304.277 127.038 306.689 123.314Z" fill="url(#paint13_linear_642_1557)"/>
<path d="M308.841 102.461C308.841 102.461 323.473 100.478 323.117 96.3814C322.762 92.2842 312.382 94.2271 308.841 102.461Z" fill="url(#paint14_linear_642_1557)"/>
<path d="M292.721 118.618C292.721 118.618 280.927 109.439 288.193 106.849C295.459 104.258 295.269 114.675 292.721 118.618Z" fill="url(#paint15_linear_642_1557)"/>
<path d="M283.792 131.636C283.792 131.636 282.826 119.834 276.537 121.254C270.248 122.674 275.904 130.787 283.792 131.636Z" fill="url(#paint16_linear_642_1557)"/>
<path d="M296.689 113.883C296.689 113.883 312.944 116.407 312.613 111.705C312.283 107.003 299.844 108.701 296.689 113.883Z" fill="url(#paint17_linear_642_1557)"/>
<path d="M311.143 100.34C311.163 100.363 311.177 100.39 311.186 100.419C311.194 100.448 311.196 100.479 311.192 100.509C311.188 100.539 311.177 100.567 311.161 100.593C311.144 100.618 311.123 100.64 311.097 100.657C310.765 100.918 277.806 127.143 276.297 155.472C276.289 155.621 276.113 155.736 275.903 155.729C275.693 155.722 275.53 155.596 275.537 155.446C277.057 126.92 310.197 100.554 310.531 100.291C310.609 100.237 310.702 100.206 310.797 100.203C310.892 100.2 310.986 100.225 311.068 100.274C311.097 100.292 311.122 100.314 311.143 100.34Z" fill="url(#paint18_linear_642_1557)"/>
<path d="M111.141 186.391C111.141 186.391 99.9328 179.939 102.113 174.788C104.294 169.638 109.379 179.608 111.141 186.391Z" fill="url(#paint19_linear_642_1557)"/>
<path d="M87.8454 177.245C87.8454 177.245 78.5274 174.742 79.1199 180.667C79.7123 186.591 87.4101 180.631 87.8454 177.245Z" fill="url(#paint20_linear_642_1557)"/>
<path d="M97.3476 171.401C94.3818 170.454 95.9082 179.472 99.7508 183.128C99.7508 183.128 100.313 172.347 97.3476 171.401Z" fill="url(#paint21_linear_642_1557)"/>
<path d="M82.8353 173.796C82.8353 173.796 78.7931 164.243 76.0853 165.243C73.3775 166.242 76.6082 172.917 82.8353 173.796Z" fill="url(#paint22_linear_642_1557)"/>
<path d="M96.747 181.737C96.747 181.737 92.7138 191.428 89.6159 186.981C86.5181 182.534 93.6074 180.738 96.747 181.737Z" fill="url(#paint23_linear_642_1557)"/>
<path d="M107.207 185.385C107.207 185.385 99.3966 188.222 101.518 192.223C103.64 196.224 108.087 190.888 107.207 185.385Z" fill="url(#paint24_linear_642_1557)"/>
<path d="M92.81 179.92C92.81 179.92 91.5187 168.435 88.3964 169.527C85.2742 170.62 88.7184 178.741 92.81 179.92Z" fill="url(#paint25_linear_642_1557)"/>
<path d="M80.9729 172.626C80.9849 172.608 81.0005 172.594 81.0186 172.583C81.0367 172.572 81.0569 172.565 81.0779 172.563C81.0988 172.56 81.1201 172.562 81.1403 172.568C81.1604 172.575 81.179 172.585 81.1947 172.599C81.4333 172.777 105.266 190.272 124.72 186.058C124.823 186.036 124.933 186.134 124.967 186.278C125.001 186.422 124.946 186.556 124.843 186.579C105.254 190.82 81.2914 173.227 81.0515 173.051C81.0003 173.008 80.9626 172.951 80.943 172.887C80.9234 172.823 80.9227 172.754 80.9409 172.69C80.9481 172.667 80.9588 172.645 80.9729 172.626Z" fill="url(#paint26_linear_642_1557)"/>
<path d="M141.002 112.423C141.002 112.423 127.586 104.125 130.447 97.9387C133.309 91.752 139.118 104.093 141.002 112.423Z" fill="url(#paint27_linear_642_1557)"/>
<path d="M112.948 100.371C112.948 100.371 101.683 96.9571 102.17 104.195C102.657 111.433 112.284 104.476 112.948 100.371Z" fill="url(#paint28_linear_642_1557)"/>
<path d="M124.765 93.6249C121.185 92.3551 122.693 103.398 127.236 108C127.236 108 128.345 94.8939 124.765 93.6249Z" fill="url(#paint29_linear_642_1557)"/>
<path d="M106.973 95.9719C106.973 95.9719 102.418 84.1826 99.0764 85.2897C95.7351 86.3967 99.4129 94.657 106.973 95.9719Z" fill="url(#paint30_linear_642_1557)"/>
<path d="M123.626 106.189C123.626 106.189 118.323 117.832 114.726 112.295C111.128 106.759 119.838 104.849 123.626 106.189Z" fill="url(#paint31_linear_642_1557)"/>
<path d="M136.24 111.043C136.24 111.043 126.603 114.191 129.034 119.146C131.465 124.101 137.098 117.778 136.24 111.043Z" fill="url(#paint32_linear_642_1557)"/>
<path d="M118.898 103.823C118.898 103.823 117.774 89.7864 113.924 90.9963C110.074 92.2063 113.954 102.226 118.898 103.823Z" fill="url(#paint33_linear_642_1557)"/>
<path d="M104.75 94.4751C104.766 94.4543 104.785 94.437 104.808 94.4244C104.83 94.4118 104.855 94.4042 104.881 94.402C104.907 94.3998 104.933 94.4032 104.957 94.4118C104.981 94.4205 105.004 94.4342 105.022 94.4521C105.306 94.6774 133.686 116.918 157.577 112.553C157.703 112.53 157.833 112.653 157.87 112.831C157.906 113.008 157.833 113.168 157.707 113.191C133.647 117.588 105.116 95.2226 104.831 94.9966C104.77 94.9422 104.726 94.8714 104.705 94.7927C104.683 94.7139 104.685 94.6307 104.71 94.553C104.719 94.525 104.733 94.4987 104.75 94.4751Z" fill="url(#paint34_linear_642_1557)"/>
<path d="M103.293 165.521C103.293 165.521 89.3032 166.055 92.3621 170.106C95.4211 174.157 101.922 168.484 103.293 165.521Z" fill="url(#paint35_linear_642_1557)"/>
<path d="M104.83 166.374C104.83 166.374 94.3877 158.256 98.5717 154.762C102.756 151.267 105.128 160.53 104.83 166.374Z" fill="url(#paint36_linear_642_1557)"/>
<path d="M94.1164 162.055C94.1164 162.055 94.6971 151.436 89.7029 152.008C84.7088 152.579 91.1312 161.495 94.1164 162.055Z" fill="url(#paint37_linear_642_1557)"/>
<path d="M82.5725 164.762C82.5252 168.154 89.8739 165.984 92.0226 161.469C92.0226 161.469 82.6198 161.371 82.5725 164.762Z" fill="url(#paint38_linear_642_1557)"/>
<path d="M82.7289 160.012C82.7289 160.012 75.5923 154.947 73.2823 157.417C70.9723 159.888 76.3551 163.178 82.7289 160.012Z" fill="url(#paint39_linear_642_1557)"/>
<path d="M116.289 172.958C116.289 172.958 108.805 166.011 112.882 163.514C116.959 161.016 117.525 169.588 116.289 172.958Z" fill="url(#paint40_linear_642_1557)"/>
<path d="M113.909 171.278C113.909 171.278 104.368 169.304 104.572 173.179C104.777 177.054 112.07 175.574 113.909 171.278Z" fill="url(#paint41_linear_642_1557)"/>
<path d="M127.342 181.477C127.301 181.5 127.254 181.509 127.207 181.503C127.161 181.497 127.117 181.476 127.083 181.444C126.87 181.245 105.478 161.475 82.1353 160.119C82.0762 160.116 82.0209 160.089 81.9816 160.045C81.9423 160.001 81.9222 159.943 81.9257 159.883C81.9292 159.824 81.956 159.769 82.0003 159.73C82.0446 159.69 82.1027 159.67 82.1618 159.674C105.665 161.039 127.174 180.918 127.388 181.118C127.409 181.138 127.427 181.162 127.439 181.189C127.451 181.216 127.458 181.244 127.459 181.274C127.46 181.303 127.455 181.332 127.444 181.359C127.434 181.387 127.418 181.412 127.398 181.433C127.382 181.451 127.363 181.466 127.342 181.477Z" fill="url(#paint42_linear_642_1557)"/>
<path d="M141.879 98.3221C141.879 98.3221 129.653 91.5019 130.158 96.553C130.664 101.604 139.167 100.14 141.879 98.3221Z" fill="url(#paint43_linear_642_1557)"/>
<path d="M142.746 99.8482C142.746 99.8482 138.05 87.4831 143.442 86.6765C148.833 85.8699 146.037 95.0112 142.746 99.8482Z" fill="url(#paint44_linear_642_1557)"/>
<path d="M135.845 90.5872C135.845 90.5872 141.864 81.8192 137.301 79.7102C132.738 77.6011 133.583 88.5567 135.845 90.5872Z" fill="url(#paint45_linear_642_1557)"/>
<path d="M124.576 86.8967C122.772 89.7686 130.178 91.7386 134.36 88.9989C134.36 88.9989 126.38 84.0242 124.576 86.8967Z" fill="url(#paint46_linear_642_1557)"/>
<path d="M127.178 82.921C127.178 82.921 123.717 74.8825 120.459 75.7914C117.2 76.7002 120.088 82.3098 127.178 82.921Z" fill="url(#paint47_linear_642_1557)"/>
<path d="M149.111 111.432C149.111 111.432 146.329 101.606 151.116 101.594C155.902 101.582 151.919 109.195 149.111 111.432Z" fill="url(#paint48_linear_642_1557)"/>
<path d="M147.952 108.759C147.952 108.759 140.829 102.111 138.989 105.527C137.148 108.943 144.148 111.472 147.952 108.759Z" fill="url(#paint49_linear_642_1557)"/>
<path d="M154.12 124.457C154.073 124.455 154.028 124.438 153.992 124.408C153.955 124.379 153.928 124.339 153.916 124.294C153.837 124.016 145.849 96.0021 126.616 82.7032C126.569 82.669 126.537 82.6176 126.527 82.56C126.517 82.5024 126.53 82.4432 126.563 82.3951C126.596 82.347 126.647 82.3139 126.704 82.3029C126.762 82.2918 126.821 82.3037 126.87 82.336C146.236 95.7274 154.268 123.891 154.345 124.174C154.354 124.202 154.356 124.232 154.353 124.261C154.35 124.291 154.341 124.319 154.326 124.345C154.312 124.371 154.292 124.394 154.269 124.412C154.246 124.431 154.219 124.444 154.19 124.452C154.167 124.457 154.144 124.459 154.12 124.457Z" fill="url(#paint50_linear_642_1557)"/>
<path d="M303.722 141.726C303.722 141.726 315.64 128.862 309.342 127.983C303.044 127.104 302.312 137.886 303.722 141.726Z" fill="url(#paint51_linear_642_1557)"/>
<path d="M301.607 142.331C301.607 142.331 318.046 140.272 317.434 147.072C316.821 153.872 306.52 147.77 301.607 142.331Z" fill="url(#paint52_linear_642_1557)"/>
<path d="M314.922 136.665C314.922 136.665 323.814 146.584 327.73 141.654C331.647 136.724 318.062 134.517 314.922 136.665Z" fill="url(#paint53_linear_642_1557)"/>
<path d="M322.748 124.045C319.785 121 315.197 129.432 317.295 135.332C317.295 135.332 325.71 127.09 322.748 124.045Z" fill="url(#paint54_linear_642_1557)"/>
<path d="M326.815 128.39C326.815 128.39 337.623 126.555 337.481 122.32C337.339 118.085 329.657 119.939 326.815 128.39Z" fill="url(#paint55_linear_642_1557)"/>
<path d="M285.625 146.65C285.625 146.65 298.406 146.174 297.006 152C295.605 157.825 287.513 150.729 285.625 146.65Z" fill="url(#paint56_linear_642_1557)"/>
<path d="M289.222 146.029C289.222 146.029 299.421 139.326 295.808 136.076C292.195 132.825 287.045 140.596 289.222 146.029Z" fill="url(#paint57_linear_642_1557)"/>
<path d="M268.291 148.895C268.307 148.838 268.341 148.788 268.387 148.752C268.434 148.716 268.491 148.696 268.549 148.694C268.915 148.682 305.372 147.243 327.247 127.768C327.302 127.719 327.375 127.693 327.449 127.698C327.523 127.702 327.592 127.736 327.641 127.791C327.691 127.846 327.716 127.919 327.711 127.993C327.707 128.067 327.674 128.136 327.618 128.185C305.591 147.795 268.935 149.24 268.568 149.255C268.531 149.256 268.495 149.25 268.46 149.238C268.426 149.225 268.394 149.205 268.368 149.18C268.341 149.155 268.319 149.125 268.304 149.091C268.289 149.058 268.281 149.022 268.28 148.985C268.278 148.955 268.282 148.924 268.291 148.895Z" fill="url(#paint58_linear_642_1557)"/>
<path d="M113.32 223.844C113.32 223.844 87.5004 198.217 71.8212 207.192C56.142 216.167 91.2937 234.867 113.32 223.844Z" fill="url(#paint59_linear_642_1557)"/>
<path d="M110.934 229.143C110.934 229.143 65.9869 216.422 64.8576 233.342C63.7284 250.262 95.2877 243.672 110.934 229.143Z" fill="url(#paint60_linear_642_1557)"/>
<path d="M115.168 218.12C115.168 218.12 97.3083 178.483 84.8451 188.213C72.382 197.943 95.7395 216.115 115.168 218.12Z" fill="url(#paint61_linear_642_1557)"/>
<path d="M121.277 147.98C121.277 147.98 106.999 122.173 94.5939 126.226C82.1892 130.28 104.092 152.399 121.277 147.98Z" fill="url(#paint62_linear_642_1557)"/>
<path d="M121.073 147.512C121.073 147.512 89.9129 131.735 87.7545 145.478C85.596 159.22 108.713 157.569 121.073 147.512Z" fill="url(#paint63_linear_642_1557)"/>
<path d="M121.319 148.701C121.319 148.701 113.176 113.624 103.196 119.553C93.2159 125.482 107.735 143.979 121.319 148.701Z" fill="url(#paint64_linear_642_1557)"/>
<path d="M165.613 116.174C165.613 116.174 185.193 94.1172 177.24 83.7701C169.287 73.423 155.724 101.442 165.613 116.174Z" fill="url(#paint65_linear_642_1557)"/>
<path d="M159.373 114.504C159.373 114.504 164.014 79.8871 150.326 82.3723C136.638 84.8576 145.808 106.143 159.373 114.504Z" fill="url(#paint66_linear_642_1557)"/>
<path d="M167.781 117.46C167.781 117.46 201.775 105.581 194.805 96.2985C187.835 87.016 171.01 103.446 167.781 117.46Z" fill="url(#paint67_linear_642_1557)"/>
<path d="M240.088 111.238C240.088 111.238 258.687 96.6446 254.548 86.4206C250.408 76.1966 235.273 96.9638 240.088 111.238Z" fill="url(#paint68_linear_642_1557)"/>
<path d="M236.811 112.56C236.811 112.56 246.316 84.4667 235.599 83.8993C224.882 83.3318 228.073 102.93 236.811 112.56Z" fill="url(#paint69_linear_642_1557)"/>
<path d="M243.4 112.881C243.4 112.881 269.615 102.67 264.242 94.6913C258.868 86.7126 245.89 100.835 243.4 112.881Z" fill="url(#paint70_linear_642_1557)"/>
<path d="M307.559 242.502C307.559 242.502 330.512 236.838 330.938 225.813C331.364 214.788 309.031 227.509 307.559 242.502Z" fill="url(#paint71_linear_642_1557)"/>
<path d="M307.959 242.443C307.959 242.443 328.166 220.738 318.63 215.815C309.093 210.892 303.948 230.074 307.959 242.443Z" fill="url(#paint72_linear_642_1557)"/>
<path d="M307.014 242.37C307.014 242.37 335.112 243.83 333.489 234.35C331.866 224.869 314.233 232.411 307.014 242.37Z" fill="url(#paint73_linear_642_1557)"/>
<path d="M292.872 210.557C278.427 190.023 299.974 138.844 278.468 114.508C256.963 90.1711 236.934 100.546 206.953 109.624C176.972 118.702 164.418 85.0323 135.078 105.668C105.738 126.304 109.162 176.917 111.137 202.647C113.113 228.376 53.1559 222.851 87.8131 277.677C97.0442 292.28 107.537 300.074 117.964 303.652H117.969C123.775 305.617 129.903 306.453 136.023 306.114C148.198 307.136 166.967 307.814 193.669 306.51C240.955 304.201 250.821 306.533 266.512 306.629C280.647 307.818 295.374 304.568 307.95 289.982C338.165 254.931 307.319 231.091 292.872 210.557Z" fill="url(#paint74_linear_642_1557)"/>
<path style="mix-blend-mode:overlay" d="M96.5518 295.657C65.2003 250.631 120.216 254.677 118.625 233.421C117.034 212.166 114.33 170.346 141.454 153.03C168.578 135.713 179.816 163.442 207.429 155.672C235.041 147.902 253.524 139.155 273.064 159.092C292.604 179.029 272.369 221.53 285.459 238.382C298.549 255.233 326.669 274.68 298.613 303.919C232.181 304.58 123.805 319.948 96.5518 295.657Z" fill="url(#paint75_linear_642_1557)"/>
<path d="M115.068 219.364H154.126L139.793 189.384H100.734L115.068 219.364Z" fill="#2C5475"/>
<path d="M116.383 219.364H155.441L141.108 189.384H102.049L116.383 219.364Z" fill="#256A8C"/>
<path d="M153.023 217.841L140.146 190.908H104.465L117.342 217.841H153.023Z" fill="#73C4D0"/>
<path d="M115.067 221.873H171.804V219.364H115.067V221.873Z" fill="#4199BD"/>
<path d="M148.067 172.097L121.976 207.12L148.881 220.093L148.067 172.097Z" fill="#CCE9F1"/>
<path d="M232.19 217.18V176.003H147.737V217.18C147.737 217.87 147.896 218.55 148.202 219.168H231.725C232.031 218.55 232.19 217.87 232.19 217.18Z" fill="#4FBAED"/>
<path d="M148.203 219.168C148.574 219.927 149.15 220.566 149.867 221.013C150.583 221.461 151.411 221.698 152.255 221.698H227.672C228.516 221.698 229.344 221.461 230.06 221.013C230.777 220.566 231.353 219.927 231.724 219.168H148.203Z" fill="#CCE9F1"/>
<path d="M232.19 173.794C232.19 172.595 231.714 171.445 230.866 170.598C230.019 169.75 228.869 169.274 227.67 169.274H152.255C151.057 169.274 149.907 169.75 149.059 170.598C148.212 171.445 147.735 172.595 147.735 173.794V176.003H232.19V173.794ZM154.475 174.663C154.19 174.663 153.911 174.578 153.673 174.42C153.436 174.261 153.251 174.036 153.142 173.772C153.033 173.509 153.004 173.219 153.06 172.939C153.115 172.659 153.253 172.402 153.454 172.2C153.656 171.998 153.913 171.861 154.193 171.805C154.473 171.749 154.763 171.778 155.027 171.887C155.29 171.996 155.516 172.181 155.674 172.418C155.833 172.655 155.918 172.934 155.918 173.219C155.918 173.602 155.766 173.969 155.495 174.24C155.225 174.511 154.858 174.663 154.475 174.663ZM160.559 174.663C160.273 174.663 159.994 174.578 159.757 174.42C159.52 174.261 159.335 174.036 159.226 173.772C159.116 173.509 159.088 173.219 159.143 172.939C159.199 172.659 159.336 172.402 159.538 172.2C159.74 171.998 159.997 171.861 160.277 171.805C160.557 171.749 160.847 171.778 161.11 171.887C161.374 171.996 161.599 172.181 161.758 172.418C161.917 172.655 162.001 172.934 162.002 173.219C162.002 173.602 161.85 173.969 161.579 174.24C161.308 174.511 160.941 174.663 160.559 174.663ZM166.642 174.663C166.357 174.663 166.078 174.578 165.841 174.42C165.604 174.261 165.419 174.036 165.309 173.772C165.2 173.509 165.172 173.219 165.227 172.939C165.283 172.659 165.42 172.402 165.622 172.2C165.824 171.998 166.081 171.861 166.361 171.805C166.64 171.749 166.93 171.778 167.194 171.887C167.458 171.996 167.683 172.181 167.842 172.418C168 172.655 168.085 172.934 168.085 173.219C168.085 173.602 167.933 173.969 167.663 174.24C167.392 174.511 167.025 174.663 166.642 174.663Z" fill="#CCE9F1"/>
<path d="M154.475 171.773C154.19 171.773 153.911 171.858 153.673 172.017C153.436 172.175 153.251 172.401 153.142 172.664C153.033 172.928 153.004 173.218 153.06 173.498C153.116 173.778 153.253 174.035 153.455 174.237C153.657 174.438 153.914 174.576 154.194 174.632C154.474 174.687 154.764 174.659 155.027 174.549C155.291 174.44 155.516 174.255 155.675 174.018C155.833 173.781 155.918 173.502 155.918 173.216C155.918 172.834 155.766 172.467 155.495 172.196C155.225 171.925 154.858 171.773 154.475 171.773Z" fill="#A74F8C"/>
<path d="M160.558 174.66C161.355 174.66 162.001 174.014 162.001 173.217C162.001 172.42 161.355 171.774 160.558 171.774C159.761 171.774 159.115 172.42 159.115 173.217C159.115 174.014 159.761 174.66 160.558 174.66Z" fill="#E9B44A"/>
<path d="M166.643 171.773C166.357 171.773 166.078 171.858 165.841 172.017C165.604 172.175 165.419 172.401 165.31 172.664C165.2 172.928 165.172 173.218 165.227 173.498C165.283 173.778 165.421 174.035 165.622 174.237C165.824 174.438 166.081 174.576 166.361 174.632C166.641 174.687 166.931 174.659 167.195 174.549C167.458 174.44 167.684 174.255 167.842 174.018C168.001 173.781 168.086 173.502 168.086 173.216C168.086 172.834 167.933 172.467 167.663 172.196C167.392 171.925 167.025 171.773 166.643 171.773Z" fill="#2996B3"/>
<path d="M147.858 227.895H225.437V221.873H147.858V227.895Z" fill="#E1A691"/>
<path d="M187.08 307.067H183.993L178.68 227.895H181.766L187.08 307.067Z" fill="#F1E4DA"/>
<path d="M187.076 307.067H191.428L186.116 227.895H181.763L187.076 307.067Z" fill="#DEA98F"/>
<path d="M220.02 307.067H216.933L211.62 227.895H214.707L220.02 307.067Z" fill="#F1E4DA"/>
<path d="M220.022 307.067H224.374L219.063 227.895H214.711L220.022 307.067Z" fill="#DEA98F"/>
<path d="M305.41 248.997H278.969L288.584 198.785H315.025L305.41 248.997Z" fill="#246D98"/>
<path d="M300.28 248.997H273.836L283.452 198.785H309.894L300.28 248.997Z" fill="#4EBBEE"/>
<path d="M279.807 248.997H241.97V254.427H279.807V248.997Z" fill="#2196CC"/>
<path d="M279.807 254.428H305.269V248.997H279.807V254.428Z" fill="#25709C"/>
<path d="M279.807 254.428H241.97V259.859H279.807V254.428Z" fill="#0E5A89"/>
<path d="M279.807 259.858H305.269V254.428H279.807V259.858Z" fill="#004B74"/>
<path d="M311.691 306.509H315.028L305.28 259.858H301.946L311.691 306.509Z" fill="#004B74"/>
<path d="M312.391 306.509H309.119L299.371 259.858H302.642L312.391 306.509Z" fill="#30A5DF"/>
<path d="M281.248 306.509H284.586L274.837 259.858H271.503L281.248 306.509Z" fill="#004B74"/>
<path d="M281.945 306.509H278.674L268.925 259.858H272.197L281.945 306.509Z" fill="#3497CA"/>
<path d="M261.604 306.509H264.942L281.243 259.858H277.905L261.604 306.509Z" fill="#004B74"/>
<path d="M262.304 306.509H259.032L275.333 259.858H278.605L262.304 306.509Z" fill="#30A5DF"/>
<path d="M231.156 306.509H234.491L250.791 259.858H247.457L231.156 306.509Z" fill="#004B74"/>
<path d="M231.857 306.509H228.585L244.886 259.858H248.158L231.857 306.509Z" fill="#30A5DF"/>
<path d="M228.561 299.47C226.659 297.669 223.591 298.074 223.591 298.074C223.591 298.074 217.99 300.267 215.549 300.156C213.167 300.048 207.893 301.048 207.215 302.997L230.495 305.415C230.238 303.328 229.693 300.541 228.561 299.47Z" fill="#8C6A70"/>
<path d="M207.216 302.997C207.196 303.042 207.177 303.088 207.161 303.136C206.703 305.18 206.89 304.868 206.89 304.868L230.714 307.927C230.714 307.927 230.67 306.828 230.495 305.408L207.216 302.997Z" fill="#744E54"/>
<path d="M222.907 292.437C222.907 292.437 223.289 296.525 222.329 298.285C221.369 300.046 227.127 301.224 228.435 300.269C228.435 300.269 227.684 294.621 228.482 292.152L222.907 292.437Z" fill="#F9C9B2"/>
<path d="M280.017 294.851C277.475 294.221 275.006 296.085 275.006 296.085C275.006 296.085 271.212 300.752 269.033 301.857C266.907 302.936 262.81 306.405 263.181 308.435L284.628 299.067C283.373 297.385 281.53 295.226 280.017 294.851Z" fill="#8C6A70"/>
<path d="M263.18 308.437C263.185 308.488 263.193 308.538 263.203 308.588C263.812 310.593 263.82 310.23 263.82 310.23L286.059 301.154C286.059 301.154 285.48 300.22 284.627 299.068L263.18 308.437Z" fill="#744E54"/>
<path d="M271.631 291.516C271.631 291.516 273.978 294.885 274.011 296.891C274.044 298.896 279.632 297.085 280.302 295.609C280.302 295.609 276.865 291.064 276.343 288.522L271.631 291.516Z" fill="#F9C9B2"/>
<path d="M256.944 221.497C256.944 221.497 249.612 224.139 246.464 224.515C243.317 224.89 237.174 226.989 235.833 230.301C234.493 233.613 234.35 235.868 235.795 236.026C237.239 236.185 238.283 231.062 241.275 230.735C244.268 230.407 247.7 227.799 248.451 227.7C249.202 227.601 258.718 225.089 258.718 225.089L256.944 221.497Z" fill="#F7CAB0"/>
<path d="M274.755 183.401C274.755 183.401 278.109 210.076 276.322 215.697C274.536 221.319 248.483 231.092 248.483 231.092L246.745 222.523C246.745 222.523 264.623 214.343 265.959 210.685C267.295 207.027 266.863 187.873 268.611 185.111C270.358 182.349 273.722 180.853 274.755 183.401Z" fill="#ECF1EE"/>
<path d="M271.095 231.599C271.095 231.599 235.666 229.74 230.033 233.594C224.4 237.448 220.25 295.555 220.25 295.555H230.626C230.626 295.555 240.262 259.236 241.151 251.677C242.041 244.118 247.526 250.046 251.528 250.046C255.531 250.046 275.543 250.492 281.621 246.489C287.698 242.486 286.511 230.196 271.095 231.599Z" fill="#313950"/>
<path d="M272.656 163.567C272.656 163.567 270.755 159.91 273.116 156.891C275.477 153.872 281.12 153.191 284.229 153.703C287.338 154.216 289.223 156.532 289.338 160.231C289.454 163.93 288.399 173.23 281.983 174.535C274.158 176.13 272.656 163.567 272.656 163.567Z" fill="#614142"/>
<path d="M274.504 228.109C274.504 228.109 245.154 228.703 244.857 239.079C244.56 249.455 269.019 295.557 269.019 295.557L279.841 291.702C279.841 291.702 267.833 257.311 265.313 251.382C265.313 251.382 263.682 247.676 266.944 247.231C270.205 246.786 289.328 251.682 293.033 243.97C295.241 239.443 295.613 234.237 294.071 229.442L274.504 228.109Z" fill="#2B3A5A"/>
<path d="M270.533 226.578C270.533 226.578 262.228 227.918 258.815 227.69C255.402 227.463 248.467 228.462 246.385 231.708C244.302 234.954 243.701 237.318 245.203 237.774C246.704 238.23 248.832 233.004 252.071 233.254C255.31 233.504 259.472 231.422 260.288 231.465C261.104 231.509 271.7 230.744 271.7 230.744L270.533 226.578Z" fill="#F7CAB0"/>
<path d="M278.167 185.659C285.33 187.085 287.269 181.969 287.797 179.084C283.879 178.754 279.94 178.763 276.023 179.11C276.023 179.11 275.987 179.11 275.925 179.12C274.005 181.77 273.275 184.685 278.167 185.659Z" fill="white"/>
<path d="M293.721 181.188C292.802 180.006 290.473 179.387 287.797 179.085C287.269 181.97 285.327 187.087 278.167 185.66C273.276 184.687 274.006 181.771 275.926 179.124C273.896 179.441 271.983 180.275 270.37 181.547C268.757 182.819 267.499 184.485 266.718 186.384C263.713 193.17 266.814 207.13 266.718 216.727C266.621 226.324 265.942 230.686 265.942 230.686C265.942 230.686 280.235 233.42 294.292 230.124C294.292 230.124 294.142 220.799 294.292 214.206C294.443 207.613 296.436 184.677 293.721 181.188Z" fill="#43B3BF"/>
<path d="M290.079 182.549C290.079 182.549 290.855 213.136 287.268 215.657C283.681 218.177 264.877 225.545 264.877 225.545V232.816C264.877 232.816 281.454 230.489 291.148 225.254C300.842 220.019 297.643 204.897 298.613 193.36C299.582 181.824 292.761 180.392 292.761 180.392C292.761 180.392 290.156 179.981 290.079 182.549Z" fill="white"/>
<path d="M284.767 171.566C284.962 169.462 277.284 173.788 277.284 173.788C277.284 173.948 277.841 176.946 277.28 179.055C277.158 179.515 276.608 179.87 276.405 180.269C275.362 182.314 276.396 183.948 278.357 184.783C278.528 184.857 278.704 184.92 278.882 184.973C281.182 185.635 285.235 183.882 285.78 181.037C286.124 180.407 286.261 179.684 286.171 178.972C286.171 178.972 284.572 173.67 284.767 171.566Z" fill="#D3AC95"/>
<path d="M272.852 162.023C272.852 162.023 270.901 174.087 275.522 176.5C280.143 178.913 284.814 173.162 285.071 170.442C285.071 170.442 288.305 169.107 287.586 165.822C286.867 162.536 284.66 165.514 284.66 165.514C284.114 164.909 283.714 164.187 283.492 163.403C283.269 162.619 283.23 161.795 283.376 160.994C283.941 158.376 279.065 161.507 277.318 161.302C275.571 161.097 276.136 159.608 274.954 159.608C273.772 159.608 272.999 160.899 272.852 162.023Z" fill="#F7CAB0"/>
<path d="M147.858 221.873H103.755V227.895H147.858V221.873Z" fill="#F9DFD6"/>
<path d="M103.964 307.067H100.877L106.19 227.895H109.277L103.964 307.067Z" fill="#F1E4DA"/>
<path d="M103.964 307.067H108.315L113.629 227.895H109.275L103.964 307.067Z" fill="#DEA98F"/>
<path d="M136.908 307.067H133.821L139.135 227.895H142.221L136.908 307.067Z" fill="#F1E4DA"/>
<path d="M136.908 307.067H141.26L146.573 227.895H142.222L136.908 307.067Z" fill="#DEA98F"/>
<path d="M265.06 189.294L266.615 189.492L267.253 184.479L265.698 184.282L265.06 189.294Z" fill="#343552"/>
<path d="M267.379 184.496L267.252 184.479L266.615 189.492L266.741 189.508L267.379 184.496Z" fill="#6FB1D7"/>
<path d="M269.518 182.925L267.614 182.683L266.519 191.288L268.423 191.531L269.518 182.925Z" fill="#343552"/>
<path d="M252.1 188.06C253.035 186.633 257.555 182.295 258.419 182.194C259.284 182.093 262.023 182.827 262.668 183.037C263.313 183.248 267.34 183.195 267.594 184.199C267.848 185.203 263.52 184.102 262.314 185.729C261.108 187.355 260.615 188.329 260.968 188.76C261.32 189.192 264.445 189.193 264.927 188.76C265.408 188.328 266.919 189.669 264.682 190.777C262.445 191.885 259.151 191.075 257.298 191.681C254.966 192.652 252.687 193.744 250.469 194.953L248.197 191.016C248.197 191.016 251.168 189.487 252.1 188.06Z" fill="#EAB1B5"/>
<path d="M229.66 169.088C229.66 169.088 235.209 191.508 238.816 192.607C242.424 193.707 252.012 186.941 252.012 186.941L254.124 194.721C254.124 194.721 242.247 203.687 237.229 203.01C232.211 202.333 224.209 176.708 224.209 176.708C224.209 176.708 222.713 169.35 225.53 168.842C228.347 168.335 229.66 169.088 229.66 169.088Z" fill="#DADEE1"/>
<path d="M224.378 151.975C224.378 151.975 227.526 150.844 227.181 147.942C226.836 145.04 225.656 143.613 221.82 143.613C217.983 143.613 215.422 143.515 213.753 145.187C212.085 146.859 212.721 150.204 212.721 150.204C212.17 151.774 212.128 153.477 212.6 155.072C213.409 157.629 215.376 160.187 217.836 159.843C220.295 159.498 224.378 151.975 224.378 151.975Z" fill="#14213B"/>
<path d="M214.079 163.292C214.352 163.292 214.507 163.292 214.507 163.292C216.844 163.438 219.164 163.776 221.446 164.302C221.037 169.677 220.042 181.957 219.047 188.262C219.047 188.264 215.713 170.484 214.079 163.292Z" fill="#4E5A9C"/>
<path d="M202.184 168.591C205.006 163.698 212.248 163.31 214.079 163.292C215.713 170.484 219.047 188.264 219.047 188.264C220.043 181.959 221.037 169.68 221.446 164.305C223.309 164.717 225.144 165.246 226.94 165.889C233.534 168.267 231.696 186.75 231.371 193.453C231.046 200.157 226.615 219.396 226.615 219.396H196.563C200.887 209.883 198.941 174.212 202.184 168.591Z" fill="#EEEFEF"/>
<path d="M215.918 219.721C215.992 219.721 216.063 219.696 216.12 219.65C216.178 219.605 216.218 219.541 216.235 219.47C218.144 211.241 219.36 187.654 219.371 187.413C219.374 187.371 219.368 187.328 219.353 187.288C219.339 187.248 219.317 187.211 219.288 187.179C219.26 187.148 219.225 187.122 219.187 187.104C219.148 187.086 219.107 187.075 219.064 187.073C219.021 187.068 218.978 187.073 218.936 187.086C218.895 187.1 218.857 187.121 218.825 187.15C218.793 187.179 218.767 187.215 218.75 187.255C218.733 187.294 218.724 187.337 218.724 187.38C218.712 187.618 217.5 211.148 215.603 219.32C215.583 219.404 215.598 219.492 215.643 219.565C215.689 219.638 215.761 219.69 215.845 219.71C215.869 219.716 215.894 219.72 215.918 219.721Z" fill="#4E5A9C"/>
<path d="M206.801 207.288C206.801 207.288 212.16 210.552 214.44 210.614C216.719 210.676 223.372 209.074 223.926 210.614C224.48 212.154 219.983 211.538 219.368 212.214C218.752 212.889 227.434 214.246 227.314 216.587C227.194 218.929 223.618 219.359 219.734 218.128C215.851 216.896 214.19 215.848 210.371 214.493C206.552 213.138 203.041 211.721 203.041 211.721L206.801 207.288Z" fill="#EAB1B5"/>
<path d="M220.736 156.328C220.736 156.328 220.102 161.782 220.736 162.951C221.369 164.12 221.953 169.185 218.544 168.942C215.134 168.698 214.404 165.435 214.306 163.438C214.306 163.438 216.936 157.691 216.887 155.401L220.736 156.328Z" fill="#DDAAA4"/>
<path d="M224.87 150.451C224.87 150.451 225.854 159.55 223.591 161.419C221.329 163.287 217.148 161.517 216.359 158.074C216.359 158.074 214.244 156.697 214.736 154.68C215.229 152.663 216.704 154.729 216.704 154.729C216.866 153.438 216.849 152.13 216.654 150.844C216.307 149.27 218.523 149.073 219.556 149.27C220.589 149.467 222.559 151.287 224.87 150.451Z" fill="#EBB4AE"/>
<path d="M207.54 173.813C207.54 173.813 199.649 192.727 199.649 196.081C199.649 199.435 214.08 209.919 214.08 209.919L212.62 216.837C212.62 216.837 196.081 210.243 191.974 202.892C187.866 195.542 200.675 171.114 203.026 167.545C205.377 163.977 210.666 166.05 207.54 173.813Z" fill="#FEFEFF"/>
<path d="M214.908 155.493C214.907 155.369 214.939 155.247 215 155.14C215.062 155.033 215.152 154.944 215.259 154.882C215.367 154.821 215.489 154.79 215.613 154.792C215.737 154.793 215.858 154.828 215.964 154.892C216.07 154.957 216.156 155.048 216.215 155.157C216.274 155.266 216.303 155.389 216.298 155.513C216.293 155.636 216.256 155.757 216.189 155.861C216.122 155.966 216.029 156.05 215.919 156.106L215.857 155.374C215.848 155.29 215.807 155.212 215.742 155.157C215.677 155.102 215.594 155.074 215.509 155.079C215.424 155.086 215.345 155.127 215.29 155.192C215.235 155.257 215.207 155.341 215.214 155.426L215.269 156.088C215.162 156.03 215.071 155.944 215.008 155.84C214.944 155.735 214.91 155.615 214.908 155.493Z" fill="#14213B"/>
<path d="M215.919 156.106L216.962 168.433C217.005 168.975 217.251 169.48 217.651 169.847C218.05 170.215 218.574 170.417 219.118 170.414H221.412C221.705 170.414 221.994 170.355 222.263 170.24C222.532 170.125 222.774 169.956 222.976 169.745C223.178 169.534 223.336 169.284 223.438 169.01C223.541 168.736 223.587 168.444 223.574 168.152L223.281 161.658C223.488 161.534 223.671 161.377 223.826 161.193C223.881 161.249 223.915 161.323 223.919 161.402L224.222 168.121C224.239 168.501 224.179 168.88 224.045 169.236C223.912 169.591 223.708 169.916 223.445 170.191C223.183 170.466 222.867 170.685 222.518 170.834C222.168 170.983 221.792 171.06 221.412 171.06H221.222C221.311 173.11 222.14 187.831 227.55 191.34C233.133 194.962 250.555 196.401 265.431 186.403L265.325 187.243C257.872 192.079 249.183 194.665 240.298 194.692C234.457 194.692 229.684 193.495 227.197 191.882C221.421 188.134 220.651 173.112 220.572 171.058H219.118C218.412 171.062 217.731 170.799 217.211 170.321C216.692 169.844 216.372 169.188 216.316 168.485L215.267 156.087C215.363 156.149 215.475 156.184 215.59 156.187C215.706 156.189 215.819 156.16 215.919 156.103V156.106Z" fill="#6FB1D7"/>
<path d="M215.507 155.08C215.592 155.075 215.676 155.103 215.74 155.158C215.805 155.213 215.846 155.291 215.855 155.375L215.917 156.107C215.817 156.165 215.704 156.194 215.589 156.191C215.474 156.188 215.362 156.154 215.265 156.091L215.209 155.43C215.206 155.387 215.21 155.345 215.224 155.304C215.237 155.263 215.258 155.225 215.285 155.193C215.313 155.16 215.347 155.133 215.385 155.114C215.423 155.095 215.465 155.083 215.507 155.08Z" fill="#6FB1D7"/>
<path d="M179.195 172.547C179.195 172.547 185.3 172.942 188.131 182.322C190.962 191.701 190.184 199.86 190.462 204.078C190.739 208.296 191.96 219.157 191.96 219.157L185.023 219.397L180.968 198.195L179.195 172.547Z" fill="#DADEE1"/>
<path d="M178.449 154.083C178.818 152.89 178.818 151.614 178.449 150.421C177.801 148.703 175.889 146.143 169.213 146.759C162.536 147.375 161.758 152.916 162.212 155.312C162.367 156.523 162.811 157.679 163.508 158.682L163.055 159.656C163.055 159.656 158.517 159.169 159.425 164.258C160.332 169.346 167.722 168.147 166.847 163.091C166.847 163.091 167.528 164.322 169.861 164.031C172.195 163.74 178.449 154.083 178.449 154.083Z" fill="#280C0B"/>
<path d="M174.893 195.971C174.893 195.971 176.336 184.636 176.78 178.088C176.961 175.621 176.836 173.14 176.408 170.703C173.104 170.059 169.724 169.902 166.374 170.238C166.374 170.238 165.824 170.342 164.967 170.564C166.555 173.643 169.287 178.825 171.606 182.639C175.115 188.412 174.893 195.971 174.893 195.971Z" fill="#89C7AF"/>
<path d="M185.022 219.156C185.022 219.156 183.764 199.546 183.986 194.957C184.208 190.367 185.216 178.236 181.664 173.574C180.53 172.086 178.561 171.21 176.408 170.704C176.835 173.141 176.96 175.622 176.78 178.089C176.336 184.638 174.893 195.971 174.893 195.971C174.893 195.971 175.115 188.413 171.605 182.64C169.287 178.826 166.555 173.644 164.966 170.564C162.562 171.187 157.716 172.75 155.643 175.641C152.831 179.563 154.163 216.195 154.015 219.155L185.022 219.156Z" fill="#EEEFEF"/>
<path d="M174.746 184.286L161.682 210.212L178.966 218.922L192.03 192.995L174.746 184.286Z" fill="#005B75"/>
<path d="M179.561 185.959L178.528 188.007L186.789 192.17L187.822 190.121L179.561 185.959Z" fill="#6AA6B5"/>
<path d="M167.362 207.415C167.362 207.415 169.964 209.311 170.846 209.576C171.727 209.841 178.564 210.766 178.342 212.178C178.121 213.589 173.405 211.781 173.405 211.781C173.405 211.781 179.888 215.397 178.124 218.043C176.36 220.69 171.905 217.162 169.832 215.794C167.76 214.427 166.128 212.398 164.099 211.737C162.07 211.076 167.362 207.415 167.362 207.415Z" fill="#EAB1B5"/>
<path d="M173.909 161.508C173.909 161.508 174.723 169.13 175.241 170.536C175.759 171.941 176.145 175.05 172.695 175.272C169.246 175.494 166.916 173.756 166.491 170.814C166.491 170.814 167.175 163.505 166.879 161.508C166.584 159.51 173.909 161.508 173.909 161.508Z" fill="#DDAAA4"/>
<path d="M177.617 153.842C177.617 153.842 178.634 159.635 177.013 163.589C175.393 167.543 170.142 170.525 167.355 162.293C167.355 162.293 165.184 162.131 165.281 159.473C165.378 156.815 167.323 158.889 167.323 158.889C167.323 158.889 167.549 156.07 168.263 155.227C168.263 155.227 174.797 156.402 177.617 153.842Z" fill="#EBB4AE"/>
<path d="M155.807 175.22C155.807 175.22 144.693 190.92 145.398 197.976C146.104 205.033 165.156 215 165.156 215L169.125 207.414C169.125 207.414 155.542 200.446 154.661 196.124C153.781 191.802 162.867 180.512 162.867 180.512C162.867 180.512 165.162 175.396 162.073 173.632C158.984 171.868 156.721 173.887 155.807 175.22Z" fill="#FEFEFF"/>
<path d="M299.826 145.533V159.997L291.864 170.453L300.991 169.816V172.959H334.781V145.533H299.826ZM308.499 162.231C307.971 162.231 307.455 162.075 307.016 161.781C306.577 161.488 306.235 161.071 306.033 160.584C305.831 160.096 305.779 159.559 305.882 159.042C305.985 158.524 306.239 158.048 306.612 157.675C306.985 157.302 307.461 157.048 307.978 156.945C308.496 156.842 309.033 156.895 309.52 157.097C310.008 157.299 310.425 157.641 310.718 158.08C311.011 158.518 311.168 159.034 311.168 159.562C311.168 160.27 310.887 160.949 310.386 161.449C309.886 161.95 309.207 162.231 308.499 162.231ZM317.881 162.231C317.353 162.231 316.837 162.075 316.398 161.781C315.959 161.488 315.617 161.071 315.415 160.584C315.213 160.096 315.16 159.559 315.263 159.042C315.366 158.524 315.621 158.048 315.994 157.675C316.367 157.302 316.843 157.048 317.36 156.945C317.878 156.842 318.415 156.895 318.902 157.097C319.39 157.299 319.807 157.641 320.1 158.08C320.393 158.518 320.55 159.034 320.55 159.562C320.55 160.27 320.269 160.948 319.769 161.449C319.269 161.949 318.591 162.231 317.883 162.231H317.881ZM327.263 162.231C326.735 162.231 326.219 162.075 325.78 161.781C325.341 161.488 324.999 161.071 324.797 160.584C324.595 160.096 324.542 159.559 324.645 159.042C324.748 158.524 325.003 158.048 325.376 157.675C325.749 157.302 326.225 157.048 326.742 156.945C327.26 156.842 327.797 156.895 328.284 157.097C328.772 157.299 329.189 157.641 329.482 158.08C329.775 158.518 329.932 159.034 329.932 159.562C329.932 160.27 329.651 160.949 329.15 161.449C328.65 161.95 327.971 162.231 327.263 162.231Z" fill="#57B0D3"/>
<path d="M308.5 162.23C309.974 162.23 311.169 161.035 311.169 159.561C311.169 158.087 309.974 156.893 308.5 156.893C307.026 156.893 305.831 158.087 305.831 159.561C305.831 161.035 307.026 162.23 308.5 162.23Z" fill="#E9F5F6"/>
<path d="M318.655 162.115C320.065 161.687 320.862 160.197 320.435 158.787C320.007 157.376 318.517 156.579 317.107 157.007C315.696 157.434 314.899 158.924 315.327 160.335C315.754 161.745 317.244 162.542 318.655 162.115Z" fill="#E9F5F6"/>
<path d="M328.037 162.115C329.448 161.687 330.245 160.197 329.817 158.787C329.39 157.376 327.9 156.579 326.489 157.007C325.079 157.434 324.282 158.924 324.709 160.335C325.136 161.745 326.626 162.542 328.037 162.115Z" fill="#E9F5F6"/>
<path d="M237.405 131.728V143.646L230.844 152.263L238.366 151.737V154.328H266.213V131.728H237.405ZM245.104 145.676C244.676 145.676 244.258 145.549 243.902 145.311C243.546 145.073 243.269 144.735 243.105 144.339C242.941 143.944 242.898 143.508 242.982 143.089C243.066 142.669 243.272 142.283 243.574 141.98C243.877 141.678 244.263 141.472 244.683 141.388C245.102 141.304 245.538 141.347 245.933 141.511C246.329 141.675 246.667 141.952 246.905 142.308C247.143 142.664 247.27 143.082 247.27 143.51C247.27 143.795 247.214 144.076 247.105 144.339C246.996 144.602 246.837 144.84 246.636 145.042C246.435 145.243 246.196 145.402 245.933 145.511C245.67 145.62 245.389 145.676 245.104 145.676ZM252.715 145.676C252.287 145.676 251.869 145.549 251.513 145.311C251.157 145.073 250.88 144.735 250.716 144.339C250.552 143.944 250.509 143.508 250.593 143.089C250.676 142.669 250.883 142.283 251.185 141.98C251.488 141.678 251.874 141.472 252.293 141.388C252.713 141.304 253.148 141.347 253.544 141.511C253.94 141.675 254.278 141.952 254.516 142.308C254.753 142.664 254.88 143.082 254.881 143.51C254.881 143.795 254.825 144.076 254.716 144.339C254.607 144.602 254.448 144.841 254.247 145.042C254.045 145.243 253.807 145.402 253.544 145.511C253.281 145.62 253 145.676 252.715 145.676ZM260.326 145.676C259.898 145.676 259.479 145.549 259.124 145.311C258.768 145.073 258.49 144.735 258.326 144.34C258.162 143.944 258.119 143.509 258.203 143.089C258.286 142.669 258.492 142.283 258.795 141.981C259.098 141.678 259.483 141.472 259.903 141.388C260.323 141.304 260.758 141.347 261.154 141.511C261.55 141.675 261.888 141.952 262.126 142.308C262.364 142.664 262.491 143.082 262.491 143.51C262.491 143.795 262.435 144.076 262.326 144.339C262.217 144.602 262.058 144.84 261.857 145.042C261.656 145.243 261.417 145.402 261.155 145.511C260.892 145.62 260.61 145.676 260.326 145.676Z" fill="#57B0D3"/>
<path d="M245.602 145.617C246.766 145.342 247.486 144.176 247.211 143.012C246.937 141.849 245.771 141.128 244.607 141.403C243.444 141.678 242.723 142.844 242.998 144.007C243.273 145.171 244.438 145.891 245.602 145.617Z" fill="#E9F5F6"/>
<path d="M253.212 145.617C254.375 145.342 255.096 144.176 254.821 143.012C254.547 141.849 253.381 141.128 252.217 141.403C251.054 141.678 250.333 142.844 250.608 144.007C250.882 145.171 252.048 145.891 253.212 145.617Z" fill="#E9F5F6"/>
<path d="M261.856 145.041C262.701 144.196 262.701 142.825 261.856 141.98C261.01 141.134 259.64 141.134 258.794 141.98C257.949 142.825 257.949 144.196 258.794 145.041C259.64 145.886 261.01 145.886 261.856 145.041Z" fill="#E9F5F6"/>
<path d="M86.7051 133.302V160.601H120.342V157.471L129.428 158.106L121.501 147.698V133.304L86.7051 133.302ZM109.409 147.263C109.409 146.742 109.564 146.233 109.853 145.8C110.143 145.367 110.554 145.029 111.036 144.83C111.517 144.63 112.047 144.578 112.558 144.68C113.069 144.782 113.539 145.033 113.907 145.401C114.275 145.77 114.526 146.239 114.628 146.75C114.729 147.261 114.677 147.791 114.478 148.273C114.278 148.754 113.941 149.165 113.507 149.455C113.074 149.744 112.565 149.899 112.044 149.899C111.345 149.899 110.675 149.621 110.181 149.127C109.686 148.632 109.409 147.962 109.409 147.263ZM100.147 147.263C100.147 146.742 100.301 146.233 100.591 145.8C100.881 145.367 101.292 145.029 101.774 144.83C102.255 144.63 102.785 144.578 103.296 144.68C103.807 144.782 104.276 145.033 104.645 145.401C105.013 145.77 105.264 146.239 105.366 146.75C105.467 147.261 105.415 147.791 105.215 148.273C105.016 148.754 104.678 149.165 104.245 149.455C103.812 149.744 103.302 149.899 102.781 149.899C102.435 149.899 102.092 149.831 101.772 149.699C101.452 149.567 101.161 149.373 100.916 149.128C100.671 148.883 100.477 148.593 100.344 148.273C100.211 147.953 100.143 147.61 100.143 147.263H100.147ZM90.8842 147.263C90.8844 146.742 91.039 146.233 91.3286 145.8C91.6182 145.367 92.0298 145.029 92.5112 144.83C92.9927 144.63 93.5224 144.578 94.0334 144.68C94.5445 144.782 95.0139 145.033 95.3823 145.401C95.7507 145.77 96.0016 146.239 96.1032 146.75C96.2048 147.261 96.1526 147.791 95.9531 148.273C95.7537 148.754 95.416 149.165 94.9827 149.455C94.5495 149.744 94.0401 149.899 93.519 149.899C92.82 149.899 92.1497 149.621 91.6555 149.127C91.1612 148.633 90.8842 147.962 90.8842 147.263Z" fill="#57B0D3"/>
<path d="M112.044 149.897C113.499 149.897 114.679 148.718 114.679 147.263C114.679 145.808 113.499 144.628 112.044 144.628C110.589 144.628 109.409 145.808 109.409 147.263C109.409 148.718 110.589 149.897 112.044 149.897Z" fill="#E9F5F6"/>
<path d="M102.781 149.897C104.236 149.897 105.416 148.718 105.416 147.263C105.416 145.808 104.236 144.628 102.781 144.628C101.326 144.628 100.146 145.808 100.146 147.263C100.146 148.718 101.326 149.897 102.781 149.897Z" fill="#E9F5F6"/>
<path d="M95.3812 149.127C96.4101 148.098 96.4101 146.43 95.3812 145.401C94.3522 144.372 92.684 144.372 91.655 145.401C90.6261 146.43 90.6261 148.098 91.655 149.127C92.684 150.156 94.3522 150.156 95.3812 149.127Z" fill="#E9F5F6"/>
<path d="M150.699 89.0879H133.994V122.652L150.699 136.676L167.405 122.652V89.0879H150.699ZM165.449 121.74L150.699 134.123L135.949 121.74V91.0405H165.45L165.449 121.74Z" fill="#57B0D3"/>
<path d="M135.949 121.741L150.7 134.123L165.45 121.741V91.0435H135.949V121.741Z" fill="#DDEFF4"/>
<path d="M163.113 104.711H153.656V95.2544H147.739V104.711H138.282V110.63H147.739V120.087H153.658V110.63H163.115L163.113 104.711Z" fill="#005387"/>
<path d="M206.851 84.0391H189.986V117.924L206.851 132.081L223.715 117.924V84.0391H206.851ZM221.74 117.003L206.849 129.504L191.958 117.003V86.0118H221.74V117.003Z" fill="#57B0D3"/>
<path d="M191.959 117.003L206.849 129.503L221.741 117.003V86.0122H191.959V117.003Z" fill="#DDEFF4"/>
<path d="M203.267 96.9291C202.14 96.483 200.881 96.503 199.769 96.9847C198.656 97.4664 197.781 98.3704 197.334 99.4978C196.888 100.625 196.908 101.884 197.39 102.996C197.872 104.109 198.776 104.985 199.903 105.431L205.168 107.517L208.531 99.0131L203.267 96.9291Z" fill="#0070B5"/>
<path d="M213.797 101.096L208.532 99.0103L205.168 107.513L210.433 109.599C210.992 109.82 211.588 109.929 212.188 109.92C212.788 109.91 213.381 109.782 213.932 109.544C214.483 109.305 214.981 108.961 215.399 108.53C215.817 108.098 216.146 107.589 216.367 107.031C216.587 106.473 216.696 105.877 216.687 105.276C216.677 104.676 216.55 104.083 216.311 103.532C216.073 102.982 215.728 102.483 215.297 102.065C214.866 101.647 214.356 101.319 213.798 101.098L213.797 101.096Z" fill="#8980B3"/>
<path d="M279.118 89.7803H263.219V121.722L279.118 135.068L295.016 121.722V89.7803H279.118ZM293.154 120.855L279.117 132.639L265.079 120.855V91.6404H293.154V120.855Z" fill="#57B0D3"/>
<path d="M265.08 120.854L279.118 132.638L293.155 120.854V91.6401H265.08V120.854Z" fill="#DDEFF4"/>
<path d="M273.264 118.471C273.164 118.451 273.072 118.401 273.002 118.328C272.931 118.254 272.885 118.16 272.87 118.059C272.855 117.959 272.871 117.856 272.916 117.764C272.962 117.673 273.035 117.598 273.125 117.55L282.534 112.509L276.451 105.004L285.442 99.8662C285.555 99.8119 285.684 99.8025 285.804 99.84C285.923 99.8774 286.024 99.9589 286.086 100.068C286.148 100.177 286.166 100.305 286.137 100.427C286.107 100.549 286.033 100.655 285.928 100.724L277.948 105.285L284.051 112.817L273.588 118.422C273.489 118.475 273.374 118.492 273.264 118.471Z" fill="#726B93"/>
<path d="M283.293 115.231C284.711 115.231 285.862 114.081 285.862 112.662C285.862 111.244 284.711 110.094 283.293 110.094C281.874 110.094 280.724 111.244 280.724 112.662C280.724 114.081 281.874 115.231 283.293 115.231Z" fill="#E04A76"/>
<path d="M286.007 103.026C287.425 103.026 288.575 101.876 288.575 100.457C288.575 99.0387 287.425 97.8887 286.007 97.8887C284.588 97.8887 283.438 99.0387 283.438 100.457C283.438 101.876 284.588 103.026 286.007 103.026Z" fill="#E04A76"/>
<path d="M277.071 107.335C278.49 107.335 279.64 106.185 279.64 104.766C279.64 103.348 278.49 102.198 277.071 102.198C275.652 102.198 274.502 103.348 274.502 104.766C274.502 106.185 275.652 107.335 277.071 107.335Z" fill="#E04A76"/>
<path d="M273.202 120.574C274.621 120.574 275.771 119.424 275.771 118.006C275.771 116.587 274.621 115.437 273.202 115.437C271.783 115.437 270.633 116.587 270.633 118.006C270.633 119.424 271.783 120.574 273.202 120.574Z" fill="#E04A76"/>
<path d="M357.026 234.082H326.466V304.282H357.026V234.082Z" fill="#ECC9AF"/>
<path d="M356.064 235.529H327.43V246.901H356.064V235.529Z" fill="#D8A68C"/>
<path d="M346.737 240.483H336.756V241.947H346.737V240.483Z" fill="#E9F5F6"/>
<path d="M356.064 248.348H327.43V259.72H356.064V248.348Z" fill="#D8A68C"/>
<path d="M346.737 253.302H336.756V254.766H346.737V253.302Z" fill="#E9F5F6"/>
<path d="M356.064 261.167H327.43V272.54H356.064V261.167Z" fill="#D8A68C"/>
<path d="M346.737 266.121H336.756V267.586H346.737V266.121Z" fill="#E9F5F6"/>
<path d="M356.064 273.986H327.43V285.358H356.064V273.986Z" fill="#D8A68C"/>
<path d="M346.737 278.94H336.756V280.405H346.737V278.94Z" fill="#E9F5F6"/>
<path d="M356.064 286.806H327.43V298.178H356.064V286.806Z" fill="#D8A68C"/>
<path d="M346.737 291.76H336.756V293.224H346.737V291.76Z" fill="#E9F5F6"/>
<path d="M357.025 304.282H370.157V234.082H357.025V304.282Z" fill="#DEA98F"/>
<path d="M357.026 231.314H324.99V234.082H357.026V231.314Z" fill="#E5BEB0"/>
<path d="M357.026 234.082H371.813V231.314H357.026V234.082Z" fill="#D89279"/>
<path d="M357.026 304.338H324.99V307.105H357.026V304.338Z" fill="#F6CFC2"/>
<path d="M357.026 307.105H371.813V304.337H357.026V307.105Z" fill="#D89279"/>
<path d="M346.398 213.915C346.398 213.915 349.078 196.375 338.679 197.964C328.281 199.552 341.899 216.031 346.398 213.915Z" fill="#79C5C8"/>
<path d="M349.14 208.92C349.14 208.92 347.53 198.458 342.307 190.65C337.083 182.842 355.53 179.4 349.14 208.92Z" fill="#79C5C8"/>
<path d="M352.384 213.964C352.384 213.964 351.837 195.83 360.539 196.837C369.241 197.844 353.015 211.404 352.384 213.964Z" fill="#79C5C8"/>
<path d="M348.217 223.497C348.13 223.497 348.046 223.467 347.979 223.413C347.911 223.358 347.864 223.282 347.846 223.198C347.816 223.064 344.856 209.767 340.005 202.679C339.972 202.638 339.949 202.591 339.936 202.541C339.923 202.49 339.92 202.438 339.928 202.386C339.936 202.335 339.954 202.286 339.982 202.242C340.009 202.198 340.046 202.16 340.088 202.13C340.131 202.101 340.18 202.081 340.231 202.071C340.282 202.061 340.334 202.061 340.385 202.072C340.436 202.083 340.484 202.105 340.526 202.135C340.568 202.166 340.604 202.204 340.63 202.249C345.564 209.459 348.558 222.902 348.587 223.034C348.599 223.089 348.598 223.147 348.585 223.202C348.572 223.258 348.547 223.31 348.511 223.354C348.476 223.398 348.431 223.434 348.379 223.459C348.328 223.483 348.272 223.496 348.215 223.496L348.217 223.497Z" fill="#317B6A"/>
<path d="M349.358 224.924C349.258 224.924 349.161 224.884 349.09 224.813C349.018 224.741 348.978 224.645 348.978 224.544C348.978 224.328 348.965 202.88 347.84 195.287C347.83 195.19 347.858 195.093 347.919 195.015C347.979 194.938 348.066 194.887 348.163 194.873C348.26 194.858 348.359 194.882 348.439 194.938C348.519 194.995 348.574 195.08 348.593 195.176C349.726 202.825 349.739 224.327 349.739 224.544C349.739 224.645 349.698 224.742 349.627 224.813C349.556 224.884 349.459 224.924 349.358 224.924Z" fill="#317B6A"/>
<path d="M350.647 222.975C350.55 222.96 350.463 222.909 350.403 222.831C350.344 222.753 350.316 222.655 350.327 222.558C350.396 221.932 352.158 207.228 357.261 202.478C357.335 202.411 357.432 202.376 357.532 202.38C357.631 202.385 357.725 202.428 357.794 202.501C357.862 202.574 357.898 202.671 357.896 202.77C357.893 202.87 357.851 202.965 357.779 203.034C352.881 207.593 351.104 222.495 351.083 222.644C351.071 222.744 351.02 222.835 350.941 222.898C350.862 222.961 350.761 222.99 350.661 222.978L350.647 222.975Z" fill="#317B6A"/>
<path d="M354.814 217.356H344.282V231.315H354.814V217.356Z" fill="#459C91"/>
<defs>
<linearGradient id="paint0_linear_642_1557" x1="58.6219" y1="53.7786" x2="417.432" y2="501.429" gradientUnits="userSpaceOnUse">
<stop stop-color="#CFDDE8"/>
<stop offset="1" stop-color="white"/>
</linearGradient>
<linearGradient id="paint1_linear_642_1557" x1="293.402" y1="362.923" x2="293.263" y2="250.995" gradientUnits="userSpaceOnUse">
<stop stop-color="#94CBCE"/>
<stop offset="1" stop-color="#BBC9E3"/>
</linearGradient>
<linearGradient id="paint2_linear_642_1557" x1="437.854" y1="357.01" x2="436.094" y2="248.234" gradientUnits="userSpaceOnUse">
<stop stop-color="#94CBCE"/>
<stop offset="1" stop-color="#BBC9E3"/>
</linearGradient>
<linearGradient id="paint3_linear_642_1557" x1="149.899" y1="280.154" x2="145.418" y2="273.146" gradientUnits="userSpaceOnUse">
<stop stop-color="#94CBCE"/>
<stop offset="1" stop-color="#BBC9E3"/>
</linearGradient>
<linearGradient id="paint4_linear_642_1557" x1="290.495" y1="160.896" x2="282.042" y2="159.782" gradientUnits="userSpaceOnUse">
<stop stop-color="#94CBCE"/>
<stop offset="1" stop-color="#BBC9E3"/>
</linearGradient>
<linearGradient id="paint5_linear_642_1557" x1="383.371" y1="500.222" x2="382.508" y2="496.698" gradientUnits="userSpaceOnUse">
<stop stop-color="#94CBCE"/>
<stop offset="1" stop-color="#BBC9E3"/>
</linearGradient>
<linearGradient id="paint6_linear_642_1557" x1="65.1526" y1="463.243" x2="56.0089" y2="454.612" gradientUnits="userSpaceOnUse">
<stop stop-color="#94CBCE"/>
<stop offset="1" stop-color="#BBC9E3"/>
</linearGradient>
<linearGradient id="paint7_linear_642_1557" x1="374.391" y1="210.879" x2="368.925" y2="210.014" gradientUnits="userSpaceOnUse">
<stop stop-color="#94CBCE"/>
<stop offset="1" stop-color="#BBC9E3"/>
</linearGradient>
<linearGradient id="paint8_linear_642_1557" x1="104.449" y1="331.177" x2="98.8355" y2="329.504" gradientUnits="userSpaceOnUse">
<stop stop-color="#94CBCE"/>
<stop offset="1" stop-color="#BBC9E3"/>
</linearGradient>
<linearGradient id="paint9_linear_642_1557" x1="285.618" y1="556.162" x2="283.825" y2="551.591" gradientUnits="userSpaceOnUse">
<stop stop-color="#94CBCE"/>
<stop offset="1" stop-color="#BBC9E3"/>
</linearGradient>
<linearGradient id="paint10_linear_642_1557" x1="440.1" y1="516.075" x2="399.457" y2="510.968" gradientUnits="userSpaceOnUse">
<stop stop-color="#94CBCE"/>
<stop offset="1" stop-color="#BBC9E3"/>
</linearGradient>
<linearGradient id="paint11_linear_642_1557" x1="93.0328" y1="267.656" x2="90.2277" y2="258.576" gradientUnits="userSpaceOnUse">
<stop stop-color="#94CBCE"/>
<stop offset="1" stop-color="#BBC9E3"/>
</linearGradient>
<linearGradient id="paint12_linear_642_1557" x1="273.715" y1="94.4304" x2="261.945" y2="91.4018" gradientUnits="userSpaceOnUse">
<stop stop-color="#94CBCE"/>
<stop offset="1" stop-color="#BBC9E3"/>
</linearGradient>
<linearGradient id="paint13_linear_642_1557" x1="437.9" y1="542.382" x2="437.339" y2="537.929" gradientUnits="userSpaceOnUse">
<stop stop-color="#94CBCE"/>
<stop offset="1" stop-color="#BBC9E3"/>
</linearGradient>
<linearGradient id="paint14_linear_642_1557" x1="-2.1577" y1="525.818" x2="-10.6464" y2="509.281" gradientUnits="userSpaceOnUse">
<stop stop-color="#94CBCE"/>
<stop offset="1" stop-color="#BBC9E3"/>
</linearGradient>
<linearGradient id="paint15_linear_642_1557" x1="384.645" y1="148.21" x2="375.731" y2="145.459" gradientUnits="userSpaceOnUse">
<stop stop-color="#94CBCE"/>
<stop offset="1" stop-color="#BBC9E3"/>
</linearGradient>
<linearGradient id="paint16_linear_642_1557" x1="43.8745" y1="341.943" x2="37.2571" y2="338.182" gradientUnits="userSpaceOnUse">
<stop stop-color="#94CBCE"/>
<stop offset="1" stop-color="#BBC9E3"/>
</linearGradient>
<linearGradient id="paint17_linear_642_1557" x1="303.332" y1="618.539" x2="301.955" y2="611.492" gradientUnits="userSpaceOnUse">
<stop stop-color="#94CBCE"/>
<stop offset="1" stop-color="#BBC9E3"/>
</linearGradient>
<linearGradient id="paint18_linear_642_1557" x1="500.855" y1="543.248" x2="448.21" y2="529.48" gradientUnits="userSpaceOnUse">
<stop stop-color="#94CBCE"/>
<stop offset="1" stop-color="#BBC9E3"/>
</linearGradient>
<linearGradient id="paint19_linear_642_1557" x1="48.0609" y1="509.372" x2="39.9963" y2="506.759" gradientUnits="userSpaceOnUse">
<stop stop-color="#94CBCE"/>
<stop offset="1" stop-color="#BBC9E3"/>
</linearGradient>
<linearGradient id="paint20_linear_642_1557" x1="44.9663" y1="206.208" x2="39.3795" y2="199.698" gradientUnits="userSpaceOnUse">
<stop stop-color="#94CBCE"/>
<stop offset="1" stop-color="#BBC9E3"/>
</linearGradient>
<linearGradient id="paint21_linear_642_1557" x1="591.96" y1="321.317" x2="587.609" y2="320.999" gradientUnits="userSpaceOnUse">
<stop stop-color="#94CBCE"/>
<stop offset="1" stop-color="#BBC9E3"/>
</linearGradient>
<linearGradient id="paint22_linear_642_1557" x1="285.463" y1="733.963" x2="272.026" y2="727.146" gradientUnits="userSpaceOnUse">
<stop stop-color="#94CBCE"/>
<stop offset="1" stop-color="#BBC9E3"/>
</linearGradient>
<linearGradient id="paint23_linear_642_1557" x1="136.692" y1="131.62" x2="131.669" y2="127.169" gradientUnits="userSpaceOnUse">
<stop stop-color="#94CBCE"/>
<stop offset="1" stop-color="#BBC9E3"/>
</linearGradient>
<linearGradient id="paint24_linear_642_1557" x1="78.3378" y1="582.156" x2="73.4257" y2="580.406" gradientUnits="userSpaceOnUse">
<stop stop-color="#94CBCE"/>
<stop offset="1" stop-color="#BBC9E3"/>
</linearGradient>
<linearGradient id="paint25_linear_642_1557" x1="531.665" y1="514.936" x2="524.966" y2="513.71" gradientUnits="userSpaceOnUse">
<stop stop-color="#94CBCE"/>
<stop offset="1" stop-color="#BBC9E3"/>
</linearGradient>
<linearGradient id="paint26_linear_642_1557" x1="575.337" y1="305.239" x2="570.681" y2="278.639" gradientUnits="userSpaceOnUse">
<stop stop-color="#94CBCE"/>
<stop offset="1" stop-color="#BBC9E3"/>
</linearGradient>
<linearGradient id="paint27_linear_642_1557" x1="77.333" y1="441.325" x2="67.4764" y2="438.454" gradientUnits="userSpaceOnUse">
<stop stop-color="#94CBCE"/>
<stop offset="1" stop-color="#BBC9E3"/>
</linearGradient>
<linearGradient id="paint28_linear_642_1557" x1="118.96" y1="186.759" x2="112.384" y2="178.718" gradientUnits="userSpaceOnUse">
<stop stop-color="#94CBCE"/>
<stop offset="1" stop-color="#BBC9E3"/>
</linearGradient>
<linearGradient id="paint29_linear_642_1557" x1="532.028" y1="377.869" x2="526.746" y2="377.526" gradientUnits="userSpaceOnUse">
<stop stop-color="#94CBCE"/>
<stop offset="1" stop-color="#BBC9E3"/>
</linearGradient>
<linearGradient id="paint30_linear_642_1557" x1="211.164" y1="655.813" x2="194.546" y2="648.205" gradientUnits="userSpaceOnUse">
<stop stop-color="#94CBCE"/>
<stop offset="1" stop-color="#BBC9E3"/>
</linearGradient>
<linearGradient id="paint31_linear_642_1557" x1="208.699" y1="151.197" x2="202.765" y2="145.621" gradientUnits="userSpaceOnUse">
<stop stop-color="#94CBCE"/>
<stop offset="1" stop-color="#BBC9E3"/>
</linearGradient>
<linearGradient id="paint32_linear_642_1557" x1="83.7551" y1="510.259" x2="77.7895" y2="507.963" gradientUnits="userSpaceOnUse">
<stop stop-color="#94CBCE"/>
<stop offset="1" stop-color="#BBC9E3"/>
</linearGradient>
<linearGradient id="paint33_linear_642_1557" x1="458.007" y1="532.335" x2="449.892" y2="531.014" gradientUnits="userSpaceOnUse">
<stop stop-color="#94CBCE"/>
<stop offset="1" stop-color="#BBC9E3"/>
</linearGradient>
<linearGradient id="paint34_linear_642_1557" x1="540.201" y1="371.183" x2="533.238" y2="337.808" gradientUnits="userSpaceOnUse">
<stop stop-color="#94CBCE"/>
<stop offset="1" stop-color="#BBC9E3"/>
</linearGradient>
<linearGradient id="paint35_linear_642_1557" x1="25.8508" y1="259.737" x2="22.969" y2="253.158" gradientUnits="userSpaceOnUse">
<stop stop-color="#94CBCE"/>
<stop offset="1" stop-color="#BBC9E3"/>
</linearGradient>
<linearGradient id="paint36_linear_642_1557" x1="67.4086" y1="203.102" x2="58.6976" y2="201.193" gradientUnits="userSpaceOnUse">
<stop stop-color="#94CBCE"/>
<stop offset="1" stop-color="#BBC9E3"/>
</linearGradient>
<linearGradient id="paint37_linear_642_1557" x1="28.323" y1="233.368" x2="19.3806" y2="231.164" gradientUnits="userSpaceOnUse">
<stop stop-color="#94CBCE"/>
<stop offset="1" stop-color="#BBC9E3"/>
</linearGradient>
<linearGradient id="paint38_linear_642_1557" x1="-52.9357" y1="381.193" x2="-54.639" y2="377.248" gradientUnits="userSpaceOnUse">
<stop stop-color="#94CBCE"/>
<stop offset="1" stop-color="#BBC9E3"/>
</linearGradient>
<linearGradient id="paint39_linear_642_1557" x1="-101.665" y1="218.876" x2="-104.882" y2="209.148" gradientUnits="userSpaceOnUse">
<stop stop-color="#94CBCE"/>
<stop offset="1" stop-color="#BBC9E3"/>
</linearGradient>
<linearGradient id="paint40_linear_642_1557" x1="80.9354" y1="208.052" x2="75.2582" y2="207.055" gradientUnits="userSpaceOnUse">
<stop stop-color="#94CBCE"/>
<stop offset="1" stop-color="#BBC9E3"/>
</linearGradient>
<linearGradient id="paint41_linear_642_1557" x1="8.12425" y1="346.763" x2="6.28136" y2="342.037" gradientUnits="userSpaceOnUse">
<stop stop-color="#94CBCE"/>
<stop offset="1" stop-color="#BBC9E3"/>
</linearGradient>
<linearGradient id="paint42_linear_642_1557" x1="117.806" y1="187.988" x2="105.196" y2="153.143" gradientUnits="userSpaceOnUse">
<stop stop-color="#94CBCE"/>
<stop offset="1" stop-color="#BBC9E3"/>
</linearGradient>
<linearGradient id="paint43_linear_642_1557" x1="53.7272" y1="177.771" x2="51.6689" y2="171.429" gradientUnits="userSpaceOnUse">
<stop stop-color="#94CBCE"/>
<stop offset="1" stop-color="#BBC9E3"/>
</linearGradient>
<linearGradient id="paint44_linear_642_1557" x1="112.623" y1="129.267" x2="104.136" y2="128.291" gradientUnits="userSpaceOnUse">
<stop stop-color="#94CBCE"/>
<stop offset="1" stop-color="#BBC9E3"/>
</linearGradient>
<linearGradient id="paint45_linear_642_1557" x1="58.0035" y1="147.283" x2="49.274" y2="146.168" gradientUnits="userSpaceOnUse">
<stop stop-color="#94CBCE"/>
<stop offset="1" stop-color="#BBC9E3"/>
</linearGradient>
<linearGradient id="paint46_linear_642_1557" x1="-67.4336" y1="290.555" x2="-68.5124" y2="286.814" gradientUnits="userSpaceOnUse">
<stop stop-color="#94CBCE"/>
<stop offset="1" stop-color="#BBC9E3"/>
</linearGradient>
<linearGradient id="paint47_linear_642_1557" x1="-71.0633" y1="100.406" x2="-81.3828" y2="92.2131" gradientUnits="userSpaceOnUse">
<stop stop-color="#94CBCE"/>
<stop offset="1" stop-color="#BBC9E3"/>
</linearGradient>
<linearGradient id="paint48_linear_642_1557" x1="128.564" y1="135.75" x2="122.899" y2="134.808" gradientUnits="userSpaceOnUse">
<stop stop-color="#94CBCE"/>
<stop offset="1" stop-color="#BBC9E3"/>
</linearGradient>
<linearGradient id="paint49_linear_642_1557" x1="9.6475" y1="260.18" x2="7.11044" y2="255.351" gradientUnits="userSpaceOnUse">
<stop stop-color="#94CBCE"/>
<stop offset="1" stop-color="#BBC9E3"/>
</linearGradient>
<linearGradient id="paint50_linear_642_1557" x1="176.007" y1="123.867" x2="132.825" y2="111.931" gradientUnits="userSpaceOnUse">
<stop stop-color="#94CBCE"/>
<stop offset="1" stop-color="#BBC9E3"/>
</linearGradient>
<linearGradient id="paint51_linear_642_1557" x1="261.46" y1="87.5984" x2="251.517" y2="85.4423" gradientUnits="userSpaceOnUse">
<stop stop-color="#94CBCE"/>
<stop offset="1" stop-color="#BBC9E3"/>
</linearGradient>
<linearGradient id="paint52_linear_642_1557" x1="336.985" y1="85.2743" x2="333.348" y2="76.3104" gradientUnits="userSpaceOnUse">
<stop stop-color="#94CBCE"/>
<stop offset="1" stop-color="#BBC9E3"/>
</linearGradient>
<linearGradient id="paint53_linear_642_1557" x1="266.459" y1="53.7524" x2="262.328" y2="44.4925" gradientUnits="userSpaceOnUse">
<stop stop-color="#94CBCE"/>
<stop offset="1" stop-color="#BBC9E3"/>
</linearGradient>
<linearGradient id="paint54_linear_642_1557" x1="91.3119" y1="105.064" x2="85.3582" y2="103.9" gradientUnits="userSpaceOnUse">
<stop stop-color="#94CBCE"/>
<stop offset="1" stop-color="#BBC9E3"/>
</linearGradient>
<linearGradient id="paint55_linear_642_1557" x1="202.172" y1="-50.7431" x2="191.131" y2="-62.43" gradientUnits="userSpaceOnUse">
<stop stop-color="#94CBCE"/>
<stop offset="1" stop-color="#BBC9E3"/>
</linearGradient>
<linearGradient id="paint56_linear_642_1557" x1="356.286" y1="101.921" x2="352.237" y2="95.9977" gradientUnits="userSpaceOnUse">
<stop stop-color="#94CBCE"/>
<stop offset="1" stop-color="#BBC9E3"/>
</linearGradient>
<linearGradient id="paint57_linear_642_1557" x1="182.683" y1="111.535" x2="175.429" y2="109.049" gradientUnits="userSpaceOnUse">
<stop stop-color="#94CBCE"/>
<stop offset="1" stop-color="#BBC9E3"/>
</linearGradient>
<linearGradient id="paint58_linear_642_1557" x1="408.124" y1="127.568" x2="399.84" y2="87.5937" gradientUnits="userSpaceOnUse">
<stop stop-color="#94CBCE"/>
<stop offset="1" stop-color="#BBC9E3"/>
</linearGradient>
<linearGradient id="paint59_linear_642_1557" x1="140.426" y1="204.233" x2="128.419" y2="171.599" gradientUnits="userSpaceOnUse">
<stop stop-color="#94CBCE"/>
<stop offset="1" stop-color="#BBC9E3"/>
</linearGradient>
<linearGradient id="paint60_linear_642_1557" x1="136.708" y1="222.447" x2="128.112" y2="189.715" gradientUnits="userSpaceOnUse">
<stop stop-color="#94CBCE"/>
<stop offset="1" stop-color="#BBC9E3"/>
</linearGradient>
<linearGradient id="paint61_linear_642_1557" x1="5.14372" y1="368.044" x2="-31.9999" y2="340.773" gradientUnits="userSpaceOnUse">
<stop stop-color="#94CBCE"/>
<stop offset="1" stop-color="#BBC9E3"/>
</linearGradient>
<linearGradient id="paint62_linear_642_1557" x1="179.102" y1="129.847" x2="158.628" y2="106.793" gradientUnits="userSpaceOnUse">
<stop stop-color="#94CBCE"/>
<stop offset="1" stop-color="#BBC9E3"/>
</linearGradient>
<linearGradient id="paint63_linear_642_1557" x1="172.802" y1="139.342" x2="164.404" y2="114.728" gradientUnits="userSpaceOnUse">
<stop stop-color="#94CBCE"/>
<stop offset="1" stop-color="#BBC9E3"/>
</linearGradient>
<linearGradient id="paint64_linear_642_1557" x1="-25.8914" y1="295.403" x2="-60.1863" y2="284.165" gradientUnits="userSpaceOnUse">
<stop stop-color="#94CBCE"/>
<stop offset="1" stop-color="#BBC9E3"/>
</linearGradient>
<linearGradient id="paint65_linear_642_1557" x1="290.327" y1="117.526" x2="261.28" y2="113.09" gradientUnits="userSpaceOnUse">
<stop stop-color="#94CBCE"/>
<stop offset="1" stop-color="#BBC9E3"/>
</linearGradient>
<linearGradient id="paint66_linear_642_1557" x1="281.973" y1="133.892" x2="251.665" y2="128.819" gradientUnits="userSpaceOnUse">
<stop stop-color="#94CBCE"/>
<stop offset="1" stop-color="#BBC9E3"/>
</linearGradient>
<linearGradient id="paint67_linear_642_1557" x1="38.9399" y1="180.408" x2="11.188" y2="156.226" gradientUnits="userSpaceOnUse">
<stop stop-color="#94CBCE"/>
<stop offset="1" stop-color="#BBC9E3"/>
</linearGradient>
<linearGradient id="paint68_linear_642_1557" x1="332.89" y1="47.5211" x2="307.592" y2="42.1031" gradientUnits="userSpaceOnUse">
<stop stop-color="#94CBCE"/>
<stop offset="1" stop-color="#BBC9E3"/>
</linearGradient>
<linearGradient id="paint69_linear_642_1557" x1="327.367" y1="58.7128" x2="301.795" y2="55.9246" gradientUnits="userSpaceOnUse">
<stop stop-color="#94CBCE"/>
<stop offset="1" stop-color="#BBC9E3"/>
</linearGradient>
<linearGradient id="paint70_linear_642_1557" x1="6.0034" y1="107.156" x2="-18.5455" y2="89.9386" gradientUnits="userSpaceOnUse">
<stop stop-color="#94CBCE"/>
<stop offset="1" stop-color="#BBC9E3"/>
</linearGradient>
<linearGradient id="paint71_linear_642_1557" x1="494.546" y1="59.9734" x2="473.113" y2="42.8621" gradientUnits="userSpaceOnUse">
<stop stop-color="#94CBCE"/>
<stop offset="1" stop-color="#BBC9E3"/>
</linearGradient>
<linearGradient id="paint72_linear_642_1557" x1="489.66" y1="67.3204" x2="463.529" y2="62.6123" gradientUnits="userSpaceOnUse">
<stop stop-color="#94CBCE"/>
<stop offset="1" stop-color="#BBC9E3"/>
</linearGradient>
<linearGradient id="paint73_linear_642_1557" x1="125.755" y1="-15.141" x2="118.051" y2="-37.3405" gradientUnits="userSpaceOnUse">
<stop stop-color="#94CBCE"/>
<stop offset="1" stop-color="#BBC9E3"/>
</linearGradient>
<linearGradient id="paint74_linear_642_1557" x1="313.929" y1="282.015" x2="128.179" y2="120.44" gradientUnits="userSpaceOnUse">
<stop stop-color="#47ACD0"/>
<stop offset="1" stop-color="#4C68AF"/>
</linearGradient>
<linearGradient id="paint75_linear_642_1557" x1="326.07" y1="289.016" x2="174.653" y2="106.605" gradientUnits="userSpaceOnUse">
<stop stop-color="#CD85B5"/>
<stop offset="1" stop-color="#CA92BF"/>
</linearGradient>
</defs>
</svg>
