<?xml version="1.0" standalone="no"?><!DOCTYPE svg PUBLIC "-//W3C//DTD SVG 1.1//EN" "http://www.w3.org/Graphics/SVG/1.1/DTD/svg11.dtd"><svg class="icon" width="250px" height="250.00px" viewBox="0 0 1024 1024" version="1.1" xmlns="http://www.w3.org/2000/svg"><path fill="#1296db" d="M992 320c-43.904 0-66.72 24.32-83.392 42.08-14.272 15.2-21.248 21.92-36.768 21.92s-22.496-6.72-36.736-21.92C818.432 344.352 795.584 320 751.68 320c-43.84 0-66.656 24.32-83.328 42.112-14.24 15.168-21.152 21.888-36.64 21.888s-22.4-6.72-36.608-21.888c-16.64-17.76-39.456-42.112-83.328-42.112s-66.656 24.32-83.328 42.112c-14.208 15.168-21.12 21.888-36.576 21.888-15.488 0-22.432-6.72-36.64-21.888C338.56 344.352 315.744 320 271.904 320s-66.656 24.32-83.328 42.112C174.4 377.28 167.424 384 152 384s-22.4-6.72-36.64-21.888C98.688 344.352 75.872 320 32 320a32 32 0 1 0 0 64c15.456 0 22.4 6.72 36.64 21.888 16.64 17.76 39.456 42.112 83.328 42.112s66.656-24.32 83.296-42.112c14.208-15.168 21.184-21.888 36.64-21.888s22.4 6.72 36.64 21.888c16.64 17.76 39.456 42.112 83.328 42.112 43.84 0 66.656-24.32 83.296-42.112 14.208-15.168 21.12-21.888 36.608-21.888s22.4 6.72 36.64 21.888c16.64 17.76 39.456 42.112 83.296 42.112s66.688-24.32 83.328-42.112c14.24-15.168 21.184-21.888 36.64-21.888 15.552 0 22.496 6.72 36.768 21.92 16.64 17.728 39.52 42.08 83.392 42.08s66.752-24.32 83.424-42.08C969.504 390.72 976.48 384 992 384a32 32 0 1 0 0-64zM992 448c-43.904 0-66.72 24.32-83.392 42.08-14.272 15.2-21.248 21.92-36.768 21.92s-22.496-6.72-36.736-21.92C818.432 472.352 795.584 448 751.68 448c-43.84 0-66.656 24.32-83.328 42.112-14.24 15.168-21.152 21.888-36.64 21.888s-22.4-6.72-36.608-21.888c-16.64-17.76-39.456-42.112-83.328-42.112s-66.656 24.32-83.328 42.112c-14.208 15.168-21.12 21.888-36.576 21.888-15.488 0-22.432-6.72-36.64-21.888C338.56 472.352 315.744 448 271.904 448s-66.656 24.32-83.328 42.112C174.4 505.28 167.424 512 152 512s-22.4-6.72-36.64-21.888C98.688 472.352 75.872 448 32 448a32 32 0 1 0 0 64c15.456 0 22.4 6.72 36.64 21.888 16.64 17.76 39.456 42.112 83.328 42.112s66.656-24.32 83.296-42.112c14.208-15.168 21.184-21.888 36.64-21.888s22.4 6.72 36.64 21.888c16.64 17.76 39.456 42.112 83.328 42.112 43.84 0 66.656-24.32 83.296-42.112 14.208-15.168 21.12-21.888 36.608-21.888s22.4 6.72 36.64 21.888c16.64 17.76 39.456 42.112 83.296 42.112s66.688-24.32 83.328-42.112c14.24-15.168 21.184-21.888 36.64-21.888 15.552 0 22.496 6.72 36.768 21.92 16.64 17.728 39.52 42.08 83.392 42.08s66.752-24.32 83.424-42.08C969.504 518.72 976.48 512 992 512a32 32 0 1 0 0-64zM992 576c-43.904 0-66.72 24.32-83.392 42.08-14.272 15.2-21.248 21.92-36.768 21.92s-22.496-6.72-36.736-21.92C818.432 600.352 795.584 576 751.68 576c-43.84 0-66.656 24.32-83.328 42.112-14.24 15.168-21.152 21.888-36.64 21.888s-22.4-6.72-36.608-21.888c-16.64-17.76-39.456-42.112-83.328-42.112s-66.656 24.32-83.328 42.112c-14.208 15.168-21.12 21.888-36.576 21.888-15.488 0-22.432-6.72-36.64-21.888C338.56 600.352 315.744 576 271.904 576s-66.656 24.32-83.328 42.112C174.4 633.28 167.424 640 152 640s-22.4-6.72-36.64-21.888C98.688 600.352 75.872 576 32 576a32 32 0 1 0 0 64c15.456 0 22.4 6.72 36.64 21.888 16.64 17.76 39.456 42.112 83.328 42.112s66.656-24.32 83.296-42.112c14.208-15.168 21.184-21.888 36.64-21.888s22.4 6.72 36.64 21.888c16.64 17.76 39.456 42.112 83.328 42.112 43.84 0 66.656-24.32 83.296-42.112 14.208-15.168 21.12-21.888 36.608-21.888s22.4 6.72 36.64 21.888c16.64 17.76 39.456 42.112 83.296 42.112s66.688-24.32 83.328-42.112c14.24-15.168 21.184-21.888 36.64-21.888 15.552 0 22.496 6.72 36.768 21.92 16.64 17.728 39.52 42.08 83.392 42.08s66.752-24.32 83.424-42.08C969.504 646.72 976.48 640 992 640a32 32 0 1 0 0-64z"  /></svg>