<?xml version="1.0" standalone="no"?><!DOCTYPE svg PUBLIC "-//W3C//DTD SVG 1.1//EN" "http://www.w3.org/Graphics/SVG/1.1/DTD/svg11.dtd"><svg class="icon" width="250px" height="250.00px" viewBox="0 0 1024 1024" version="1.1" xmlns="http://www.w3.org/2000/svg"><path d="M512 453.376c10.848-25.12 33.92-47.648 60.256-52.32 26.368-4.672 55.168 6.336 71.04 28.448 8.576 12 12.928 26.368 12.704 40.768-0.448 27.68-19.136 47.136-36.48 67.936-19.616 23.584-39.712 47.296-59.2 70.688l-33.536 40.192a19.296 19.296 0 0 1-29.568 0l-33.536-40.192c-19.488-23.392-39.584-47.104-59.2-70.688-17.344-20.8-36.032-40.256-36.48-67.936-0.224-14.4 4.128-28.8 12.704-40.768 15.872-22.112 44.672-33.12 71.04-28.448 26.336 4.672 49.408 27.2 60.256 52.32z" fill="#E0EBFE" /><path d="M484.896 659.328a35.2 35.2 0 0 0 54.176 0l97.504-116.512c16.352-19.424 34.88-41.472 35.424-72.32a84.608 84.608 0 0 0-15.712-50.304c-18.816-26.304-54.048-40.704-86.784-34.88-21.632 3.84-42.368 17.504-57.504 36.928-15.136-19.424-35.872-33.088-57.504-36.928-32.736-5.824-67.968 8.576-86.784 34.88A84.704 84.704 0 0 0 352 470.496c0.544 30.816 19.072 52.864 35.424 72.288l97.472 116.512z m-91.2-220.512c10.112-14.08 27.68-22.816 45.824-22.816a54.4 54.4 0 0 1 9.408 0.8c19.328 3.456 38.784 20.672 48.384 42.912 5.056 11.712 24.32 11.712 29.376 0 9.6-22.24 29.056-39.456 48.384-42.88 20.832-3.744 43.36 5.44 55.2 21.984 6.432 8.96 9.888 20.064 9.728 31.168-0.32 19.456-13.12 34.656-27.904 52.224l-97.6 116.64A3.136 3.136 0 0 1 512 640l-100.096-117.792c-14.784-17.6-27.584-32.768-27.904-52.192a52.608 52.608 0 0 1 9.728-31.2z" fill="#5465CF" /><path d="M640 0h-256a32 32 0 0 0-32 32v192H288a32 32 0 0 0-32 32v512a32 32 0 0 0 32 32h64v192a32 32 0 0 0 32 32h256a32 32 0 0 0 32-32v-192h64a32 32 0 0 0 32-32V256a32 32 0 0 0-32-32h-64V32a32 32 0 0 0-32-32z m-224 64h192v160h-192V64z m192 896h-192v-160h192v160z m96-672v448H320V288h384z" fill="#5465CF" /></svg>