<?xml version="1.0" standalone="no"?><!DOCTYPE svg PUBLIC "-//W3C//DTD SVG 1.1//EN" "http://www.w3.org/Graphics/SVG/1.1/DTD/svg11.dtd"><svg class="icon" width="250px" height="250.00px" viewBox="0 0 1024 1024" version="1.1" xmlns="http://www.w3.org/2000/svg"><path fill="#1296db" d="M989.888 448.064l-341.664 22.784a2064 2064 0 0 1-272.448 0l-341.664-22.784a32.64 32.64 0 0 0-24 8.576A32 32 0 0 0 0 480c0 136.768 53.248 265.344 149.984 362.016C246.624 938.72 375.232 992 512 992s265.376-53.28 362.016-149.984A508.544 508.544 0 0 0 1024 480a32 32 0 0 0-10.112-23.36 32.832 32.832 0 0 0-24-8.576zM828.768 796.8C744.192 881.408 631.68 928 512 928s-232.192-46.592-316.8-131.2a444.704 444.704 0 0 1-129.92-282.496l306.24 20.384c93.12 6.24 187.84 6.24 280.96 0l306.24-20.384a444.704 444.704 0 0 1-129.92 282.464zM377.088 33.6c-29.216 13.984-52.736 42.88-64.64 79.232a179.968 179.968 0 0 0 0.576 111.36c6.56 19.36 16.16 36.032 25.44 52.128 3.872 6.72 7.744 13.44 11.424 20.352 13.664 26.048 19.296 49.344 16.704 69.248a16 16 0 0 0 31.744 4.16c3.488-26.56-3.296-56.288-20.16-88.288-3.808-7.296-7.904-14.4-12-21.44-8.864-15.456-17.28-30.048-22.816-46.4a149.344 149.344 0 0 1-0.448-91.2c9.024-27.68 26.976-50.24 48-60.32a16 16 0 1 0-13.824-28.864z"  /><path fill="#1296db" d="M473.088 33.6c-29.216 13.984-52.736 42.88-64.64 79.232a179.968 179.968 0 0 0 0.576 111.36c6.56 19.36 16.16 36.032 25.44 52.128 3.872 6.72 7.744 13.44 11.424 20.352 13.664 26.048 19.296 49.344 16.704 69.248a16 16 0 0 0 31.744 4.16c3.488-26.56-3.296-56.288-20.16-88.288-3.808-7.296-7.904-14.4-12-21.44-8.864-15.456-17.28-30.048-22.816-46.4a149.344 149.344 0 0 1-0.448-91.2c9.024-27.68 26.976-50.24 48-60.32a16 16 0 1 0-13.824-28.864z"  /><path fill="#1296db" d="M569.088 33.6c-29.216 13.984-52.736 42.88-64.64 79.232a179.968 179.968 0 0 0 0.576 111.36c6.56 19.36 16.16 36.032 25.44 52.128 3.872 6.72 7.744 13.44 11.424 20.352 13.664 26.048 19.296 49.344 16.704 69.248a16 16 0 0 0 31.744 4.16c3.488-26.56-3.296-56.288-20.16-88.288-3.808-7.296-7.904-14.4-12-21.44-8.864-15.456-17.28-30.048-22.816-46.4a149.344 149.344 0 0 1-0.448-91.2c9.024-27.68 26.976-50.24 48-60.32a16 16 0 1 0-13.824-28.864z"  /><path fill="#1296db" d="M678.912 62.4a16 16 0 1 0-13.824-28.8c-29.216 13.984-52.736 42.88-64.64 79.232a179.968 179.968 0 0 0 0.576 111.36c6.56 19.36 16.16 36.032 25.44 52.128 3.872 6.72 7.744 13.44 11.424 20.352 13.664 26.048 19.296 49.344 16.704 69.248a16 16 0 0 0 31.744 4.16c3.488-26.56-3.296-56.288-20.16-88.288-3.808-7.296-7.904-14.4-12-21.44-8.864-15.456-17.28-30.048-22.816-46.4a149.344 149.344 0 0 1-0.448-91.2c9.024-27.68 26.976-50.24 48-60.32z"  /></svg>