<?xml version="1.0" standalone="no"?><!DOCTYPE svg PUBLIC "-//W3C//DTD SVG 1.1//EN" "http://www.w3.org/Graphics/SVG/1.1/DTD/svg11.dtd"><svg class="icon" width="250px" height="250.00px" viewBox="0 0 1024 1024" version="1.1" xmlns="http://www.w3.org/2000/svg"><path d="M608.64 201.248c-27.488-34.72-70.624-56.384-114.016-57.216a142.464 142.464 0 0 0-112.928 52.832c45.696 2.624 88.896 36.736 102.72 81.152l124.224-76.8zM32 590.976l111.712 33.792 111.744 33.76-34.08 110.72L187.264 880l-25.632-84.64a391.808 391.808 0 0 0-73.088-136.032L32 590.976z" fill="#E0EBFE" /><path d="M973.632 219.616c-62.848-34.048-137.184-52.032-214.976-52.032-41.408 0-83.168 5.248-124.256 15.104-0.32-0.384-0.32-0.896-0.64-1.28-33.6-42.432-85.376-68.352-138.496-69.376a172.928 172.928 0 0 0-138.592 64.928 32 32 0 0 0 23.232 51.84c25.12 1.44 49.792 17.088 64.192 38.816-125.728 86.08-206.912 214.976-218.88 348.352L41.28 560.32a32 32 0 0 0-33.92 51.008l56.512 68.384a357.664 357.664 0 0 1 67.136 124.896l25.664 84.64a32 32 0 0 0 30.56 22.72h0.064a32 32 0 0 0 30.56-22.592l56.064-182.144c62.784 34.304 136.384 52.48 215.68 52.48 88.096 0 177.664-22.688 259.072-65.664 155.296-81.92 260.64-228.096 274.88-381.376a95.776 95.776 0 0 0-49.92-93.12zM187.36 770.976a420.544 420.544 0 0 0-63.68-118.848l91.712 27.744-28.032 91.072zM494.016 176c25.76 0.48 51.744 10.784 72.192 27.648a578.24 578.24 0 0 0-64.8 29.184l-2.88 1.664a151.84 151.84 0 0 0-49.984-49.344 105.984 105.984 0 0 1 45.472-9.152z m224.768 461.44c-72.224 38.144-151.456 58.304-229.152 58.304-75.936 0-145.472-18.752-202.176-54.4 3.776-138.176 97.92-274.88 243.84-351.904 134.4-70.912 297.024-75.808 411.84-13.568 11.52 6.208 17.92 18.048 16.736 30.88-12.32 132-104.64 258.72-241.088 330.72z" fill="#5465CF" /><path d="M823.104 321.856c17.664 0 32.032-14.336 32.096-32a31.904 31.904 0 0 0-31.936-32h-0.16a32 32 0 1 0 0 64zM848 448a80.096 80.096 0 0 1-80-80 16 16 0 1 0-32 0c0 61.76 50.24 112 112 112a16 16 0 1 0 0-32z" fill="#5465CF" /></svg>