<?xml version="1.0" standalone="no"?><!DOCTYPE svg PUBLIC "-//W3C//DTD SVG 1.1//EN" "http://www.w3.org/Graphics/SVG/1.1/DTD/svg11.dtd"><svg class="icon" width="250px" height="250.00px" viewBox="0 0 1024 1024" version="1.1" xmlns="http://www.w3.org/2000/svg"><path d="M207.904 928L96 873.344 240.096 608 352 662.656zM816.096 928L928 873.344 783.904 608 672 662.656z" fill="#E0EBFE" /><path d="M958.496 883.072c2.656-8.32 1.792-17.344-2.368-25.024l-144.096-265.312a32 32 0 0 0-42.176-13.472l-22.848 11.168-73.696-147.392A223.04 223.04 0 0 0 736 288c0-123.52-100.48-224-224-224S288 164.48 288 288a223.04 223.04 0 0 0 62.72 155.04L276.96 590.4l-22.848-11.2a32 32 0 0 0-42.176 13.504l-144.096 265.312a32.032 32.032 0 0 0 14.08 44.032l111.904 54.656a31.904 31.904 0 0 0 42.176-13.472l144.096-265.312a32.032 32.032 0 0 0-14.08-44.032l-31.52-15.392 67.712-135.456a222.4 222.4 0 0 0 219.52 0l67.712 135.456-31.52 15.392a31.968 31.968 0 0 0-14.08 44.032l144.096 265.312a32 32 0 0 0 42.176 13.472l111.904-54.656a31.968 31.968 0 0 0 16.448-19.008z m-764.096 2.72l-54.336-26.56 113.536-209.024 54.336 26.56-113.536 209.024zM512 448c-88.224 0-160-71.776-160-160s71.776-160 160-160 160 71.776 160 160-71.776 160-160 160z m317.6 437.792l-113.536-209.024 54.336-26.56 113.536 209.024-54.336 26.56z" fill="#5465CF" /></svg>