<?xml version="1.0" standalone="no"?><!DOCTYPE svg PUBLIC "-//W3C//DTD SVG 1.1//EN" "http://www.w3.org/Graphics/SVG/1.1/DTD/svg11.dtd"><svg class="icon" width="250px" height="250.00px" viewBox="0 0 1024 1024" version="1.1" xmlns="http://www.w3.org/2000/svg"><path d="M512.02464 269.44c36.16-81.6 113.024-154.784 200.896-169.984 87.872-15.2 183.84 20.512 236.704 92.416A217.76 217.76 0 0 1 992.02464 324.352c-1.504 89.984-63.776 153.184-121.504 220.832-65.408 76.672-132.48 153.696-197.44 229.696l-111.712 130.656c-25.6 29.952-73.024 29.952-98.624 0l-111.68-130.656c-65.024-76-132.064-153.024-197.44-229.696-57.76-67.648-120-130.848-121.536-220.832a217.76 217.76 0 0 1 42.368-132.48c52.864-71.904 148.8-107.616 236.704-92.416S475.89664 187.84 512.02464 269.44z" fill="#E0EBFE" /><path d="M129.24064 565.952a29129.632 29129.632 0 0 0 104.576 121.728c31.168 36.16 62.24 72.192 92.864 108l111.68 130.656A96.64 96.64 0 0 0 512.02464 960c28.48 0 55.328-12.256 73.632-33.664l111.712-130.656c30.624-35.84 61.696-71.872 92.864-108a29129.632 29129.632 0 0 0 104.576-121.728l15.68-18.208c55.04-63.648 111.936-129.44 113.504-222.88a250.88 250.88 0 0 0-48.576-151.968C926.00864 105.728 841.01664 64 753.52864 64c-15.52 0-31.04 1.312-46.08 3.936-75.328 13.024-147.52 64.16-195.424 135.52-47.904-71.36-120.128-122.496-195.424-135.52A270.4 270.4 0 0 0 270.52064 64C183.06464 64 98.04064 105.728 48.63264 172.896a250.88 250.88 0 0 0-48.576 152c1.6 93.44 58.464 159.2 113.504 222.848l15.68 18.208zM100.18464 210.816C137.75264 159.744 203.03264 128 270.52064 128c11.872 0 23.68 0.992 35.168 2.976 71.264 12.352 142.4 73.184 177.088 151.424a32 32 0 0 0 58.528 0c34.624-78.24 105.792-139.072 177.056-151.424a206.56 206.56 0 0 1 35.2-2.976c67.456 0 132.736 31.744 170.304 82.816a186.56 186.56 0 0 1 36.128 112.992c-1.184 70.208-48.16 124.544-97.92 182.08l-15.936 18.56c-34.528 40.416-69.472 80.96-104.352 121.44-31.232 36.16-62.4 72.32-93.088 108.192l-111.68 130.656c-12.256 14.304-37.76 14.336-49.984 0l-111.68-130.656c-30.72-35.872-61.856-72-93.088-108.192-34.88-40.48-69.824-81.024-104.32-121.472l-16-18.528c-49.728-57.536-96.704-111.872-97.888-182.08a186.56 186.56 0 0 1 36.16-112.992z" fill="#5465CF" /><path d="M178.80864 326.24c0-44.128 35.904-80 80-80a16 16 0 1 0 0-32c-61.76 0-112 50.24-112 112a16 16 0 1 0 32 0z" fill="#5465CF" /></svg>