<?xml version="1.0" standalone="no"?><!DOCTYPE svg PUBLIC "-//W3C//DTD SVG 1.1//EN" "http://www.w3.org/Graphics/SVG/1.1/DTD/svg11.dtd"><svg class="icon" width="250px" height="250.00px" viewBox="0 0 1024 1024" version="1.1" xmlns="http://www.w3.org/2000/svg"><path d="M607.296 240h-190.592a79.776 79.776 0 0 1-79.776-79.776v-0.448A79.776 79.776 0 0 1 416.704 80h190.592a79.776 79.776 0 0 1 79.776 79.776v0.448A79.776 79.776 0 0 1 607.296 240z" fill="#E0EBFE" /><path d="M326.816 128H224a32 32 0 0 0-32 32v832a32 32 0 0 0 32 32h576a32 32 0 0 0 32-32V160a32 32 0 0 0-32-32h-102.752a95.648 95.648 0 0 0-89.952-64h-31.616c0.064-0.544 0.32-1.024 0.32-1.6C576 28 548 0 513.6 0h-3.2C476 0 448 28 448 62.4c0 0.576 0.256 1.056 0.32 1.6h-31.616a95.552 95.552 0 0 0-89.888 64z m370.368 64H768v768H256V192h70.752c13.184 37.152 48.32 64 89.952 64h190.592a95.552 95.552 0 0 0 89.888-64zM480 62.4c0-16.768 13.632-30.4 30.4-30.4h3.2c16.768 0 30.4 13.632 30.4 30.4 0 0.576 0.256 1.056 0.32 1.6h-64.64c0.064-0.544 0.32-1.024 0.32-1.6zM607.296 96c35.168 0 63.776 28.608 63.776 64.224 0 35.168-28.608 63.776-63.776 63.776h-190.592c-35.168 0-63.776-28.608-63.776-64.224 0-35.168 28.608-63.776 63.776-63.776h190.592z" fill="#5465CF" /><path d="M320 336a16 16 0 0 0 16 16h352a16 16 0 1 0 0-32h-352a16 16 0 0 0-16 16zM688 800h-352a16 16 0 1 0 0 32h352a16 16 0 1 0 0-32zM688 704h-352a16 16 0 1 0 0 32h352a16 16 0 1 0 0-32zM688 608h-352a16 16 0 1 0 0 32h352a16 16 0 1 0 0-32zM688 512h-352a16 16 0 1 0 0 32h352a16 16 0 1 0 0-32zM688 416h-352a16 16 0 1 0 0 32h352a16 16 0 1 0 0-32z" fill="#5465CF" /></svg>