<?xml version="1.0" standalone="no"?><!DOCTYPE svg PUBLIC "-//W3C//DTD SVG 1.1//EN" "http://www.w3.org/Graphics/SVG/1.1/DTD/svg11.dtd"><svg class="icon" width="250px" height="250.00px" viewBox="0 0 1024 1024" version="1.1" xmlns="http://www.w3.org/2000/svg"><path fill="#1296db" d="M88.885945 804.568823c-28.892732-64.120746-32.79629-129.905304-10.718788-180.427589 31.29246-71.479914 112.115317-114.131089 187.082837-146.447433l18.237936-7.807117c80.630879-34.492098 164.013446-70.136066 218.599271-142.959828 58.713358-78.391132 67.992308-189.482565 23.101387-276.448726a31.99638 31.99638 0 0 0-56.857568 29.372677c33.916163 65.624576 26.87696 149.519086-17.470024 208.712389-44.250994 59.097315-119.666463 91.31767-192.554217 122.482144l-18.365922 7.87111C153.518633 456.160237 59.705246 506.618529 19.549788 598.54413c-29.308684 67.032417-25.277141 151.726836 10.974759 232.293721 31.164475 69.176174 79.447013 126.417699 126.161728 181.803434a31.99638 31.99638 0 1 0 48.954462-41.275331c-43.899034-52.026115-89.269901-105.81203-116.754792-166.797131z"  /><path fill="#1296db" d="M743.947841 127.589406l2.239747-94.741282A31.99638 31.99638 0 0 0 714.895127 0.115827c-18.589897-1.567823-32.348341 13.598462-32.764293 31.260464l-2.879674 125.265829a31.99638 31.99638 0 0 0 31.228467 32.732297c92.245565 2.111761 175.084194 47.578618 216.167546 118.578586 43.547074 75.191494 44.474969 172.940436 2.367732 248.963836-43.739052 79.03106-143.183802 143.663748-226.47038 147.151353-58.16942 2.271743-109.715588-25.597104-164.557385-55.289745-14.206393-7.679131-28.540771-15.422255-43.131121-22.781423-46.458744-23.42135-104.3082-52.538057-163.18154-31.100482-71.543907 26.07705-96.629069 115.698912-75.095504 183.083289 20.15772 63.256844 70.072073 109.971559 110.22753 147.503314a31.99638 31.99638 0 0 0 45.242882-1.50383 31.99638 31.99638 0 0 0-1.50383-45.242882c-36.539866-34.140138-77.911186-72.855758-93.013478-120.210401-12.190621-38.203678 0.639928-90.581753 36.059921-103.508291 32.828286-11.966646 75.191494 9.342943 112.435281 28.124818 14.078407 7.039204 27.836851 14.526357 41.499305 21.917521 60.057206 32.508322 121.714231 66.040529 197.705635 62.93688 105.10811-4.4155 225.382504-81.846741 279.77635-180.075629 52.794028-95.285221 51.578165-217.799361-3.00766-312.028701-47.258654-81.686759-136.624544-136.720533-238.085066-148.303224z"  /><path fill="#1296db" d="M814.49986 532.535597a15.934197 15.934197 0 0 0 22.621441 0.063993c29.020717-28.860735 45.018907-67.192399 45.018907-107.955788s-15.966194-79.095052-44.986911-107.955787a15.99819 15.99819 0 1 0-22.557448 22.685433 119.474484 119.474484 0 0 1 35.547978 85.270354 119.506481 119.506481 0 0 1-35.579975 85.270354 15.99819 15.99819 0 0 0-0.063992 22.621441z"  /></svg>