<?xml version="1.0" standalone="no"?><!DOCTYPE svg PUBLIC "-//W3C//DTD SVG 1.1//EN" "http://www.w3.org/Graphics/SVG/1.1/DTD/svg11.dtd"><svg class="icon" width="250px" height="250.00px" viewBox="0 0 1024 1024" version="1.1" xmlns="http://www.w3.org/2000/svg"><path d="M512 512m-256 0a256 256 0 1 0 512 0 256 256 0 1 0-512 0Z" fill="#E0EBFE" /><path d="M512 800c158.784 0 288-129.216 288-288s-129.216-288-288-288-288 129.216-288 288 129.216 288 288 288z m0-512c123.52 0 224 100.48 224 224s-100.48 224-224 224-224-100.48-224-224 100.48-224 224-224z" fill="#5465CF" /><path d="M512 640c70.592 0 128-57.408 128-128s-57.408-128-128-128-128 57.408-128 128 57.408 128 128 128z m0-192c35.296 0 64 28.704 64 64s-28.704 64-64 64-64-28.704-64-64 28.704-64 64-64z" fill="#5465CF" /><path d="M512 960c247.04 0 448-200.96 448-448S759.04 64 512 64 64 264.96 64 512s200.96 448 448 448z m0-832c211.744 0 384 172.256 384 384s-172.256 384-384 384S128 723.744 128 512 300.256 128 512 128z" fill="#5465CF" /></svg>