<?xml version="1.0" standalone="no"?><!DOCTYPE svg PUBLIC "-//W3C//DTD SVG 1.1//EN" "http://www.w3.org/Graphics/SVG/1.1/DTD/svg11.dtd"><svg class="icon" width="250px" height="250.00px" viewBox="0 0 1024 1024" version="1.1" xmlns="http://www.w3.org/2000/svg"><path d="M320.00032 384m-48 0a48 48 0 1 0 96 0 48 48 0 1 0-96 0Z" fill="#E0EBFE" /><path d="M448.00032 768m-48 0a48 48 0 1 0 96 0 48 48 0 1 0-96 0Z" fill="#E0EBFE" /><path d="M704.00032 544m-48 0a48 48 0 1 0 96 0 48 48 0 1 0-96 0Z" fill="#E0EBFE" /><path d="M576.00032 288m-48 0a48 48 0 1 0 96 0 48 48 0 1 0-96 0Z" fill="#E0EBFE" /><path d="M515.07232 32h-3.52c-147.712 0.288-272 18.368-359.488 52.32C26.17632 133.184-0.09568 204.608 0.00032 255.936c0.128 69.44 47.488 117.28 49.504 119.264 22.528 22.368 42.304 69.696 42.368 101.312l0.8 410.88A105.216 105.216 0 0 0 197.88832 992H828.80032c57.984-0.096 105.088-47.776 104.96-106.24l-0.8-410.88c-0.064-31.552 19.584-78.976 41.984-101.44 2.016-2.048 49.216-50.048 49.056-119.456C1023.71232 114.976 833.47232 32 515.07232 32z m414.592 296.192c-34.176 34.24-60.8 98.72-60.704 146.816l0.832 410.848c0 22.816-18.784 42.112-41.056 42.144H197.98432l-0.096 32v-32a41.6 41.6 0 0 1-41.216-40.768l-0.8-410.816c-0.064-48.16-26.976-112.544-61.28-146.656-0.32-0.32-30.528-31.456-30.592-73.92-0.128-56.736 60.416-92.16 111.232-111.84C255.36032 112.864 371.74432 96.256 511.68032 96h3.392C785.15232 96 959.80832 158.048 960.00032 254.08c0.096 42.368-30.144 73.92-30.336 74.112z" fill="#5465CF" /><path d="M320.00032 320c-35.296 0-64 28.704-64 64s28.704 64 64 64 64-28.704 64-64-28.704-64-64-64z m0 96a32.032 32.032 0 0 1 0-64 32.032 32.032 0 0 1 0 64zM448.00032 704c-35.296 0-64 28.704-64 64s28.704 64 64 64 64-28.704 64-64-28.704-64-64-64z m0 96a32.032 32.032 0 0 1 0-64 32.032 32.032 0 0 1 0 64zM704.00032 480c-35.296 0-64 28.704-64 64s28.704 64 64 64 64-28.704 64-64-28.704-64-64-64z m0 96a32.032 32.032 0 0 1 0-64 32.032 32.032 0 0 1 0 64zM576.00032 224c-35.296 0-64 28.704-64 64s28.704 64 64 64 64-28.704 64-64-28.704-64-64-64z m0 96a32.032 32.032 0 0 1 0-64 32.032 32.032 0 0 1 0 64z" fill="#5465CF" /></svg>