<?xml version="1.0" standalone="no"?><!DOCTYPE svg PUBLIC "-//W3C//DTD SVG 1.1//EN" "http://www.w3.org/Graphics/SVG/1.1/DTD/svg11.dtd"><svg class="icon" width="250px" height="250.00px" viewBox="0 0 1024 1024" version="1.1" xmlns="http://www.w3.org/2000/svg"><path d="M832 608m-160 0a160 160 0 1 0 320 0 160 160 0 1 0-320 0Z" fill="#E0EBFE" /><path d="M192 608m-160 0a160 160 0 1 0 320 0 160 160 0 1 0-320 0Z" fill="#E0EBFE" /><path d="M832 416c-25.92 0-50.56 5.216-73.152 14.56l-59.2-94.72L723.744 288H768a32 32 0 1 0 0-64h-160a32 32 0 1 0 0 64h44.096l-16.096 32h-271.584l10.656-32h52.928a32 32 0 1 0 0-64H352c-0.416 0-0.768 0.224-1.184 0.256-2.464 0.064-4.704 0.768-7.04 1.408-1.696 0.448-3.456 0.672-5.056 1.408-1.984 0.896-3.584 2.304-5.344 3.616-1.568 1.152-3.2 2.08-4.544 3.52-1.312 1.376-2.176 3.104-3.2 4.736-1.28 1.92-2.56 3.68-3.36 5.856-0.16 0.384-0.48 0.64-0.64 1.088l-31.264 93.824-42.336 84.672A191.328 191.328 0 0 0 192 416c-105.888 0-192 86.112-192 192s86.112 192 192 192 192-86.112 192-192a191.68 191.68 0 0 0-78.848-154.752l21.216-42.464 175.744 217.344c0.064 0.096 0.192 0.128 0.288 0.224 0.352 0.448 0.864 0.768 1.248 1.184 1.536 1.696 3.456 2.88 5.344 4.224 1.28 0.896 2.208 2.112 3.648 2.848l0.544 0.192 0.8 0.32c0.576 0.256 1.184 0.384 1.792 0.64 3.68 1.344 7.424 2.24 11.2 2.24h115.904c15.328 90.656 94.176 160 189.12 160 105.888 0 192-86.112 192-192s-86.112-192-192-192z m-512 192c0 70.592-57.408 128-128 128s-128-57.408-128-128 57.408-128 128-128c9.184 0 18.112 1.056 26.752 2.912l-55.36 110.784a32 32 0 1 0 57.248 28.608L275.776 512c26.88 23.488 44.224 57.6 44.224 96z m200.704-58.688L387.04 384h216.768l-83.104 165.312zM642.88 576h-63.968l87.104-173.184 38.656 61.856A191.616 191.616 0 0 0 642.912 576z m96.48-55.84L774.24 576h-65.696a127.552 127.552 0 0 1 30.816-55.84zM832 736c-59.456 0-109.12-40.96-123.456-96h123.488a31.744 31.744 0 0 0 13.984-3.584c0.96-0.48 2.016-0.704 2.944-1.28 0.992-0.64 1.568-1.632 2.464-2.336a31.04 31.04 0 0 0 4.8-4.544c1.312-1.6 2.368-3.2 3.36-4.96a30.656 30.656 0 0 0 2.432-5.504 30.88 30.88 0 0 0 1.28-6.4c0.16-1.152 0.704-2.176 0.704-3.392 0-0.864-0.416-1.568-0.48-2.4a31.168 31.168 0 0 0-1.28-6.304 30.848 30.848 0 0 0-2.24-5.952c-0.384-0.736-0.416-1.6-0.864-2.304l-65.344-104.576c12.16-3.84 24.8-6.464 38.208-6.464 70.592 0 128 57.408 128 128s-57.408 128-128 128z" fill="#5465CF" /></svg>