<?xml version="1.0" standalone="no"?><!DOCTYPE svg PUBLIC "-//W3C//DTD SVG 1.1//EN" "http://www.w3.org/Graphics/SVG/1.1/DTD/svg11.dtd"><svg class="icon" width="250px" height="250.00px" viewBox="0 0 1024 1024" version="1.1" xmlns="http://www.w3.org/2000/svg"><path d="M282.144 704H133.856C112.96 704 96 687.04 96 666.144v-308.288C96 336.96 112.96 320 133.856 320h148.288C303.04 320 320 336.96 320 357.856v308.288C320 687.04 303.04 704 282.144 704zM890.144 704h-148.288C720.96 704 704 687.04 704 666.144v-308.288c0-20.896 16.96-37.856 37.856-37.856h148.288c20.896 0 37.856 16.96 37.856 37.856v308.288C928 687.04 911.04 704 890.144 704z" fill="#E0EBFE" /><path d="M992 480h-32v-122.144C960 319.36 928.64 288 890.112 288h-148.224C703.328 288 672 319.36 672 357.856V480H352v-122.144C352 319.36 320.64 288 282.112 288H133.888C95.328 288 64 319.36 64 357.856V480H32a32 32 0 1 0 0 64h32v122.144C64 704.64 95.36 736 133.888 736h148.224C320.672 736 352 704.64 352 666.144V544h320v122.144C672 704.64 703.36 736 741.888 736h148.224C928.672 736 960 704.64 960 666.144V544h32a32 32 0 1 0 0-64zM192 672H133.888A5.856 5.856 0 0 1 128 666.144v-308.288c0-3.232 2.624-5.856 5.888-5.856H192v320z m96-5.856a5.856 5.856 0 0 1-5.888 5.856H224V352h58.112c3.264 0 5.888 2.624 5.888 5.856v308.288zM800 672h-58.112a5.856 5.856 0 0 1-5.888-5.856v-308.288c0-3.232 2.624-5.856 5.888-5.856H800v320z m96-5.856a5.856 5.856 0 0 1-5.888 5.856H832V352h58.112c3.264 0 5.888 2.624 5.888 5.856v308.288z" fill="#5465CF" /></svg>