<?xml version="1.0" standalone="no"?><!DOCTYPE svg PUBLIC "-//W3C//DTD SVG 1.1//EN" "http://www.w3.org/Graphics/SVG/1.1/DTD/svg11.dtd"><svg class="icon" width="250px" height="250.00px" viewBox="0 0 1024 1024" version="1.1" xmlns="http://www.w3.org/2000/svg"><path d="M512 384m-352 0a352 352 0 1 0 704 0 352 352 0 1 0-704 0Z" fill="#E0EBFE" /><path d="M512 1024a32 32 0 0 0 32-32v-128h96a32 32 0 1 0 0-64h-256a32 32 0 1 0 0 64h96v128a32 32 0 0 0 32 32zM128 384c0 211.744 172.256 384 384 384s384-172.256 384-384S723.744 0 512 0 128 172.256 128 384zM512 64c176.448 0 320 143.552 320 320s-143.552 320-320 320S192 560.448 192 384 335.552 64 512 64z" fill="#5465CF" /><path d="M512 352m-32 0a32 32 0 1 0 64 0 32 32 0 1 0-64 0Z" fill="#5465CF" /><path d="M448 448m-32 0a32 32 0 1 0 64 0 32 32 0 1 0-64 0Z" fill="#5465CF" /><path d="M576 448m-32 0a32 32 0 1 0 64 0 32 32 0 1 0-64 0Z" fill="#5465CF" /></svg>