<?xml version="1.0" standalone="no"?><!DOCTYPE svg PUBLIC "-//W3C//DTD SVG 1.1//EN" "http://www.w3.org/Graphics/SVG/1.1/DTD/svg11.dtd"><svg class="icon" width="250px" height="250.00px" viewBox="0 0 1024 1024" version="1.1" xmlns="http://www.w3.org/2000/svg"><path d="M991.36 679.36c-3.84 17.92-21.76 28.8-38.4 35.2-48.96 18.56-102.4 17.6-154.24 16.32-68.16-1.92-136.32-6.4-204.48-2.24-85.12 5.12-170.88 10.56-256.32 5.12-85.12-5.12-170.56-21.44-248.96-57.28-17.6-8.32-35.2-17.92-46.72-33.92s-14.72-40-2.24-55.36c0-0.64 0-0.96 0.32-1.6 83.2 32 218.56 69.44 303.04 66.56 61.12-2.24 122.24-7.36 182.4-19.2 94.4-18.88 185.6-32 279.68-28.16 56 2.24 119.68 2.88 171.52 8.96 1.6 8 3.84 16 6.4 24 4.48 13.44 10.88 27.52 8 41.6z" fill="#E0EBFE" /><path d="M1013.568 627.392c-6.432-19.008-9.184-39.936-11.296-65.536l-1.824-23.744c-4.64-62.048-9.44-126.176-43.008-182.208-6.624-11.104-17.568-26.784-35.84-35.104-24-10.88-55.04-4.736-77.344 14.848-13.6 11.968-22.528 26.368-30.4 39.104l-3.616 5.824c-5.344 8.448-12.384 18.624-19.52 22.208-5.6 2.848-14.72 2.624-23.776-0.384-11.904-3.968-24.32-12.128-36.352-20.032l-47.776-31.36c-5.408-3.584-9.824-15.584-14.08-27.2-3.84-10.368-8.16-22.112-14.816-33.152-4.832-8-12.928-21.376-28.16-29.024A52.896 52.896 0 0 0 601.888 256c-20.544 0-37.632 11.104-50.176 20.736l-67.328 51.52c-87.488 66.656-186.624 142.208-299.68 169.504-20.672 4.96-42.24 7.904-65.088 11.008-9.984 1.344-19.936 2.72-29.76 4.224-12.992 2.016-29.152 4.512-44.64 12.864-17.088 9.152-30.848 28.48-35.616 49.056-16.384 27.776-9.824 63.392 6.56 86.304 15.744 22.048 37.952 34.272 59.616 44.224 74.56 34.336 159.68 54.048 260.32 60.288a1232 1232 0 0 0 77.312 2.272c61.312 0 123.104-3.808 182.88-7.488 49.6-3.072 99.136-1.216 148.8 0.544 17.6 0.64 35.2 1.28 52.832 1.696 12.896 0.32 25.92 0.608 38.912 0.608 38.368 0 83.52-2.24 127.424-18.88 41.184-15.584 54.432-40.384 58.272-58.368 4.48-20.864-2.144-39.552-7.008-53.184l-1.92-5.536z m-76.928-84.48l1.856 24.256c0.736 8.96 1.728 18.112 2.912 27.328a2487.296 2487.296 0 0 0-93.76-4.256c-14.112-0.448-28.064-0.896-41.568-1.44-11.456-0.48-22.816-0.608-34.112-0.64 43.712-30.176 93.76-48.8 142.08-51.776 4.16-0.288 13.12-0.544 22.016-0.704l0.576 7.2zM99.616 576.224c9.44-1.472 19.008-2.784 28.576-4.064 23.424-3.2 47.68-6.496 71.456-12.224 126.176-30.464 235.584-113.824 323.52-180.8l67.488-51.648c3.264-2.496 5.76-4.192 7.552-5.312l0.96 1.536c3.488 5.76 6.4 13.76 9.504 22.176 7.104 19.36 15.968 43.424 39.04 58.56l47.744 31.36c14.72 9.696 31.392 20.672 51.264 27.296 25.6 8.512 51.744 7.392 72.768-3.2 21.088-10.56 34.496-28.8 44.864-45.216l3.936-6.272c6.048-9.792 11.776-19.072 18.208-24.704a21.44 21.44 0 0 1 8.576-4.704c0.256 0.16 2.624 1.664 7.488 9.728 19.776 33.056 26.72 72.544 30.848 114.944-8.864 0.192-17.28 0.448-21.376 0.736-67.2 4.16-137.376 34.816-192.544 84.128-0.416 0.352-0.576 0.864-0.96 1.28-70.752 4.16-137.344 15.68-195.84 27.392-52.544 10.336-109.696 16.32-179.872 18.912-70.56 2.272-181.216-24.8-266.08-54.368 5.888-2.752 14.4-4.224 22.88-5.536z m841.92 108.384c-34.24 12.96-72.192 14.72-104.736 14.72-12.48 0-24.96-0.288-37.376-0.576-17.376-0.416-34.752-1.056-52.096-1.664-51.648-1.856-103.264-3.648-155.008-0.48-84.704 5.216-176.384 9.92-252.288 5.216-92.576-5.76-170.272-23.584-237.536-54.528-13.664-6.272-27.232-13.44-34.304-23.36a22.272 22.272 0 0 1-4.096-12.704c84.352 29.568 194.528 57.056 270.048 57.056 3.328 0 6.592-0.064 9.792-0.192 71.968-2.624 130.72-8.8 184.96-19.488 80.352-16.064 175.776-32 275.904-27.84 13.568 0.512 27.616 0.96 41.856 1.44 33.856 1.088 68.576 2.24 100.384 4.736 1.632 7.04 3.552 14.016 5.888 20.928l2.272 6.464c2.144 6.08 5.408 15.2 4.736 18.336-0.384 1.792-5.376 7.04-18.368 11.936z" fill="#5465CF" /><path d="M592 448a16 16 0 1 0 0-32 16 16 0 0 1-16-16 16 16 0 1 0-32 0c0 26.464 21.536 48 48 48z" fill="#5465CF" /></svg>