<svg width="750" height="423" viewBox="0 0 750 423" fill="none" xmlns="http://www.w3.org/2000/svg">
<mask id="mask0_656_3880" style="mask-type:alpha" maskUnits="userSpaceOnUse" x="0" y="0" width="750" height="423">
<rect width="750" height="423" fill="white"/>
</mask>
<g mask="url(#mask0_656_3880)">
<rect x="-2" width="752" height="382" fill="url(#paint0_linear_656_3880)"/>
<rect x="-2" width="752" height="382" fill="url(#paint1_linear_656_3880)"/>
<path d="M638.18 30.348C591.028 46.057 545.425 52.4934 500.21 52.4934C434.281 52.4934 369.174 38.8072 301.297 20.228C241.483 3.85304 177.818 -11.5071 115.254 -11.5071C75.9939 -11.5071 37.1656 -5.44662 0.00146484 10.1984V10.6039C37.1562 -5.06627 75.9813 -11.1311 115.254 -11.1311C177.756 -11.1311 241.393 4.21392 301.201 20.5889C369.09 39.1731 434.234 52.8693 500.21 52.8693C545.462 52.8693 591.104 46.4261 638.294 30.7045C679.112 17.1043 715.534 -3.36036 749.994 -27.5456V-28C715.497 -3.76581 679.039 16.7352 638.18 30.348Z" fill="url(#paint2_linear_656_3880)"/>
<path d="M640.968 35.1398C593.753 50.9154 548.047 57.3957 502.683 57.3957C438.521 57.3957 375.047 44.4345 308.99 26.4892C275.572 17.546 241.463 7.9928 207.024 0.919993C175.133 -5.62246 142.866 -10.0605 110.71 -10.0605C105.234 -10.0605 99.7602 -9.92614 94.2875 -9.65752C62.0719 -8.09471 30.516 -1.3853 0.00292969 11.4385V11.8414C30.516 -1.00182 62.0795 -7.72064 94.3001 -9.28407C99.7665 -9.55647 105.236 -9.68911 110.708 -9.68199C142.832 -9.68199 175.07 -5.25342 206.946 1.28401C241.367 8.35682 275.469 17.9094 308.895 26.85C374.962 44.8004 438.467 57.7717 502.681 57.7717C548.08 57.7717 593.829 51.2863 641.085 35.4938C680.628 22.2225 716.231 2.72129 749.991 -20.2156V-20.6675C716.191 2.31144 680.551 21.8497 640.968 35.1398Z" fill="url(#paint3_linear_656_3880)"/>
<path d="M643.753 39.9256C596.656 55.7156 551.024 62.184 505.697 62.184C443.14 62.184 381.15 49.8686 316.68 32.7442C282.111 23.5626 247.217 13.11 212.037 4.95075C177.534 -3.0315 142.514 -8.73606 107.394 -8.73606C103.739 -8.73606 100.083 -8.67331 96.4272 -8.54778C63.2557 -7.43578 30.5712 -0.241778 0.00292969 12.6757V13.0811C30.5694 0.140855 63.2607 -7.06201 96.4398 -8.16679C100.091 -8.29901 103.742 -8.36179 107.394 -8.35509C142.473 -8.35509 177.462 -2.65868 211.956 5.32105C247.118 13.4803 282.003 23.9279 316.587 33.1164C381.071 50.2414 443.089 62.5613 505.697 62.5613C551.063 62.5613 596.737 56.0928 643.874 40.2859C682.173 27.3391 716.946 8.73977 749.993 -13.0203V-13.4672C716.902 8.33055 682.093 26.9644 643.753 39.9256Z" fill="url(#paint4_linear_656_3880)"/>
<path d="M646.545 44.7127C599.428 60.5598 553.732 67.0564 508.292 67.0564C447.46 67.0564 387.083 55.417 324.372 39.005C288.634 29.6463 252.977 18.2259 217.055 8.98526C180.262 -0.459368 142.799 -7.50269 104.974 -7.50269C102.838 -7.50269 100.708 -7.4782 98.5656 -7.43364C64.6651 -6.76018 31.8226 0.563044 0.00341797 13.9059V14.3107C31.8301 0.946523 64.6701 -6.39176 98.5725 -7.0627C100.706 -7.10664 102.838 -7.12966 104.971 -7.13175C142.75 -7.13175 180.178 -0.092837 216.962 9.34677C252.864 18.5824 288.526 30.0028 324.276 39.3615C387.005 55.7804 447.409 67.4274 508.289 67.4274C553.768 67.4274 599.508 60.9295 646.658 45.0629C683.744 32.4475 717.672 14.6923 749.99 -5.96373V-6.40934C717.632 14.295 683.668 32.0759 646.545 44.7127Z" fill="url(#paint5_linear_656_3880)"/>
<path d="M649.332 49.5003C602.271 65.4993 556.543 72.0511 511.015 72.0511C451.863 72.0511 393.044 60.9972 332.064 45.2612C295.158 35.7325 258.729 23.3486 222.076 13.0197C183.231 2.11264 143.562 -6.33154 103.215 -6.33154C102.378 -6.33154 101.542 -6.324 100.708 -6.31898C65.9674 -6.0811 32.4747 1.53019 0.00341797 15.1429V15.5459C32.4797 1.91368 65.9674 -5.70766 100.713 -5.94303C101.545 -5.95307 102.378 -5.95559 103.215 -5.95559C143.516 -5.95559 183.146 2.47668 221.973 13.3806C258.614 23.7026 295.045 36.0965 331.971 45.6221C392.966 61.3682 451.817 72.4271 511.017 72.4271C556.582 72.4271 602.352 65.8727 649.454 49.8542C685.372 37.6398 718.434 20.6824 749.995 1.03124V0.591888C718.387 20.2845 685.289 37.274 649.332 49.5003Z" fill="url(#paint6_linear_656_3880)"/>
<path d="M652.119 54.2829C605.009 70.3854 559.174 76.9837 513.476 76.9837C456.086 76.9837 398.919 66.5782 339.758 51.5231C301.678 41.8275 264.487 28.4658 227.093 17.0554C186.672 4.76256 145.277 -5.06869 102.848 -5.20113C102.433 -5.20866 102.016 -5.21116 101.598 -5.20865C66.4607 -5.20865 32.7399 2.65873 0.00292969 16.3819V16.7874C32.7468 3.04223 66.4695 -4.8327 101.598 -4.8327C102.012 -4.8327 102.43 -4.8327 102.845 -4.82768C145.218 -4.6896 186.574 5.12848 226.983 17.4113C264.363 28.8242 301.558 42.189 339.66 51.8866C398.84 66.9498 456.04 77.3597 513.474 77.3597C559.209 77.3597 605.09 70.7589 652.239 54.6444C686.993 42.7639 719.187 26.5735 749.992 7.89571V7.45638C719.145 26.1756 686.91 42.398 652.119 54.2829Z" fill="url(#paint7_linear_656_3880)"/>
<path d="M654.907 59.0746C607.717 75.2808 561.737 81.9355 515.844 81.9355C460.237 81.9355 404.761 72.1664 347.447 57.7798C308.198 47.9222 270.241 33.587 232.108 21.0877C190.913 7.63753 148.63 -3.45966 104.988 -4.08729C103.714 -4.11177 102.437 -4.12183 101.165 -4.12183C66.1334 -4.12183 32.5967 3.95394 0.00292969 17.6131V18.0186C32.608 4.33617 66.1403 -3.74337 101.165 -3.74337C102.434 -3.74337 103.709 -3.73582 104.983 -3.71134C148.566 -3.07994 190.81 7.99904 231.99 21.4499C270.114 33.9398 308.076 48.2843 347.356 58.1438C404.687 72.5361 460.193 82.3146 515.847 82.3146C561.776 82.3146 607.801 75.6523 655.034 59.4343C688.645 47.8858 719.957 32.4203 749.996 14.657V14.222C719.912 32.0217 688.559 47.5193 654.907 59.0746Z" fill="url(#paint8_linear_656_3880)"/>
<path d="M657.699 63.8624C610.401 80.1859 564.244 86.9072 518.106 86.9072C464.313 86.9072 410.563 77.7676 355.138 64.0369C314.712 54.0224 275.997 38.7068 237.125 25.1236C195.152 10.511 151.985 -1.84585 107.125 -2.97873C105.081 -3.03271 103.04 -3.05969 101.003 -3.05969C65.9803 -3.05969 32.5378 5.19746 0.00244141 18.8322V19.2401C32.5497 5.58094 65.9878 -2.68876 101.003 -2.68876C103.039 -2.68876 105.071 -2.65675 107.118 -2.60278C151.911 -1.47743 195.046 10.8694 237 25.4732C275.862 39.0514 314.586 54.3795 355.044 64.3965C410.491 78.1298 464.268 87.2787 518.103 87.2787C564.269 87.2787 610.481 80.5505 657.818 64.2145C690.301 53.003 720.736 38.2204 749.989 21.332V20.8996C720.695 37.8287 690.222 52.6384 657.699 63.8624Z" fill="url(#paint9_linear_656_3880)"/>
<path d="M660.486 68.6525C613.054 85.0965 566.679 91.9014 520.28 91.9014C468.325 91.9014 416.335 83.3712 362.833 70.2963C321.229 60.1286 281.752 43.8233 242.139 29.1562C199.393 13.3881 155.338 -0.2315 109.269 -1.86335C106.518 -1.96502 103.777 -2.01587 101.044 -2.01587C65.9684 -2.01587 32.5473 6.41828 0 20.063V20.471C32.5605 6.80427 65.981 -1.63929 101.044 -1.63929C103.77 -1.63929 106.506 -1.58762 109.251 -1.48427C155.252 0.140043 199.276 13.7453 242.008 29.5083C281.611 44.1754 321.102 60.4864 362.735 70.661C416.26 83.7427 468.277 92.2805 520.276 92.2805H520.291C566.727 92.2805 613.136 85.4681 660.606 69.0071C691.982 58.1246 721.526 44.0035 749.99 27.9455V27.513C721.483 43.6068 691.902 57.753 660.486 68.6525Z" fill="url(#paint10_linear_656_3880)"/>
<path d="M663.275 73.4376C615.683 90.0216 569.057 96.9174 522.351 96.9174C472.259 96.9174 422.073 88.9866 370.521 76.5538C327.745 66.2393 287.508 48.9423 247.157 33.1944C203.634 16.2614 158.691 1.37332 111.406 -0.748086C108.004 -0.907505 104.617 -0.986989 101.244 -0.986571C66.0693 -0.986571 32.6067 7.61766 0.00292969 21.2944V21.7024C32.6218 8.00867 66.0794 -0.608109 101.244 -0.608109C104.612 -0.608109 107.994 -0.529247 111.388 -0.371502C158.605 1.75178 203.511 16.6179 247.023 33.5433C287.364 49.2888 327.618 66.5951 370.433 76.9197C422.01 89.3557 472.222 97.2958 522.354 97.2958C569.098 97.2958 615.771 90.3919 663.402 73.7985C693.682 63.2411 722.336 49.7557 749.996 34.4823V34.0542C722.289 49.3578 693.596 62.872 663.275 73.4376Z" fill="url(#paint11_linear_656_3880)"/>
<path d="M666.062 78.2245C618.288 94.9535 571.375 101.963 524.326 101.963C476.126 101.963 427.778 94.612 378.211 82.8131C334.254 72.3511 293.259 54.0612 252.173 37.2268C207.878 19.1391 162.045 2.98755 113.546 0.36906C109.533 0.13558 105.539 0.0301514 101.573 0.0301514C66.2536 0.0301514 32.7099 8.79129 0.00244141 22.5145V22.9174C32.7244 9.17729 66.2636 0.401085 101.573 0.401085C105.534 0.401085 109.519 0.514045 113.528 0.739993C161.955 3.35471 207.749 19.4893 252.03 37.5695C293.111 54.4021 334.123 72.7013 378.124 83.1759C427.709 94.9754 476.089 102.335 524.325 102.335C571.411 102.335 618.371 95.3213 666.185 78.5773C695.389 68.3537 723.142 55.4759 749.991 40.9519V40.5238C723.101 55.0812 695.308 67.9866 666.062 78.2245Z" fill="url(#paint12_linear_656_3880)"/>
<path d="M668.852 83.0145C620.866 99.8979 573.635 107.033 526.205 107.033C479.924 107.033 433.448 100.237 385.902 89.0724C340.768 78.4654 299.018 59.1808 257.189 41.2574C212.116 22.0142 165.394 4.59984 115.689 1.48364C111.096 1.18363 106.534 1.03447 102.004 1.03615C66.5047 1.03615 32.8404 9.94855 0.00292969 23.7345V24.1425C32.8593 10.3345 66.5198 1.41461 102.004 1.41461C106.527 1.41461 111.081 1.56104 115.664 1.85394C165.294 4.97014 211.983 22.365 257.041 41.6058C298.865 59.5241 340.635 78.8244 385.817 89.4383C433.385 100.61 479.887 107.411 526.205 107.411C573.67 107.411 620.947 100.266 668.975 83.3679C697.114 73.4663 723.962 61.171 749.993 47.3687V46.9394C723.922 60.7756 697.03 73.0979 668.852 83.0145Z" fill="url(#paint13_linear_656_3880)"/>
<path d="M671.639 87.7984C623.424 104.844 575.842 112.131 527.996 112.131C483.66 112.131 439.096 105.874 393.593 95.3263C347.281 84.5938 304.769 64.2986 262.205 45.292C216.359 24.8882 168.747 6.20607 117.827 2.59529C112.683 2.21871 107.581 2.0321 102.52 2.03544C66.8195 2.03544 33.0032 11.0966 0.00292969 24.9522V25.3583C33.0201 11.4801 66.8295 2.4114 102.52 2.4114C107.576 2.4114 112.669 2.59739 117.801 2.96937C168.644 6.57701 216.217 25.2328 262.052 45.6359C304.612 64.6381 347.141 84.9452 393.511 95.6922C439.032 106.245 483.623 112.502 527.996 112.507C575.881 112.507 623.503 105.215 671.767 88.155C698.848 78.5798 724.794 66.8449 749.993 53.7311V53.3106C724.75 66.4501 698.765 78.2076 671.639 87.7984Z" fill="url(#paint14_linear_656_3880)"/>
<path d="M674.428 92.5866C625.961 109.805 577.995 117.261 529.708 117.261C487.336 117.261 444.709 111.518 401.287 101.587C353.788 90.7238 310.528 69.4169 267.216 49.3257C220.596 27.7652 172.097 7.81903 119.969 3.70991C114.299 3.24964 108.679 3.02287 103.108 3.02956C67.1738 3.02956 33.1866 12.2357 0.00292969 26.1779V26.5828C33.2048 12.6236 67.1907 3.40049 103.108 3.40551C108.671 3.40551 114.28 3.63167 119.937 4.08398C171.992 8.18808 220.45 28.1042 267.059 49.6671C310.36 69.7558 353.648 91.0734 401.201 101.949C444.651 111.89 487.304 117.634 529.708 117.634C578.034 117.634 626.047 110.172 674.549 92.94C700.595 83.6893 725.63 72.4998 749.993 60.0469V59.6271C725.59 72.1076 700.511 83.3221 674.428 92.5866Z" fill="url(#paint15_linear_656_3880)"/>
<path d="M677.216 97.3767C628.484 114.769 580.11 122.419 531.351 122.419C490.962 122.419 450.31 117.167 408.977 107.846C360.297 96.8551 316.282 74.5352 272.234 53.3607C224.838 30.6373 175.453 9.42638 122.109 4.82018C115.93 4.27623 109.811 4.00677 103.753 4.01179C67.5796 4.01179 33.3914 13.3604 0.00292969 27.3886V27.7991C33.409 13.7439 67.5947 4.38837 103.753 4.38837C109.805 4.38837 115.911 4.65867 122.072 5.19927C175.335 9.79794 224.686 30.98 272.069 53.6978C316.114 74.8697 360.155 97.2122 408.893 108.21C450.248 117.541 490.93 122.801 531.351 122.801C580.146 122.801 628.57 115.133 677.343 97.7307C702.182 88.7562 726.444 78.2646 749.993 66.3151V65.894C726.404 77.872 702.099 88.3861 677.216 97.3767V97.3767Z" fill="url(#paint16_linear_656_3880)"/>
<path d="M680.008 102.164C632.84 119.14 583.068 127.756 532.933 127.625C494.548 127.625 455.888 122.835 416.667 114.106C366.801 103.005 322.035 79.6548 277.248 57.3939C229.077 33.5137 178.804 11.0438 124.25 5.93677C117.578 5.30286 110.978 4.99071 104.452 5.00034C68.0143 5.00034 33.6107 14.4776 0.00292969 28.6082V29.0136C33.6251 14.863 68.0301 5.37127 104.452 5.37378C110.971 5.37378 117.558 5.6876 124.215 6.31523C178.688 11.4072 228.919 33.8552 277.083 57.7329C321.863 79.9894 366.656 103.362 416.583 114.474C455.829 123.209 494.514 128.003 532.931 128.003C583.109 128.136 632.924 119.512 680.132 102.521C703.973 93.8793 727.298 83.875 749.991 72.5582V72.1402C727.258 83.4798 703.892 93.5044 680.008 102.164Z" fill="url(#paint17_linear_656_3880)"/>
<path d="M682.793 106.951C635.248 124.182 585.049 132.952 534.473 132.863C498.098 132.863 461.457 128.508 424.356 120.361C373.308 109.152 327.792 84.7745 282.261 61.4303C233.318 36.3921 182.156 12.6562 126.382 7.05522C119.343 6.33605 112.271 5.97595 105.195 5.97632C68.4824 5.97632 33.8469 15.586 0.00292969 29.8201V30.2306C33.8613 15.9745 68.4974 6.35037 105.195 6.35037C112.26 6.35015 119.32 6.70943 126.348 7.42678C182.033 13.0203 233.156 36.7285 282.091 61.7642C327.612 85.1065 373.16 109.501 424.278 120.732C461.396 128.881 498.068 133.239 534.473 133.243C585.093 133.331 635.338 124.551 682.923 107.303C705.776 98.9867 728.165 89.4523 749.996 78.741V78.3211C728.124 89.0598 705.691 98.6169 682.793 106.951V106.951Z" fill="url(#paint18_linear_656_3880)"/>
<path d="M685.58 111.739C637.655 129.238 587.023 138.175 535.998 138.143C501.634 138.143 467.019 134.194 432.049 126.624C379.804 115.305 333.543 89.8934 287.279 65.4646C237.556 39.2666 185.502 14.2654 128.52 8.16798C121.031 7.35403 113.504 6.94713 105.972 6.9491C68.9693 6.9491 34.0901 16.6887 0.000488281 31.0339V31.4419C34.1051 17.0747 68.9869 7.32506 105.972 7.32506C113.492 7.32392 121.007 7.72933 128.483 8.53953C185.379 14.6276 237.389 39.5961 287.1 65.7942C333.361 90.2229 379.657 115.659 431.969 126.988C466.967 134.565 501.61 138.519 536 138.519C587.068 138.55 637.742 129.605 685.707 112.093C707.677 104.133 729.044 94.9415 749.99 84.8993V84.4869C729.007 94.5529 707.591 103.767 685.58 111.739Z" fill="url(#paint19_linear_656_3880)"/>
<path d="M688.371 116.529C638.57 134.651 588.338 143.464 537.528 143.464C504.65 143.386 471.873 139.839 439.741 132.882C386.311 121.474 339.297 95.0124 292.296 69.5003C241.797 42.1374 188.857 15.8778 130.665 9.28139C122.739 8.37456 114.767 7.92004 106.789 7.92004C69.4888 7.92004 34.3482 17.7946 0.00292969 32.2553V32.6582C34.367 18.1781 69.5058 8.296 106.789 8.296C114.753 8.29547 122.711 8.75084 130.623 9.65985C188.727 16.2412 241.623 42.4738 292.115 69.8298C339.115 95.3419 386.161 121.82 439.66 133.25C471.819 140.212 504.623 143.763 537.528 143.843C588.38 143.843 638.656 135.023 688.497 116.883C709.468 109.252 729.92 100.525 749.993 91.0338V90.6208C729.875 100.134 709.382 108.876 688.371 116.529Z" fill="url(#paint20_linear_656_3880)"/>
<path d="M691.159 121.314C641.131 139.608 590.444 148.78 539.097 148.829C508.289 148.785 477.569 145.537 447.433 139.139C392.813 127.645 345.048 100.132 297.308 73.5329C246.036 45.0126 192.206 17.4852 132.805 10.3999C124.452 9.39056 116.046 8.88502 107.632 8.88599C70.0228 8.88599 34.6139 18.8886 0.00292969 33.4616V33.8696C34.634 19.274 70.0372 9.26194 107.632 9.26194C116.03 9.25845 124.421 9.76147 132.758 10.7683C192.074 17.8486 245.861 45.3446 297.126 73.8599C344.866 100.457 392.658 127.991 447.357 139.503C477.517 145.91 508.263 149.162 539.097 149.205C590.466 149.205 641.197 140.025 691.289 121.663C711.266 114.356 730.793 106.084 749.993 97.1288V96.7158C730.754 105.696 711.18 113.99 691.159 121.314Z" fill="url(#paint21_linear_656_3880)"/>
<path d="M693.946 126.101C643.721 144.565 592.54 154.241 540.729 154.241C511.966 154.226 483.28 151.262 455.123 145.396C399.309 133.826 350.805 105.247 302.324 77.568C250.272 47.8922 195.563 19.0964 134.943 11.5152C126.174 10.4059 117.344 9.85162 108.506 9.85574C70.5788 9.85574 34.8897 19.9788 0.00292969 34.678V35.0835C34.9092 20.3648 70.5932 10.2292 108.506 10.2292C117.329 10.2256 126.143 10.7788 134.896 11.8855C195.427 19.4598 250.1 48.2186 302.137 77.8944C350.617 105.573 399.152 134.176 455.048 145.766C483.23 151.636 511.941 154.602 540.73 154.616C592.593 154.616 643.819 144.928 694.081 126.452C713.072 119.467 731.679 111.64 749.993 103.207V102.792C731.637 111.255 712.983 119.104 693.946 126.101Z" fill="url(#paint22_linear_656_3880)"/>
<path d="M696.735 130.891C646.368 149.5 594.726 159.699 542.465 159.699C515.711 159.707 489.024 157.011 462.813 151.653C405.806 140.014 356.56 110.37 307.337 81.6017C254.515 50.7635 198.913 20.7068 137.082 12.6248C127.903 11.416 118.655 10.8103 109.396 10.8115C71.1442 10.8115 35.1699 21.0545 0.00292969 35.8786V36.2891C35.19 21.4455 71.1611 11.1875 109.396 11.1875C118.638 11.1857 127.871 11.79 137.033 12.9963C198.773 21.0683 254.332 51.088 307.148 81.9256C356.364 110.687 405.654 140.365 462.736 152.022C488.973 157.386 515.685 160.083 542.465 160.073H542.478C594.79 160.078 646.464 149.869 696.866 131.242C714.878 124.585 732.562 117.187 749.993 109.255V108.842C732.518 116.799 714.792 124.216 696.735 130.891Z" fill="url(#paint23_linear_656_3880)"/>
<path d="M699.52 135.676C649.067 154.42 597.002 165.204 544.337 165.204C519.546 165.228 494.813 162.786 470.505 157.915C412.298 146.214 362.31 115.487 312.354 85.6318C258.754 53.6388 202.264 22.3192 139.225 13.7376C129.642 12.4268 119.981 11.77 110.309 11.7719C71.7297 11.7719 35.4627 22.1354 0.00292969 37.0875V37.4954C35.4803 22.5239 71.7467 12.1478 110.309 12.1478C119.962 12.1449 129.605 12.8008 139.169 14.1111C202.117 22.6739 258.569 53.9614 312.161 85.9544C362.118 115.805 412.14 146.561 470.434 158.279C494.765 163.156 519.521 165.602 544.337 165.581C597.059 165.581 649.165 154.779 699.652 136.026C716.69 129.695 733.451 122.725 749.993 115.284V114.871C733.408 122.341 716.606 129.328 699.52 135.676Z" fill="url(#paint24_linear_656_3880)"/>
<path d="M702.309 140.466C651.837 159.314 599.391 170.763 546.383 170.763C523.493 170.797 500.655 168.59 478.196 164.173C418.793 152.426 368.067 120.607 317.363 89.6732C262.993 56.5178 205.613 23.9348 141.359 14.8593C131.383 13.4406 121.319 12.7294 111.242 12.731C72.3278 12.7335 35.7579 23.215 0.00292969 38.2989V38.7018C35.7749 23.6022 72.3422 13.1056 111.243 13.1082C121.302 13.1059 131.348 13.8138 141.307 15.2264C205.466 24.2851 262.806 56.8335 317.172 89.987C367.87 120.923 418.631 152.776 478.125 164.543C500.608 168.961 523.471 171.169 546.385 171.137C599.446 171.137 651.938 159.677 702.441 140.815C718.514 134.813 734.346 128.257 749.994 121.292V120.879C734.299 127.873 718.422 134.442 702.309 140.466Z" fill="url(#paint25_linear_656_3880)"/>
<path d="M705.097 145.253C654.611 164.128 601.784 176.347 548.463 176.347C527.462 176.386 506.505 174.405 485.884 170.43C425.286 158.65 373.821 125.725 322.382 93.7026C267.233 59.3899 208.964 25.5372 143.501 15.9689C133.134 14.4486 122.669 13.6863 112.191 13.6881C72.9327 13.6881 36.0582 24.2951 0.00292969 39.5077V39.9157C36.0777 24.6786 72.9522 14.0616 112.191 14.0616C122.652 14.0583 133.1 14.8206 143.45 16.3424C208.818 25.8975 267.047 59.7119 322.189 94.0202C373.621 126.038 425.125 158.997 485.821 170.796C506.464 174.777 527.442 176.761 548.466 176.721C601.847 176.721 654.713 164.492 705.232 145.6C720.334 139.906 735.244 133.744 749.996 127.23V126.822C735.199 133.356 720.244 139.542 705.097 145.253Z" fill="url(#paint26_linear_656_3880)"/>
<path d="M707.886 150.041C657.61 168.984 604.547 182.061 551.093 182.061C531.794 182.103 512.536 180.304 493.579 176.689C431.754 164.988 379.576 130.847 327.395 97.7383C271.473 62.2626 212.322 27.1534 145.64 17.0842C134.891 15.4574 124.033 14.6408 113.161 14.6415C73.5531 14.6465 36.3645 25.374 0.00634766 40.7165V41.1245C36.389 25.7575 73.5719 15.0199 113.161 15.0199C124.015 15.0163 134.854 15.8305 145.585 17.4558C212.166 27.5073 271.281 62.5826 327.2 98.0527C379.373 131.157 431.594 165.335 493.514 177.06C512.493 180.677 531.775 182.476 551.096 182.432C604.612 182.432 657.717 169.346 708.023 150.39C722.167 145.037 736.159 139.316 749.996 133.226V132.823C736.106 138.898 722.069 144.638 707.886 150.041Z" fill="url(#paint27_linear_656_3880)"/>
<path d="M710.677 154.83C660.651 173.829 607.372 187.71 553.822 187.71C536.195 187.752 518.602 186.158 501.27 182.949C438.264 171.133 385.326 135.965 332.413 101.772C275.712 65.1407 215.668 28.7656 147.776 18.1975C136.647 16.4638 125.4 15.5939 114.136 15.5953C74.1748 15.5953 36.6758 26.4409 0.00292969 41.9208V42.3313C36.6953 26.8287 74.1917 15.9707 114.136 15.9707C125.382 15.9688 136.611 16.8379 147.721 18.5703C215.507 29.1208 275.51 65.4596 332.205 102.09C385.122 136.275 438.094 171.481 501.202 183.319C518.555 186.534 536.17 188.131 553.82 188.089C607.434 188.089 660.756 174.193 710.81 155.184C723.996 150.17 737.056 144.848 749.992 139.217V138.809C737.004 144.434 723.899 149.775 710.677 154.83Z" fill="url(#paint28_linear_656_3880)"/>
</g>
<defs>
<linearGradient id="paint0_linear_656_3880" x1="374" y1="0" x2="374" y2="382" gradientUnits="userSpaceOnUse">
<stop stop-color="#018E31"/>
<stop offset="1" stop-color="#71B5F3" stop-opacity="0"/>
</linearGradient>
<linearGradient id="paint1_linear_656_3880" x1="374" y1="0" x2="374" y2="365.5" gradientUnits="userSpaceOnUse">
<stop stop-color="#06BCBC"/>
<stop offset="0.28125" stop-color="#0099CC" stop-opacity="0.72"/>
<stop offset="0.880208" stop-color="#0099CC" stop-opacity="0"/>
</linearGradient>
<linearGradient id="paint2_linear_656_3880" x1="3.00144" y1="22.899" x2="756.877" y2="13.2908" gradientUnits="userSpaceOnUse">
<stop stop-color="#B0D6D6" stop-opacity="0"/>
<stop offset="1" stop-color="white" stop-opacity="0.69"/>
</linearGradient>
<linearGradient id="paint3_linear_656_3880" x1="3.00289" y1="28.7019" x2="756.867" y2="18.7963" gradientUnits="userSpaceOnUse">
<stop stop-color="#B0D6D6" stop-opacity="0"/>
<stop offset="1" stop-color="white" stop-opacity="0.69"/>
</linearGradient>
<linearGradient id="paint4_linear_656_3880" x1="3.00289" y1="34.3849" x2="756.86" y2="24.1653" gradientUnits="userSpaceOnUse">
<stop stop-color="#B0D6D6" stop-opacity="0"/>
<stop offset="1" stop-color="white" stop-opacity="0.69"/>
</linearGradient>
<linearGradient id="paint5_linear_656_3880" x1="3.00337" y1="39.6581" x2="756.854" y2="29.2888" gradientUnits="userSpaceOnUse">
<stop stop-color="#B0D6D6" stop-opacity="0"/>
<stop offset="1" stop-color="white" stop-opacity="0.69"/>
</linearGradient>
<linearGradient id="paint6_linear_656_3880" x1="3.00339" y1="43.2389" x2="756.871" y2="33.3734" gradientUnits="userSpaceOnUse">
<stop stop-color="#B0D6D6" stop-opacity="0"/>
<stop offset="1" stop-color="white" stop-opacity="0.69"/>
</linearGradient>
<linearGradient id="paint7_linear_656_3880" x1="3.00289" y1="46.7593" x2="756.88" y2="37.349" gradientUnits="userSpaceOnUse">
<stop stop-color="#B0D6D6" stop-opacity="0"/>
<stop offset="1" stop-color="white" stop-opacity="0.69"/>
</linearGradient>
<linearGradient id="paint8_linear_656_3880" x1="3.0029" y1="50.2811" x2="756.894" y2="41.2916" gradientUnits="userSpaceOnUse">
<stop stop-color="#B0D6D6" stop-opacity="0"/>
<stop offset="1" stop-color="white" stop-opacity="0.69"/>
</linearGradient>
<linearGradient id="paint9_linear_656_3880" x1="3.00239" y1="53.7991" x2="756.897" y2="45.1979" gradientUnits="userSpaceOnUse">
<stop stop-color="#B0D6D6" stop-opacity="0"/>
<stop offset="1" stop-color="white" stop-opacity="0.69"/>
</linearGradient>
<linearGradient id="paint10_linear_656_3880" x1="2.99996" y1="57.334" x2="756.906" y2="49.0937" gradientUnits="userSpaceOnUse">
<stop stop-color="#B0D6D6" stop-opacity="0"/>
<stop offset="1" stop-color="white" stop-opacity="0.69"/>
</linearGradient>
<linearGradient id="paint11_linear_656_3880" x1="3.00291" y1="60.8721" x2="756.919" y2="52.9659" gradientUnits="userSpaceOnUse">
<stop stop-color="#B0D6D6" stop-opacity="0"/>
<stop offset="1" stop-color="white" stop-opacity="0.69"/>
</linearGradient>
<linearGradient id="paint12_linear_656_3880" x1="3.0024" y1="64.4206" x2="756.92" y2="56.8252" gradientUnits="userSpaceOnUse">
<stop stop-color="#B0D6D6" stop-opacity="0"/>
<stop offset="1" stop-color="white" stop-opacity="0.69"/>
</linearGradient>
<linearGradient id="paint13_linear_656_3880" x1="3.00289" y1="67.988" x2="756.928" y2="60.6831" gradientUnits="userSpaceOnUse">
<stop stop-color="#B0D6D6" stop-opacity="0"/>
<stop offset="1" stop-color="white" stop-opacity="0.69"/>
</linearGradient>
<linearGradient id="paint14_linear_656_3880" x1="3.00289" y1="71.5661" x2="756.933" y2="64.5321" gradientUnits="userSpaceOnUse">
<stop stop-color="#B0D6D6" stop-opacity="0"/>
<stop offset="1" stop-color="white" stop-opacity="0.69"/>
</linearGradient>
<linearGradient id="paint15_linear_656_3880" x1="3.00289" y1="75.161" x2="756.938" y2="68.3806" gradientUnits="userSpaceOnUse">
<stop stop-color="#B0D6D6" stop-opacity="0"/>
<stop offset="1" stop-color="white" stop-opacity="0.69"/>
</linearGradient>
<linearGradient id="paint16_linear_656_3880" x1="3.00289" y1="78.7773" x2="756.942" y2="72.2358" gradientUnits="userSpaceOnUse">
<stop stop-color="#B0D6D6" stop-opacity="0"/>
<stop offset="1" stop-color="white" stop-opacity="0.69"/>
</linearGradient>
<linearGradient id="paint17_linear_656_3880" x1="3.00288" y1="82.419" x2="756.943" y2="76.1017" gradientUnits="userSpaceOnUse">
<stop stop-color="#B0D6D6" stop-opacity="0"/>
<stop offset="1" stop-color="white" stop-opacity="0.69"/>
</linearGradient>
<linearGradient id="paint18_linear_656_3880" x1="3.00291" y1="86.078" x2="756.952" y2="79.9721" gradientUnits="userSpaceOnUse">
<stop stop-color="#B0D6D6" stop-opacity="0"/>
<stop offset="1" stop-color="white" stop-opacity="0.69"/>
</linearGradient>
<linearGradient id="paint19_linear_656_3880" x1="3.00045" y1="89.7591" x2="756.949" y2="83.853" gradientUnits="userSpaceOnUse">
<stop stop-color="#B0D6D6" stop-opacity="0"/>
<stop offset="1" stop-color="white" stop-opacity="0.69"/>
</linearGradient>
<linearGradient id="paint20_linear_656_3880" x1="3.00289" y1="93.4696" x2="756.955" y2="87.7525" gradientUnits="userSpaceOnUse">
<stop stop-color="#B0D6D6" stop-opacity="0"/>
<stop offset="1" stop-color="white" stop-opacity="0.69"/>
</linearGradient>
<linearGradient id="paint21_linear_656_3880" x1="3.00289" y1="97.2027" x2="756.958" y2="91.6648" gradientUnits="userSpaceOnUse">
<stop stop-color="#B0D6D6" stop-opacity="0"/>
<stop offset="1" stop-color="white" stop-opacity="0.69"/>
</linearGradient>
<linearGradient id="paint22_linear_656_3880" x1="3.00289" y1="100.967" x2="756.961" y2="95.5992" gradientUnits="userSpaceOnUse">
<stop stop-color="#B0D6D6" stop-opacity="0"/>
<stop offset="1" stop-color="white" stop-opacity="0.69"/>
</linearGradient>
<linearGradient id="paint23_linear_656_3880" x1="3.00289" y1="104.756" x2="756.963" y2="99.5501" gradientUnits="userSpaceOnUse">
<stop stop-color="#B0D6D6" stop-opacity="0"/>
<stop offset="1" stop-color="white" stop-opacity="0.69"/>
</linearGradient>
<linearGradient id="paint24_linear_656_3880" x1="3.00289" y1="108.579" x2="756.965" y2="103.527" gradientUnits="userSpaceOnUse">
<stop stop-color="#B0D6D6" stop-opacity="0"/>
<stop offset="1" stop-color="white" stop-opacity="0.69"/>
</linearGradient>
<linearGradient id="paint25_linear_656_3880" x1="3.0029" y1="112.432" x2="756.968" y2="107.526" gradientUnits="userSpaceOnUse">
<stop stop-color="#B0D6D6" stop-opacity="0"/>
<stop offset="1" stop-color="white" stop-opacity="0.69"/>
</linearGradient>
<linearGradient id="paint26_linear_656_3880" x1="3.00291" y1="116.301" x2="756.972" y2="111.534" gradientUnits="userSpaceOnUse">
<stop stop-color="#B0D6D6" stop-opacity="0"/>
<stop offset="1" stop-color="white" stop-opacity="0.69"/>
</linearGradient>
<linearGradient id="paint27_linear_656_3880" x1="3.00631" y1="120.249" x2="756.974" y2="115.618" gradientUnits="userSpaceOnUse">
<stop stop-color="#B0D6D6" stop-opacity="0"/>
<stop offset="1" stop-color="white" stop-opacity="0.69"/>
</linearGradient>
<linearGradient id="paint28_linear_656_3880" x1="3.00289" y1="124.163" x2="756.971" y2="119.658" gradientUnits="userSpaceOnUse">
<stop stop-color="#B0D6D6" stop-opacity="0"/>
<stop offset="1" stop-color="white" stop-opacity="0.69"/>
</linearGradient>
</defs>
</svg>
