<svg width="56" height="56" viewBox="0 0 56 56" fill="none" xmlns="http://www.w3.org/2000/svg">
<circle cx="28" cy="28" r="28" fill="url(#paint0_linear_707_3565)"/>
<g filter="url(#filter0_d_707_3565)">
<path d="M32.0211 36.0967C32.1346 36.0967 32.1015 36.2369 31.9217 36.5173C31.7419 36.7978 31.4675 37.1062 31.0984 37.4428C30.7293 37.7793 30.294 38.0878 29.7924 38.3682C29.2909 38.6486 28.7562 38.7888 28.1884 38.7888C27.6774 38.7888 27.1853 38.6486 26.7121 38.3682C26.2389 38.0878 25.8225 37.7793 25.4629 37.4428C25.1033 37.1062 24.8289 36.7978 24.6396 36.5173C24.4504 36.2369 24.3936 36.0967 24.4693 36.0967H32.0211ZM39.0618 33.713C39.1943 33.8813 39.2558 34.0449 39.2464 34.2038C39.2369 34.3627 39.1943 34.4982 39.1186 34.6104C39.0429 34.7226 38.9483 34.8114 38.8347 34.8768C38.7212 34.9423 38.6076 34.975 38.494 34.975H17.7692C17.5042 34.975 17.3102 34.8675 17.1872 34.6525C17.0642 34.4375 17.1068 34.1711 17.315 33.8533C17.6367 33.2924 18.0152 32.6661 18.4506 31.9744C18.8859 31.2826 19.2975 30.5395 19.6855 29.745C20.0735 28.9504 20.4095 28.1091 20.6934 27.2211C20.9773 26.333 21.1192 25.403 21.1192 24.4308C21.1192 23.496 21.2517 22.6547 21.5167 21.9069C21.7817 21.1591 22.1271 20.5048 22.5529 19.9439C22.9788 19.383 23.4709 18.9063 24.0292 18.5137C24.5876 18.1211 25.1696 17.822 25.7752 17.6163C25.4724 17.1303 25.321 16.6255 25.321 16.102C25.321 15.3355 25.586 14.6905 26.1159 14.167C26.6459 13.6436 27.2988 13.3818 28.0748 13.3818C28.8508 13.3818 29.5038 13.6436 30.0338 14.167C30.5637 14.6905 30.8287 15.3355 30.8287 16.102C30.8287 16.3637 30.7908 16.6208 30.7151 16.8732C30.6394 17.1256 30.5353 17.3546 30.4028 17.5602C31.0463 17.7659 31.6567 18.065 32.234 18.4576C32.8113 18.8502 33.3128 19.3363 33.7387 19.9159C34.1645 20.4954 34.5052 21.1591 34.7607 21.9069C35.0162 22.6547 35.144 23.4867 35.144 24.4028C35.144 25.3375 35.2859 26.2583 35.5698 27.165C35.8537 28.0717 36.1944 28.9317 36.5919 29.745C36.9894 30.5582 37.4105 31.3013 37.8553 31.9744C38.3 32.6474 38.7022 33.227 39.0618 33.713V33.713ZM26.9676 16.102C26.9676 16.4011 27.0717 16.6582 27.2799 16.8732C27.4881 17.0882 27.7436 17.1957 28.0464 17.1957H28.1032C28.4061 17.177 28.6616 17.0648 28.8698 16.8592C29.078 16.6535 29.1821 16.4011 29.1821 16.102C29.1821 15.7842 29.078 15.5225 28.8698 15.3168C28.6616 15.1112 28.3966 15.0083 28.0748 15.0083C27.7531 15.0083 27.4881 15.1112 27.2799 15.3168C27.0717 15.5225 26.9676 15.7842 26.9676 16.102V16.102Z" fill="white"/>
</g>
<defs>
<filter id="filter0_d_707_3565" x="14.1187" y="10.3818" width="28.1289" height="31.4072" filterUnits="userSpaceOnUse" color-interpolation-filters="sRGB">
<feFlood flood-opacity="0" result="BackgroundImageFix"/>
<feColorMatrix in="SourceAlpha" type="matrix" values="0 0 0 0 0 0 0 0 0 0 0 0 0 0 0 0 0 0 127 0" result="hardAlpha"/>
<feOffset/>
<feGaussianBlur stdDeviation="1.5"/>
<feColorMatrix type="matrix" values="0 0 0 0 0.0654514 0 0 0 0 0.145818 0 0 0 0 0.270833 0 0 0 0.2 0"/>
<feBlend mode="normal" in2="BackgroundImageFix" result="effect1_dropShadow_707_3565"/>
<feBlend mode="normal" in="SourceGraphic" in2="effect1_dropShadow_707_3565" result="shape"/>
</filter>
<linearGradient id="paint0_linear_707_3565" x1="40.8867" y1="56" x2="7.99373" y2="6.30888" gradientUnits="userSpaceOnUse">
<stop stop-color="#DF184B"/>
<stop offset="1" stop-color="#FD91BA"/>
</linearGradient>
</defs>
</svg>
