<svg width="56" height="56" viewBox="0 0 56 56" fill="none" xmlns="http://www.w3.org/2000/svg">
<circle cx="28" cy="28" r="28" fill="url(#paint0_linear_707_3574)"/>
<g filter="url(#filter0_d_707_3574)">
<path d="M38.4211 16.7764H35.6682C35.6879 16.8096 35.7076 16.8433 35.7274 16.8769C36.0479 17.4418 36.2105 18.0432 36.2105 18.6645C36.2105 19.1653 36.0109 19.6455 35.6556 19.9996C35.3002 20.3537 34.8183 20.5526 34.3158 20.5526H21.6842C21.1817 20.5526 20.6998 20.3537 20.3444 19.9996C19.9891 19.6455 19.7895 19.1653 19.7895 18.6645C19.7895 18.0432 19.9521 17.4418 20.2726 16.8769C20.2924 16.8433 20.3121 16.8096 20.3318 16.7764H17.5789C17.1603 16.7769 16.759 16.9428 16.463 17.2378C16.167 17.5327 16.0005 17.9327 16 18.3498V39.1189C16.0005 39.536 16.167 39.936 16.463 40.2309C16.759 40.5259 17.1603 40.6918 17.5789 40.6923H38.4211C38.8397 40.6918 39.241 40.5259 39.537 40.2309C39.833 39.936 39.9995 39.536 40 39.1189V18.3498C39.9995 17.9327 39.833 17.5327 39.537 17.2378C39.241 16.9428 38.8397 16.7769 38.4211 16.7764ZM25.9203 32.9556L23.394 35.4731C23.3354 35.5316 23.2657 35.5779 23.1891 35.6096C23.1125 35.6412 23.0303 35.6575 22.9474 35.6575C22.8644 35.6575 22.7823 35.6412 22.7056 35.6096C22.629 35.5779 22.5594 35.5316 22.5007 35.4731L21.2376 34.2144C21.1191 34.0963 21.0526 33.9362 21.0526 33.7693C21.0526 33.6023 21.1191 33.4422 21.2376 33.3242C21.356 33.2062 21.5167 33.1398 21.6842 33.1398C21.8517 33.1398 22.0124 33.2062 22.1309 33.3242L22.9474 34.1381L25.027 32.0655C25.1455 31.9474 25.3062 31.8811 25.4737 31.8811C25.6412 31.8811 25.8019 31.9474 25.9203 32.0655C26.0388 32.1835 26.1053 32.3436 26.1053 32.5106C26.1053 32.6775 26.0388 32.8376 25.9203 32.9556ZM25.9203 27.9207L23.394 30.4382C23.3354 30.4966 23.2657 30.543 23.1891 30.5746C23.1125 30.6063 23.0303 30.6226 22.9474 30.6226C22.8644 30.6226 22.7823 30.6063 22.7056 30.5746C22.629 30.543 22.5594 30.4966 22.5007 30.4382L21.2376 29.1794C21.1191 29.0614 21.0526 28.9013 21.0526 28.7344C21.0526 28.5674 21.1191 28.4073 21.2376 28.2893C21.356 28.1712 21.5167 28.1049 21.6842 28.1049C21.8517 28.1049 22.0124 28.1712 22.1309 28.2893L22.9474 29.1031L25.027 27.0305C25.1455 26.9125 25.3062 26.8462 25.4737 26.8462C25.6412 26.8462 25.8019 26.9125 25.9203 27.0305C26.0388 27.1486 26.1053 27.3087 26.1053 27.4756C26.1053 27.6426 26.0388 27.8027 25.9203 27.9207ZM25.9203 22.8858L23.394 25.4032C23.3354 25.4617 23.2657 25.5081 23.1891 25.5397C23.1125 25.5713 23.0303 25.5876 22.9474 25.5876C22.8644 25.5876 22.7823 25.5713 22.7056 25.5397C22.629 25.5081 22.5594 25.4617 22.5007 25.4032L21.2376 24.1445C21.1789 24.0861 21.1324 24.0167 21.1006 23.9403C21.0689 23.8639 21.0526 23.7821 21.0526 23.6994C21.0526 23.5325 21.1191 23.3724 21.2376 23.2544C21.2962 23.1959 21.3659 23.1495 21.4425 23.1179C21.5191 23.0863 21.6013 23.07 21.6842 23.07C21.8517 23.07 22.0124 23.1363 22.1309 23.2544L22.9474 24.0682L25.027 21.9956C25.1455 21.8776 25.3062 21.8113 25.4737 21.8113C25.6412 21.8113 25.8019 21.8776 25.9203 21.9956C26.0388 22.1137 26.1053 22.2738 26.1053 22.4407C26.1053 22.6076 26.0388 22.7677 25.9203 22.8858ZM34.3158 34.3987H28C27.8325 34.3987 27.6719 34.3323 27.5534 34.2143C27.435 34.0963 27.3684 33.9362 27.3684 33.7693C27.3684 33.6024 27.435 33.4423 27.5534 33.3243C27.6719 33.2062 27.8325 33.1399 28 33.1399H34.3158C34.4833 33.1399 34.6439 33.2062 34.7624 33.3243C34.8808 33.4423 34.9474 33.6024 34.9474 33.7693C34.9474 33.9362 34.8808 34.0963 34.7624 34.2143C34.6439 34.3323 34.4833 34.3987 34.3158 34.3987ZM34.3158 29.3637H28C27.8325 29.3637 27.6719 29.2974 27.5534 29.1794C27.435 29.0614 27.3684 28.9013 27.3684 28.7344C27.3684 28.5674 27.435 28.4074 27.5534 28.2893C27.6719 28.1713 27.8325 28.105 28 28.105H34.3158C34.4833 28.105 34.6439 28.1713 34.7624 28.2893C34.8808 28.4074 34.9474 28.5674 34.9474 28.7344C34.9474 28.9013 34.8808 29.0614 34.7624 29.1794C34.6439 29.2974 34.4833 29.3637 34.3158 29.3637ZM34.3158 24.3288H28C27.8325 24.3288 27.6719 24.2625 27.5534 24.1445C27.435 24.0264 27.3684 23.8663 27.3684 23.6994C27.3684 23.5325 27.435 23.3724 27.5534 23.2544C27.6719 23.1364 27.8325 23.0701 28 23.0701H34.3158C34.4833 23.0701 34.6439 23.1364 34.7624 23.2544C34.8808 23.3724 34.9474 23.5325 34.9474 23.6994C34.9474 23.8663 34.8808 24.0264 34.7624 24.1445C34.6439 24.2625 34.4833 24.3288 34.3158 24.3288ZM21.0526 18.6645C21.0526 17.8961 21.4456 17.1662 22.1889 16.5538C22.7674 16.0772 23.5523 15.6786 24.474 15.392C24.729 14.7522 25.1531 14.1931 25.7013 13.7741C26.3616 13.272 27.1693 13 28 13C28.8307 13 29.6384 13.272 30.2987 13.7741C30.8469 14.1931 31.271 14.7522 31.526 15.392C32.4477 15.6786 33.2328 16.0772 33.8111 16.5538C34.5544 17.1662 34.9474 17.8961 34.9474 18.6645C34.9474 18.8314 34.8808 18.9915 34.7624 19.1095C34.6439 19.2276 34.4833 19.2939 34.3158 19.2939H21.6842C21.5167 19.2939 21.3561 19.2276 21.2376 19.1095C21.1192 18.9915 21.0526 18.8314 21.0526 18.6645Z" fill="white"/>
</g>
<defs>
<filter id="filter0_d_707_3574" x="13" y="10" width="30" height="33.6924" filterUnits="userSpaceOnUse" color-interpolation-filters="sRGB">
<feFlood flood-opacity="0" result="BackgroundImageFix"/>
<feColorMatrix in="SourceAlpha" type="matrix" values="0 0 0 0 0 0 0 0 0 0 0 0 0 0 0 0 0 0 127 0" result="hardAlpha"/>
<feOffset/>
<feGaussianBlur stdDeviation="1.5"/>
<feColorMatrix type="matrix" values="0 0 0 0 0.0654514 0 0 0 0 0.145818 0 0 0 0 0.270833 0 0 0 0.2 0"/>
<feBlend mode="normal" in2="BackgroundImageFix" result="effect1_dropShadow_707_3574"/>
<feBlend mode="normal" in="SourceGraphic" in2="effect1_dropShadow_707_3574" result="shape"/>
</filter>
<linearGradient id="paint0_linear_707_3574" x1="40.1594" y1="56" x2="22.5276" y2="-1.24281" gradientUnits="userSpaceOnUse">
<stop stop-color="#109293"/>
<stop offset="1" stop-color="#80ECDF"/>
</linearGradient>
</defs>
</svg>
