<svg width="554" height="120" viewBox="0 0 554 120" fill="none" xmlns="http://www.w3.org/2000/svg">
<path d="M38.5362 8C38.5362 3.58172 42.1179 0 46.5362 0H546C550.418 0 554 3.58172 554 8V112C554 116.418 550.418 120 546 120H46.5361C42.1179 120 38.5362 116.418 38.5362 112V82.5V70C38.5362 65.5817 34.9544 62 30.5362 62H6.43808C4.47411 62 3.68657 59.4649 5.30484 58.352L35.0691 37.8842C37.2395 36.3916 38.5362 33.9264 38.5362 31.2923V8Z" fill="url(#paint0_linear_707_3591)"/>
<mask id="mask0_707_3591" style="mask-type:luminance" maskUnits="userSpaceOnUse" x="434" y="0" width="120" height="120">
<path fill-rule="evenodd" clip-rule="evenodd" d="M546 0C550.418 0 554 3.58172 554 8V112C554 116.418 550.418 120 546 120H442C437.582 120 434 116.418 434 112V8C434 3.58172 437.582 0 442 0H546Z" fill="white"/>
</mask>
<g mask="url(#mask0_707_3591)">
<path opacity="0.45" fill-rule="evenodd" clip-rule="evenodd" d="M505.731 111.796C541.481 111.796 570.462 82.8146 570.462 47.0648C570.462 11.315 541.481 -17.666 505.731 -17.666C469.981 -17.666 441 11.315 441 47.0648C441 82.8146 469.981 111.796 505.731 111.796Z" fill="url(#paint1_linear_707_3591)" fill-opacity="0.56"/>
<g opacity="0.1">
<path d="M508.228 79.0414C506.902 83.433 517.208 90.6781 521.326 88.6552C521.422 88.6081 521.519 88.5616 521.616 88.5157C523.218 87.774 524.621 86.667 525.71 85.2848C526.799 83.9026 527.544 82.2845 527.884 80.5622C528.137 79.3241 528.127 78.0469 527.854 76.8127C527.021 74.1409 526.719 71.3339 526.963 68.5475C527.171 66.5094 527.97 64.5751 529.265 62.98C530.657 61.2466 532.552 58.2634 532.775 54.4294C532.879 51.9907 532.087 49.5977 530.545 47.6966C529.365 46.1958 528.505 44.4725 528.017 42.6315C527.657 41.2721 527.505 39.8695 527.563 38.4706C527.605 37.4789 527.782 36.4964 527.824 35.5047C527.937 32.8219 527.686 27.2619 523.908 25.3457C522.667 24.7168 521.179 24.7531 519.917 25.3377C517.606 26.4087 514.158 29.3839 514.553 37.5757C514.584 38.2029 514.671 38.829 514.738 39.4534C514.9 40.9812 515.07 44.1427 514.188 47.0577C513.702 48.6613 512.563 49.9653 511.764 51.4382C510.414 53.9296 508.884 58.6519 510.982 65.4856C511.027 65.6309 511.08 65.7732 511.133 65.9156C511.177 66.0347 511.236 66.202 511.301 66.4105C512.458 70.0997 509.345 75.34 508.228 79.0414Z" fill="url(#paint2_linear_707_3591)"/>
<path d="M511.753 86.6864C511.096 91.9382 500.295 91.8349 496.064 88.655C495.181 87.9914 493.63 86.6884 493.288 85.6381C492.506 83.2395 491.331 78.5673 492.386 74.5591C492.535 73.9907 492.768 73.453 492.979 72.9043C493.556 71.4004 494.709 67.9462 494.988 63.7155C495.199 60.5092 493.836 57.4624 492.779 54.428C491.872 51.8246 491.145 48.2681 491.77 44.3156C492.319 40.8461 495.006 38.1842 496.869 35.2063C498.302 32.917 499.652 29.6021 499.774 25.154C499.775 25.127 499.775 25.0993 499.776 25.0723C499.804 24.35 500.28 14.182 505.253 11.8205C506.771 11.0997 508.597 11.5464 509.845 12.6717C511.976 14.5931 514.681 19.0559 512.772 28.8807C512.672 29.394 512.537 29.9105 512.412 30.418C511.973 32.1911 511.018 36.7833 511.654 41.0409C511.872 42.5036 512.527 43.8543 512.983 45.2612C513.981 48.344 515.095 54.7332 511.544 63.2717C511.46 63.4732 511.364 63.6727 511.272 63.8702C510.997 64.4537 510.393 65.8644 510.009 67.6938C509.188 71.6078 512.224 81.0332 511.922 85.0209C511.881 85.5508 511.826 86.1059 511.753 86.6864Z" fill="url(#paint3_linear_707_3591)"/>
<path d="M506.134 24.4336L503.959 114.311" stroke="white" stroke-width="1.72" stroke-miterlimit="10"/>
<path d="M520.363 38.375L510.532 113.259" stroke="white" stroke-width="1.72" stroke-miterlimit="10"/>
<path d="M502.538 92.0146C502.513 96.2718 493.652 96.9378 489.756 95.2225C488.277 94.5766 486.971 93.5943 485.946 92.3549C484.92 91.1156 484.202 89.6539 483.85 88.0882C483.578 86.9584 484.325 82.4667 484.444 81.3108C484.636 79.4589 484.637 77.0345 483.942 74.5367C483.76 73.8813 483.35 73.3218 482.875 72.8347C481.607 71.5343 479.156 68.5203 478.838 64.3985C478.593 61.2253 480.91 58.5814 482.194 55.6692C482.37 55.2701 482.525 54.8612 482.66 54.4442C483.276 52.5297 483.424 50.4979 483.095 48.5163C483.079 48.4228 483.063 48.3333 483.05 48.2394C482.902 47.1707 482.092 40.14 486.119 37.7814C487.318 37.079 488.823 37.0825 490.084 37.6673C492.205 38.6516 495.231 41.3265 495.057 48.5694C495.043 49.1756 494.972 49.7809 494.925 50.3854C494.817 51.7587 494.746 54.483 495.523 57.0226C496.018 58.6372 497.21 59.9249 498.021 61.406C499.227 63.6096 500.521 67.5739 499.078 73.2811C498.928 73.8749 498.718 74.4509 498.562 75.0432C498.2 76.4158 497.744 79.1772 498.992 81.6787C499.622 82.9428 500.814 84.0283 501.373 85.3256C501.961 86.6895 502.557 88.8578 502.538 92.0146Z" fill="url(#paint4_linear_707_3591)"/>
<path d="M489.45 54.0312L498.948 107.465" stroke="white" stroke-width="1.72" stroke-miterlimit="10"/>
</g>
<path opacity="0.8" d="M466.5 136C478.926 136 489 125.926 489 113.5C489 101.074 478.926 91 466.5 91C454.074 91 444 101.074 444 113.5C444 125.926 454.074 136 466.5 136Z" fill="url(#paint5_linear_707_3591)" fill-opacity="0.12"/>
</g>
<defs>
<linearGradient id="paint0_linear_707_3591" x1="59.536" y1="0.000490249" x2="588.794" y2="210.53" gradientUnits="userSpaceOnUse">
<stop stop-color="#7AFFAF" stop-opacity="0.62"/>
<stop offset="1" stop-color="#01ACE4" stop-opacity="0.61"/>
</linearGradient>
<linearGradient id="paint1_linear_707_3591" x1="463.786" y1="111.795" x2="548.713" y2="13.9221" gradientUnits="userSpaceOnUse">
<stop stop-color="#C6DDFF"/>
<stop offset="1" stop-color="#E9FFE6"/>
</linearGradient>
<linearGradient id="paint2_linear_707_3591" x1="520.136" y1="24.7451" x2="520.136" y2="102.208" gradientUnits="userSpaceOnUse">
<stop stop-color="#F829FC"/>
<stop offset="1" stop-color="#FCBC29" stop-opacity="0"/>
</linearGradient>
<linearGradient id="paint3_linear_707_3591" x1="502.754" y1="11.333" x2="502.754" y2="107.974" gradientUnits="userSpaceOnUse">
<stop stop-color="#1DD60C"/>
<stop offset="1" stop-color="#53E620" stop-opacity="0.59"/>
</linearGradient>
<linearGradient id="paint4_linear_707_3591" x1="490.671" y1="37.0986" x2="490.671" y2="107.465" gradientUnits="userSpaceOnUse">
<stop stop-color="#29EFFC"/>
<stop offset="1" stop-color="#293EFC" stop-opacity="0.53"/>
</linearGradient>
<linearGradient id="paint5_linear_707_3591" x1="460.765" y1="99.8235" x2="466.5" y2="136" gradientUnits="userSpaceOnUse">
<stop stop-color="#E24B4B" stop-opacity="0.71"/>
<stop offset="1" stop-color="#5D2477" stop-opacity="0.23"/>
</linearGradient>
</defs>
</svg>
