<svg width="91" height="54" viewBox="0 0 91 54" fill="none" xmlns="http://www.w3.org/2000/svg">
<path d="M43.696 15.992L42.808 16.856C44.392 18.128 45.664 19.328 46.6 20.48L47.512 19.568C46.48 18.368 45.208 17.192 43.696 15.992ZM41.128 22.976V24.248H44.608V34.328C44.608 34.664 44.44 34.952 44.152 35.24L44.656 36.416C46.312 35.312 47.872 34.088 49.312 32.72L48.976 31.328C47.872 32.384 46.84 33.296 45.904 34.016V22.976H41.128ZM49.648 25.76V27.008H50.92C51.616 29.24 52.96 31.232 54.928 32.96C53.104 34.304 50.8 35.408 48.04 36.272L48.76 37.352C51.616 36.488 54.016 35.312 55.96 33.824C57.688 35.144 59.848 36.32 62.464 37.352L63.16 36.248C60.664 35.336 58.576 34.256 56.896 33.032C58.768 31.376 60.088 29.36 60.904 26.96V25.76H49.648ZM52.192 27.008H59.608C58.816 29 57.568 30.728 55.864 32.216C54.088 30.704 52.864 28.976 52.192 27.008ZM51.616 16.496V18.824C51.616 20.912 50.536 22.52 48.4 23.672L49.288 24.656C51.688 23.264 52.912 21.272 52.912 18.704V17.72H58.048V22.04C58.048 23.312 58.696 23.96 60.04 23.96H62.584V22.76H60.304C59.656 22.76 59.344 22.448 59.344 21.824V16.496H51.616ZM86.392 27.056H71.656V37.328H72.904V36.176H85.144V37.328H86.392V27.056ZM72.904 35.024V32.168H78.376V35.024H72.904ZM79.624 35.024V32.168H85.144V35.024H79.624ZM72.904 31.064V28.208H78.376V31.064H72.904ZM79.624 28.208H85.144V31.064H79.624V28.208ZM76.024 15.176C74.344 17.72 72.088 19.832 69.256 21.512L70.096 22.52C71.368 21.728 72.544 20.84 73.624 19.88C74.8 21.128 76.216 22.208 77.848 23.144C75.064 24.44 71.824 25.376 68.08 25.928L68.656 27.056C72.664 26.384 76.144 25.304 79.072 23.816C81.88 25.232 85.288 26.24 89.296 26.84L89.896 25.664C86.2 25.184 82.984 24.344 80.296 23.144C82.552 21.8 84.472 20.192 86.032 18.272V17.264H76.048C76.504 16.688 76.936 16.088 77.32 15.464L76.024 15.176ZM74.416 19.112C74.608 18.896 74.824 18.68 75.064 18.44H84.424C82.936 20.024 81.16 21.392 79.048 22.544C77.224 21.584 75.688 20.456 74.416 19.112Z" fill="#333333"/>
<path d="M30.717 23.3391H8.28303C7.57515 23.3391 7 23.902 7 24.5926V28.9743C7 29.6679 7.57515 30.2279 8.28303 30.2279H30.717C31.4248 30.2279 32 29.6679 32 28.9743V24.5926C32 23.902 31.4248 23.3391 30.717 23.3391ZM12.1292 27.0998C12.1292 27.7904 11.554 28.3533 10.8462 28.3533H10.2061C9.49823 28.3533 8.92308 27.7904 8.92308 27.0998V26.473C8.92308 25.7824 9.49823 25.2194 10.2061 25.2194H10.8462C11.554 25.2194 12.1292 25.7795 12.1292 26.473V27.0998ZM17.2554 27.0998C17.2554 27.7904 16.6803 28.3533 15.9724 28.3533H15.3324C14.6245 28.3533 14.0493 27.7904 14.0493 27.0998V26.473C14.0493 25.7824 14.6245 25.2194 15.3324 25.2194H15.9724C16.6803 25.2194 17.2554 25.7795 17.2554 26.473V27.0998ZM22.3846 27.0998C22.3846 27.7904 21.8095 28.3533 21.1016 28.3533H20.4615C19.7537 28.3533 19.1785 27.7904 19.1785 27.0998V26.473C19.1785 25.7824 19.7537 25.2194 20.4615 25.2194H21.1016C21.8095 25.2194 22.3846 25.7795 22.3846 26.473V27.0998ZM30.0769 27.0998C30.0769 27.7904 29.5018 28.3533 28.7939 28.3533H28.1538C27.446 28.3533 26.8708 27.7904 26.8708 27.0998V26.473C26.8708 25.7824 27.446 25.2194 28.1538 25.2194H28.7939C29.5018 25.2194 30.0769 25.7795 30.0769 26.473V27.0998ZM30.717 32.1083H8.28303C7.57515 32.1083 7 32.6683 7 33.3618V37.7464C7 38.44 7.57515 39 8.28303 39H30.717C31.4248 39 32 38.44 32 37.7464V33.3618C32 32.6712 31.4248 32.1083 30.717 32.1083ZM12.1292 35.8661C12.1292 36.5567 11.554 37.1196 10.8462 37.1196H10.2061C9.49823 37.1196 8.92308 36.5567 8.92308 35.8661V35.2393C8.92308 34.5487 9.49823 33.9857 10.2061 33.9857H10.8462C11.554 33.9857 12.1292 34.5458 12.1292 35.2393V35.8661ZM17.2554 35.8661C17.2554 36.5567 16.6803 37.1196 15.9724 37.1196H15.3324C14.6245 37.1196 14.0493 36.5567 14.0493 35.8661V35.2393C14.0493 34.5487 14.6245 33.9857 15.3324 33.9857H15.9724C16.6803 33.9857 17.2554 34.5458 17.2554 35.2393V35.8661ZM22.3846 35.8661C22.3846 36.5567 21.8095 37.1196 21.1016 37.1196H20.4615C19.7537 37.1196 19.1785 36.5567 19.1785 35.8661V35.2393C19.1785 34.5487 19.7537 33.9857 20.4615 33.9857H21.1016C21.8095 33.9857 22.3846 34.5458 22.3846 35.2393V35.8661ZM30.0769 35.8661C30.0769 36.5567 29.5018 37.1196 28.7939 37.1196H28.1538C27.446 37.1196 26.8708 36.5567 26.8708 35.8661V35.2393C26.8708 34.5487 27.446 33.9857 28.1538 33.9857H28.7939C29.5018 33.9857 30.0769 34.5458 30.0769 35.2393V35.8661ZM9.45989 21.3804H29.5401C30.8733 21.3804 31.9558 20.3212 31.9558 19.0183L30.0327 15.3592C30.0327 14.0562 28.9502 13 27.617 13H11.383C10.0498 13 8.96732 14.0562 8.96732 15.3592L7.04424 19.0212C7.04424 20.3241 8.12671 21.3804 9.45989 21.3804Z" fill="url(#paint0_linear_227_452)"/>
<defs>
<linearGradient id="paint0_linear_227_452" x1="7" y1="13" x2="24.2027" y2="32.2654" gradientUnits="userSpaceOnUse">
<stop stop-color="#A6D4FF"/>
<stop offset="1" stop-color="#085EAE"/>
</linearGradient>
</defs>
</svg>
