<svg width="210" height="163" viewBox="0 0 210 163" fill="none" xmlns="http://www.w3.org/2000/svg">
<path d="M42.0726 89.3504C37.6359 87.3454 32.8254 81.9667 34.1889 76.9059C34.8709 76.7316 35.5885 77.0094 35.9747 77.5973C35.9747 77.5973 43.6715 89.6062 41.5119 78.5583C40.4945 73.3662 38.7433 68.3469 38.6049 62.982C38.3765 53.2338 47.333 50.5306 49.9078 61.302C50.247 62.7262 51.5482 74.3064 54.5106 72.979C54.8922 72.7786 55.2019 72.4645 55.3966 72.0803C56.8986 69.619 57.3485 66.0032 60.1033 65.1667C62.5189 64.4062 64.8999 66.501 66.2012 68.665C68.8383 73.062 72.3683 83.9924 66.9695 87.698C61.5706 91.4037 47.949 91.9914 42.121 89.3988L42.0726 89.3504Z" fill="url(#paint0_linear_249_690)"/>
<path d="M154.16 101.041C152.208 96.5822 152.257 89.3713 156.687 86.5229C157.313 86.859 157.651 87.5596 157.524 88.2582C157.524 88.2582 155.164 102.327 160.985 92.6829C163.754 88.1407 165.83 83.2528 169.291 79.1807C175.652 71.7555 184.131 75.7861 178.808 85.4997C178.116 86.7856 171.291 96.2434 174.378 97.2528C174.796 97.3554 175.235 97.3289 175.638 97.1767C178.407 96.3609 181.175 93.9826 183.792 95.1856C186.09 96.2434 186.449 99.3822 185.965 101.864C184.968 106.89 180.083 112.511 173.59 111.64C166.959 110.741 156.735 106.918 154.181 101.09L154.16 101.041Z" fill="url(#paint1_linear_249_690)"/>
<path d="M208.73 111.64C182.629 93.7541 145.744 82.6025 104.865 82.6025C63.9863 82.6025 27.1012 93.7541 1 111.64H208.73Z" fill="url(#paint2_linear_249_690)"/>
<path d="M165.533 57.7139C163.878 59.7879 162.819 62.7262 163.809 65.3534C164.494 67.1647 166.557 67.1786 166.412 69.6951C166.269 70.9517 165.838 72.1584 165.152 73.221C163.983 75.2641 162.549 77.1446 160.888 78.8141C162.273 79.8927 162.977 81.6262 162.736 83.3632C162.465 85.0874 161.647 86.6793 160.404 87.9055C160.038 88.3527 159.56 88.696 159.019 88.901C158.496 89.0219 157.951 89.0219 157.428 88.901C154.852 88.4645 152.352 87.6661 150.001 86.5297C148.533 85.8314 147.038 84.8773 146.54 83.3563C145.969 81.6107 146.877 81.056 147.868 80.509L148.124 80.3678C148.635 80.0827 149.137 79.7729 149.44 79.2773C150.167 78.0882 150.188 76.4981 150.444 75.1707C150.817 73.2141 150.264 69.6467 152.714 68.8793C153.662 68.582 154.693 68.6512 155.642 68.347C157.702 67.6921 158.554 65.7566 159.38 63.7996L159.53 63.4438C160.006 62.3182 160.497 61.2107 161.227 60.3618C162.266 59.1519 164.841 58.5573 165.533 57.7139ZM159.552 69.3218C159.552 69.3218 152.098 78.0052 152.34 86.0319H154.749C154.749 86.0319 155.621 76.3529 159.552 69.3218Z" fill="url(#paint3_linear_249_690)"/>
<path d="M59.3835 12.3256C59.422 9.64565 57.5056 7.3348 54.8622 6.87382C52.2188 6.41284 49.6318 7.93833 48.7589 10.4728C47.0934 10.4402 45.543 11.3184 44.7161 12.7627C43.8891 14.207 43.9176 15.9871 44.7903 17.4043C45.663 18.8216 47.2407 19.6499 48.9042 19.5641H58.9336C60.8378 19.5388 62.4008 18.0518 62.5188 16.1533C62.6368 14.2547 61.27 12.5861 59.3835 12.3256Z" fill="url(#paint4_linear_249_690)"/>
<path d="M100.837 6.83671V6.80214C100.833 3.48967 98.4428 0.660606 95.1744 0.099166C91.9061 -0.462275 88.7074 1.40678 87.5957 4.52757C84.4515 4.57721 81.943 7.16334 81.9927 10.3039C82.0424 13.4444 84.6315 15.95 87.7756 15.9004H100.234C102.635 15.9047 104.624 14.042 104.774 11.6491C104.924 9.25616 103.184 7.15979 100.802 6.86436L100.837 6.83671Z" fill="url(#paint5_linear_249_690)"/>
<path d="M46.4124 81.2002H72.4763L98.7007 100.927L72.9436 100.004L46.4124 81.2002Z" fill="url(#paint6_linear_249_690)"/>
<path d="M138.358 67.6228L105.28 86.8004L72.2021 67.6228C72.2021 67.6069 72.2021 67.5858 72.2076 67.5699C72.2345 67.448 74.0603 65.9496 76.8447 63.726C76.8715 63.705 76.893 63.6837 76.9201 63.6624C86.054 56.3716 105.28 41.4404 105.28 41.4404C105.28 41.4404 124.507 56.3716 133.641 63.6624C136.468 65.918 138.326 67.4429 138.353 67.5699C138.358 67.5856 138.358 67.6069 138.358 67.6228Z" fill="#00AEF0"/>
<path d="M138.358 67.6228L105.28 86.8004L72.2021 67.6228C72.2021 67.6069 72.2021 67.5858 72.2076 67.5699C72.2345 67.448 74.0603 65.9496 76.8447 63.726C76.8715 63.705 76.893 63.6837 76.9201 63.6624C86.054 56.3716 105.28 41.4404 105.28 41.4404C105.28 41.4404 124.507 56.3716 133.641 63.6624C136.468 65.918 138.326 67.4429 138.353 67.5699C138.358 67.5856 138.358 67.6069 138.358 67.6228Z" fill="#F3FFF5"/>
<path d="M119.671 24.0801H84.8919C81.9089 24.0801 79.4905 26.537 79.4905 29.5676V82.9925C79.4905 86.0234 81.9089 88.4801 84.8919 88.4801H128.472C131.455 88.4801 133.873 86.0231 133.873 82.9925V38.5087L119.671 24.0801Z" fill="url(#paint7_linear_249_690)"/>
<path d="M119.857 32.7554C119.857 35.6963 122.339 38.0801 125.401 38.0801H134.434L119.857 24.0801V32.7554Z" fill="#E8E8E8"/>
<path d="M100.571 34.1602H88.6852C87.6324 34.1602 86.7791 35.0125 86.7791 36.0641V47.9363C86.7791 48.9878 87.6324 49.8402 88.6852 49.8402H100.571C101.624 49.8402 102.477 48.9878 102.477 47.9363V36.0641C102.477 35.0125 101.624 34.1602 100.571 34.1602Z" fill="#F9FFFD"/>
<path d="M118.249 53.7598H88.3869C87.4989 53.7598 86.7791 54.3865 86.7791 55.1597C86.7791 55.9328 87.4989 56.5598 88.3869 56.5598H118.249C119.137 56.5598 119.857 55.933 119.857 55.1597C119.857 54.3865 119.138 53.7598 118.249 53.7598Z" fill="#F9FFFD"/>
<path d="M118.249 62.7197H88.3869C87.4989 62.7197 86.7791 63.3465 86.7791 64.1196C86.7791 64.893 87.4989 65.5197 88.3869 65.5197H118.249C119.137 65.5197 119.857 64.893 119.857 64.1196C119.857 63.3465 119.138 62.7197 118.249 62.7197Z" fill="#F9FFFD"/>
<path d="M103.756 68.3203H88.3033C87.4615 68.3203 86.7791 68.9471 86.7791 69.7202C86.7791 70.4933 87.4615 71.1203 88.3033 71.1203H103.756C104.598 71.1203 105.28 70.4936 105.28 69.7202C105.28 68.9471 104.598 68.3203 103.756 68.3203Z" fill="#F9FFFD"/>
<path d="M138.066 65.5957V96.9446C138.066 99.1356 136.262 100.926 134.055 100.926H76.2317C74.0245 100.926 72.2312 99.1356 72.2312 96.9446V65.5957L105.149 84.8623L138.066 65.5957Z" fill="url(#paint8_linear_249_690)"/>
<path opacity="0.796735" d="M136.954 99.6788L115.767 78.6474L105.149 84.862L94.5262 78.6445L73.3379 99.6774C74.0672 100.442 75.0909 100.926 76.2319 100.926H134.055C135.196 100.927 136.222 100.443 136.954 99.6788Z" fill="url(#paint9_linear_249_690)"/>
<path d="M127.146 42C134.886 42 141.162 35.732 141.162 28C141.162 20.268 134.886 14 127.146 14C119.405 14 113.129 20.268 113.129 28C113.129 35.732 119.405 42 127.146 42Z" fill="url(#paint10_linear_249_690)"/>
<path d="M119.857 30.2398C121.096 30.2398 122.1 29.2369 122.1 27.9998C122.1 26.7626 121.096 25.7598 119.857 25.7598C118.619 25.7598 117.615 26.7626 117.615 27.9998C117.615 29.2369 118.619 30.2398 119.857 30.2398Z" fill="white"/>
<path d="M127.146 30.2398C128.384 30.2398 129.388 29.2369 129.388 27.9998C129.388 26.7626 128.384 25.7598 127.146 25.7598C125.907 25.7598 124.903 26.7626 124.903 27.9998C124.903 29.2369 125.907 30.2398 127.146 30.2398Z" fill="white"/>
<path d="M134.434 30.2398C135.673 30.2398 136.677 29.2369 136.677 27.9998C136.677 26.7626 135.673 25.7598 134.434 25.7598C133.195 25.7598 132.191 26.7626 132.191 27.9998C132.191 29.2369 133.195 30.2398 134.434 30.2398Z" fill="white"/>
<path d="M62.024 139.056C60.92 139.152 59.744 139.248 58.496 139.344V137.448H62.24V136.032H58.496V134.448H56.912V136.032H54.128C54.728 135.24 55.304 134.328 55.832 133.32H62.408V131.784H56.552C56.744 131.352 56.912 130.92 57.08 130.488L55.352 130.2C55.16 130.728 54.944 131.256 54.728 131.784H51.392V133.32H53.96C53.384 134.4 52.736 135.312 52.064 136.08L52.448 137.448H56.912V139.44C55.28 139.536 53.528 139.608 51.704 139.704L51.92 141.24C53.648 141.144 55.328 141.024 56.912 140.928V142.656H58.496V140.808C59.72 140.688 60.896 140.568 62.024 140.472V139.056ZM65.384 137.472H68.504V142.68H70.16V137.472H72.704V135.96H65.504V133.464C68.096 133.176 70.256 132.624 72.032 131.856L70.928 130.56C69.248 131.328 66.896 131.856 63.92 132.144V135.912C63.872 138.072 63.296 139.92 62.24 141.48L63.44 142.728C64.472 141.24 65.12 139.488 65.384 137.472ZM70.016 143.376H54.272V152.4H56.048V151.464H68.24V152.4H70.016V143.376ZM56.048 149.976V148.104H68.24V149.976H56.048ZM56.048 146.712V144.84H68.24V146.712H56.048ZM77.192 131.688V133.368H84.08V134.976C84.056 136.464 83.96 137.88 83.768 139.176H75.584V140.832H83.48C83.168 142.344 82.736 143.712 82.16 144.912C80.864 147.36 78.584 149.304 75.272 150.792L76.232 152.328C79.568 150.888 81.968 148.848 83.456 146.256C84.272 144.72 84.872 142.92 85.256 140.832H87.2V149.568C87.2 151.2 87.968 152.016 89.552 152.016H93.44C94.448 152.016 95.168 151.8 95.624 151.368C96.152 150.84 96.512 149.424 96.704 147.072L95.072 146.544C94.952 148.416 94.736 149.52 94.4 149.904C94.136 150.216 93.704 150.384 93.128 150.384H90.08C89.312 150.384 88.928 149.976 88.928 149.208V140.832H96.368V139.176H85.52C85.688 137.88 85.784 136.464 85.832 134.976V133.368H94.424V131.688H77.192ZM99.728 131.352V132.96H109.136V135.048H101.792V144.552H108.824C108.584 145.8 108.152 146.832 107.576 147.648C106.232 146.952 104.984 146.136 103.856 145.2L102.536 146.112C103.712 147.12 105.008 148.008 106.4 148.776C104.864 149.88 102.416 150.552 99.08 150.816L99.824 152.4C103.64 151.968 106.4 151.056 108.08 149.616C111.656 151.248 115.856 152.184 120.68 152.376L121.112 150.72C116.504 150.576 112.52 149.784 109.16 148.368C109.832 147.408 110.288 146.136 110.576 144.552H118.304V135.048H110.864V132.96H120.296V131.352H99.728ZM116.6 143.04H110.792L110.864 141.336V140.496H116.6V143.04ZM109.064 143.04H103.496V140.496H109.136V141.336C109.136 141.912 109.112 142.488 109.064 143.04ZM103.496 139.056V136.536H109.136V139.056H103.496ZM110.864 136.536H116.6V139.056H110.864V136.536ZM133.904 130.32C131.792 132.624 128.6 134.16 124.328 134.976L125.336 136.56C127.904 135.984 130.112 135.144 131.984 134.04H138.992C137.648 136.008 135.704 137.52 133.208 138.528C132.44 137.568 131.624 136.704 130.76 135.888L129.248 136.608C130.064 137.352 130.856 138.192 131.6 139.104C129.872 139.608 127.952 139.92 125.792 140.064L126.536 141.624C133.544 141.072 138.368 138.48 140.96 133.872V132.504H134.072C134.552 132.072 135.008 131.616 135.44 131.136L133.904 130.32ZM132.992 145.32L131.456 146.04C132.344 146.904 133.184 147.888 134 148.968C131.288 149.88 128.048 150.336 124.304 150.36L125 152.016C134.312 151.8 140.648 148.872 144.056 143.208V141.84H137.48C138.152 141.336 138.752 140.784 139.328 140.208L137.84 139.392C135.344 142.032 131.48 143.64 126.248 144.168L127.28 145.704C130.184 145.2 132.68 144.432 134.792 143.424H141.896C140.36 145.536 138.272 147.192 135.608 148.344C134.792 147.264 133.904 146.256 132.992 145.32ZM149.984 147.144C149.576 147.144 149.24 147.264 148.976 147.552C148.688 147.816 148.544 148.152 148.544 148.56C148.544 148.968 148.688 149.304 148.976 149.592C149.24 149.856 149.576 150 149.984 150C150.392 150 150.752 149.856 151.04 149.592C151.304 149.328 151.448 148.992 151.448 148.56C151.448 148.152 151.304 147.816 151.04 147.552C150.752 147.264 150.416 147.144 149.984 147.144ZM158 147.144C157.592 147.144 157.256 147.264 156.968 147.552C156.68 147.816 156.56 148.152 156.56 148.56C156.56 148.968 156.68 149.304 156.968 149.592C157.256 149.856 157.592 150 158 150C158.408 150 158.768 149.856 159.056 149.592C159.32 149.328 159.464 148.992 159.464 148.56C159.464 148.152 159.32 147.816 159.056 147.552C158.768 147.264 158.408 147.144 158 147.144ZM165.992 147.144C165.584 147.144 165.248 147.264 164.96 147.552C164.672 147.816 164.552 148.152 164.552 148.56C164.552 148.968 164.672 149.304 164.96 149.592C165.248 149.856 165.584 150 165.992 150C166.4 150 166.736 149.856 167.024 149.592C167.312 149.328 167.456 148.992 167.456 148.56C167.456 148.152 167.312 147.816 167.024 147.552C166.736 147.264 166.4 147.144 165.992 147.144Z" fill="#999999"/>
<defs>
<linearGradient id="paint0_linear_249_690" x1="17.1009" y1="-13.7542" x2="60.2093" y2="90.3371" gradientUnits="userSpaceOnUse">
<stop stop-color="#D2D2D2"/>
<stop offset="1" stop-color="#D2D2D2" stop-opacity="0"/>
</linearGradient>
<linearGradient id="paint1_linear_249_690" x1="192.465" y1="35.0087" x2="167.417" y2="94.0342" gradientUnits="userSpaceOnUse">
<stop stop-color="#D2D2D2"/>
<stop offset="1" stop-color="#D2D2D2" stop-opacity="0"/>
</linearGradient>
<linearGradient id="paint2_linear_249_690" x1="104.865" y1="18.3851" x2="104.865" y2="111.64" gradientUnits="userSpaceOnUse">
<stop stop-color="#D2D2D2"/>
<stop offset="1" stop-color="#D2D2D2" stop-opacity="0"/>
</linearGradient>
<linearGradient id="paint3_linear_249_690" x1="166.435" y1="27.1303" x2="139.759" y2="83.6846" gradientUnits="userSpaceOnUse">
<stop stop-color="#D2D2D2"/>
<stop offset="1" stop-color="#D2D2D2" stop-opacity="0"/>
</linearGradient>
<linearGradient id="paint4_linear_249_690" x1="53.3206" y1="-22.6128" x2="53.3206" y2="19.5702" gradientUnits="userSpaceOnUse">
<stop stop-color="#EDFBFF"/>
<stop offset="1" stop-color="#D2D2D2" stop-opacity="0"/>
</linearGradient>
<linearGradient id="paint5_linear_249_690" x1="93.3876" y1="-26.9052" x2="93.3876" y2="15.9011" gradientUnits="userSpaceOnUse">
<stop stop-color="#D2D2D2"/>
<stop offset="1" stop-color="#D2D2D2" stop-opacity="0"/>
</linearGradient>
<linearGradient id="paint6_linear_249_690" x1="81.6406" y1="89.9744" x2="82.1324" y2="92.8874" gradientUnits="userSpaceOnUse">
<stop stop-color="#EBEBEB" stop-opacity="0"/>
<stop offset="1" stop-color="#BBB9B9"/>
</linearGradient>
<linearGradient id="paint7_linear_249_690" x1="106.682" y1="24.0801" x2="106.682" y2="88.4801" gradientUnits="userSpaceOnUse">
<stop stop-color="#EFEFEF"/>
<stop offset="1" stop-color="#FDFDFD"/>
</linearGradient>
<linearGradient id="paint8_linear_249_690" x1="105.149" y1="74.7456" x2="105.149" y2="100.926" gradientUnits="userSpaceOnUse">
<stop stop-color="#EAEAEA"/>
<stop offset="1" stop-color="#F6F6F6"/>
</linearGradient>
<linearGradient id="paint9_linear_249_690" x1="105.146" y1="83.1355" x2="105.146" y2="100.926" gradientUnits="userSpaceOnUse">
<stop stop-color="#D7D7D7"/>
<stop offset="1" stop-color="#E6E6E6"/>
</linearGradient>
<linearGradient id="paint10_linear_249_690" x1="118.069" y1="12.6014" x2="136.842" y2="44.5219" gradientUnits="userSpaceOnUse">
<stop stop-color="#FAFFFF"/>
<stop offset="1" stop-color="#09ABAD" stop-opacity="0.86"/>
</linearGradient>
</defs>
</svg>
