<svg width="356" height="220" viewBox="0 0 356 220" fill="none" xmlns="http://www.w3.org/2000/svg">
<mask id="mask0_634_14357" style="mask-type:alpha" maskUnits="userSpaceOnUse" x="0" y="0" width="351" height="200">
<rect width="351" height="200" rx="20" transform="matrix(1 0 0 -1 0 200)" fill="url(#paint0_linear_634_14357)"/>
</mask>
<g mask="url(#mask0_634_14357)">
<path d="M208.542 185.06C209.957 185.894 211.221 186.705 212.165 187.547C224.481 198.538 243.361 197.372 263.355 192.161C284.444 186.665 318.65 176.761 324.204 150.532C327.35 135.673 315.933 115.714 300.619 99.5188C286.669 84.7666 269.65 73.1384 254.234 71.3358C250.371 70.8841 245.657 70.8414 240.599 71.4974C211.313 77.5185 195.504 93.8359 193.089 127.043C190.675 160.25 193.4 166.66 208.542 185.06Z" fill="url(#paint1_radial_634_14357)" fill-opacity="0.06"/>
<path d="M217.36 192.065C212.764 161.717 226.305 129 257.274 129C281.723 129 295.538 146.765 314.321 158.434C337.387 172.765 355.069 182.647 355.069 197.163C355.069 223.499 313.758 237.486 274.354 222.494C245.603 211.555 221.956 222.414 217.36 192.065Z" fill="url(#paint2_linear_634_14357)" fill-opacity="0.15"/>
<path d="M245.786 175.042C207.879 165.268 151.616 205.765 171.917 218.717C181.575 224.878 228.087 220.234 277.312 214.693C270.774 197.387 264.526 179.874 245.786 175.042Z" fill="url(#paint3_radial_634_14357)" fill-opacity="0.15"/>
<path d="M245.786 175.042C207.879 165.268 151.616 205.765 171.917 218.717C181.575 224.878 228.087 220.234 277.312 214.693C270.774 197.387 264.526 179.874 245.786 175.042Z" fill="url(#paint4_linear_634_14357)" fill-opacity="0.1"/>
</g>
<defs>
<linearGradient id="paint0_linear_634_14357" x1="0" y1="0" x2="107.902" y2="290.344" gradientUnits="userSpaceOnUse">
<stop offset="0.615295" stop-color="#FFFEFE"/>
<stop offset="1" stop-color="#EDFFF4" stop-opacity="0.95"/>
</linearGradient>
<radialGradient id="paint1_radial_634_14357" cx="0" cy="0" r="1" gradientUnits="userSpaceOnUse" gradientTransform="translate(215.434 85) rotate(33.079) scale(105.351 156.775)">
<stop stop-color="#E375A0" stop-opacity="0"/>
<stop offset="1" stop-color="#FF91C6"/>
</radialGradient>
<linearGradient id="paint2_linear_634_14357" x1="329.18" y1="212.469" x2="346.24" y2="178.119" gradientUnits="userSpaceOnUse">
<stop stop-color="#B1F67B" stop-opacity="0"/>
<stop offset="0.75" stop-color="#B1D85E"/>
</linearGradient>
<radialGradient id="paint3_radial_634_14357" cx="0" cy="0" r="1" gradientUnits="userSpaceOnUse" gradientTransform="translate(230.783 171.23) rotate(90.436) scale(68.0972 132.741)">
<stop stop-color="#75E386" stop-opacity="0.2"/>
<stop offset="1" stop-color="#91E4FF"/>
</radialGradient>
<linearGradient id="paint4_linear_634_14357" x1="267.395" y1="211.077" x2="257.472" y2="195.067" gradientUnits="userSpaceOnUse">
<stop stop-color="white"/>
<stop offset="1" stop-color="white" stop-opacity="0"/>
</linearGradient>
</defs>
</svg>
