<svg width="347" height="200" viewBox="0 0 347 200" fill="none" xmlns="http://www.w3.org/2000/svg">
<mask id="mask0_634_14334" style="mask-type:alpha" maskUnits="userSpaceOnUse" x="0" y="0" width="347" height="200">
<rect width="347" height="200" rx="20" fill="white"/>
</mask>
<g mask="url(#mask0_634_14334)">
<path d="M276.865 47.5996C276.865 47.5996 284.96 31.0301 292.524 21.9693C300.847 12.0002 317.812 0.00042745 317.812 0.00042745L235.918 0.000419617C235.918 0.000419617 252.6 12.0874 260.892 21.9693C268.519 31.0588 276.865 47.5996 276.865 47.5996Z" fill="#FE9256" fill-opacity="0.03"/>
<path d="M241.772 70C241.772 70 248.096 45.6331 254.006 32.3084C260.508 17.648 273.762 0.00121156 273.762 0.00121156L209.782 0.00120544C209.782 0.00120544 222.815 17.7761 229.293 32.3084C235.251 45.6753 241.772 70 241.772 70Z" fill="#27DB39" fill-opacity="0.03"/>
<path d="M161.937 48.3667C161.937 48.3667 169.397 31.53 176.369 22.323C184.039 12.1932 199.675 -9.95924e-05 199.675 -9.95924e-05L124.199 -0.000106812C124.199 -0.000106812 139.573 12.2817 147.215 22.323C154.245 31.5591 161.937 48.3667 161.937 48.3667Z" fill="#1C88CB" fill-opacity="0.03"/>
<path d="M60.2081 17.2739C60.2081 17.2739 64.1003 11.2608 67.7377 7.97262C71.7398 4.35482 79.8976 6.86164e-05 79.8976 6.86164e-05L40.5186 6.48499e-05C40.5186 6.48499e-05 48.54 4.38644 52.5272 7.97262C56.1946 11.2712 60.2081 17.2739 60.2081 17.2739Z" fill="#A022EE" fill-opacity="0.03"/>
<path d="M125.468 44.7993C125.468 44.7993 129.768 29.2045 133.787 20.6767C138.208 11.294 147.221 9.5714e-05 147.221 9.5714e-05L103.715 9.15527e-05C103.715 9.15527e-05 112.577 11.376 116.982 20.6767C121.034 29.2315 125.468 44.7993 125.468 44.7993Z" fill="#442FC2" fill-opacity="0.03"/>
<path d="M88.9217 48.3667C88.9217 48.3667 93.3004 31.53 97.3926 22.323C101.895 12.1932 111.072 -9.87595e-05 111.072 -9.87595e-05L66.771 -0.000102997C66.771 -0.000102997 75.7951 12.2817 80.2807 22.323C84.4066 31.5591 88.9217 48.3667 88.9217 48.3667Z" fill="#D99191" fill-opacity="0.03"/>
<path d="M202.627 47.4644C202.627 47.4644 206.782 30.9419 210.665 21.9067C214.937 11.9659 223.646 0.000164238 223.646 0.000164238L181.607 0.000160217C181.607 0.000160217 190.171 12.0528 194.427 21.9067C198.342 30.9704 202.627 47.4644 202.627 47.4644Z" fill="#DA1E1E" fill-opacity="0.03"/>
</g>
</svg>
