<svg width="80" height="80" viewBox="0 0 80 80" fill="none" xmlns="http://www.w3.org/2000/svg">
<g filter="url(#filter0_f_223_1512)">
<path d="M25.4228 66.75C22.9278 69.302 31.9508 70.4999 40.0035 70.4999C48.0561 70.4999 57.0527 69.5624 54.5841 66.75C51.3135 64.1719 45.2641 63 40.0035 63C34.7429 63 29.1323 64.1979 25.4228 66.75Z" fill="url(#paint0_linear_223_1512)" fill-opacity="0.15"/>
</g>
<path d="M58.2368 15.273H53.4193C53.4538 15.3282 53.4884 15.3841 53.5229 15.44C54.0838 16.3783 54.3684 17.3773 54.3684 18.4094C54.3684 19.2412 54.0191 20.0389 53.3972 20.6271C52.7754 21.2153 51.932 21.5457 51.0526 21.5457H28.9474C28.068 21.5457 27.2246 21.2153 26.6028 20.6271C25.9809 20.0389 25.6316 19.2412 25.6316 18.4094C25.6316 17.3773 25.9162 16.3783 26.4771 15.44C26.5116 15.3841 26.5462 15.3282 26.5807 15.273H21.7632C21.0306 15.2738 20.3282 15.5494 19.8102 16.0394C19.2922 16.5294 19.0008 17.1937 19 17.8866V52.3864C19.0008 53.0793 19.2922 53.7437 19.8102 54.2336C20.3282 54.7236 21.0306 54.9992 21.7632 55H58.2368C58.9694 54.9992 59.6718 54.7236 60.1898 54.2336C60.7078 53.7437 60.9992 53.0793 61 52.3864V17.8866C60.9992 17.1937 60.7078 16.5294 60.1898 16.0394C59.6718 15.5494 58.9694 15.2738 58.2368 15.273ZM36.3606 42.1485L31.9395 46.3303C31.8369 46.4274 31.715 46.5044 31.5809 46.557C31.4468 46.6095 31.3031 46.6366 31.1579 46.6366C31.0127 46.6366 30.869 46.6095 30.7349 46.557C30.6008 46.5044 30.4789 46.4274 30.3763 46.3303L28.1657 44.2394C27.9584 44.0433 27.842 43.7774 27.842 43.5001C27.842 43.2228 27.9584 42.9568 28.1657 42.7608C28.373 42.5647 28.6542 42.4545 28.9474 42.4545C29.2405 42.4545 29.5217 42.5647 29.729 42.7608L31.1579 44.1127L34.7973 40.6699C35.0046 40.4738 35.2858 40.3636 35.5789 40.3636C35.8721 40.3636 36.1533 40.4738 36.3606 40.6699C36.5679 40.8659 36.6843 41.1319 36.6843 41.4092C36.6843 41.6865 36.5679 41.9524 36.3606 42.1485ZM36.3606 33.7849L31.9395 37.9667C31.8369 38.0638 31.715 38.1409 31.5809 38.1934C31.4468 38.246 31.3031 38.273 31.1579 38.273C31.0127 38.273 30.869 38.246 30.7349 38.1934C30.6008 38.1409 30.4789 38.0638 30.3763 37.9667L28.1657 35.8758C27.9584 35.6798 27.842 35.4138 27.842 35.1365C27.842 34.8592 27.9584 34.5933 28.1657 34.3972C28.373 34.2011 28.6542 34.091 28.9474 34.091C29.2405 34.091 29.5217 34.2011 29.729 34.3972L31.1579 35.7491L34.7973 32.3063C35.0046 32.1102 35.2858 32.0001 35.5789 32.0001C35.8721 32.0001 36.1533 32.1102 36.3606 32.3063C36.5679 32.5024 36.6843 32.7683 36.6843 33.0456C36.6843 33.3229 36.5679 33.5889 36.3606 33.7849ZM36.3606 25.4214L31.9395 29.6032C31.8369 29.7003 31.715 29.7773 31.5809 29.8298C31.4468 29.8824 31.3031 29.9095 31.1579 29.9095C31.0127 29.9095 30.869 29.8824 30.7349 29.8298C30.6008 29.7773 30.4789 29.7003 30.3763 29.6032L28.1657 27.5123C28.0631 27.4152 27.9817 27.2999 27.9261 27.1731C27.8706 27.0462 27.842 26.9102 27.842 26.7729C27.842 26.4956 27.9584 26.2297 28.1657 26.0336C28.2684 25.9365 28.3902 25.8595 28.5244 25.807C28.6585 25.7544 28.8022 25.7274 28.9474 25.7274C29.2405 25.7274 29.5217 25.8375 29.729 26.0336L31.1579 27.3855L34.7973 23.9427C35.0046 23.7466 35.2858 23.6365 35.5789 23.6365C35.8721 23.6365 36.1533 23.7466 36.3606 23.9427C36.5679 24.1388 36.6843 24.4047 36.6843 24.682C36.6843 24.9594 36.5679 25.2253 36.3606 25.4214ZM51.0526 44.5455H40C39.7069 44.5455 39.4257 44.4354 39.2185 44.2393C39.0112 44.0433 38.8947 43.7774 38.8947 43.5001C38.8947 43.2228 39.0112 42.9569 39.2185 42.7608C39.4257 42.5648 39.7069 42.4546 40 42.4546H51.0526C51.3458 42.4546 51.6269 42.5648 51.8342 42.7608C52.0414 42.9569 52.1579 43.2228 52.1579 43.5001C52.1579 43.7774 52.0414 44.0433 51.8342 44.2393C51.6269 44.4354 51.3458 44.5455 51.0526 44.5455ZM51.0526 36.182H40C39.7069 36.182 39.4257 36.0718 39.2185 35.8758C39.0112 35.6797 38.8947 35.4138 38.8947 35.1365C38.8947 34.8592 39.0112 34.5933 39.2185 34.3973C39.4257 34.2012 39.7069 34.0911 40 34.0911H51.0526C51.3458 34.0911 51.6269 34.2012 51.8342 34.3973C52.0414 34.5933 52.1579 34.8592 52.1579 35.1365C52.1579 35.4138 52.0414 35.6797 51.8342 35.8758C51.6269 36.0718 51.3458 36.182 51.0526 36.182ZM51.0526 27.8184H40C39.7069 27.8184 39.4257 27.7082 39.2185 27.5122C39.0112 27.3161 38.8947 27.0502 38.8947 26.7729C38.8947 26.4957 39.0112 26.2298 39.2185 26.0337C39.4257 25.8376 39.7069 25.7275 40 25.7275H51.0526C51.3458 25.7275 51.6269 25.8376 51.8342 26.0337C52.0414 26.2298 52.1579 26.4957 52.1579 26.7729C52.1579 27.0502 52.0414 27.3161 51.8342 27.5122C51.6269 27.7082 51.3458 27.8184 51.0526 27.8184ZM27.8421 18.4094C27.8421 17.1329 28.5298 15.9206 29.8305 14.9032C30.8429 14.1116 32.2165 13.4494 33.8295 12.9734C34.2757 11.9106 35.0179 10.9819 35.9772 10.2859C37.1329 9.45181 38.5463 9 40 9C41.4537 9 42.8671 9.45181 44.0228 10.2859C44.9821 10.9819 45.7243 11.9106 46.1705 12.9734C47.7835 13.4494 49.1574 14.1116 50.1695 14.9032C51.4702 15.9206 52.1579 17.1329 52.1579 18.4094C52.1579 18.6866 52.0414 18.9526 51.8342 19.1486C51.6269 19.3447 51.3458 19.4548 51.0526 19.4548H28.9474C28.6542 19.4548 28.3731 19.3447 28.1658 19.1486C27.9586 18.9526 27.8421 18.6866 27.8421 18.4094Z" fill="#5C5C66"/>
<path d="M58.2368 15.273H53.4193C53.4538 15.3282 53.4884 15.3841 53.5229 15.44C54.0838 16.3783 54.3684 17.3773 54.3684 18.4094C54.3684 19.2412 54.0191 20.0389 53.3972 20.6271C52.7754 21.2153 51.932 21.5457 51.0526 21.5457H28.9474C28.068 21.5457 27.2246 21.2153 26.6028 20.6271C25.9809 20.0389 25.6316 19.2412 25.6316 18.4094C25.6316 17.3773 25.9162 16.3783 26.4771 15.44C26.5116 15.3841 26.5462 15.3282 26.5807 15.273H21.7632C21.0306 15.2738 20.3282 15.5494 19.8102 16.0394C19.2922 16.5294 19.0008 17.1937 19 17.8866V52.3864C19.0008 53.0793 19.2922 53.7437 19.8102 54.2336C20.3282 54.7236 21.0306 54.9992 21.7632 55H58.2368C58.9694 54.9992 59.6718 54.7236 60.1898 54.2336C60.7078 53.7437 60.9992 53.0793 61 52.3864V17.8866C60.9992 17.1937 60.7078 16.5294 60.1898 16.0394C59.6718 15.5494 58.9694 15.2738 58.2368 15.273ZM36.3606 42.1485L31.9395 46.3303C31.8369 46.4274 31.715 46.5044 31.5809 46.557C31.4468 46.6095 31.3031 46.6366 31.1579 46.6366C31.0127 46.6366 30.869 46.6095 30.7349 46.557C30.6008 46.5044 30.4789 46.4274 30.3763 46.3303L28.1657 44.2394C27.9584 44.0433 27.842 43.7774 27.842 43.5001C27.842 43.2228 27.9584 42.9568 28.1657 42.7608C28.373 42.5647 28.6542 42.4545 28.9474 42.4545C29.2405 42.4545 29.5217 42.5647 29.729 42.7608L31.1579 44.1127L34.7973 40.6699C35.0046 40.4738 35.2858 40.3636 35.5789 40.3636C35.8721 40.3636 36.1533 40.4738 36.3606 40.6699C36.5679 40.8659 36.6843 41.1319 36.6843 41.4092C36.6843 41.6865 36.5679 41.9524 36.3606 42.1485ZM36.3606 33.7849L31.9395 37.9667C31.8369 38.0638 31.715 38.1409 31.5809 38.1934C31.4468 38.246 31.3031 38.273 31.1579 38.273C31.0127 38.273 30.869 38.246 30.7349 38.1934C30.6008 38.1409 30.4789 38.0638 30.3763 37.9667L28.1657 35.8758C27.9584 35.6798 27.842 35.4138 27.842 35.1365C27.842 34.8592 27.9584 34.5933 28.1657 34.3972C28.373 34.2011 28.6542 34.091 28.9474 34.091C29.2405 34.091 29.5217 34.2011 29.729 34.3972L31.1579 35.7491L34.7973 32.3063C35.0046 32.1102 35.2858 32.0001 35.5789 32.0001C35.8721 32.0001 36.1533 32.1102 36.3606 32.3063C36.5679 32.5024 36.6843 32.7683 36.6843 33.0456C36.6843 33.3229 36.5679 33.5889 36.3606 33.7849ZM36.3606 25.4214L31.9395 29.6032C31.8369 29.7003 31.715 29.7773 31.5809 29.8298C31.4468 29.8824 31.3031 29.9095 31.1579 29.9095C31.0127 29.9095 30.869 29.8824 30.7349 29.8298C30.6008 29.7773 30.4789 29.7003 30.3763 29.6032L28.1657 27.5123C28.0631 27.4152 27.9817 27.2999 27.9261 27.1731C27.8706 27.0462 27.842 26.9102 27.842 26.7729C27.842 26.4956 27.9584 26.2297 28.1657 26.0336C28.2684 25.9365 28.3902 25.8595 28.5244 25.807C28.6585 25.7544 28.8022 25.7274 28.9474 25.7274C29.2405 25.7274 29.5217 25.8375 29.729 26.0336L31.1579 27.3855L34.7973 23.9427C35.0046 23.7466 35.2858 23.6365 35.5789 23.6365C35.8721 23.6365 36.1533 23.7466 36.3606 23.9427C36.5679 24.1388 36.6843 24.4047 36.6843 24.682C36.6843 24.9594 36.5679 25.2253 36.3606 25.4214ZM51.0526 44.5455H40C39.7069 44.5455 39.4257 44.4354 39.2185 44.2393C39.0112 44.0433 38.8947 43.7774 38.8947 43.5001C38.8947 43.2228 39.0112 42.9569 39.2185 42.7608C39.4257 42.5648 39.7069 42.4546 40 42.4546H51.0526C51.3458 42.4546 51.6269 42.5648 51.8342 42.7608C52.0414 42.9569 52.1579 43.2228 52.1579 43.5001C52.1579 43.7774 52.0414 44.0433 51.8342 44.2393C51.6269 44.4354 51.3458 44.5455 51.0526 44.5455ZM51.0526 36.182H40C39.7069 36.182 39.4257 36.0718 39.2185 35.8758C39.0112 35.6797 38.8947 35.4138 38.8947 35.1365C38.8947 34.8592 39.0112 34.5933 39.2185 34.3973C39.4257 34.2012 39.7069 34.0911 40 34.0911H51.0526C51.3458 34.0911 51.6269 34.2012 51.8342 34.3973C52.0414 34.5933 52.1579 34.8592 52.1579 35.1365C52.1579 35.4138 52.0414 35.6797 51.8342 35.8758C51.6269 36.0718 51.3458 36.182 51.0526 36.182ZM51.0526 27.8184H40C39.7069 27.8184 39.4257 27.7082 39.2185 27.5122C39.0112 27.3161 38.8947 27.0502 38.8947 26.7729C38.8947 26.4957 39.0112 26.2298 39.2185 26.0337C39.4257 25.8376 39.7069 25.7275 40 25.7275H51.0526C51.3458 25.7275 51.6269 25.8376 51.8342 26.0337C52.0414 26.2298 52.1579 26.4957 52.1579 26.7729C52.1579 27.0502 52.0414 27.3161 51.8342 27.5122C51.6269 27.7082 51.3458 27.8184 51.0526 27.8184ZM27.8421 18.4094C27.8421 17.1329 28.5298 15.9206 29.8305 14.9032C30.8429 14.1116 32.2165 13.4494 33.8295 12.9734C34.2757 11.9106 35.0179 10.9819 35.9772 10.2859C37.1329 9.45181 38.5463 9 40 9C41.4537 9 42.8671 9.45181 44.0228 10.2859C44.9821 10.9819 45.7243 11.9106 46.1705 12.9734C47.7835 13.4494 49.1574 14.1116 50.1695 14.9032C51.4702 15.9206 52.1579 17.1329 52.1579 18.4094C52.1579 18.6866 52.0414 18.9526 51.8342 19.1486C51.6269 19.3447 51.3458 19.4548 51.0526 19.4548H28.9474C28.6542 19.4548 28.3731 19.3447 28.1658 19.1486C27.9586 18.9526 27.8421 18.6866 27.8421 18.4094Z" fill="url(#paint1_linear_223_1512)"/>
<defs>
<filter id="filter0_f_223_1512" x="17" y="55" width="45.9998" height="23.5" filterUnits="userSpaceOnUse" color-interpolation-filters="sRGB">
<feFlood flood-opacity="0" result="BackgroundImageFix"/>
<feBlend mode="normal" in="SourceGraphic" in2="BackgroundImageFix" result="shape"/>
<feGaussianBlur stdDeviation="4" result="effect1_foregroundBlur_223_1512"/>
</filter>
<linearGradient id="paint0_linear_223_1512" x1="53.359" y1="63.2897" x2="52.0912" y2="72.217" gradientUnits="userSpaceOnUse">
<stop stop-color="#576E92"/>
<stop offset="1" stop-color="#010B1C"/>
</linearGradient>
<linearGradient id="paint1_linear_223_1512" x1="25.5495" y1="11.9604" x2="59.0823" y2="48.1434" gradientUnits="userSpaceOnUse">
<stop stop-color="#7DD0FF"/>
<stop offset="0.970561" stop-color="#0A80C2"/>
</linearGradient>
</defs>
</svg>
