<svg width="750" height="365" viewBox="0 0 750 365" fill="none" xmlns="http://www.w3.org/2000/svg">
<g opacity="0.25">
<mask id="mask0_634_14198" style="mask-type:alpha" maskUnits="userSpaceOnUse" x="0" y="0" width="750" height="365">
<path d="M750 0H0V364.836H750V0Z" fill="white"/>
</mask>
<g mask="url(#mask0_634_14198)">
<path fill-rule="evenodd" clip-rule="evenodd" d="M687.5 1.08887C622.054 1.08887 569 58.8681 569 130.143C569 201.417 622.054 259.197 687.5 259.197C752.946 259.197 806 201.417 806 130.143C806 58.8681 752.946 1.08887 687.5 1.08887ZM687.5 52.0312C647.888 52.0312 615.776 87.0029 615.776 130.143C615.776 173.283 647.888 208.254 687.5 208.254C727.112 208.254 759.224 173.283 759.224 130.143C759.224 87.0029 727.112 52.0312 687.5 52.0312Z" fill="url(#paint0_linear_634_14198)"/>
<path fill-rule="evenodd" clip-rule="evenodd" d="M588 -8.71289C563.701 -8.71289 544 12.9848 544 39.7504C544 66.5161 563.701 88.2137 588 88.2137C612.299 88.2137 632 66.5161 632 39.7504C632 12.9848 612.299 -8.71289 588 -8.71289ZM588 10.4173C573.292 10.4173 561.369 23.55 561.369 39.7504C561.369 55.9507 573.292 69.0834 588 69.0834C602.708 69.0834 614.631 55.9507 614.631 39.7504C614.631 23.55 602.708 10.4173 588 10.4173Z" fill="url(#paint1_linear_634_14198)"/>
<path fill-rule="evenodd" clip-rule="evenodd" d="M14.5 -40.2959C-20.5703 -40.2959 -49 -9.33396 -49 28.8595C-49 67.053 -20.5703 98.015 14.5 98.015C49.5703 98.015 78 67.053 78 28.8595C78 -9.33396 49.5703 -40.2959 14.5 -40.2959ZM14.5 -12.9979C-6.7266 -12.9979 -23.9336 5.74248 -23.9336 28.8595C-23.9336 51.9766 -6.7266 70.7166 14.5 70.7166C35.7266 70.7166 52.9336 51.9766 52.9336 28.8595C52.9336 5.74248 35.7266 -12.9979 14.5 -12.9979Z" fill="url(#paint2_linear_634_14198)"/>
</g>
</g>
<defs>
<linearGradient id="paint0_linear_634_14198" x1="780.5" y1="97.4709" x2="445.657" y2="118.342" gradientUnits="userSpaceOnUse">
<stop stop-color="#60ABF3"/>
<stop offset="1" stop-color="white" stop-opacity="0"/>
</linearGradient>
<linearGradient id="paint1_linear_634_14198" x1="544" y1="39.7502" x2="742.861" y2="39.7502" gradientUnits="userSpaceOnUse">
<stop stop-color="#CBF5F1"/>
<stop offset="1" stop-color="#54B5AB"/>
</linearGradient>
<linearGradient id="paint2_linear_634_14198" x1="114.004" y1="19.9982" x2="-81.3528" y2="109.942" gradientUnits="userSpaceOnUse">
<stop stop-color="#76BCFF"/>
<stop offset="1" stop-color="white" stop-opacity="0"/>
</linearGradient>
</defs>
</svg>
