<svg width="208" height="112" viewBox="0 0 208 112" fill="none" xmlns="http://www.w3.org/2000/svg">
<path d="M41.0723 89.3504C36.6356 87.3454 31.8251 81.9667 33.1887 76.9059C33.8707 76.7316 34.5882 77.0094 34.9744 77.5973C34.9744 77.5973 42.6712 89.6062 40.5117 78.5583C39.4942 73.3662 37.7431 68.3469 37.6046 62.982C37.3762 53.2338 46.3327 50.5306 48.9076 61.302C49.2467 62.7262 50.548 74.3064 53.5104 72.979C53.892 72.7786 54.2016 72.4645 54.3964 72.0803C55.8983 69.619 56.3482 66.0032 59.103 65.1667C61.5187 64.4062 63.8997 66.501 65.2009 68.665C67.838 73.062 71.368 83.9924 65.9692 87.698C60.5704 91.4037 46.9488 91.9914 41.1208 89.3988L41.0723 89.3504Z" fill="url(#paint0_linear_634_14480)"/>
<path d="M153.161 101.041C151.209 96.5822 151.257 89.3713 155.687 86.5229C156.313 86.859 156.651 87.5596 156.524 88.2582C156.524 88.2582 154.164 102.327 159.985 92.6829C162.754 88.1407 164.83 83.2528 168.291 79.1807C174.652 71.7555 183.131 75.7861 177.808 85.4997C177.116 86.7856 170.291 96.2434 173.378 97.2528C173.796 97.3554 174.236 97.3289 174.638 97.1767C177.407 96.3609 180.175 93.9826 182.792 95.1856C185.09 96.2434 185.45 99.3822 184.965 101.864C183.968 106.89 179.083 112.511 172.591 111.64C165.96 110.741 155.735 106.918 153.181 101.09L153.161 101.041Z" fill="url(#paint1_linear_634_14480)"/>
<path d="M207.73 111.64C181.629 93.7541 144.744 82.6025 103.865 82.6025C62.9863 82.6025 26.1012 93.7541 0 111.64H207.73Z" fill="url(#paint2_linear_634_14480)"/>
<path d="M164.533 57.7139C162.878 59.7879 161.819 62.7262 162.809 65.3534C163.494 67.1647 165.557 67.1786 165.412 69.6951C165.269 70.9517 164.838 72.1584 164.152 73.221C162.983 75.2641 161.549 77.1446 159.888 78.8141C161.273 79.8927 161.977 81.6262 161.736 83.3632C161.465 85.0874 160.647 86.6793 159.404 87.9055C159.038 88.3527 158.56 88.696 158.019 88.901C157.496 89.0219 156.951 89.0219 156.428 88.901C153.852 88.4645 151.352 87.6661 149.001 86.5297C147.533 85.8314 146.038 84.8773 145.54 83.3563C144.969 81.6107 145.877 81.056 146.868 80.509L147.124 80.3678C147.635 80.0827 148.137 79.7729 148.44 79.2773C149.167 78.0882 149.188 76.4981 149.444 75.1707C149.817 73.2141 149.264 69.6467 151.714 68.8793C152.662 68.582 153.693 68.6512 154.642 68.347C156.702 67.6921 157.554 65.7566 158.38 63.7996L158.53 63.4438C159.006 62.3182 159.497 61.2107 160.227 60.3618C161.266 59.1519 163.841 58.5573 164.533 57.7139ZM158.552 69.3218C158.552 69.3218 151.098 78.0052 151.34 86.0319H153.749C153.749 86.0319 154.621 76.3529 158.552 69.3218Z" fill="url(#paint3_linear_634_14480)"/>
<path d="M58.3835 12.3256C58.422 9.64565 56.5056 7.3348 53.8622 6.87382C51.2188 6.41284 48.6318 7.93833 47.7589 10.4728C46.0934 10.4402 44.543 11.3184 43.7161 12.7627C42.8891 14.207 42.9176 15.9871 43.7903 17.4043C44.663 18.8216 46.2407 19.6499 47.9042 19.5641H57.9336C59.8378 19.5388 61.4008 18.0518 61.5188 16.1533C61.6368 14.2547 60.27 12.5861 58.3835 12.3256Z" fill="url(#paint4_linear_634_14480)"/>
<path d="M99.8369 6.83671V6.80214C99.8328 3.48967 97.443 0.660606 94.1747 0.099166C90.9064 -0.462275 87.7077 1.40678 86.5959 4.52757C83.4518 4.57721 80.9432 7.16334 80.9929 10.3039C81.0426 13.4444 83.6317 15.95 86.7759 15.9004H99.2347C101.635 15.9047 103.624 14.042 103.774 11.6491C103.925 9.25616 102.184 7.15979 99.8023 6.86436L99.8369 6.83671Z" fill="url(#paint5_linear_634_14480)"/>
<path d="M45.4126 81.2002H71.4766L97.7009 100.927L71.9438 100.004L45.4126 81.2002Z" fill="url(#paint6_linear_634_14480)"/>
<path d="M137.358 67.6228L104.28 86.8004L71.2021 67.6228C71.2021 67.6069 71.2021 67.5858 71.2076 67.5699C71.2345 67.448 73.0603 65.9496 75.8447 63.726C75.8715 63.705 75.893 63.6837 75.9201 63.6624C85.054 56.3716 104.28 41.4404 104.28 41.4404C104.28 41.4404 123.507 56.3716 132.641 63.6624C135.468 65.918 137.326 67.4429 137.353 67.5699C137.358 67.5856 137.358 67.6069 137.358 67.6228Z" fill="#00AEF0"/>
<path d="M137.358 67.6228L104.28 86.8004L71.2021 67.6228C71.2021 67.6069 71.2021 67.5858 71.2076 67.5699C71.2345 67.448 73.0603 65.9496 75.8447 63.726C75.8715 63.705 75.893 63.6837 75.9201 63.6624C85.054 56.3716 104.28 41.4404 104.28 41.4404C104.28 41.4404 123.507 56.3716 132.641 63.6624C135.468 65.918 137.326 67.4429 137.353 67.5699C137.358 67.5856 137.358 67.6069 137.358 67.6228Z" fill="#F3FFF5"/>
<path d="M118.672 24.0801H83.8921C80.9091 24.0801 78.4907 26.537 78.4907 29.5676V82.9925C78.4907 86.0234 80.9091 88.4801 83.8921 88.4801H127.472C130.455 88.4801 132.873 86.0231 132.873 82.9925V38.5087L118.672 24.0801Z" fill="url(#paint7_linear_634_14480)"/>
<path d="M118.857 32.7554C118.857 35.6963 121.339 38.0801 124.401 38.0801H133.434L118.857 24.0801V32.7554Z" fill="#E8E8E8"/>
<path d="M99.5708 34.1602H87.6849C86.6322 34.1602 85.7788 35.0125 85.7788 36.0641V47.9363C85.7788 48.9878 86.6322 49.8402 87.6849 49.8402H99.5708C100.624 49.8402 101.477 48.9878 101.477 47.9363V36.0641C101.477 35.0125 100.624 34.1602 99.5708 34.1602Z" fill="#F9FFFD"/>
<path d="M117.249 53.7598H87.3867C86.4987 53.7598 85.7788 54.3865 85.7788 55.1597C85.7788 55.9328 86.4987 56.5598 87.3867 56.5598H117.249C118.137 56.5598 118.857 55.933 118.857 55.1597C118.857 54.3865 118.137 53.7598 117.249 53.7598Z" fill="#F9FFFD"/>
<path d="M117.249 62.7197H87.3867C86.4987 62.7197 85.7788 63.3465 85.7788 64.1196C85.7788 64.893 86.4987 65.5197 87.3867 65.5197H117.249C118.137 65.5197 118.857 64.893 118.857 64.1196C118.857 63.3465 118.137 62.7197 117.249 62.7197Z" fill="#F9FFFD"/>
<path d="M102.756 68.3203H87.3031C86.4612 68.3203 85.7788 68.9471 85.7788 69.7202C85.7788 70.4933 86.4612 71.1203 87.3031 71.1203H102.756C103.597 71.1203 104.28 70.4936 104.28 69.7202C104.28 68.9471 103.597 68.3203 102.756 68.3203Z" fill="#F9FFFD"/>
<path d="M137.067 65.5957V96.9446C137.067 99.1356 135.263 100.926 133.056 100.926H75.232C73.0247 100.926 71.2314 99.1356 71.2314 96.9446V65.5957L104.149 84.8623L137.067 65.5957Z" fill="url(#paint8_linear_634_14480)"/>
<path opacity="0.796735" d="M135.954 99.6788L114.767 78.6474L104.149 84.862L93.5262 78.6445L72.3379 99.6774C73.0672 100.442 74.0909 100.926 75.2319 100.926H133.055C134.196 100.927 135.222 100.443 135.954 99.6788Z" fill="url(#paint9_linear_634_14480)"/>
<path d="M126.146 42C133.886 42 140.162 35.732 140.162 28C140.162 20.268 133.886 14 126.146 14C118.405 14 112.129 20.268 112.129 28C112.129 35.732 118.405 42 126.146 42Z" fill="url(#paint10_linear_634_14480)"/>
<path d="M118.857 30.2398C120.096 30.2398 121.1 29.2369 121.1 27.9998C121.1 26.7626 120.096 25.7598 118.857 25.7598C117.619 25.7598 116.615 26.7626 116.615 27.9998C116.615 29.2369 117.619 30.2398 118.857 30.2398Z" fill="white"/>
<path d="M126.145 30.2398C127.384 30.2398 128.388 29.2369 128.388 27.9998C128.388 26.7626 127.384 25.7598 126.145 25.7598C124.907 25.7598 123.903 26.7626 123.903 27.9998C123.903 29.2369 124.907 30.2398 126.145 30.2398Z" fill="white"/>
<path d="M133.434 30.2398C134.673 30.2398 135.677 29.2369 135.677 27.9998C135.677 26.7626 134.673 25.7598 133.434 25.7598C132.195 25.7598 131.191 26.7626 131.191 27.9998C131.191 29.2369 132.195 30.2398 133.434 30.2398Z" fill="white"/>
<defs>
<linearGradient id="paint0_linear_634_14480" x1="16.1006" y1="-13.7542" x2="59.209" y2="90.3371" gradientUnits="userSpaceOnUse">
<stop stop-color="#D2D2D2"/>
<stop offset="1" stop-color="#D2D2D2" stop-opacity="0"/>
</linearGradient>
<linearGradient id="paint1_linear_634_14480" x1="191.465" y1="35.0087" x2="166.417" y2="94.0342" gradientUnits="userSpaceOnUse">
<stop stop-color="#D2D2D2"/>
<stop offset="1" stop-color="#D2D2D2" stop-opacity="0"/>
</linearGradient>
<linearGradient id="paint2_linear_634_14480" x1="103.865" y1="18.3851" x2="103.865" y2="111.64" gradientUnits="userSpaceOnUse">
<stop stop-color="#D2D2D2"/>
<stop offset="1" stop-color="#D2D2D2" stop-opacity="0"/>
</linearGradient>
<linearGradient id="paint3_linear_634_14480" x1="165.435" y1="27.1303" x2="138.759" y2="83.6846" gradientUnits="userSpaceOnUse">
<stop stop-color="#D2D2D2"/>
<stop offset="1" stop-color="#D2D2D2" stop-opacity="0"/>
</linearGradient>
<linearGradient id="paint4_linear_634_14480" x1="52.3206" y1="-22.6128" x2="52.3206" y2="19.5702" gradientUnits="userSpaceOnUse">
<stop stop-color="#EDFBFF"/>
<stop offset="1" stop-color="#D2D2D2" stop-opacity="0"/>
</linearGradient>
<linearGradient id="paint5_linear_634_14480" x1="92.3878" y1="-26.9052" x2="92.3878" y2="15.9011" gradientUnits="userSpaceOnUse">
<stop stop-color="#D2D2D2"/>
<stop offset="1" stop-color="#D2D2D2" stop-opacity="0"/>
</linearGradient>
<linearGradient id="paint6_linear_634_14480" x1="80.6409" y1="89.9744" x2="81.1327" y2="92.8874" gradientUnits="userSpaceOnUse">
<stop stop-color="#EBEBEB" stop-opacity="0"/>
<stop offset="1" stop-color="#BBB9B9"/>
</linearGradient>
<linearGradient id="paint7_linear_634_14480" x1="105.682" y1="24.0801" x2="105.682" y2="88.4801" gradientUnits="userSpaceOnUse">
<stop stop-color="#EFEFEF"/>
<stop offset="1" stop-color="#FDFDFD"/>
</linearGradient>
<linearGradient id="paint8_linear_634_14480" x1="104.149" y1="74.7456" x2="104.149" y2="100.926" gradientUnits="userSpaceOnUse">
<stop stop-color="#EAEAEA"/>
<stop offset="1" stop-color="#F6F6F6"/>
</linearGradient>
<linearGradient id="paint9_linear_634_14480" x1="104.146" y1="83.1355" x2="104.146" y2="100.926" gradientUnits="userSpaceOnUse">
<stop stop-color="#D7D7D7"/>
<stop offset="1" stop-color="#E6E6E6"/>
</linearGradient>
<linearGradient id="paint10_linear_634_14480" x1="117.069" y1="12.6014" x2="135.842" y2="44.5219" gradientUnits="userSpaceOnUse">
<stop stop-color="#FAFFFF"/>
<stop offset="1" stop-color="#09ABAD" stop-opacity="0.86"/>
</linearGradient>
</defs>
</svg>
