<svg width="102" height="110" viewBox="0 0 102 110" fill="none" xmlns="http://www.w3.org/2000/svg">
<path d="M63.9535 34.582H44.8129C24.3528 34.582 7.7666 51.1682 7.7666 71.6283C7.7666 92.0884 24.3528 108.675 44.8129 108.675H63.9535C84.4136 108.675 101 92.0884 101 71.6283C101 51.1682 84.4136 34.582 63.9535 34.582Z" fill="url(#paint0_linear_634_5064)"/>
<path opacity="0.251" d="M51.5677 42.3815C65.7576 36.9345 80.937 42.099 85.4732 53.9163C88.3291 61.3561 84.7402 74.8297 74.7066 94.337C74.1753 95.2886 73.327 96.0237 72.3096 96.4143C71.2921 96.8048 70.1699 96.8261 69.1383 96.4745C48.6277 88.6906 36.945 81.0792 34.0904 73.6403C29.5536 61.8232 37.3783 47.8283 51.5677 42.3815Z" fill="url(#paint1_linear_634_5064)"/>
<path d="M34.4329 15.8336C52.8977 8.74567 73.2785 17.1005 79.9558 34.4954C84.1599 45.4476 80.1804 64.7802 68.0172 92.4934C67.4164 93.8155 66.3197 94.8483 64.9639 95.3687C63.6082 95.8891 62.1021 95.8555 60.7709 95.275C33.1868 82.8163 17.2932 71.1122 13.0901 60.1628C6.41281 42.7679 15.9682 22.9216 34.4329 15.8336Z" fill="url(#paint2_linear_634_5064)"/>
<path d="M48.1028 64.9216C60.3788 64.9216 70.3306 56.2138 70.3306 45.4723C70.3306 34.7307 60.3788 26.0229 48.1028 26.0229C35.8267 26.0229 25.875 34.7307 25.875 45.4723C25.875 56.2138 35.8267 64.9216 48.1028 64.9216Z" fill="#5290FC"/>
<path d="M62.131 68.5202L52.4638 64.4311L60.1412 58.214L62.131 68.5202Z" fill="#5290FC"/>
<path d="M49.4028 42.9343C49.7357 41.0297 50.5631 39.5874 51.8852 38.6074C53.0224 37.7568 54.4278 37.3315 56.1012 37.3315C58.1075 37.3315 59.6931 37.8955 60.858 39.0235C61.875 40.0127 62.3835 41.2747 62.3835 42.8095C62.3835 43.8727 62.1015 44.8481 61.5375 45.7357C61.0383 46.5123 60.2016 47.4138 59.0274 48.44C58.0011 49.3646 57.3447 50.1966 57.0581 50.9363C56.8177 51.5835 56.6883 52.5589 56.6698 53.8625H54.7976V53.1552C54.7976 51.7499 54.9964 50.6266 55.3939 49.7852C55.7452 49.0456 56.3601 48.2551 57.2384 47.4138C58.3663 46.332 59.1106 45.4491 59.4712 44.7649C59.767 44.2009 59.915 43.5491 59.915 42.8095C59.915 41.6538 59.5405 40.7616 58.7916 40.1329C58.1352 39.569 57.2523 39.287 56.1428 39.287C53.5541 39.287 52.084 40.7015 51.7327 43.5306L49.4028 42.9343ZM57.2661 57.1354V60.1725H54.1735V57.1354H57.2661Z" fill="white"/>
<defs>
<linearGradient id="paint0_linear_634_5064" x1="54.3832" y1="34.582" x2="54.3832" y2="108.675" gradientUnits="userSpaceOnUse">
<stop stop-color="#4866FA"/>
<stop offset="1" stop-color="#5CB9FE"/>
</linearGradient>
<linearGradient id="paint1_linear_634_5064" x1="72.3096" y1="96.4143" x2="51.5683" y2="42.3813" gradientUnits="userSpaceOnUse">
<stop stop-color="#CDE3FE"/>
<stop offset="1" stop-color="#F8FAFD"/>
</linearGradient>
<linearGradient id="paint2_linear_634_5064" x1="64.9636" y1="95.3688" x2="34.4329" y2="15.8336" gradientUnits="userSpaceOnUse">
<stop stop-color="white"/>
<stop offset="1" stop-color="#D1E3FF"/>
</linearGradient>
</defs>
</svg>
