<svg width="100" height="58" viewBox="0 0 100 58" fill="none" xmlns="http://www.w3.org/2000/svg">
<path d="M27.772 45.1598C28.22 44.9678 28.444 44.6878 28.444 44.3198V32.4398H30.124V44.4878C31.052 44.2158 32.164 43.8238 33.46 43.3118V29.5118H35.164V51.2558H33.46V44.9918C31.764 45.6158 30.044 46.1598 28.3 46.6238L27.772 45.1598ZM38.74 38.1038C38.228 39.0958 37.668 40.0158 37.06 40.8638L36.028 39.5198C37.884 36.7678 39.14 33.3998 39.796 29.4158L41.5 29.6078C41.276 30.9358 41.004 32.1518 40.684 33.2558H48.484V34.9598H46.564C46.468 39.0718 45.596 42.5358 43.948 45.3518C45.452 47.3518 47.196 48.9038 49.18 50.0078L48.196 51.4478C46.148 50.2798 44.412 48.7198 42.988 46.7678C41.532 48.6718 39.628 50.2238 37.276 51.4238L36.244 50.0318C38.676 48.8798 40.596 47.3198 42.004 45.3518C40.692 43.3038 39.604 40.8878 38.74 38.1038ZM42.916 43.8638C44.228 41.3358 44.908 38.3678 44.956 34.9598H40.132C39.748 35.9678 39.588 36.3758 39.652 36.1838C40.484 39.1598 41.572 41.7198 42.916 43.8638ZM73.54 42.4718C73.396 44.3758 73.116 45.6078 72.7 46.1678C72.348 46.7438 71.596 47.0318 70.444 47.0318H66.22C64.86 47.0318 64.18 46.3518 64.18 44.9918V37.0478H70.804V32.5358H63.82V30.9038H72.484V38.7038H65.908V44.3678C65.908 44.9758 66.244 45.3038 66.916 45.3518H70.156C70.828 45.3518 71.284 45.1118 71.524 44.6318C71.684 44.1998 71.812 43.2958 71.908 41.9198L73.54 42.4718ZM53.092 32.6318H57.076V29.3438H58.756V32.6318H62.716V34.1438H58.756V37.6958H63.028V39.2798H59.236V42.6638H62.644V44.2478H59.236V48.6638C60.756 49.1278 64.012 49.3598 69.004 49.3598C71.1 49.3598 72.748 49.3198 73.948 49.2398L73.66 50.9438H69.388C63.436 50.9438 59.7 50.6238 58.18 49.9838C56.884 49.4238 55.724 48.3998 54.7 46.9118C54.3 48.6238 53.804 50.1358 53.212 51.4478L51.892 50.2718C53.076 47.5038 53.74 44.3518 53.884 40.8158L55.42 40.9838C55.372 42.3598 55.252 43.6718 55.06 44.9198C55.828 46.1838 56.668 47.1438 57.58 47.7998V39.2798H52.612V37.6958H57.076V34.1438H53.092V32.6318Z" fill="#05A3AD"/>
<path d="M27.772 45.1598C28.22 44.9678 28.444 44.6878 28.444 44.3198V32.4398H30.124V44.4878C31.052 44.2158 32.164 43.8238 33.46 43.3118V29.5118H35.164V51.2558H33.46V44.9918C31.764 45.6158 30.044 46.1598 28.3 46.6238L27.772 45.1598ZM38.74 38.1038C38.228 39.0958 37.668 40.0158 37.06 40.8638L36.028 39.5198C37.884 36.7678 39.14 33.3998 39.796 29.4158L41.5 29.6078C41.276 30.9358 41.004 32.1518 40.684 33.2558H48.484V34.9598H46.564C46.468 39.0718 45.596 42.5358 43.948 45.3518C45.452 47.3518 47.196 48.9038 49.18 50.0078L48.196 51.4478C46.148 50.2798 44.412 48.7198 42.988 46.7678C41.532 48.6718 39.628 50.2238 37.276 51.4238L36.244 50.0318C38.676 48.8798 40.596 47.3198 42.004 45.3518C40.692 43.3038 39.604 40.8878 38.74 38.1038ZM42.916 43.8638C44.228 41.3358 44.908 38.3678 44.956 34.9598H40.132C39.748 35.9678 39.588 36.3758 39.652 36.1838C40.484 39.1598 41.572 41.7198 42.916 43.8638ZM73.54 42.4718C73.396 44.3758 73.116 45.6078 72.7 46.1678C72.348 46.7438 71.596 47.0318 70.444 47.0318H66.22C64.86 47.0318 64.18 46.3518 64.18 44.9918V37.0478H70.804V32.5358H63.82V30.9038H72.484V38.7038H65.908V44.3678C65.908 44.9758 66.244 45.3038 66.916 45.3518H70.156C70.828 45.3518 71.284 45.1118 71.524 44.6318C71.684 44.1998 71.812 43.2958 71.908 41.9198L73.54 42.4718ZM53.092 32.6318H57.076V29.3438H58.756V32.6318H62.716V34.1438H58.756V37.6958H63.028V39.2798H59.236V42.6638H62.644V44.2478H59.236V48.6638C60.756 49.1278 64.012 49.3598 69.004 49.3598C71.1 49.3598 72.748 49.3198 73.948 49.2398L73.66 50.9438H69.388C63.436 50.9438 59.7 50.6238 58.18 49.9838C56.884 49.4238 55.724 48.3998 54.7 46.9118C54.3 48.6238 53.804 50.1358 53.212 51.4478L51.892 50.2718C53.076 47.5038 53.74 44.3518 53.884 40.8158L55.42 40.9838C55.372 42.3598 55.252 43.6718 55.06 44.9198C55.828 46.1838 56.668 47.1438 57.58 47.7998V39.2798H52.612V37.6958H57.076V34.1438H53.092V32.6318Z" fill="#0897A0"/>
<path d="M50 2.75531L63.2674 13.3333L65 11.9533L50 -2.09808e-05L35 11.9533L36.7326 13.3333L50 2.75531Z" fill="#0897A0"/>
</svg>
