<?xml version="1.0" standalone="no"?><!DOCTYPE svg PUBLIC "-//W3C//DTD SVG 1.1//EN" "http://www.w3.org/Graphics/SVG/1.1/DTD/svg11.dtd"><svg class="icon" width="250px" height="250.00px" viewBox="0 0 1024 1024" version="1.1" xmlns="http://www.w3.org/2000/svg"><path d="M361.536 767.936c0-83.168 67.36-150.56 150.464-150.56s150.464 67.392 150.464 150.56c0 2.304 329.536-60.064 329.536-60.064C976.48 455.808 767.84 256 512 256S47.52 455.808 32 707.872c0 0 329.536 62.368 329.536 60.064z" fill="#E0EBFE" /><path d="M26.048 739.328C346.688 800 357.568 800 361.184 800h0.032a32.416 32.416 0 0 0 32.32-32.064c0-30.688 12-58.4 31.168-79.488l63.68 69.216a32 32 0 1 0 45.248-45.248l-60.736-55.904A116.928 116.928 0 0 1 512 649.344a118.656 118.656 0 0 1 118.464 118.592A32.32 32.32 0 0 0 662.784 800c3.584 0 14.496 0 335.168-60.672a32 32 0 0 0 25.984-33.408C1007.296 435.68 782.4 224 512 224S16.704 435.68 0.064 705.92a32 32 0 0 0 25.984 33.408zM512 288c227.264 0 417.76 170.848 445.44 393.824-91.2 17.216-210.88 39.52-266.688 49.312A182.816 182.816 0 0 0 512 585.344c-32.832 0-63.68 8.768-90.336 24.032L250.88 452.192a16 16 0 0 0-22.624 22.624l153.152 166.528a181.76 181.76 0 0 0-48.16 89.792 28372.768 28372.768 0 0 1-266.72-49.28C94.24 458.784 284.8 288 512 288z" fill="#5465CF" /></svg>