<svg width="56" height="56" viewBox="0 0 56 56" fill="none" xmlns="http://www.w3.org/2000/svg">
<circle cx="28" cy="28" r="28" fill="url(#paint0_linear_707_3588)"/>
<g filter="url(#filter0_d_707_3588)">
<path d="M40.8383 26.4174C40.8383 26.4174 36.1087 27.422 34.7995 27.7726C33.503 28.1233 31.8958 25.5834 31.4647 25.4918C31.1889 26.2879 30.2981 28.6256 29.7655 30.2114C30.5897 30.1861 34.8661 31.4782 35.0214 32.23C35.1989 32.9913 37.196 41.2364 37.196 41.2364C37.196 41.2364 38.0424 43.0086 35.6395 43.6562C33.2335 44.3038 33.1257 42.3326 33.1257 42.3326C33.1257 42.3326 31.4456 36.0082 31.2966 35.626C31.1572 35.2437 28.0252 34.6024 27.3088 34.7951C26.5861 34.991 25.0391 40.3898 23.5112 40.7562C21.5489 41.2301 15.8018 37.752 15.8018 37.752C15.8018 37.752 13.532 37.1928 13.9949 35.07C14.4672 32.9629 16.6703 33.5379 16.6703 33.5379C16.6703 33.5379 20.7406 35.7681 21.2098 35.5059C21.6853 35.2406 21.9547 33.7021 22.6489 32.2111C22.6775 31.6488 24.2751 27.1787 24.2751 27.1787C24.2751 27.1787 25.1596 24.203 24.8077 24.0166C24.3227 23.7607 23.8155 24.3072 23.5492 24.7621C23.2829 25.2138 22.2273 27.0745 20.4616 29.4975C18.8925 31.6551 16.0934 29.6523 17.2568 27.6368C18.2236 25.9594 20.7977 21.164 22.6489 20.2605C24.5129 19.3507 27.7272 18.8453 30.4629 19.4834C33.2113 20.1089 35.1387 23.211 35.6776 23.6217C36.2038 24.0166 39.9063 22.8225 39.9063 22.8225C39.9063 22.8225 42.0144 22.0927 42.5374 24.0103C43.0636 25.9404 40.8383 26.4174 40.8383 26.4174V26.4174ZM32.1779 18.5136C30.2379 19.038 28.263 17.9165 27.7431 16.0021C27.2264 14.0973 28.3581 12.126 30.2981 11.6016C32.235 11.0804 34.2162 12.2113 34.7329 14.1162C35.256 16.0306 34.1116 17.9892 32.1779 18.5136V18.5136Z" fill="white"/>
</g>
<defs>
<filter id="filter0_d_707_3588" x="10.9326" y="8.47461" width="34.6855" height="38.3125" filterUnits="userSpaceOnUse" color-interpolation-filters="sRGB">
<feFlood flood-opacity="0" result="BackgroundImageFix"/>
<feColorMatrix in="SourceAlpha" type="matrix" values="0 0 0 0 0 0 0 0 0 0 0 0 0 0 0 0 0 0 127 0" result="hardAlpha"/>
<feOffset/>
<feGaussianBlur stdDeviation="1.5"/>
<feColorMatrix type="matrix" values="0 0 0 0 0.0654514 0 0 0 0 0.145818 0 0 0 0 0.270833 0 0 0 0.2 0"/>
<feBlend mode="normal" in2="BackgroundImageFix" result="effect1_dropShadow_707_3588"/>
<feBlend mode="normal" in="SourceGraphic" in2="effect1_dropShadow_707_3588" result="shape"/>
</filter>
<linearGradient id="paint0_linear_707_3588" x1="40.1594" y1="56" x2="22.5276" y2="-1.24281" gradientUnits="userSpaceOnUse">
<stop stop-color="#F3581B"/>
<stop offset="1" stop-color="#FFBE74"/>
</linearGradient>
</defs>
</svg>
