<svg width="56" height="56" viewBox="0 0 56 56" fill="none" xmlns="http://www.w3.org/2000/svg">
<circle cx="28" cy="28" r="28" fill="url(#paint0_linear_707_3580)"/>
<g filter="url(#filter0_d_707_3580)">
<path fill-rule="evenodd" clip-rule="evenodd" d="M26.533 38.3425C26.7481 38.4659 26.9766 38.5208 27.2051 38.5208C27.4471 38.5208 27.6891 38.4522 27.9042 38.3288C28.3343 38.0683 28.5897 37.6021 28.5897 37.0948V21.9446C28.5897 21.3002 28.2268 20.6832 27.6622 20.3953C24.5704 18.7637 20.8199 17.9822 16.5182 18.0508C15.5773 18.0782 14.811 18.8734 14.811 19.8194V34.2979C14.811 35.2028 15.4697 35.9432 16.3435 36.0254L16.693 36.0666L16.8031 36.0788C20.5743 36.4986 23.8437 36.8624 26.533 38.3425ZM24.6154 25.435C24.5345 25.435 24.4401 25.4164 24.3592 25.3605C22.5797 24.3732 20.7597 23.8702 18.9802 23.8702C18.6027 23.8702 18.3061 23.4604 18.3061 22.9388C18.3061 22.4172 18.6027 22.0073 18.9802 22.0073C20.935 22.0073 22.9167 22.5476 24.8715 23.6467C25.222 23.8329 25.3838 24.3732 25.249 24.8575C25.1411 25.2115 24.885 25.435 24.6154 25.435ZM24.2248 30.0191C24.3057 30.0773 24.4 30.0966 24.4809 30.0966C24.7506 30.0966 25.0067 29.8641 25.1145 29.496C25.2494 28.9923 25.0876 28.4305 24.7371 28.2367C22.7823 27.0937 20.8005 26.5319 18.8458 26.5319C18.4683 26.5319 18.1717 26.9581 18.1717 27.5005C18.1717 28.043 18.4683 28.4692 18.8458 28.4692C20.6253 28.4692 22.4453 28.9923 24.2248 30.0191ZM24.4809 34.6211C24.4 34.6211 24.3057 34.6025 24.2248 34.5466C22.4453 33.5593 20.6253 33.0563 18.8458 33.0563C18.4683 33.0563 18.1717 32.6465 18.1717 32.1249C18.1717 31.6033 18.4683 31.1935 18.8458 31.1935C20.8005 31.1935 22.7823 31.7337 24.7371 32.8328C25.0876 33.0191 25.2494 33.5593 25.1145 34.0437C25.0067 34.3976 24.7506 34.6211 24.4809 34.6211Z" fill="white"/>
<path fill-rule="evenodd" clip-rule="evenodd" d="M27.9579 38.2603C28.1865 38.4111 28.4419 38.4796 28.6973 38.4796C28.9258 38.4796 29.1678 38.4248 29.3828 38.3151C32.031 36.8755 35.2304 36.5053 38.9406 36.094L39.4917 36.0254C40.3789 35.9294 41.0376 35.1891 41.0376 34.2842V19.8057C41.0376 18.846 40.2714 18.0645 39.3304 18.037C35.0422 17.9548 31.2917 18.75 28.1999 20.3679C27.6219 20.6558 27.2589 21.2728 27.2589 21.9309V36.9715C27.2455 37.5062 27.5143 37.986 27.9579 38.2603ZM31.2198 25.435C31.3007 25.435 31.3951 25.4164 31.476 25.3605C33.2555 24.3732 35.0755 23.8702 36.855 23.8702C37.2325 23.8702 37.5291 23.4604 37.5291 22.9388C37.5291 22.4172 37.2325 22.0073 36.855 22.0073C34.9002 22.0073 32.9185 22.5476 30.9637 23.6467C30.6132 23.8329 30.4514 24.3732 30.5862 24.8575C30.6941 25.2115 30.9502 25.435 31.2198 25.435ZM31.6104 30.0191C31.5295 30.0773 31.4352 30.0966 31.3543 30.0966C31.0846 30.0966 30.8285 29.8641 30.7207 29.496C30.5858 28.9923 30.7476 28.4305 31.0981 28.2367C33.0529 27.0937 35.0347 26.5319 36.9894 26.5319C37.3669 26.5319 37.6635 26.9581 37.6635 27.5005C37.6635 28.043 37.3669 28.4692 36.9894 28.4692C35.2099 28.4692 33.3899 28.9923 31.6104 30.0191ZM31.3543 34.6211C31.4352 34.6211 31.5295 34.6025 31.6104 34.5466C33.3899 33.5593 35.2099 33.0563 36.9894 33.0563C37.3669 33.0563 37.6635 32.6465 37.6635 32.1249C37.6635 31.6033 37.3669 31.1935 36.9894 31.1935C35.0347 31.1935 33.0529 31.7337 31.0981 32.8328C30.7476 33.0191 30.5858 33.5593 30.7207 34.0437C30.8285 34.3976 31.0846 34.6211 31.3543 34.6211Z" fill="white"/>
</g>
<defs>
<filter id="filter0_d_707_3580" x="11.811" y="15.0312" width="32.2266" height="26.4893" filterUnits="userSpaceOnUse" color-interpolation-filters="sRGB">
<feFlood flood-opacity="0" result="BackgroundImageFix"/>
<feColorMatrix in="SourceAlpha" type="matrix" values="0 0 0 0 0 0 0 0 0 0 0 0 0 0 0 0 0 0 127 0" result="hardAlpha"/>
<feOffset/>
<feGaussianBlur stdDeviation="1.5"/>
<feColorMatrix type="matrix" values="0 0 0 0 0.0654514 0 0 0 0 0.145818 0 0 0 0 0.270833 0 0 0 0.2 0"/>
<feBlend mode="normal" in2="BackgroundImageFix" result="effect1_dropShadow_707_3580"/>
<feBlend mode="normal" in="SourceGraphic" in2="effect1_dropShadow_707_3580" result="shape"/>
</filter>
<linearGradient id="paint0_linear_707_3580" x1="15.6309" y1="-2.99523e-06" x2="47.0757" y2="50.434" gradientUnits="userSpaceOnUse">
<stop stop-color="#79D7FF"/>
<stop offset="1" stop-color="#1594CD"/>
</linearGradient>
</defs>
</svg>
