<svg width="56" height="56" viewBox="0 0 56 56" fill="none" xmlns="http://www.w3.org/2000/svg">
<circle cx="28" cy="28" r="28" fill="url(#paint0_linear_707_3571)"/>
<g filter="url(#filter0_d_707_3571)">
<path d="M43.7342 22.8815L42.2634 21.3855C41.8566 20.9709 41.1316 21.0374 40.6439 21.5369L29.5788 32.8118C29.0886 33.3088 29.0234 34.0475 29.4302 34.462L30.8984 35.9607C31.3052 36.3726 32.0302 36.3062 32.5205 35.8066L43.583 24.5344C44.0732 24.0348 44.141 23.2961 43.7342 22.8815ZM32.0146 37.3505L32.0667 37.3957L27.4639 39.8723H36.7765C37.4702 39.8723 38.0282 39.3009 38.0282 38.5968V31.3424L32.3379 37.114C32.2362 37.215 32.1241 37.2734 32.0146 37.3505ZM27.9776 33.8216C28.0689 33.5745 28.1967 33.3327 28.4027 33.1254L38.0282 23.3625V16.2755C38.0282 15.5713 37.4676 15 36.7765 15H19.2518C18.5607 15 18 15.5713 18 16.2755V38.5941C18 39.3009 18.5607 39.8696 19.2518 39.8696H25.4428L27.9202 33.7685L27.9776 33.8216ZM21.1294 16.9133H34.273C34.9666 16.9133 35.5247 17.264 35.5247 17.6998C35.5247 18.1356 34.964 18.4837 34.273 18.4837H21.1294C20.4383 18.4837 19.8776 18.1329 19.8776 17.6998C19.8776 17.264 20.4383 16.9133 21.1294 16.9133ZM21.1294 21.1144H34.273C34.9666 21.1144 35.5247 21.4838 35.5247 21.9382C35.5247 22.3926 34.964 22.762 34.273 22.762H21.1294C20.4383 22.762 19.8776 22.3926 19.8776 21.9382C19.8776 21.4838 20.4383 21.1144 21.1294 21.1144ZM21.1294 27.1119C20.4383 27.1119 19.8776 26.7293 19.8776 26.2616C19.8776 25.7939 20.4383 25.4113 21.1294 25.4113H29.2659C29.957 25.4113 30.5177 25.7913 30.5177 26.2616C30.5177 26.732 29.957 27.1119 29.2659 27.1119H21.1294ZM28.2019 34.5524L25.8392 40.1035L31.0992 37.3718L28.2019 34.5524Z" fill="white"/>
</g>
<defs>
<filter id="filter0_d_707_3571" x="15" y="12" width="32" height="31.1035" filterUnits="userSpaceOnUse" color-interpolation-filters="sRGB">
<feFlood flood-opacity="0" result="BackgroundImageFix"/>
<feColorMatrix in="SourceAlpha" type="matrix" values="0 0 0 0 0 0 0 0 0 0 0 0 0 0 0 0 0 0 127 0" result="hardAlpha"/>
<feOffset/>
<feGaussianBlur stdDeviation="1.5"/>
<feColorMatrix type="matrix" values="0 0 0 0 0.0654514 0 0 0 0 0.145818 0 0 0 0 0.270833 0 0 0 0.2 0"/>
<feBlend mode="normal" in2="BackgroundImageFix" result="effect1_dropShadow_707_3571"/>
<feBlend mode="normal" in="SourceGraphic" in2="effect1_dropShadow_707_3571" result="shape"/>
</filter>
<linearGradient id="paint0_linear_707_3571" x1="16.66" y1="0.268525" x2="44.6788" y2="53.549" gradientUnits="userSpaceOnUse">
<stop stop-color="#CEB3FB"/>
<stop offset="1" stop-color="#513897"/>
</linearGradient>
</defs>
</svg>
