<svg width="56" height="56" viewBox="0 0 56 56" fill="none" xmlns="http://www.w3.org/2000/svg">
<circle cx="28" cy="28" r="28" fill="url(#paint0_linear_707_3568)"/>
<circle cx="28" cy="28" r="28" fill="url(#paint1_linear_707_3568)"/>
<g filter="url(#filter0_d_707_3568)">
<path d="M37.1573 20.0544C38.9735 20.0544 40.4867 21.5676 40.4867 23.3838V39.578C40.4867 39.8809 40.334 40.0324 40.1838 40.1838C40.0324 40.3353 39.7295 40.1838 39.578 40.0324L37.0058 38.3676C36.5515 38.0647 35.644 37.7618 35.0382 37.7618H26.1087C24.7469 37.7618 23.5353 36.8544 23.0809 35.6427L21.7191 36.4C22.4751 38.2162 24.2913 39.578 26.2589 39.578H35.0382C35.3411 39.578 35.9456 39.7307 36.2485 39.8809L38.822 41.5456C39.2751 41.8485 39.578 42 40.0324 42C40.3353 42 40.6382 41.8485 40.9411 41.6971C41.5456 41.3942 42 40.6382 42 39.7295V23.3838C42 20.8205 40.124 18.7931 37.6345 18.5627C37.5289 18.5525 37.3698 19.0502 37.1573 20.0544ZM35.8565 30.0427V18.8427C35.8565 16.1191 33.7375 14 31.0138 14H18.8427C16.1191 14 14 16.1191 14 18.8427V35.0382C14 35.9456 14.4544 36.5515 15.0589 37.0058C15.3618 37.1573 15.6647 37.3087 15.9676 37.3087C16.422 37.3087 16.8751 37.156 17.178 36.8544L19.7515 35.1896C20.0544 35.0369 20.6589 34.8867 20.9618 34.8867H31.0138C33.7375 34.8867 35.8565 32.7676 35.8565 30.0427ZM31.2849 24.5955C31.2849 25.5029 30.6791 26.1087 29.7704 26.1087C28.8629 26.1087 28.2584 25.5029 28.2584 24.5942C28.2584 23.6867 28.8629 23.0809 29.7716 23.0809C30.6791 23.0809 31.2862 23.6867 31.2862 24.5955H31.2849ZM26.7451 24.5929C26.7451 25.5016 26.1393 26.1075 25.2305 26.1075C24.3231 26.1075 23.7173 25.5016 23.7173 24.5929C23.7173 23.6855 24.3231 23.0796 25.2318 23.0796C26.1393 23.0796 26.7451 23.6855 26.7451 24.5942V24.5929ZM22.204 24.5929C22.204 25.5016 21.5982 26.1075 20.6895 26.1075C19.782 26.1075 19.1775 25.5016 19.1775 24.5929C19.1775 23.6855 19.782 23.0796 20.6907 23.0796C21.5982 23.0796 22.204 23.6855 22.204 24.5942V24.5929ZM18.9942 33.9767L16.422 35.6415C16.2693 35.7942 16.1191 35.7942 16.1191 35.7942C16.2705 35.7942 16.422 35.7942 16.422 35.6415L18.9942 33.9767C19.4485 33.6738 20.5087 33.3722 21.1133 33.3722H29.8913C31.7087 33.3722 33.222 31.8576 33.222 30.0415V18.2382V30.0427C33.222 31.8589 31.7075 33.3735 29.8913 33.3735H21.1145C20.3585 33.3735 19.4498 33.6751 18.9955 33.978L18.9942 33.9767Z" fill="white"/>
<path d="M35.9545 19.2818C35.9545 19.6194 36.0886 19.9431 36.3273 20.1818C36.566 20.4205 36.8897 20.5545 37.2273 20.5545C37.5648 20.5545 37.8885 20.4205 38.1272 20.1818C38.3659 19.9431 38.5 19.6194 38.5 19.2818C38.5 18.9443 38.3659 18.6205 38.1272 18.3819C37.8885 18.1432 37.5648 18.0091 37.2273 18.0091C36.8897 18.0091 36.566 18.1432 36.3273 18.3819C36.0886 18.6205 35.9545 18.9443 35.9545 19.2818ZM21.1909 36.0818C21.1909 36.249 21.2238 36.4145 21.2878 36.5689C21.3518 36.7233 21.4455 36.8636 21.5637 36.9818C21.6819 37.1 21.8222 37.1937 21.9766 37.2577C22.131 37.3216 22.2965 37.3545 22.4636 37.3545C22.6308 37.3545 22.7963 37.3216 22.9507 37.2577C23.1051 37.1937 23.2454 37.1 23.3636 36.9818C23.4818 36.8636 23.5755 36.7233 23.6395 36.5689C23.7034 36.4145 23.7364 36.249 23.7364 36.0818C23.7364 35.7443 23.6023 35.4205 23.3636 35.1819C23.1249 34.9432 22.8012 34.8091 22.4636 34.8091C22.1261 34.8091 21.8024 34.9432 21.5637 35.1819C21.325 35.4205 21.1909 35.7443 21.1909 36.0818Z" fill="white"/>
</g>
<defs>
<filter id="filter0_d_707_3568" x="11" y="11" width="34" height="34" filterUnits="userSpaceOnUse" color-interpolation-filters="sRGB">
<feFlood flood-opacity="0" result="BackgroundImageFix"/>
<feColorMatrix in="SourceAlpha" type="matrix" values="0 0 0 0 0 0 0 0 0 0 0 0 0 0 0 0 0 0 127 0" result="hardAlpha"/>
<feOffset/>
<feGaussianBlur stdDeviation="1.5"/>
<feColorMatrix type="matrix" values="0 0 0 0 0.0654514 0 0 0 0 0.145818 0 0 0 0 0.270833 0 0 0 0.2 0"/>
<feBlend mode="normal" in2="BackgroundImageFix" result="effect1_dropShadow_707_3568"/>
<feBlend mode="normal" in="SourceGraphic" in2="effect1_dropShadow_707_3568" result="shape"/>
</filter>
<linearGradient id="paint0_linear_707_3568" x1="40.1594" y1="56" x2="22.5276" y2="-1.24281" gradientUnits="userSpaceOnUse">
<stop stop-color="#109293"/>
<stop offset="1" stop-color="#80ECDF"/>
</linearGradient>
<linearGradient id="paint1_linear_707_3568" x1="14.8113" y1="0.268526" x2="38.9889" y2="56" gradientUnits="userSpaceOnUse">
<stop stop-color="#6EFF6B"/>
<stop offset="1" stop-color="#0BA408"/>
</linearGradient>
</defs>
</svg>
