<svg width="750" height="363" viewBox="0 0 750 363" fill="none" xmlns="http://www.w3.org/2000/svg">
<g opacity="0.8">
<path d="M0 0H750V363H0V0Z" fill="white"/>
<g opacity="0.5">
<mask id="mask0_634_5436" style="mask-type:alpha" maskUnits="userSpaceOnUse" x="0" y="0" width="750" height="363">
<path d="M0 0H750V363H0V0Z" fill="#D9D9D9"/>
</mask>
<g mask="url(#mask0_634_5436)">
<g opacity="0.8" filter="url(#filter0_f_634_5436)">
<path d="M225 166.25C225 176.584 222.302 186.686 217.247 195.279C212.193 203.871 205.009 210.568 196.603 214.523C188.198 218.477 178.949 219.512 170.026 217.496C161.103 215.48 152.907 210.504 146.473 203.196C140.04 195.889 135.659 186.579 133.884 176.443C132.109 166.308 133.02 155.802 136.501 146.255C139.983 136.707 145.879 128.547 153.444 122.806C161.009 117.064 169.902 114 179 114C191.199 114.005 202.896 119.511 211.522 129.309C220.148 139.107 224.996 152.394 225 166.25Z" fill="url(#paint0_linear_634_5436)"/>
<path d="M398.864 100L446.415 153.959L514 141.829L481.729 207.882L513.207 274.369L445.765 261.234L397.644 314.5L388.23 240.337L327 206.773L388.625 174.076L398.864 100Z" fill="url(#paint1_linear_634_5436)"/>
<path d="M528 207C528 207 504.139 290.122 442 298.861C442 298.861 499.65 309.766 528 392.9C556.361 309.766 614 298.861 614 298.861C551.861 290.122 528 207 528 207Z" fill="url(#paint2_linear_634_5436)"/>
<path d="M273 0C273 0 243.312 104.756 166 115.769C166 115.769 237.714 129.513 273 234.3C308.273 129.513 380 115.769 380 115.769C302.688 104.724 273 0 273 0Z" fill="url(#paint3_linear_634_5436)"/>
<path d="M106 271.45C106 282.219 103.097 292.747 97.6578 301.701C92.2187 310.655 84.4875 317.634 75.4426 321.755C66.3976 325.877 56.4449 326.955 46.8428 324.854C37.2407 322.753 28.4206 317.567 21.4979 309.952C14.5752 302.337 9.86103 292.635 7.95106 282.073C6.04109 271.511 7.02172 260.562 10.7683 250.613C14.5148 240.663 20.859 232.16 28.9992 226.177C37.1395 220.194 46.7097 217 56.4999 217C69.6268 217.005 82.2149 222.743 91.497 232.953C100.779 243.164 105.996 257.01 106 271.45Z" fill="#497391"/>
</g>
<g filter="url(#filter1_f_634_5436)">
<path fill-rule="evenodd" clip-rule="evenodd" d="M691.5 44.7852C626.054 44.7852 573 119.505 573 211.677C573 303.848 626.054 378.568 691.5 378.568C756.946 378.568 810 303.848 810 211.677C810 119.505 756.946 44.7852 691.5 44.7852ZM691.5 110.663C651.888 110.663 619.776 155.889 619.776 211.677C619.776 267.465 651.888 312.69 691.5 312.69C731.112 312.69 763.224 267.465 763.224 211.677C763.224 155.889 731.112 110.663 691.5 110.663Z" fill="url(#paint4_linear_634_5436)"/>
<path fill-rule="evenodd" clip-rule="evenodd" d="M517.5 199C482.43 199 454 239.04 454 288.431C454 337.823 482.43 377.863 517.5 377.863C552.57 377.863 581 337.823 581 288.431C581 239.04 552.57 199 517.5 199ZM517.5 234.302C496.273 234.302 479.066 258.537 479.066 288.431C479.066 318.326 496.273 342.561 517.5 342.561C538.727 342.561 555.934 318.326 555.934 288.431C555.934 258.537 538.727 234.302 517.5 234.302Z" fill="url(#paint5_linear_634_5436)"/>
<path fill-rule="evenodd" clip-rule="evenodd" d="M211 150.697C186.701 150.697 167 178.757 167 213.37C167 247.983 186.701 276.042 211 276.042C235.299 276.042 255 247.983 255 213.37C255 178.757 235.299 150.697 211 150.697ZM211 175.436C196.292 175.436 184.369 192.419 184.369 213.37C184.369 234.32 196.292 251.303 211 251.303C225.708 251.303 237.631 234.32 237.631 213.37C237.631 192.419 225.708 175.436 211 175.436Z" fill="url(#paint6_linear_634_5436)"/>
<path fill-rule="evenodd" clip-rule="evenodd" d="M64 178.864C39.7008 178.864 20 206.924 20 241.537C20 276.15 39.7008 304.209 64 304.209C88.2992 304.209 108 276.15 108 241.537C108 206.924 88.2992 178.864 64 178.864ZM64 203.603C49.2916 203.603 37.3694 220.586 37.3694 241.537C37.3694 262.487 49.2916 279.47 64 279.47C78.7084 279.47 90.6306 262.487 90.6306 241.537C90.6306 220.586 78.7084 203.603 64 203.603Z" fill="url(#paint7_linear_634_5436)"/>
<path fill-rule="evenodd" clip-rule="evenodd" d="M47.5 -25C14.6409 -25 -12 3.20597 -12 38C-12 72.7941 14.6409 101 47.5 101C80.3591 101 107 72.7941 107 38C107 3.20597 80.3591 -25 47.5 -25ZM47.5 -0.131611C27.6102 -0.131611 11.4882 16.9403 11.4882 38C11.4882 59.0596 27.6102 76.1315 47.5 76.1315C67.3898 76.1315 83.5118 59.0596 83.5118 38C83.5118 16.9403 67.3898 -0.131611 47.5 -0.131611Z" fill="url(#paint8_linear_634_5436)"/>
<path fill-rule="evenodd" clip-rule="evenodd" d="M386.5 240.832C369.104 240.832 355 261.009 355 285.9C355 310.79 369.104 330.968 386.5 330.968C403.896 330.968 418 310.79 418 285.9C418 261.009 403.896 240.832 386.5 240.832ZM386.5 258.622C375.97 258.622 367.435 270.835 367.435 285.9C367.435 300.965 375.97 313.178 386.5 313.178C397.03 313.178 405.565 300.965 405.565 285.9C405.565 270.835 397.03 258.622 386.5 258.622Z" fill="url(#paint9_linear_634_5436)"/>
</g>
<g opacity="0.6" filter="url(#filter2_f_634_5436)">
<path fill-rule="evenodd" clip-rule="evenodd" d="M683.5 -41.9736C618.054 -41.9736 565 32.7461 565 124.918C565 217.09 618.054 291.81 683.5 291.81C748.946 291.81 802 217.09 802 124.918C802 32.7461 748.946 -41.9736 683.5 -41.9736ZM683.5 23.9047C643.888 23.9047 611.776 69.1298 611.776 124.918C611.776 180.706 643.888 225.931 683.5 225.931C723.112 225.931 755.224 180.706 755.224 124.918C755.224 69.1298 723.112 23.9047 683.5 23.9047Z" fill="url(#paint10_linear_634_5436)"/>
<path fill-rule="evenodd" clip-rule="evenodd" d="M516.5 -19C481.43 -19 453 1.14717 453 26C453 50.8528 481.43 71 516.5 71C551.57 71 580 50.8528 580 26C580 1.14717 551.57 -19 516.5 -19ZM516.5 -1.23697C495.273 -1.23697 478.066 10.9575 478.066 26C478.066 41.0424 495.273 53.2367 516.5 53.2367C537.727 53.2367 554.934 41.0424 554.934 26C554.934 10.9575 537.727 -1.23697 516.5 -1.23697Z" fill="url(#paint11_linear_634_5436)"/>
<path fill-rule="evenodd" clip-rule="evenodd" d="M653 112C628.701 112 609 140.059 609 174.672C609 209.286 628.701 237.345 653 237.345C677.299 237.345 697 209.286 697 174.672C697 140.059 677.299 112 653 112ZM653 136.739C638.292 136.739 626.369 153.722 626.369 174.672C626.369 195.622 638.292 212.606 653 212.606C667.708 212.606 679.631 195.622 679.631 174.672C679.631 153.722 667.708 136.739 653 136.739Z" fill="url(#paint12_linear_634_5436)"/>
</g>
</g>
</g>
</g>
<defs>
<filter id="filter0_f_634_5436" x="-153" y="-160" width="927" height="712.9" filterUnits="userSpaceOnUse" color-interpolation-filters="sRGB">
<feFlood flood-opacity="0" result="BackgroundImageFix"/>
<feBlend mode="normal" in="SourceGraphic" in2="BackgroundImageFix" result="shape"/>
<feGaussianBlur stdDeviation="80" result="effect1_foregroundBlur_634_5436"/>
</filter>
<filter id="filter1_f_634_5436" x="-112" y="-125" width="1022" height="603.568" filterUnits="userSpaceOnUse" color-interpolation-filters="sRGB">
<feFlood flood-opacity="0" result="BackgroundImageFix"/>
<feBlend mode="normal" in="SourceGraphic" in2="BackgroundImageFix" result="shape"/>
<feGaussianBlur stdDeviation="50" result="effect1_foregroundBlur_634_5436"/>
</filter>
<filter id="filter2_f_634_5436" x="393" y="-101.974" width="469" height="453.783" filterUnits="userSpaceOnUse" color-interpolation-filters="sRGB">
<feFlood flood-opacity="0" result="BackgroundImageFix"/>
<feBlend mode="normal" in="SourceGraphic" in2="BackgroundImageFix" result="shape"/>
<feGaussianBlur stdDeviation="30" result="effect1_foregroundBlur_634_5436"/>
</filter>
<linearGradient id="paint0_linear_634_5436" x1="121" y1="108.5" x2="232.293" y2="187.3" gradientUnits="userSpaceOnUse">
<stop offset="0.307292" stop-color="#0400DB"/>
<stop offset="1" stop-color="#D10000"/>
</linearGradient>
<linearGradient id="paint1_linear_634_5436" x1="346" y1="100" x2="543.045" y2="254.102" gradientUnits="userSpaceOnUse">
<stop stop-color="#2DCDF0"/>
<stop offset="1" stop-color="#FF9900"/>
</linearGradient>
<linearGradient id="paint2_linear_634_5436" x1="528" y1="207" x2="528" y2="392.9" gradientUnits="userSpaceOnUse">
<stop stop-color="#29EFFC"/>
<stop offset="1" stop-color="#293EFC" stop-opacity="0.53"/>
</linearGradient>
<linearGradient id="paint3_linear_634_5436" x1="273" y1="0" x2="273" y2="234.3" gradientUnits="userSpaceOnUse">
<stop offset="0.328125" stop-color="#0AE797"/>
<stop offset="1" stop-color="#290AE7"/>
</linearGradient>
<linearGradient id="paint4_linear_634_5436" x1="784.5" y1="169.426" x2="449.135" y2="185.59" gradientUnits="userSpaceOnUse">
<stop stop-color="#60ABF3"/>
<stop offset="1" stop-color="white" stop-opacity="0"/>
</linearGradient>
<linearGradient id="paint5_linear_634_5436" x1="617.004" y1="276.972" x2="406.871" y2="351.785" gradientUnits="userSpaceOnUse">
<stop stop-color="#FFE8D3"/>
<stop offset="1" stop-color="#FFDA16"/>
<stop offset="1" stop-color="#787563" stop-opacity="0.42"/>
</linearGradient>
<linearGradient id="paint6_linear_634_5436" x1="167" y1="213.369" x2="365.861" y2="213.369" gradientUnits="userSpaceOnUse">
<stop stop-color="#329B30"/>
<stop offset="1" stop-color="#54B5AB"/>
</linearGradient>
<linearGradient id="paint7_linear_634_5436" x1="20" y1="241.536" x2="218.861" y2="241.536" gradientUnits="userSpaceOnUse">
<stop stop-color="#90C24F"/>
<stop offset="1" stop-color="#54B5AB" stop-opacity="0.51"/>
</linearGradient>
<linearGradient id="paint8_linear_634_5436" x1="-12" y1="37.9998" x2="256.915" y2="37.9998" gradientUnits="userSpaceOnUse">
<stop stop-color="#5F4BB1"/>
<stop offset="1" stop-color="#B5A054"/>
</linearGradient>
<linearGradient id="paint9_linear_634_5436" x1="355" y1="285.9" x2="497.367" y2="285.9" gradientUnits="userSpaceOnUse">
<stop stop-color="#5850BD"/>
<stop offset="1" stop-color="#B55454"/>
</linearGradient>
<linearGradient id="paint10_linear_634_5436" x1="776.5" y1="82.667" x2="441.135" y2="98.8313" gradientUnits="userSpaceOnUse">
<stop stop-color="#60ADF3"/>
<stop offset="1" stop-color="white" stop-opacity="0"/>
</linearGradient>
<linearGradient id="paint11_linear_634_5436" x1="616.004" y1="20.2338" x2="458.225" y2="131.871" gradientUnits="userSpaceOnUse">
<stop stop-color="#A276FF"/>
<stop offset="1" stop-color="#9674DE"/>
</linearGradient>
<linearGradient id="paint12_linear_634_5436" x1="609" y1="174.672" x2="807.861" y2="174.672" gradientUnits="userSpaceOnUse">
<stop stop-color="#CBF5F1"/>
<stop offset="1" stop-color="#54B5AB"/>
</linearGradient>
</defs>
</svg>
