<svg width="200" height="42" viewBox="0 0 200 42" fill="none" xmlns="http://www.w3.org/2000/svg">
<g filter="url(#filter0_d_722_1805)">
<path d="M91.464 10.36L90.632 12.44H99.72V10.36H91.464ZM91.656 4.12C90.952 9.208 89.704 14.04 87.464 17.144C87.944 17.56 88.744 18.488 89.064 18.968C91.496 15.448 93.032 10.104 93.896 4.472L91.656 4.12ZM82.408 4.12V14.2H84.264V4.12H82.408ZM78.344 6.904V15.096H88.52V6.904H86.76V13.08H80.04V6.904H78.344ZM77.736 18.36V20.408H88.904V18.36H77.736ZM83.528 27.928L84.2 30.008C86.024 29.304 88.104 28.472 90.216 27.672L89.896 25.88C87.496 26.68 85.192 27.48 83.528 27.928ZM84.776 19.288V28.536L86.792 27.928V19.288H84.776ZM91.912 12.216L90.216 12.472C91.304 21.848 93.544 30.008 98.76 33.56C99.112 32.952 99.816 32.12 100.328 31.672C95.272 28.664 92.968 20.824 91.912 12.216ZM96.264 11.48C95.432 21.112 93.352 27.896 87.336 31.768C87.752 32.216 88.456 33.144 88.68 33.56C95.016 29.144 97.352 22.104 98.376 11.672L96.264 11.48ZM79.976 19.576V22.04C79.976 24.696 79.752 28.184 76.84 31.096C77.32 31.448 77.96 32.184 78.28 32.696C81.608 29.4 81.96 25.08 81.96 22.104V19.576H79.976ZM75.336 4.12C74.184 6.232 71.912 8.856 69.864 10.52C70.248 10.936 70.888 11.832 71.176 12.312C73.448 10.392 75.944 7.512 77.512 4.952L75.336 4.12ZM76.008 10.552C74.408 13.912 71.912 17.336 69.512 19.64C69.928 20.12 70.664 21.24 70.92 21.72C73.512 19.096 76.296 15.064 78.12 11.288L76.008 10.552ZM73.704 16.376V33.528H75.88V14.232V14.168L73.704 16.376ZM113.928 5.656V7.608H128.744V5.656H113.928ZM113.544 14.52V16.504H129.32V14.52H113.544ZM113.544 18.968V20.952H129.256V18.968H113.544ZM114.472 30.072V32.056H128.36V30.072H114.472ZM110.92 10.072V12.088H131.752V10.072H110.92ZM113.224 23.416V33.56H115.528V25.368H127.208V33.464H129.608V23.416H113.224ZM109.832 4.216C107.976 9.08 104.84 13.848 101.608 16.888C102.056 17.464 102.728 18.712 102.952 19.256C106.504 15.704 109.928 10.328 112.104 4.92L109.832 4.216ZM106.504 12.472V33.496H108.808V10.232L108.776 10.2L106.504 12.472ZM160.776 4.312C157.096 5.336 150.216 6.04 144.616 6.36C144.872 6.872 145.128 7.704 145.224 8.248C150.92 7.928 157.928 7.256 162.312 6.104L160.776 4.312ZM145.768 9.496C146.568 10.808 147.368 12.664 147.656 13.784L149.608 13.048C149.288 11.928 148.456 10.168 147.592 8.856L145.768 9.496ZM152.008 8.76C152.552 10.232 153.128 12.152 153.256 13.336L155.304 12.792C155.144 11.64 154.568 9.752 153.928 8.312L152.008 8.76ZM160.2 7.928C159.464 9.72 158.088 12.344 157 13.944L158.76 14.584C159.912 13.08 161.288 10.68 162.44 8.632L160.2 7.928ZM144.424 14.008V19.192H146.568V16.056H161V19.192H163.24V14.008H144.424ZM145.992 19.8V21.816H159.752V19.8H145.992ZM158.984 19.8V20.152C156.776 26.584 150.248 30.136 143.112 31.416C143.528 31.928 144.008 32.92 144.2 33.496C151.816 31.864 158.632 28.056 161.288 20.312L159.88 19.704L159.464 19.8H158.984ZM149.256 21.624L147.208 22.264C149.896 28.28 155.08 32.056 162.344 33.624C162.664 32.984 163.304 32.056 163.816 31.544C156.776 30.296 151.624 26.84 149.256 21.624ZM133.864 20.92L134.504 23.256C137.224 22.392 140.744 21.208 144.072 20.12L143.752 17.912C140.104 19.064 136.36 20.216 133.864 20.92ZM134.184 10.584V12.824H143.912V10.584H134.184ZM138.216 4.152V30.776C138.216 31.256 138.056 31.352 137.672 31.352C137.288 31.384 136.04 31.384 134.664 31.352C134.952 32.024 135.272 33.016 135.336 33.592C137.384 33.592 138.6 33.528 139.368 33.144C140.168 32.76 140.456 32.12 140.456 30.776V4.152H138.216ZM178.504 7.096V9.4H193.416V7.096H178.504ZM192.584 7.096V7.608C190.728 20.216 184.552 28.312 176.712 31.544C177.224 32.024 177.896 32.984 178.248 33.624C186.6 29.72 192.968 21.56 194.984 7.48L193.448 6.968L193 7.096H192.584ZM181.96 9.88L179.784 10.328C181.928 21.592 185.512 28.12 194.376 33.656C194.728 32.952 195.464 32.088 196.104 31.64C187.528 26.648 183.976 20.536 181.96 9.88ZM166.6 10.936V13.176H178.728V10.936H166.6ZM171.944 4.12V33.528H174.312V4.12H171.944ZM171.848 12.312C170.824 17.048 168.424 22.616 165.992 25.656C166.44 26.232 167.08 27.128 167.336 27.8C169.992 24.472 172.456 18.072 173.64 12.824L171.848 12.312ZM174.12 16.408L173 17.688C174.12 18.808 177.032 21.912 178.056 23.288L179.368 21.112C178.6 20.344 175.08 17.144 174.12 16.408Z" fill="#167A86"/>
</g>
<g filter="url(#filter1_d_722_1805)">
<path d="M33.8473 12.0407C34.4226 12.0407 34.9899 12.0823 35.5518 12.1426C34.021 5.17673 26.3978 0 17.6972 0C7.96914 0 0 6.47931 0 14.7061C0 19.4541 2.65185 23.3537 7.0816 26.3783L5.31187 31.5813L11.4978 28.5492C13.7126 28.9767 15.4877 29.4176 17.6972 29.4176C18.2522 29.4176 18.8019 29.3909 19.3488 29.348C19.0027 28.1929 18.8019 26.9815 18.8019 25.7257C18.8019 18.1716 25.4411 12.0407 33.8473 12.0407ZM24.3336 7.35175C25.6663 7.35175 26.5484 8.20938 26.5484 9.51063C26.5484 10.8065 25.6663 11.6749 24.3336 11.6749C23.0063 11.6749 21.6763 10.8065 21.6763 9.51063C21.6763 8.20938 23.0063 7.35175 24.3336 7.35175ZM11.9483 11.6748C10.621 11.6748 9.28284 10.8064 9.28284 9.51057C9.28284 8.20932 10.621 7.35169 11.9483 7.35169C13.2742 7.35169 14.1577 8.20932 14.1577 9.51057C14.1577 10.8065 13.2742 11.6748 11.9483 11.6748ZM50 25.518C50 18.6045 42.9198 12.9694 34.9683 12.9694C26.5484 12.9694 19.9175 18.6045 19.9175 25.518C19.9175 32.4416 26.5484 38.0646 34.9683 38.0646C36.7298 38.0646 38.5077 37.633 40.2773 37.1989L45.132 39.7959L43.8005 35.4755C47.3537 32.8704 50 29.4176 50 25.518ZM30.0879 23.3537C29.2072 23.3537 28.3182 22.4974 28.3182 21.6236C28.3182 20.762 29.2072 19.895 30.0879 19.895C31.426 19.895 32.3028 20.762 32.3028 21.6236C32.3028 22.4974 31.426 23.3537 30.0879 23.3537ZM39.8213 23.3537C38.9474 23.3537 38.0639 22.4974 38.0639 21.6236C38.0639 20.762 38.9474 19.895 39.8213 19.895C41.1487 19.895 42.0362 20.762 42.0362 21.6236C42.0362 22.4974 41.1487 23.3537 39.8213 23.3537Z" fill="url(#paint0_linear_722_1805)"/>
</g>
<defs>
<filter id="filter0_d_722_1805" x="68.5122" y="3.12012" width="130.592" height="33.5361" filterUnits="userSpaceOnUse" color-interpolation-filters="sRGB">
<feFlood flood-opacity="0" result="BackgroundImageFix"/>
<feColorMatrix in="SourceAlpha" type="matrix" values="0 0 0 0 0 0 0 0 0 0 0 0 0 0 0 0 0 0 127 0" result="hardAlpha"/>
<feOffset dx="1" dy="1"/>
<feGaussianBlur stdDeviation="1"/>
<feComposite in2="hardAlpha" operator="out"/>
<feColorMatrix type="matrix" values="0 0 0 0 0 0 0 0 0 0 0 0 0 0 0 0 0 0 0.1 0"/>
<feBlend mode="normal" in2="BackgroundImageFix" result="effect1_dropShadow_722_1805"/>
<feBlend mode="normal" in="SourceGraphic" in2="effect1_dropShadow_722_1805" result="shape"/>
</filter>
<filter id="filter1_d_722_1805" x="0" y="0" width="52" height="41.7959" filterUnits="userSpaceOnUse" color-interpolation-filters="sRGB">
<feFlood flood-opacity="0" result="BackgroundImageFix"/>
<feColorMatrix in="SourceAlpha" type="matrix" values="0 0 0 0 0 0 0 0 0 0 0 0 0 0 0 0 0 0 127 0" result="hardAlpha"/>
<feOffset dx="1" dy="1"/>
<feGaussianBlur stdDeviation="0.5"/>
<feComposite in2="hardAlpha" operator="out"/>
<feColorMatrix type="matrix" values="0 0 0 0 0 0 0 0 0 0 0 0 0 0 0 0 0 0 0.1 0"/>
<feBlend mode="normal" in2="BackgroundImageFix" result="effect1_dropShadow_722_1805"/>
<feBlend mode="normal" in="SourceGraphic" in2="effect1_dropShadow_722_1805" result="shape"/>
</filter>
<linearGradient id="paint0_linear_722_1805" x1="10.2937" y1="5.6548e-07" x2="41.9799" y2="42.6395" gradientUnits="userSpaceOnUse">
<stop stop-color="#2FBFD0"/>
<stop offset="1" stop-color="#0F7380"/>
</linearGradient>
</defs>
</svg>
