<?xml version="1.0" standalone="no"?><!DOCTYPE svg PUBLIC "-//W3C//DTD SVG 1.1//EN" "http://www.w3.org/Graphics/SVG/1.1/DTD/svg11.dtd"><svg class="icon" width="250px" height="250.00px" viewBox="0 0 1024 1024" version="1.1" xmlns="http://www.w3.org/2000/svg"><path d="M512.01024 293.12c0 17.28-2.56 34.56-8.32 51.52l-73.6 219.84-317.12-102.08 73.92-221.44c28.8-86.08 123.52-133.12 210.88-104.64C467.53024 159.04 512.01024 224 512.01024 293.12z" fill="#E0EBFE" /><path d="M21.00224 818.88a196.8 196.8 0 0 0 115.456 99.232A199.264 199.264 0 0 0 198.37824 928c86.08 0 162.048-54.208 188.992-134.912l146.592-438.368a193.824 193.824 0 0 0-10.944-149.6 196.8 196.8 0 0 0-115.456-99.232A199.264 199.264 0 0 0 345.64224 96c-86.08 0-162.048 54.208-188.992 134.912L10.05824 669.28a193.824 193.824 0 0 0 10.944 149.6zM217.32224 251.2C235.56224 196.704 287.14624 160 345.64224 160c14.272 0 28.416 2.24 42.048 6.72a133.216 133.216 0 0 1 78.144 67.2c15.904 31.584 18.56 67.296 7.456 100.512l-63.232 189.024-255.808-83.616L217.32224 251.2zM70.76224 689.6l63.2-189.024 255.808 83.616-63.072 188.608C308.45824 827.328 256.87424 864 198.37824 864c-14.272 0-28.416-2.24-42.048-6.72a133.216 133.216 0 0 1-78.144-67.2 130.368 130.368 0 0 1-7.456-100.512zM770.02624 416h-4.032C625.96224 416 512.01024 529.92 512.01024 669.984v4.032C512.01024 814.048 625.93024 928 765.99424 928h4.032C910.05824 928 1024.01024 814.08 1024.01024 674.016v-4.032C1024.01024 529.952 910.09024 416 770.02624 416z m0 448h-4.032A190.176 190.176 0 0 1 576.01024 674.016v-4.032a190.016 190.016 0 0 1 106.56-170.432l109.472 363.072a190.752 190.752 0 0 1-22.016 1.376zM960.01024 674.016a190.016 190.016 0 0 1-106.56 170.432l-109.472-363.072c7.232-0.832 14.56-1.376 22.016-1.376h4.032A190.176 190.176 0 0 1 960.01024 669.984v4.032z" fill="#5465CF" /></svg>