<?xml version="1.0" standalone="no"?><!DOCTYPE svg PUBLIC "-//W3C//DTD SVG 1.1//EN" "http://www.w3.org/Graphics/SVG/1.1/DTD/svg11.dtd"><svg class="icon" width="250px" height="250.00px" viewBox="0 0 1024 1024" version="1.1" xmlns="http://www.w3.org/2000/svg"><path d="M384 608m-48 0a48 48 0 1 0 96 0 48 48 0 1 0-96 0Z" fill="#E0EBFE" /><path d="M640 608m-48 0a48 48 0 1 0 96 0 48 48 0 1 0-96 0Z" fill="#E0EBFE" /><path d="M960 32H64a32 32 0 0 0-32 32v896a32 32 0 1 0 64 0V96h288v448c-35.296 0-64 28.704-64 64s28.704 64 64 64 64-28.704 64-64c0-23.584-12.96-44-32-55.104V96h192v456.896c-19.04 11.104-32 31.52-32 55.104 0 35.296 28.704 64 64 64s64-28.704 64-64-28.704-64-64-64V96h288v864a32 32 0 1 0 64 0V64a32 32 0 0 0-32-32zM384 640a32.032 32.032 0 0 1 0-64 32.032 32.032 0 0 1 0 64z m288-32a32.032 32.032 0 0 1-64 0 32 32 0 0 1 64 0z" fill="#5465CF" /></svg>