<?xml version="1.0" standalone="no"?><!DOCTYPE svg PUBLIC "-//W3C//DTD SVG 1.1//EN" "http://www.w3.org/Graphics/SVG/1.1/DTD/svg11.dtd"><svg class="icon" width="250px" height="250.00px" viewBox="0 0 1024 1024" version="1.1" xmlns="http://www.w3.org/2000/svg"><path d="M512 608m-384 0a384 384 0 1 0 768 0 384 384 0 1 0-768 0Z" fill="#E0EBFE" /><path d="M512 1024c229.376 0 416-186.624 416-416 0-177.184-111.552-328.416-267.936-388.288 7.648-18.88 11.936-39.04 11.936-59.712 0-88.224-71.776-160-160-160s-160 71.776-160 160c0 20.736 4.352 40.832 11.968 59.712C207.552 279.552 96 430.784 96 608c0 229.376 186.624 416 416 416z m0-992c70.592 0 128 57.408 128 128 0 17.088-3.584 33.728-10.08 49.28a413.376 413.376 0 0 0-86.24-15.68c0-0.544 0.32-1.024 0.32-1.6V128a32 32 0 0 0-64 0v64c0 0.576 0.32 1.056 0.32 1.6-29.696 2.24-58.528 7.488-86.176 15.68A127.36 127.36 0 0 1 384 160c0-70.592 57.408-128 128-128z m0 224c194.08 0 352 157.92 352 352s-157.92 352-352 352S160 802.08 160 608 317.92 256 512 256z" fill="#5465CF" /><path d="M768 640h32a32 32 0 0 0 0-64h-32a32 32 0 0 0 0 64zM288 608a32 32 0 0 0-32-32H224a32 32 0 0 0 0 64h32a32 32 0 0 0 32-32zM512 928a32 32 0 0 0 32-32v-32a32 32 0 0 0-64 0v32a32 32 0 0 0 32 32zM512 384a32 32 0 0 0 32-32v-32a32 32 0 0 0-64 0v32a32 32 0 0 0 32 32zM512 640a31.904 31.904 0 0 0 22.624-9.376l128-128a32 32 0 1 0-45.248-45.248l-128 128A32 32 0 0 0 512 640z" fill="#5465CF" /></svg>