<?xml version="1.0" standalone="no"?><!DOCTYPE svg PUBLIC "-//W3C//DTD SVG 1.1//EN" "http://www.w3.org/Graphics/SVG/1.1/DTD/svg11.dtd"><svg class="icon" width="250px" height="250.00px" viewBox="0 0 1024 1024" version="1.1" xmlns="http://www.w3.org/2000/svg"><path fill="#1296db" d="M880.64 484.032a704.256 704.256 0 0 0-263.968-94.976 32 32 0 1 0-24.736 56.64c105.12 84.288 168.992 223.552 166.72 363.456-0.8 48.736-10.176 84.096-28.672 108.096-27.424 35.584-76.16 45.088-112.608 42.24-47.616-3.84-95.584-25.28-139.392-44.928-36.864-16.448-71.648-32-102.208-54.272-33.28-24.256-55.808-51.936-66.88-82.304a31.968 31.968 0 0 0-11.52-15.136c-60.64-43.136-87.456-117.44-99.296-172.16-13.888-64.416-3.712-130.304 28.8-185.536a254.624 254.624 0 0 1 37.92-50.304c31.648-31.968 41.184-60.128 35.296-103.968a609.28 609.28 0 0 0-54.88-182.912 32.032 32.032 0 0 0-57.696 27.744c24.96 51.808 41.472 106.88 49.152 163.712 3.232 24.064 0.32 32.576-17.344 50.432a319.04 319.04 0 0 0-47.648 62.88c-40.64 69.12-53.44 151.296-36.16 231.488 19.52 90.24 59.84 160.864 116.896 204.928 16.32 38.784 45.12 73.344 85.664 102.88 36.032 26.24 75.52 43.904 115.264 61.632 47.008 21.024 100.288 44.896 158.912 49.6 6.304 0.512 12.544 0.768 18.784 0.768 61.44 0 116.416-24.64 149.632-67.744 27.2-35.328 40.928-83.104 41.984-146.112 1.984-120.416-39.36-240.576-111.552-333.696a633.76 633.76 0 0 1 136.256 62.24 32 32 0 0 0 33.28-54.688z"  /><path fill="#1296db" d="M356.992 365.984a32 32 0 0 0 63.808 4.8c5.12-67.392 41.6-130.56 95.36-166.24a206.4 206.4 0 0 0 113.504 2.912c44-11.68 81.664-39.328 100.736-73.92a32 32 0 1 0-56.064-30.88c-10.656 19.328-34.048 35.776-61.12 42.976a140.8 140.8 0 0 1-72.064-0.64c5.344-46.016-4.096-93.28-27.328-130.08a32 32 0 0 0-54.144 34.176c18.56 29.312 24 69.12 15.008 106.08-66.592 47.008-111.328 126.624-117.696 210.816z"  /></svg>