<svg width="236" height="32" viewBox="0 0 236 32" fill="none" xmlns="http://www.w3.org/2000/svg">
<g filter="url(#filter0_d_685_1698)">
<path d="M0 2.26855H5.6451V27.4951H0V2.26855Z" fill="white"/>
<path d="M9.34969 7.38442V2.26855H30.8716V7.38442H22.9332V27.4951H17.2881V7.38442H9.34969Z" fill="white"/>
<path d="M55.3581 21.6583C56.9662 19.1337 57.6241 16.1195 57.2142 13.1545L44.8079 13.2059L44.808 17.7926H51.7244C51.5571 18.1952 51.3544 18.585 51.1174 18.9571C50.1503 20.4753 48.6748 21.6001 46.9546 22.1305C45.2344 22.6608 43.3817 22.5621 41.7276 21.8521C40.0735 21.1419 38.7258 19.8668 37.9254 18.2544C37.1251 16.642 36.9242 14.7976 37.3588 13.0507C37.7933 11.3039 38.8349 9.76851 40.2974 8.71905C41.7599 7.66956 43.548 7.1744 45.342 7.32208C47.136 7.46972 48.819 8.25059 50.0903 9.52508L53.6501 5.97437C51.5363 3.85509 48.7376 2.55662 45.7544 2.31108C42.7713 2.06555 39.798 2.88889 37.3661 4.63403C34.9342 6.37913 33.2021 8.93224 32.4795 11.837C31.757 14.7417 32.0909 17.8088 33.4218 20.4899C34.7527 23.171 36.9936 25.2915 39.7442 26.4723C42.4947 27.653 45.5755 27.8171 48.4359 26.9352C51.2963 26.0533 53.7499 24.1829 55.3581 21.6583Z" fill="white"/>
<path d="M69.0637 7.14935H84.1327V9.76739H78.0746V13.5118H83.189V16.069H78.0746V20.3004H81.1798C80.6521 19.1436 80.0737 18.0883 79.4446 17.1344L81.7277 16.4038C82.4583 17.4186 83.0672 18.4739 83.5543 19.5698L81.9104 20.3004H85.0155V22.9185H68.2418V20.3004H75.1522V16.069H70.0379V13.5118H75.1522V9.76739H69.0637V7.14935ZM89.3992 2.30902V29.1896H86.4767V28.0328H66.7501V29.1896H63.8276V2.30902H89.3992ZM66.7501 25.3234H86.4767V5.04883H66.7501V25.3234Z" fill="white"/>
<path d="M100.572 5.749C102.398 8.1235 103.798 10.1936 104.773 11.9592L102.642 13.4205L102.002 12.2941L101.333 11.1982C99.161 12.1926 96.3908 13.3088 93.0218 14.5468L92.2608 11.9592C93.0523 11.6142 93.448 10.9445 93.448 9.95005V3.34406C97.4055 2.65403 100.572 1.87268 102.946 1L104.499 3.28317C102.53 4.05438 99.7394 4.79514 96.1269 5.50546V10.6807C97.1417 10.2951 98.4101 9.76739 99.9322 9.09766L99.2016 8.09306L98.4406 7.08847L100.572 5.749ZM105.442 5.47502V2.73521H117.497C117.437 7.40304 117.173 10.3458 116.706 11.5635C116.219 12.6797 115.093 13.2581 113.327 13.2987C112.86 13.2987 112.251 13.248 111.5 13.1465L110.617 10.4676C111.632 10.569 112.424 10.6198 112.992 10.6198C113.743 10.5995 114.24 10.3255 114.484 9.79783C114.605 9.18899 114.697 7.74805 114.758 5.47502H111.683C111.318 7.30156 110.841 8.77294 110.252 9.88916C109.461 11.2489 108.304 12.4768 106.782 13.5727L105.047 11.3504C106.264 10.5183 107.178 9.60503 107.786 8.61058C108.253 7.7582 108.618 6.71301 108.882 5.47502H105.442ZM115.519 14.3337V23.71H112.596V16.9518H98.4101V24.0753H95.5181V14.3337H115.519ZM107.573 23.2229C111.49 24.2376 115.143 25.4959 118.533 26.9977L116.95 29.4636C113.296 27.6979 109.684 26.3483 106.112 25.4147L107.573 23.2229ZM107.421 18.6566C106.995 21.579 105.706 23.9129 103.555 25.6583C101.667 27.2413 98.3086 28.4894 93.4785 29.4027L92.3825 26.7847C96.4618 26.1149 99.4147 25.1408 101.241 23.8622C103.048 22.543 104.164 20.7063 104.59 18.3521L107.421 18.6566Z" fill="white"/>
<path d="M146.113 14.3033H140.968V16.1603H146.479V18.413H140.968V20.1178H147.422V22.4923H140.968V25.1712H138.229V22.4923H133.48V20.1178H138.229V18.413H134.454V16.1603H138.229V14.3033H134.697V11.9897H138.229V10.0718H133.48V7.7582H138.229V5.80989H134.697V3.49627H138.229V1.33487H140.968V3.49627H146.113V7.7582H147.848V10.0718H146.113V14.3033ZM140.968 5.80989V7.7582H143.556V5.80989H140.968ZM140.968 10.0718V11.9897H143.556V10.0718H140.968ZM126.904 3.80069H133.267V6.1752C132.11 8.5294 131.004 10.5284 129.948 12.1723H133.449V13.7858C133.368 17.378 132.79 20.4526 131.714 23.0098C132.607 23.8825 133.571 24.5421 134.606 24.9886C136.189 25.6583 138.645 26.054 141.973 26.1758C143.434 26.1758 145.423 26.1352 147.94 26.054L147.422 28.7634H143.769C138.29 28.7025 134.565 28.114 132.597 26.9977C131.846 26.5919 131.125 26.0743 130.435 25.4452C129.482 26.9064 128.284 28.1546 126.843 29.1896L125.443 26.7238C126.701 25.8308 127.757 24.6943 128.609 23.3142C127.432 21.6095 126.468 19.4379 125.717 16.7996L128.061 15.9167C128.467 17.6621 129.076 19.2045 129.887 20.544C130.476 18.7377 130.831 16.759 130.953 14.6077H126.6V12.5376C127.899 10.772 129.096 8.77294 130.192 6.5405H126.904V3.80069ZM122.368 13.3291C121.638 14.4048 121.008 15.2876 120.481 15.9776L119.537 12.8725C121.83 9.56444 123.515 5.65768 124.591 1.15221L127.209 2.36991C126.64 4.46028 125.96 6.40859 125.169 8.21483V29.3114H122.368V13.3291Z" fill="white"/>
<path d="M173.085 17.9868H165.657V19.5089C166.388 20.2396 167.261 20.9803 168.275 21.7312C169.777 20.7368 171.086 19.5901 172.202 18.2912L174.272 20.0873C173.156 21.163 171.857 22.1676 170.376 23.1011C172.101 24.1362 174.08 25.0596 176.312 25.8714L174.851 28.3981C171.32 26.9369 168.255 24.9683 165.657 22.4923V26.3889C165.657 28.1951 164.744 29.0983 162.917 29.0983H159.63L159.051 26.4802C160.086 26.602 161.06 26.6629 161.974 26.6629C162.583 26.6629 162.887 26.3382 162.887 25.6887V23.3142C160.472 24.9784 157.59 26.5107 154.241 27.911L153.115 25.3234C155.144 24.5928 156.971 23.8216 158.595 23.0098C157.316 22.1371 155.966 21.4268 154.546 20.8788L155.946 18.8392C157.367 19.4075 158.706 20.1279 159.965 21.0006L158.655 22.9794C160.198 22.2082 161.608 21.4065 162.887 20.5744V17.9868H155.55V15.6428H162.887V13.9075H153.511C153.328 20.2598 152.313 25.3437 150.466 29.1592L148.275 27.2413C149.837 23.8926 150.659 19.2045 150.74 13.1769V3.03964H162.187C161.882 2.49167 161.578 1.97416 161.274 1.48708L164.287 1C164.511 1.44649 164.805 2.12637 165.17 3.03964H175.612V5.62723H165.657V7.39289H173.085V11.533H175.916V13.9075H173.085V17.9868ZM153.541 11.533H162.887V9.73695H155.733V7.39289H162.887V5.62723H153.541V11.533ZM165.657 9.73695V11.533H170.345V9.73695H165.657ZM170.345 13.9075H165.657V15.6428H170.345V13.9075Z" fill="white"/>
<path d="M205.232 20.2091L202.371 20.6657V29.1592H199.448V21.1528L190.285 22.6141L189.859 19.8134L199.448 18.2608V1.27398H202.371V17.8042L204.776 17.4084L205.232 20.2091ZM193.238 2.82654C195.267 4.26748 197.023 5.73886 198.505 7.24068L196.526 9.24987C195.288 7.89011 193.512 6.40859 191.198 4.80529L193.238 2.82654ZM192.325 9.82828C194.435 11.3301 196.231 12.8725 197.713 14.4555L195.643 16.4951C194.344 15.0542 192.558 13.4915 190.285 11.807L192.325 9.82828ZM177.682 9.1281H182.431V5.32281C180.645 5.56635 179.255 5.72871 178.26 5.80989L177.712 3.10052C181.629 2.7961 185.14 2.18725 188.245 1.27398L189.25 3.98335C187.911 4.34866 186.612 4.64293 185.353 4.86618V9.1281H189.25V11.8984H185.353V13.0856C186.977 14.3033 188.621 15.7036 190.285 17.2866L188.672 19.7525C187.231 17.9868 186.125 16.6879 185.353 15.8559V29.1592H182.431V16.0385C181.274 18.7783 179.803 21.2239 178.017 23.3751L176.738 20.1482C179.194 17.6925 180.98 14.9426 182.096 11.8984H177.682V9.1281Z" fill="white"/>
<path d="M206.754 28.9156L206.146 26.2062C206.937 26.328 207.678 26.3889 208.368 26.3889C209.098 26.3889 209.464 25.9729 209.464 25.1408V18.687C208.124 19.2147 207.018 19.6206 206.146 19.9047L205.415 17.0431C206.754 16.7387 208.104 16.3429 209.464 15.8559V9.28031H206.024V6.51006H209.464V1.18265H212.264V6.51006H215.248V9.28031H212.264V14.699C213.218 14.2526 214.233 13.735 215.309 13.1465V15.9776C214.517 16.4038 213.502 16.9112 212.264 17.4997V25.8714C212.264 27.9009 211.29 28.9156 209.342 28.9156H206.754ZM216.1 5.32281H223.224V1.24354H226.024V5.32281H233.148V8.09306H226.024V12.4463H231.991V15.0035C230.997 18.2101 229.363 20.9397 227.09 23.1925C228.998 24.6131 231.301 25.8511 234 26.9064L232.509 29.2809C229.647 28.0226 227.181 26.5817 225.111 24.9581C222.818 26.7441 220.017 28.2154 216.709 29.3723L215.339 26.9673C218.444 25.9729 221.022 24.7044 223.071 23.162C220.697 20.7875 219.104 18.1187 218.292 15.1557H216.709V12.4463H223.224V8.09306H216.1V5.32281ZM221.001 15.1557C221.732 17.5302 223.082 19.6409 225.05 21.4877C226.877 19.6611 228.247 17.5505 229.16 15.1557H221.001Z" fill="white"/>
</g>
<defs>
<filter id="filter0_d_685_1698" x="0" y="1" width="236" height="30.4639" filterUnits="userSpaceOnUse" color-interpolation-filters="sRGB">
<feFlood flood-opacity="0" result="BackgroundImageFix"/>
<feColorMatrix in="SourceAlpha" type="matrix" values="0 0 0 0 0 0 0 0 0 0 0 0 0 0 0 0 0 0 127 0" result="hardAlpha"/>
<feOffset dx="1" dy="1"/>
<feGaussianBlur stdDeviation="0.5"/>
<feComposite in2="hardAlpha" operator="out"/>
<feColorMatrix type="matrix" values="0 0 0 0 0 0 0 0 0 0 0 0 0 0 0 0 0 0 0.1 0"/>
<feBlend mode="normal" in2="BackgroundImageFix" result="effect1_dropShadow_685_1698"/>
<feBlend mode="normal" in="SourceGraphic" in2="effect1_dropShadow_685_1698" result="shape"/>
</filter>
</defs>
</svg>
