<svg width="176" height="48" viewBox="0 0 176 48" fill="none" xmlns="http://www.w3.org/2000/svg">
<path fill-rule="evenodd" clip-rule="evenodd" d="M152.145 48H157.474L171.197 30.2222L168.476 26.6682L152.145 48ZM166.587 24.2007L148.059 0H27.1997L8.67192 24.2007L26.8925 48H148.366L166.587 24.2007ZM170.365 24.2007L173.094 27.7648L176 24L173.248 20.435L170.365 24.2007ZM171.351 17.9776L168.476 21.7331L151.837 0H157.474L171.351 17.9776ZM6.7828 26.6682L23.1142 48H18.5263L4.43097 29.7401L6.7828 26.6682ZM6.7828 21.7331L23.4215 0H18.5263L4.27671 18.4597L6.7828 21.7331ZM2.37979 20.9171L4.89367 24.2007L2.53406 27.2828L0 24L2.37979 20.9171Z" fill="url(#paint0_linear_656_4799)"/>
<defs>
<linearGradient id="paint0_linear_656_4799" x1="0" y1="0" x2="178.619" y2="13.5982" gradientUnits="userSpaceOnUse">
<stop offset="0.416667" stop-color="#06BCBC"/>
<stop offset="1" stop-color="#0099CC"/>
</linearGradient>
</defs>
</svg>
